<svg width="100%" height="100%" viewBox="0 0 40 28" fill="none" xmlns="http://www.w3.org/2000/svg">
    <path d="M37.3113 2.02143L37.2487 1H6.8H2.64681L2 3.13571L2.44255 5.45714L2.54468 7.12857L2.74894 8.15L3.25957 9.82143L3.08936 10.1L3.25957 11.1214V11.9571L3.15745 12.8857L2.88511 13.7214L3.08936 14.7429L3.25957 15.6714L3.1234 16.3214L2.95319 16.8786L2.51064 18.8286L2.91915 20.0357L3.19149 22.45L2.91915 23.6571L2.61277 25.5143V25.8857L2.85106 26.35L3.15745 26.5357L3.42979 27H6.8H21.68H36.56L37.0609 26.6286L36.873 25.8857L36.7791 25.2357L36.873 24.4L37.0296 24.1214V23.6571L37.0922 23.0071L37.2174 22.7286L37.1548 22.5429V22.3571L37.1235 21.9857L37.28 21.2429L37.1235 20.7786V20.4071L37.1548 20.0357L37.1235 19.2L37.1548 18.4571L37.0296 17.7143L37.1548 16.9714L36.967 16.5071L37.4991 14.9286L37.7183 14.0929L37.8748 12.9786L37.8435 12.7929H37.7496L37.687 12.6071L37.8122 11.9571L38 11.4L37.9061 11.2143L38 10.8429L37.7496 9.82143V9.26429L37.7183 8.33571L37.7496 8.05714V7.77857L37.5617 7.31429L37.4991 6.85L37.4052 6.29286L37.5617 5.92143V4.71429L37.4991 4.06429V3.50714L37.4365 3.13571V2.76429L37.3113 2.02143Z" stroke-width="2"/>
</svg>
