<svg width="100%" height="100%" viewBox="0 0 150 28" fill="none" xmlns="http://www.w3.org/2000/svg">
    <path d="M145.207 2.02143L144.953 1H21.4667H4.62317L2 3.13571L3.7948 5.45714L4.20898 7.12857L5.03735 8.15L7.10827 9.82143L6.41797 10.1L7.10827 11.1214V11.9571L6.69409 12.8857L5.5896 13.7214L6.41797 14.7429L7.10827 15.6714L6.55603 16.3214L5.86572 16.8786L4.07092 18.8286L5.72766 20.0357L6.83215 22.45L5.72766 23.6571L4.48511 25.5143V25.8857L5.45154 26.35L6.69409 26.5357L7.79858 27H21.4667H81.8133H142.16L144.191 26.6286L143.43 25.8857L143.049 25.2357L143.43 24.4L144.064 24.1214V23.6571L144.318 23.0071L144.826 22.7286L144.572 22.5429V22.3571L144.445 21.9857L145.08 21.2429L144.445 20.7786V20.4071L144.572 20.0357L144.445 19.2L144.572 18.4571L144.064 17.7143L144.572 16.9714L143.81 16.5071L145.969 14.9286L146.857 14.0929L147.492 12.9786L147.365 12.7929H146.984L146.73 12.6071L147.238 11.9571L148 11.4L147.619 11.2143L148 10.8429L146.984 9.82143V9.26429L146.857 8.33571L146.984 8.05714V7.77857L146.223 7.31429L145.969 6.85L145.588 6.29286L146.223 5.92143V4.71429L145.969 4.06429V3.50714L145.715 3.13571V2.76429L145.207 2.02143Z" stroke-width="2"/>
</svg>
