<svg width="100%" height="100%" viewBox="0 0 100 28" fill="none" xmlns="http://www.w3.org/2000/svg">
    <path d="M96.1635 2.02143L95.9965 1H14.8H3.72482L2 3.13571L3.18014 5.45714L3.45248 7.12857L3.99716 8.15L5.35887 9.82143L4.90496 10.1L5.35887 11.1214V11.9571L5.08652 12.8857L4.36028 13.7214L4.90496 14.7429L5.35887 15.6714L4.99574 16.3214L4.54184 16.8786L3.3617 18.8286L4.45106 20.0357L5.1773 22.45L4.45106 23.6571L3.63404 25.5143V25.8857L4.2695 26.35L5.08652 26.5357L5.81277 27H14.8H54.48H94.16L95.4957 26.6286L94.9948 25.8857L94.7443 25.2357L94.9948 24.4L95.4122 24.1214V23.6571L95.5791 23.0071L95.913 22.7286L95.7461 22.5429V22.3571L95.6626 21.9857L96.08 21.2429L95.6626 20.7786V20.4071L95.7461 20.0357L95.6626 19.2L95.7461 18.4571L95.4122 17.7143L95.7461 16.9714L95.2452 16.5071L96.6644 14.9286L97.2487 14.0929L97.6661 12.9786L97.5826 12.7929H97.3322L97.1652 12.6071L97.4991 11.9571L98 11.4L97.7496 11.2143L98 10.8429L97.3322 9.82143V9.26429L97.2487 8.33571L97.3322 8.05714V7.77857L96.8313 7.31429L96.6644 6.85L96.4139 6.29286L96.8313 5.92143V4.71429L96.6644 4.06429V3.50714L96.4974 3.13571V2.76429L96.1635 2.02143Z"/>
</svg>
