<svg width="100%" height="100%" viewBox="0 0 200 28" fill="none" xmlns="http://www.w3.org/2000/svg">
    <path d="M194.25 2.02143L193.91 1H28.1333H5.52151L2 3.13571L4.40946 5.45714L4.96548 7.12857L6.07754 8.15L8.85768 9.82143L7.93097 10.1L8.85768 11.1214V11.9571L8.30165 12.8857L6.81891 13.7214L7.93097 14.7429L8.85768 15.6714L8.11631 16.3214L7.1896 16.8786L4.78014 18.8286L7.00426 20.0357L8.487 22.45L7.00426 23.6571L5.33617 25.5143V25.8857L6.63357 26.35L8.30165 26.5357L9.7844 27H28.1333H109.147H190.16L192.887 26.6286L191.864 25.8857L191.353 25.2357L191.864 24.4L192.717 24.1214V23.6571L193.057 23.0071L193.739 22.7286L193.398 22.5429V22.3571L193.228 21.9857L194.08 21.2429L193.228 20.7786V20.4071L193.398 20.0357L193.228 19.2L193.398 18.4571L192.717 17.7143L193.398 16.9714L192.376 16.5071L195.273 14.9286L196.466 14.0929L197.318 12.9786L197.148 12.7929H196.637L196.296 12.6071L196.977 11.9571L198 11.4L197.489 11.2143L198 10.8429L196.637 9.82143V9.26429L196.466 8.33571L196.637 8.05714V7.77857L195.614 7.31429L195.273 6.85L194.762 6.29286L195.614 5.92143V4.71429L195.273 4.06429V3.50714L194.932 3.13571V2.76429L194.25 2.02143Z" stroke-width="2"/>
</svg>



