<svg xmlns="http://www.w3.org/2000/svg" viewBox="0 0 297 150" fill="none">
    <path d="M293.625 62.1H292.46L291.341 61.204H290.534C290.221 61.4728 288.787 62.7271 288.429 62.8168L287.757 62.5032C287.488 62.772 286.458 63.6679 286.055 63.6231L285.517 63.3543L285.382 62.8616L285.114 61.9208C285.15 61.3638 285.225 60.8099 285.337 60.2632L285.651 57.8441C285.651 57.7993 285.651 57.7545 285.607 57.7545L285.517 57.3065C285.207 56.8628 284.846 56.4569 284.442 56.0969C284.442 56.0522 283.456 53.409 283.411 53.2298L282.471 52.5131C281.709 52.1995 280.947 52.1995 280.141 51.9755L279.469 51.6619L276.915 49.3323C276.68 48.9899 276.47 48.6305 276.288 48.2572C276.378 47.8989 275.975 46.6444 275.796 46.286C275.616 45.9277 275.258 45.3005 274.945 44.8525C274.556 44.5761 274.135 44.3503 273.69 44.1805C273.197 44.1805 272.704 44.3149 272.211 44.3149C271.719 44.3149 270.957 44.1805 270.42 44.1357L269.971 44.4941L269.792 45.3453C269.56 45.5495 269.244 45.6325 268.941 45.5692L268.583 45.3005C268.403 45.0765 268.448 44.1357 268.493 43.8669C268.538 43.5981 267.284 43.7773 266.791 43.6877L266.209 43.4637L265.939 43.3293C265.533 43.4628 265.093 43.4628 264.685 43.3293L264.193 42.8365H263.745C263.386 42.9261 262.983 43.1949 262.669 43.1054C262.356 43.0157 261.863 42.0302 261.773 41.7614C261.495 41.6658 261.211 41.591 260.922 41.5374L256.666 40.9998C256.263 40.955 254.919 42.2094 254.605 42.523C253.531 43.419 252.859 43.1054 251.559 42.7917L250.887 42.6126C249.558 42.5758 248.227 42.6056 246.9 42.7022C246.614 42.4655 246.397 42.1559 246.273 41.8062C246.138 41.4478 245.69 40.3726 245.287 40.1038L244.481 39.7454L240.449 36.1167L239.553 35.7136C239.214 35.2531 238.9 34.7746 238.612 34.28C238.488 33.9431 238.383 33.599 238.299 33.2496L238.03 32.4432C236.328 30.8305 235.521 30.5169 233.64 29.3521L233.505 28.9938L232.968 28.725L232.206 28.8593L231.4 28.6801C230.492 28.285 229.748 27.5888 229.294 26.709L228.398 26.3506C228.04 25.8578 227.458 25.2306 227.458 24.6035L226.83 24.2003C225.845 23.3491 225.307 19.6756 225.083 18.5556C225.069 18.3132 225.099 18.0702 225.173 17.8389C225.397 16.9877 225.307 17.0773 225.889 16.3605L226.159 16.0021L225.755 15.6437C225.155 15.5547 224.543 15.6006 223.963 15.7781L220.827 16.7637C220.111 17.3012 220.155 18.6452 219.483 19.2276C218.812 19.81 217.647 17.2117 217.199 16.8533L216.616 16.5397C216.447 16.4187 216.267 16.3138 216.079 16.2261C215.003 16.1365 215.048 16.0917 214.018 16.4053L213.57 16.4949C210.792 14.7925 211.599 17.1669 209.135 16.0917C208.284 14.9269 208.463 15.4197 207.388 15.1061L206.492 14.6581C205.96 14.5539 205.415 14.5387 204.879 14.6133L203.266 13.7621L201.609 13.9414C201.097 13.2766 200.437 12.7399 199.682 12.3734C199.061 12.5901 198.387 12.6058 197.756 12.4182L196.815 11.791H196.412L194.978 12.6422H194.486C193.545 12.1494 193.5 10.895 192.694 10.3127C191.888 9.73027 191.663 10.2679 191.305 10.2231C190.088 9.96692 188.912 9.54485 187.811 8.96868L186.153 8.8791L185.391 8.20712C185.257 7.71434 184.854 6.63915 184.361 6.41518L183.689 6.50475L182.256 5.78798C181.956 6.05215 181.625 6.27789 181.27 6.45996C180.822 6.63915 180.329 6.68395 179.881 6.81834C179.433 6.95274 177.552 7.9831 176.745 8.0279C175.939 8.07272 175.446 7.17675 174.685 7.26634L174.416 7.44553L173.923 9.01349C173.834 9.23748 173.386 9.41668 173.296 9.46145C171.863 9.99906 171.28 9.73027 169.802 9.32709L167.875 8.83431L166.89 8.43109C165.953 8.19325 164.981 8.13244 164.023 8.25192C163.664 7.9831 162.813 7.57992 162.365 7.66953C161.917 7.75913 161.469 9.01349 161.38 9.37189C161.29 9.73027 158.468 9.28229 157.885 9.05828L156.317 9.55108C156.048 9.86467 155.152 11.0742 154.794 11.2086L153.943 10.0439C153.405 9.28229 152.913 8.78949 151.927 8.83431H151.39C151.21 8.8791 151.031 9.10309 150.852 9.19269V9.32709C150.314 9.64068 149.642 10.1335 149.015 10.2231C148.388 10.3127 147.671 8.83431 147.537 8.3863L146.954 8.11752C146.417 8.07272 145.431 8.92389 144.983 8.69991C144.535 8.47591 143.37 7.84874 142.654 7.62472H141.713C141.578 7.62472 140.503 7.71435 140.458 7.66953L139.294 7.22155C138.709 6.69387 138.237 6.05397 137.905 5.33999C137.428 5.12557 136.896 5.06305 136.382 5.16079L135.396 5.42959C135.024 5.46688 134.65 5.48184 134.276 5.47439L133.694 5.6088L132.215 5.47439H132.081C130.859 5.07326 129.597 4.80298 128.318 4.66803C127.288 4.57842 125.406 4.7576 124.51 4.62321C124.42 4.62321 123.3 3.90642 123.121 3.86164C122.61 3.69493 122.086 3.57497 121.553 3.50324C120.881 3.36886 120.523 3.68244 119.896 3.72727H118.104C117.432 3.59283 116.76 3.18966 116.133 3.05525C115.505 2.92087 114.341 3.27925 113.893 3.45845L112.997 3.77203L111.832 3.95123C111.384 4.08565 110.981 4.44401 110.533 4.53362C109.099 4.89201 106.59 4.8472 105.067 4.93679L103.007 4.71282L101.708 4.17525L101.17 3.50324C100.901 3.18967 100.588 2.87608 100.319 2.51769C100.05 2.15929 100.05 1.93531 99.8707 1.7113L99.2437 1.30811H99.2884L101.08 5.20559L101.17 5.56401L101.394 5.92239L101.528 6.32558L101.708 6.68396L101.932 7.44553V7.93833L101.708 8.3863L101.394 8.65511L100.991 8.7447H100.498L99.6022 8.29673H99.1988L98.8854 8.5655L98.2579 9.14789L96.959 10.1783L96.6454 10.4919L96.5111 10.7607L96.6454 12.0598V12.5078L96.4215 13.0006L96.1527 13.3141L95.3906 13.6726L93.375 14.2549L92.5239 14.4341H90.6425L87.82 14.3445H87.3722L85.4456 14.2549H84.9978L83.5195 14.1653H82.1303L81.5933 14.0757H80.2044L79.6665 13.9861L77.2474 13.8966H76.307L76.1276 14.9269L75.9485 15.4197L75.3213 16.8533L75.097 17.2564H74.1568L72.0955 16.9877L71.5583 16.8085L68.7357 15.5093H68.3324L65.5551 17.3461L64.8384 17.7492L64.0318 17.9733H63.5391L61.6128 17.1669L61.1648 16.8981L60.3133 17.0773L59.4621 17.1669L57.8944 16.8981L55.0719 16.0917L54.5347 16.0021L54.2211 16.2709L53.8176 17.2117L53.6384 17.7492L53.4144 18.1524L53.1907 18.6004L52.8771 19.586L50.7712 20.034L49.0243 20.258L48.1733 20.3924L47.3668 20.6612L46.2915 21.2435L44.3205 21.9604L42.1254 23.1251L41.8116 23.3939L40.7813 24.0211L40.1093 24.5586L39.5268 25.2306L39.2134 25.5443L38.4071 26.6194L36.3909 28.9041L35.0918 29.9793L34.375 30.3825L33.9719 30.4721H33.0758L32.0006 30.2929L31.06 29.4417L30.6119 29.3073L29.716 29.3969L28.9097 29.6657H28.5063L27.7 29.8897L27.2969 30.069L26.132 30.4721H25.6841L24.4743 30.8305H24.0267L22.0106 31.4577L21.1146 31.5472H19.2332L18.2476 31.4577L17.665 31.2785L16.6347 31.1441H14.2604L13.678 30.9649L13.3198 31.1889L13.0956 31.5921L12.4684 32.9808L12.334 33.5632L12.0653 33.9664L11.3485 34.3696L10.1389 34.728H9.69092L9.1984 34.6384L8.83988 34.8176L8.75022 35.3551L8.57098 35.8479L8.30213 36.2064L7.49585 36.4752L6.19673 36.6991L4.71823 36.5647L4.53885 36.9679V38.7599L4.31514 39.835L4.04643 40.1487L3.68791 40.4174L2.34398 41.3134L1 42.0302L1.08966 42.747L2.2097 46.2413H2.70231L3.59829 46.1517H4.09129L5.03189 46.5548L5.39022 46.8237L6.19659 47.2716L7.27172 47.63L7.67504 47.8989L8.03351 48.1228L8.43655 48.8396L8.70541 49.646L8.88478 49.9596L9.01893 50.3627L9.42221 51.0795H9.82548L10.2287 50.9451H11.6174L12.9166 50.766H14.7531L15.1565 50.542L15.5148 50.4076L16.5004 49.8252L16.9931 49.0188L17.486 47.5852L19.6362 48.0332L20.7562 48.3468L21.1593 48.6156L21.3834 48.9292L21.6073 49.7356V51.0347L21.697 52.3339V52.8266L21.8315 53.185L22.8171 53.5882L23.1305 53.8571L24.2058 55.1114L24.609 55.8282L24.7434 56.1866V56.6794L24.2506 58.2921L23.3993 60.1737L23.265 60.756L22.9067 62.772V63.6679L23.1305 64.0264L23.5339 64.2503H23.9817L24.4299 64.1607L24.9674 64.2503L25.2809 64.5639L25.3706 64.9671V65.4599L25.0572 66.5351L25.3257 67.2966L25.7738 67.9686L27.7897 68.7302L28.9994 69.447L29.5816 70.0294L29.94 70.7461L30.0743 71.1494V71.5973L29.8953 72.6277L29.7161 73.1653L29.6263 73.6581L29.1338 74.4645L28.8201 74.7333L28.5512 75.0916L27.2522 76.1668L26.1769 76.7491L25.5049 77.2868L25.2362 77.6004L25.0571 78.0931L24.9673 78.5859V79.0339L25.1018 79.3923L25.3705 79.7059L25.9081 79.8403H26.804L30.3881 78.7203L31.2839 78.6308L32.5384 78.2723L33.9719 77.5108L34.3751 77.3764L34.7783 77.4659L35.2262 77.6451L36.3463 78.4515L37.5558 79.6163L37.9589 79.8403L39.0344 80.1091L39.8854 80.0195L41.0501 79.5715L41.4085 79.3475H41.9013L42.9766 79.5715L43.9173 80.0195L44.3653 79.9299H44.8581L45.2612 80.1539L46.2915 81.0051L48.2181 81.7667L48.7107 81.8562H49.1587L53.4145 81.9906L54.4003 82.1698L57.3568 83.7826L58.3425 84.1858L59.5521 84.9025L60.9855 85.4849L62.1056 85.8433L63.091 85.9329H63.5391L63.8973 85.7537L64.2109 85.4849L64.9276 85.1265L65.7788 84.9474L66.2715 85.0369V85.3057L65.4205 86.2913L65.1966 86.6945L64.5693 88.0833L63.9421 90.144V90.5472L63.8526 91.936L63.7631 92.4288L63.6285 92.8767L62.7774 93.056L60.4478 92.9215L58.9248 92.7423L57.0432 92.6527L55.2961 92.8319L54.4449 93.0112L53.5039 93.8175L53.0112 94.6239L52.8322 95.1167L52.7426 95.6543V96.0575L53.1009 96.1471H53.549L54.1314 96.3262L53.9522 96.8639V98.2078L56.1473 97.939H58.8799L60.8512 98.163L62.5084 98.6558L63.0462 98.7454L63.4047 98.5662L63.7181 98.2974L64.7934 97.7598L65.107 97.491L65.5102 97.3566L66.5407 97.5358L67.8846 98.163L68.9152 98.5662L69.6764 99.059L70.3483 99.6413L70.6171 99.9101L70.7967 100.313V100.716L70.4379 102.732L70.214 103.225L69.1835 104.659L68.9596 105.152L68.6462 106.227L68.5566 107.616L68.4667 108.108L68.1536 109.228L67.1679 110.796L66.3616 111.871L66.1373 112.275L65.9134 112.723V113.305L66.1823 113.619H67.5261L68.7357 112.409H69.6317L70.1245 112.588L70.4379 112.857L70.8412 113.574L70.9755 113.977L71.155 114.335L71.4237 114.649L71.8715 114.783L72.2746 114.694L73.7087 114.783L74.2459 114.962L75.2766 115.142H76.2171L77.0684 115.052L78.2781 114.694L78.6363 114.515L78.9498 114.246L80.025 113.663L80.8315 113.439L81.6826 113.35L84.5499 113.574L88.0439 114.291L90.1495 114.918H90.5975L92.7926 114.649L95.6148 113.977L96.9591 113.842H97.8997L98.3928 113.932L100.543 114.559H101.484L101.842 114.47L102.603 114.066L103.544 113.305L103.858 112.991L104.171 112.767L104.574 112.678L105.918 112.543L107.083 112.185L107.8 111.827L108.069 111.513L109.099 110.796L109.503 110.662L109.816 110.975L109.95 111.379V111.782L109.681 113.26L109.592 115.142L109.279 117.113L109.099 117.606L109.01 118.143L108.83 118.681L108.383 119.532L107.352 119.353L105.157 118.681L104.216 118.546H103.768L103.365 118.681L103.052 118.95L102.738 119.756L102.603 120.338L102.693 121.19L103.007 121.458L104.53 122.041L105.56 122.309L106.098 122.937L106.456 124.101V124.549L106.591 124.953V125.356L106.725 125.759V126.655L106.859 127.058L107.039 127.416L107.71 127.954L108.159 128.178L110.891 128.984L111.877 129.433L112.952 130.104L113.624 130.687L114.072 131.359L113.938 131.672L113.714 132.076L113.445 132.389L112.952 133.195L112.639 133.509L112.459 133.957L112.37 134.495V135.391L111.429 138.571L110.847 139.243L109.861 139.915L109.458 140.856L109.323 141.304L109.726 141.438L119.762 138.751L120.031 138.571L120.299 138.258L121.24 137.496L121.553 137.362L122.18 136.824L122.494 136.511L123.749 135.48L124.241 135.704L125.227 136.555L125.988 137.496L126.257 137.631L126.885 137.138L127.601 136.735L128.004 136.645H128.497L128.945 136.824L129.124 137.183L129.348 137.944V138.437L128.945 139.378L128.497 140.229L128.094 141.259L128.004 141.752V142.648L128.139 143.051V143.454L128.318 143.813L129.124 144.306L130.2 144.664H130.647L132.26 144.261L133.112 144.171H134.052L134.903 144.082L136.785 144.216L137.771 144.395H138.263L140.324 144.888L141.399 145.202L143.147 146.142L144.177 146.411H144.67L145.162 146.545L146.013 146.456H147.402L148.253 146.366L149.463 146.142L152.061 145.873L153.271 145.56L155.421 144.44L156.094 144.037L156.362 143.678L157.348 142.962L158.064 142.558L158.378 142.334L159.095 141.931H159.991L160.484 142.066L161.469 142.469L162.096 143.051L162.589 143.678L162.813 144.037L163.037 144.798V145.649L163.171 146.053L163.888 147.486L165.098 148.248L165.546 148.427L166.173 148.875L167.427 146.904V146.635L167.696 146.142L168.234 145.157C168.705 144.558 169.213 143.989 169.757 143.454C170.373 142.869 171.032 142.33 171.728 141.842L172.086 141.752L172.669 141.214L173.968 141.349C174.506 141.125 175.132 140.901 175.402 140.363C175.67 139.826 175.177 139.154 175.581 138.482C175.984 137.81 176.342 137.765 176.611 137.407C176.666 137.205 176.741 137.01 176.835 136.824V136.107C176.7 135.794 176.342 135.57 176.253 135.256C176.092 134.851 175.972 134.431 175.894 134.002L175.088 133.375C175.088 133.33 174.998 132.971 174.998 132.927L175.357 129.567C175.446 128.984 176.118 128.671 176.656 128.626L176.835 128.716C177.417 128.447 177.283 128.626 177.686 128.626L178.717 128.536C179.547 128.4 180.369 128.221 181.181 127.999L182.659 127.282C183.445 126.651 184.139 125.912 184.72 125.087L187.542 124.012C188.096 123.997 188.65 124.027 189.2 124.101C189.851 123.522 190.815 123.467 191.529 123.967C191.637 123.917 191.73 123.84 191.798 123.743L192.022 123.34L192.246 122.981C192.38 122.802 192.38 122.713 192.515 122.578C192.649 122.444 193.59 121.1 194.083 120.338C194.576 119.577 195.247 117.337 195.919 117.292C196.653 117.295 197.386 117.25 198.114 117.158C199.055 116.934 200.623 116.306 201.609 115.948C202.594 115.59 202.46 115.903 202.773 115.634H203.087C203.311 115.5 203.849 115.321 204.028 115.186L205.954 113.663C206.299 113.577 206.612 113.39 206.85 113.126C207.209 112.678 207.433 111.961 207.925 111.647C208.418 111.334 209.001 111.289 209.269 110.931L209.673 110.169C210.121 109.363 210.613 109.363 211.465 109.094H211.644L212.943 108.735C213.167 108.646 213.391 108.422 213.615 108.332C213.839 108.243 214.511 108.601 215.048 108.467C215.586 108.332 215.989 107.212 216.258 106.63C216.526 106.047 216.885 106.137 216.975 106.092C218.139 105.868 220.066 105.599 221.096 104.927C221.673 104.478 222.199 103.968 222.664 103.404L223.067 102.956C223.918 102.24 226.203 102.464 227.189 102.464L228.219 102.105L228.353 101.971L228.712 101.836C229.196 101.361 229.645 100.852 230.056 100.313C230.231 100.107 230.381 99.8818 230.504 99.6412C230.683 99.3277 230.683 98.8797 230.862 98.5213C231.041 98.1629 232.072 97.6701 232.833 97.5805L233.954 96.3261L234.222 96.2365C235.297 95.7438 236.059 97.4013 237.448 96.5053L239.15 94.2206C239.561 93.8369 240.03 93.5195 240.539 93.2798C241.393 93.0235 242.26 92.8141 243.137 92.6526L244.347 92.787L244.705 93.1006V93.3694L244.526 93.6382L244.66 94.1758L245.825 94.6238V94.9374L245.377 95.1166L245.153 95.3853L245.377 95.6542V95.923L244.974 96.1469H244.705L244.571 96.3261C244.666 96.4673 244.788 96.5889 244.929 96.6846V96.8638L244.75 96.9533H243.944L243.764 97.0429V97.2669C244.033 97.5357 244.884 98.4765 245.243 98.4317C246.33 97.8565 247.594 97.7124 248.782 98.0285L249.588 98.3422C250.677 98.4246 251.769 98.4395 252.859 98.387C253.127 98.3422 253.441 98.1181 253.71 98.1181C253.978 98.1181 256.577 97.9389 257.07 97.6253C257.803 97.0501 258.506 96.437 259.175 95.7886L260.654 94.5342C260.936 94.047 261.047 93.479 260.967 92.9215C261.505 91.8463 262.132 92.2495 262.939 91.6671C263.745 91.0847 262.804 89.9648 263.252 89.2032C263.7 88.4416 264.148 88.3072 264.372 87.7696C264.596 87.232 264.641 86.2465 265.088 85.6193C265.536 84.9921 267.104 83.6929 267.597 82.573C267.963 81.8265 267.913 80.9429 267.463 80.2434C267.745 79.8886 267.943 79.4753 268.045 79.0339C268.09 78.9891 268.09 78.8995 268.135 78.8547C270.285 76.122 273.824 76.8387 276.915 77.0179L277.587 76.9283C278.08 76.7043 279.559 75.9875 280.006 76.0323C281.442 76.2448 282.863 76.5441 284.263 76.9283L286.055 77.4211C286.726 77.5107 288.339 76.9731 289.056 76.9283H290.534C290.937 76.6147 291.385 76.2115 291.789 75.9427C292.192 75.6739 294.969 75.5395 295.686 75.5844L295.955 75.4052C295.955 75.3604 296 74.8676 296 74.8228C295.747 73.867 294.99 73.1272 294.029 72.8964L293.849 72.6276C293.715 72.1797 294.029 71.8213 294.073 71.4181V70.9253C294.029 70.4773 295.014 69.8949 295.193 69.2677L295.104 68.6405C295.022 68.2013 294.871 67.7779 294.656 67.3862C294.029 66.087 294.476 65.3702 294.925 64.1159L294.745 63.4887C294.387 63.2647 293.625 62.5927 293.625 62.0999" stroke="white" stroke-linejoin="round"/>
</svg>