<svg width="25" height="21" viewBox="0 0 25 21" fill="white" xmlns="http://www.w3.org/2000/svg">
<path d="M23.2031 18.2293V7.39263L22.2656 8.3488C19.7656 10.3408 17.8125 11.9345 16.3281 13.1297C15.8594 13.5281 15.4688 13.8468 15.1562 14.0859C14.8438 14.3249 14.4531 14.5639 13.9844 14.803C13.5156 15.042 13.0469 15.2014 12.5781 15.1217H12.5C12.0312 15.1217 11.5625 15.042 11.0938 14.803C10.5469 14.5639 10.1562 14.3249 9.92188 14.0859C9.60938 13.8468 9.21875 13.5281 8.75 13.1297C7.26562 11.8548 5.3125 10.2612 2.8125 8.3488C2.5 8.10976 2.10938 7.79104 1.875 7.39263V18.309C1.875 18.3886 1.95312 18.548 2.03125 18.6277C2.10938 18.7074 2.26562 18.7871 2.34375 18.7871H22.8906C22.9688 18.7871 23.125 18.7074 23.2031 18.6277C23.2812 18.548 23.2031 18.3886 23.2031 18.2293ZM23.2031 3.32888V2.93048V2.77111V2.61175C23.2031 2.61175 23.2031 2.53207 23.125 2.45239C23.0469 2.37271 23.0469 2.37271 22.9688 2.37271C22.9688 2.37271 22.8906 2.37271 22.7344 2.29303H2.1875C2.10938 2.29303 2.03125 2.37271 1.95312 2.45239C1.875 2.61175 1.79688 2.69143 1.79688 2.77111C1.79688 4.36474 2.5 5.71932 3.90625 6.83486C5.70312 8.26912 7.57812 9.78307 9.45312 11.297C9.53125 11.3767 9.6875 11.4564 9.92188 11.6954C10.1562 11.9345 10.3906 12.0938 10.5469 12.2532C10.7031 12.3329 10.9375 12.4922 11.1719 12.6516C11.4062 12.811 11.6406 12.9703 11.875 13.05C12.1094 13.1297 12.2656 13.2094 12.5 13.2094C12.6562 13.2094 12.8906 13.1297 13.125 13.05C13.3594 12.9703 13.5938 12.811 13.8281 12.6516C14.0625 12.4922 14.2969 12.3329 14.4531 12.2532C14.6094 12.1735 14.8437 11.9345 15.0781 11.6954C15.3125 11.4564 15.4688 11.297 15.5469 11.297C17.5 9.70339 19.375 8.26912 21.1719 6.83486C21.6406 6.43645 22.1094 5.87868 22.5781 5.16155C23.0469 4.44442 23.2031 3.88665 23.2031 3.32888ZM25 2.77111V18.2293C25 18.8667 24.7656 19.4245 24.375 19.8229C23.9062 20.301 23.4375 20.4604 22.8125 20.54H2.1875C1.5625 20.54 1.09375 20.301 0.625 19.8229C0.15625 19.3448 0 18.8667 0 18.2293V2.77111C0 2.13366 0.234375 1.5759 0.625 1.17749C1.01562 0.779083 1.5625 0.540039 2.1875 0.540039H22.7344C23.3594 0.540039 23.9062 0.779083 24.2969 1.17749C24.6875 1.5759 25 2.13366 25 2.77111Z"/>
</svg>