<svg width="25" height="25" viewBox="0 0 25 25" fill="white" xmlns="http://www.w3.org/2000/svg">
<path d="M16.6569 12.4858C16.6569 11.3905 16.2583 10.4531 15.4609 9.67338C14.6636 8.8937 13.6814 8.50387 12.5146 8.50387C11.3477 8.50387 10.3656 8.8937 9.56826 9.67338C8.77091 10.4531 8.36251 11.3905 8.34306 12.4858C8.32361 13.581 8.73201 14.5185 9.56826 15.2982C10.4045 16.0779 11.3866 16.4677 12.5146 16.4677C13.6426 16.4677 14.6247 16.0779 15.4609 15.2982C16.2972 14.5185 16.6958 13.581 16.6569 12.4858ZM18.9032 12.4858C18.9032 14.1751 18.2808 15.623 17.0362 16.8297C15.7915 18.0363 14.2843 18.6304 12.5146 18.6118C10.7448 18.5932 9.22793 17.9992 7.96383 16.8297C6.69973 15.6602 6.0774 14.2122 6.09685 12.4858C6.1163 10.7594 6.73862 9.31139 7.96383 8.14187C9.18903 6.97236 10.706 6.37832 12.5146 6.35976C14.3232 6.3412 15.8304 6.93523 17.0362 8.14187C18.2419 9.34851 18.8643 10.7965 18.9032 12.4858ZM20.6826 6.10915C20.6826 6.49899 20.5368 6.83313 20.245 7.11159C19.9533 7.39004 19.5935 7.52927 19.1657 7.52927C18.7378 7.52927 18.3878 7.39004 18.1155 7.11159C17.8433 6.83313 17.6974 6.49899 17.6779 6.10915C17.6585 5.71931 17.8044 5.38516 18.1155 5.10671C18.4267 4.82825 18.7767 4.68903 19.1657 4.68903C19.5546 4.68903 19.9144 4.82825 20.245 5.10671C20.5757 5.38516 20.7215 5.71931 20.6826 6.10915ZM12.5146 2.68415H9.53909C9.15014 2.68415 8.62505 2.70271 7.96383 2.73984C7.30261 2.77697 6.74835 2.82337 6.30105 2.87907C5.85375 2.93476 5.4648 3.03686 5.13419 3.18537C4.58965 3.38957 4.11319 3.68659 3.70478 4.07642C3.29638 4.46626 2.9755 4.92107 2.74212 5.44086C2.62544 5.73788 2.5282 6.10915 2.45041 6.55468C2.37262 7.00021 2.31427 7.53855 2.27538 8.16972C2.23648 8.80089 2.22676 9.29282 2.24621 9.64553C2.26566 9.99824 2.26566 10.5459 2.24621 11.2884C2.22676 12.031 2.22676 12.4301 2.24621 12.4858C2.26566 12.5415 2.26566 12.9406 2.24621 13.6831C2.22676 14.4257 2.22676 14.9733 2.24621 15.326C2.26566 15.6787 2.27538 16.1707 2.27538 16.8018C2.27538 17.433 2.33372 17.9714 2.45041 18.4169C2.56709 18.8624 2.66433 19.2337 2.74212 19.5307C2.9755 20.0505 3.29638 20.5053 3.70478 20.8951C4.11319 21.285 4.58965 21.582 5.13419 21.7862C5.44535 21.8976 5.83431 21.9997 6.30105 22.0925C6.76779 22.1853 7.32205 22.2317 7.96383 22.2317C8.6056 22.2317 9.13069 22.2503 9.53909 22.2874C9.94749 22.3245 10.5212 22.3245 11.2602 22.2874C11.9992 22.2503 12.4173 22.2503 12.5146 22.2874C12.6118 22.3245 13.0202 22.3245 13.7398 22.2874C14.4594 22.2503 15.0331 22.2503 15.4609 22.2874C15.8888 22.3245 16.4138 22.306 17.0362 22.2317C17.6585 22.1575 18.2225 22.1111 18.7281 22.0925C19.2338 22.0739 19.613 21.9718 19.8658 21.7862C20.4103 21.582 20.8965 21.285 21.3244 20.8951C21.7522 20.5053 22.0634 20.0505 22.2579 19.5307C22.3746 19.2337 22.4718 18.8624 22.5496 18.4169C22.6274 17.9714 22.6857 17.433 22.7246 16.8018C22.7635 16.1707 22.7732 15.6787 22.7538 15.326C22.7343 14.9733 22.7343 14.4257 22.7538 13.6831C22.7732 12.9406 22.7732 12.5415 22.7538 12.4858C22.7343 12.4301 22.7343 12.031 22.7538 11.2884C22.7732 10.5459 22.7732 9.99824 22.7538 9.64553C22.7343 9.29282 22.7246 8.80089 22.7246 8.16972C22.7246 7.53855 22.6663 7.00021 22.5496 6.55468C22.4329 6.10915 22.3357 5.73788 22.2579 5.44086C22.044 4.92107 21.7328 4.46626 21.3244 4.07642C20.916 3.68659 20.4298 3.38957 19.8658 3.18537C19.5546 3.07398 19.1754 2.97188 18.7281 2.87907C18.2808 2.78625 17.7168 2.73984 17.0362 2.73984C16.3555 2.73984 15.8304 2.72127 15.4609 2.68415C15.0914 2.64702 14.5177 2.64702 13.7398 2.68415C12.9619 2.72127 12.5535 2.72127 12.5146 2.68415ZM25 12.4858C25 14.8619 24.9708 16.5048 24.9125 17.4144C24.8152 19.5678 24.1443 21.2386 22.8997 22.4266C21.655 23.6147 19.9144 24.2552 17.6779 24.348C16.7056 24.4037 14.9844 24.4315 12.5146 24.4315C10.0447 24.4315 8.32361 24.4037 7.35123 24.348C5.09529 24.2366 3.345 23.5962 2.10035 22.4266C0.855698 21.2571 0.184753 19.5864 0.0875146 17.4144C0.0291715 16.5048 0 14.8619 0 12.4858C0 10.1096 0.0291715 8.46674 0.0875146 7.55712C0.184753 5.40373 0.855698 3.733 2.10035 2.54492C3.345 1.35684 5.09529 0.716394 7.35123 0.623576C8.30416 0.567885 10.0253 0.540039 12.5146 0.540039C15.0039 0.540039 16.725 0.567885 17.6779 0.623576C19.9339 0.734958 21.6744 1.37541 22.8997 2.54492C24.1249 3.71443 24.7958 5.38516 24.9125 7.55712C24.9708 8.46674 25 10.1096 25 12.4858Z"/>
</svg>
