<svg width="25" height="19" viewBox="0 0 25 19" fill="white" xmlns="http://www.w3.org/2000/svg">
<path d="M9.92543 12.8383L16.6743 9.28436L9.92543 5.67924V12.8383ZM12.5 0.540039C14.0664 0.540039 15.5745 0.565607 17.0242 0.616743C18.474 0.66788 19.5405 0.710494 20.2237 0.744585L21.2485 0.795721L21.4735 0.821289C21.6235 0.838334 21.7318 0.85538 21.7984 0.872425C21.8651 0.889471 21.9734 0.906516 22.1234 0.923562C22.2734 0.940607 22.4067 0.983221 22.5233 1.0514C22.64 1.11958 22.7733 1.17924 22.9233 1.23038C23.0732 1.28152 23.2149 1.37527 23.3482 1.51163C23.4815 1.64799 23.6148 1.77583 23.7481 1.89515C23.8148 1.94629 23.8898 2.03152 23.9731 2.15083C24.0564 2.27015 24.1897 2.5514 24.373 2.99458C24.5563 3.43777 24.6813 3.91504 24.748 4.4264C24.8146 5.04004 24.8729 5.68777 24.9229 6.36958C24.9729 7.0514 24.9979 7.59686 24.9979 8.00595V10.5116C25.0146 11.8923 24.9313 13.273 24.748 14.6537C24.6813 15.165 24.5647 15.6338 24.398 16.0599C24.2314 16.4861 24.0814 16.7844 23.9481 16.9548L23.7481 17.1849C23.6315 17.3213 23.4982 17.4491 23.3482 17.5684C23.1982 17.6878 23.0566 17.773 22.9233 17.8241C22.79 17.8753 22.6566 17.9349 22.5233 18.0031C22.39 18.0713 22.2567 18.1139 22.1234 18.1309C21.9901 18.148 21.8818 18.165 21.7984 18.1821C21.7151 18.1991 21.6068 18.2162 21.4735 18.2332C21.3402 18.2503 21.2652 18.2588 21.2485 18.2588C18.9156 18.4463 15.9994 18.54 12.5 18.54C10.5837 18.5059 8.90893 18.4719 7.47584 18.4378C6.04274 18.4037 5.1179 18.3696 4.7013 18.3355L4.00142 18.2588L3.5015 18.2077C3.16822 18.1565 2.91826 18.1139 2.75162 18.0798C2.58499 18.0457 2.34336 17.9434 2.02675 17.773C1.71013 17.6025 1.45184 17.4065 1.25187 17.1849C1.18522 17.1338 1.11023 17.0486 1.02691 16.9292C0.943593 16.8099 0.810282 16.5287 0.626979 16.0855C0.443676 15.6423 0.318697 15.165 0.252041 14.6537C0.185386 14.04 0.127062 13.3923 0.0770705 12.7105C0.0270788 12.0287 0.00208299 11.4832 0.00208299 11.0741V8.56845C-0.0145809 7.18777 0.0687385 5.80708 0.252041 4.4264C0.318697 3.89799 0.435344 3.42924 0.601983 3.02015C0.768622 2.61106 0.918597 2.31277 1.05191 2.12527L1.25187 1.89515C1.38519 1.74174 1.5185 1.6139 1.65181 1.51163C1.78512 1.40936 1.92676 1.31561 2.07674 1.23038C2.22671 1.14515 2.36002 1.08549 2.47667 1.0514C2.59332 1.01731 2.72663 0.974698 2.8766 0.923562C3.02658 0.872425 3.13489 0.85538 3.20155 0.872425C3.26821 0.889471 3.37652 0.872425 3.5265 0.821289C3.67647 0.770153 3.75146 0.76163 3.75146 0.795721C6.0844 0.625266 9.00058 0.540039 12.5 0.540039Z"/>
</svg>
