<svg viewBox="0 0 16 16" fill="none" xmlns="http://www.w3.org/2000/svg">
    <path fill-rule="evenodd" clip-rule="evenodd" d="M8.37179 0.610596C4.19297 0.610596 0.758301 3.87746 0.758301 7.93668C0.758301 11.9959 4.19297 15.2628 8.37179 15.2628C12.5506 15.2628 15.9853 11.9959 15.9853 7.93668C15.9853 3.87746 12.5506 0.610596 8.37179 0.610596ZM2.64749 7.93668C2.64749 4.93858 5.19616 2.46386 8.37179 2.46386C11.5474 2.46386 14.0961 4.93858 14.0961 7.93668C14.0961 10.9348 11.5474 13.4095 8.37179 13.4095C5.19615 13.4095 2.64749 10.9348 2.64749 7.93668ZM8.39587 3.54544H7.89587V4.04544V7.8926V8.09022L8.03099 8.23444L10.2089 10.5592L10.5738 10.9487L10.9387 10.5592L11.4281 10.0368L11.7484 9.69496L11.4281 9.35312L9.58807 7.38905V4.04544V3.54544H9.08807H8.39587Z"/>
</svg>
