<svg viewBox="0 0 40.35 99.95" style="transform: scaleX(-1) translate(-6%)">
    <path d="m0,5h29.86l.27,2.47v.2l.07.17.72,2.36v1.32l.09.28.32,1.04v1.85l.04.17.38,2.14v3.46l-.7.9-.54.7.3.98.59,1.94.39,1.6.07.34.16.22.91,1.24v.14l-.16.79-.05.28v.28l.22,3.23v2.36l.16.37,1.25,2.84-.23.51-.54,1.15.5.53-.48.79-.09.14-.05.17-.81,2.33-.32.9.45.73.41.67.27.42h.04l-.65,2.53-1.31,2.75-3.41,5.56-.65,1.07.72.96.7.96-.52,1.69-.18.62.18.62.7,2.28-.18,2.25v.34l.18,2.75-.16,1.1v.17l-.02.17v1.88l.25.42.54.87-.66,1.74-.18.51.09.56.18,1.15v.98l-.05.08-.23.28-.07.45-.41,2.33-.04.17v1.07l-.59.59-.29.28-.11.48-.61,2.98-.11.48.13.48.61,2.33.04.14.05.14.45.98-1.86.76H0"/>
</svg>