<svg viewBox="0 0 193 32" fill="none" xmlns="http://www.w3.org/2000/svg">
    <path d="M187.591 2.27867L187.261 1.1001H26.5592H4.63954L1.22583 3.56438L3.56153 6.24296L4.10053 8.17153L5.17854 9.3501L7.87358 11.2787L6.97525 11.6001L7.87358 12.7787V13.743L7.33458 14.8144L5.89722 15.7787L6.97525 16.9572L7.87358 18.0287L7.15491 18.7787L6.25655 19.4215L3.92087 21.6715L6.07689 23.0644L7.51424 25.8501L6.07689 27.243L4.45987 29.3858V29.8144L5.71756 30.3501L7.33458 30.5644L8.77193 31.1001H26.5592H183.626L186.27 30.6715L185.277 29.8144L184.782 29.0644L185.277 28.1001L186.104 27.7787V27.243L186.435 26.493L187.095 26.1715L186.766 25.9572V25.743L186.599 25.3144L187.426 24.4572L186.599 23.9215V23.493L186.766 23.0644L186.599 22.1001L186.766 21.243L186.104 20.3858L186.766 19.5287L185.774 18.993L188.582 17.1715L189.739 16.2072L190.566 14.9215L190.399 14.7072H189.904L189.574 14.493L190.235 13.743L191.226 13.1001L190.73 12.8858L191.226 12.4572L189.904 11.2787V10.6358L189.739 9.56438L189.904 9.24296V8.92153L188.913 8.38581L188.582 7.8501L188.086 7.20724L188.913 6.77867V5.38581L188.582 4.63581V3.99295L188.252 3.56438V3.13581L187.591 2.27867Z" fill="#8C8B8B" stroke="black"/>
</svg>


