<svg width="41" height="41" viewBox="0 0 41 41" fill="none" xmlns="http://www.w3.org/2000/svg">
<path d="M10 2L39 2V31C39 35.4183 35.4183 39 31 39H2L2 10C2 5.58172 5.58172 2 10 2Z" stroke="white" stroke-width="4"/>
<path d="M15.9196 22.1875H13.5089C13.1112 22.1875 12.7857 21.9027 12.7857 21.5547V19.4453C12.7857 19.0973 13.1112 18.8125 13.5089 18.8125H15.9196C16.3174 18.8125 16.6429 19.0973 16.6429 19.4453V21.5547C16.6429 21.9027 16.3174 22.1875 15.9196 22.1875ZM22.4286 21.5547V19.4453C22.4286 19.0973 22.1031 18.8125 21.7054 18.8125H19.2946C18.8969 18.8125 18.5714 19.0973 18.5714 19.4453V21.5547C18.5714 21.9027 18.8969 22.1875 19.2946 22.1875H21.7054C22.1031 22.1875 22.4286 21.9027 22.4286 21.5547ZM28.2143 21.5547V19.4453C28.2143 19.0973 27.8888 18.8125 27.4911 18.8125H25.0804C24.6826 18.8125 24.3571 19.0973 24.3571 19.4453V21.5547C24.3571 21.9027 24.6826 22.1875 25.0804 22.1875H27.4911C27.8888 22.1875 28.2143 21.9027 28.2143 21.5547ZM22.4286 26.6172V24.5078C22.4286 24.1598 22.1031 23.875 21.7054 23.875H19.2946C18.8969 23.875 18.5714 24.1598 18.5714 24.5078V26.6172C18.5714 26.9652 18.8969 27.25 19.2946 27.25H21.7054C22.1031 27.25 22.4286 26.9652 22.4286 26.6172ZM16.6429 26.6172V24.5078C16.6429 24.1598 16.3174 23.875 15.9196 23.875H13.5089C13.1112 23.875 12.7857 24.1598 12.7857 24.5078V26.6172C12.7857 26.9652 13.1112 27.25 13.5089 27.25H15.9196C16.3174 27.25 16.6429 26.9652 16.6429 26.6172ZM28.2143 26.6172V24.5078C28.2143 24.1598 27.8888 23.875 27.4911 23.875H25.0804C24.6826 23.875 24.3571 24.1598 24.3571 24.5078V26.6172C24.3571 26.9652 24.6826 27.25 25.0804 27.25H27.4911C27.8888 27.25 28.2143 26.9652 28.2143 26.6172ZM34 12.9063V31.4687C34 32.8662 32.7042 34 31.1071 34H9.89286C8.29576 34 7 32.8662 7 31.4687V12.9063C7 11.5088 8.29576 10.375 9.89286 10.375H12.7857V7.63281C12.7857 7.28477 13.1112 7 13.5089 7H15.9196C16.3174 7 16.6429 7.28477 16.6429 7.63281V10.375H24.3571V7.63281C24.3571 7.28477 24.6826 7 25.0804 7H27.4911C27.8888 7 28.2143 7.28477 28.2143 7.63281V10.375H31.1071C32.7042 10.375 34 11.5088 34 12.9063ZM31.1071 31.1523V15.4375H9.89286V31.1523C9.89286 31.3264 10.0556 31.4687 10.2545 31.4687H30.7455C30.9444 31.4687 31.1071 31.3264 31.1071 31.1523Z" fill="white"/>
</svg>

