<svg width="41" height="40" viewBox="0 0 41 40" fill="none" xmlns="http://www.w3.org/2000/svg">
<path d="M10 2L39 2V30C39 34.4183 35.4183 38 31 38H2L2 10C2 5.58172 5.58172 2 10 2Z" stroke="white" stroke-width="4"/>
<path d="M28.1554 23.2156C29.7842 23.2156 31.1096 24.541 31.1096 26.1698C31.1096 27.7986 29.7842 29.124 28.1554 29.124C26.5266 29.124 25.2012 27.7986 25.2012 26.1698C25.2012 24.541 26.5266 23.2156 28.1554 23.2156ZM28.1554 27.5066C28.8939 27.5066 29.4922 26.9055 29.4922 26.1669C29.4922 25.4283 28.8911 24.8272 28.1554 24.8272C27.4168 24.8272 26.8157 25.4283 26.8157 26.1669C26.8157 26.9055 27.4168 27.5066 28.1554 27.5066Z" fill="white"/>
<path d="M13.0147 23.2156C14.6435 23.2156 15.9689 24.541 15.9689 26.1698C15.9689 27.7986 14.6436 29.124 13.0147 29.124C11.3859 29.124 10.0605 27.7986 10.0605 26.1698C10.0605 24.541 11.3859 23.2156 13.0147 23.2156ZM11.6751 26.1698C11.6751 26.9083 12.2762 27.5095 13.0148 27.5095C13.7533 27.5095 14.3545 26.9083 14.3545 26.1698C14.3545 25.4312 13.7533 24.8301 13.0148 24.8301C12.2762 24.8301 11.6751 25.4312 11.6751 26.1698Z" fill="white"/>
<path d="M7.79008 23.1555H8.15363L8.15935 15.6727C8.15935 15.2376 8.51148 14.8855 8.94657 14.8855H23.4456C23.6975 14.8855 23.938 15.0086 24.0868 15.2147L26.9981 19.2796L31.8416 19.2681C32.2767 19.2681 32.6288 19.6202 32.6288 20.0553V23.1527L33.2042 23.1469H33.2128C33.6479 23.1469 34 23.499 34 23.9341V24.7929C34 25.2223 33.6508 25.5772 33.2214 25.5801H31.916C31.916 25.5801 31.8531 25.2681 31.8073 25.1135C31.7643 24.9618 31.7099 24.8129 31.6469 24.6669C31.584 24.521 31.5124 24.3807 31.4323 24.2461C31.3521 24.1087 31.2634 23.9799 31.1689 23.854C31.0716 23.728 30.9685 23.6078 30.8569 23.4961C30.7824 23.4189 30.7023 23.3473 30.6221 23.2786C29.9351 22.6918 29.0592 22.3683 28.1574 22.3683C27.2529 22.3683 26.3769 22.6918 25.6899 23.2786C25.0115 23.8597 24.5563 24.6612 24.4074 25.5372L24.3989 25.5973H16.77L16.7586 25.5372C16.6126 24.6612 16.1574 23.8597 15.4761 23.2786C14.7891 22.6918 13.9131 22.3683 13.0086 22.3683C12.104 22.3683 11.2281 22.6918 10.541 23.2786C9.86259 23.8597 9.40744 24.6612 9.26145 25.5372L9.25286 25.5973H7.78721C7.35213 25.5973 7 25.2452 7 24.8101V23.9456C7.00286 23.5076 7.35496 23.1555 7.79008 23.1555ZM21.1412 19.3511H24.6279C24.9771 19.3511 25.1804 18.9561 24.9771 18.6727L23.3655 16.4113C23.2309 16.2223 23.0134 16.1107 22.7815 16.1107H21.1355C20.7405 16.1107 20.4199 16.4313 20.4199 16.8263V18.6355C20.4256 19.0305 20.7462 19.3511 21.1412 19.3511ZM18.396 16.8292C18.396 16.6574 18.3302 16.4943 18.207 16.374C18.0868 16.2538 17.9237 16.1851 17.7519 16.1851H10.4237C10.2519 16.1851 10.0887 16.251 9.96851 16.374C9.84828 16.4971 9.77958 16.6574 9.77958 16.8292V18.6384C9.77958 18.9933 10.0687 19.2824 10.4237 19.2824H17.7519C18.1068 19.2824 18.396 18.9933 18.396 18.6384V16.8292Z" fill="white"/>
<path d="M21.8457 12C22.3982 12 22.8476 12.4494 22.8476 13.0019C22.8476 13.5544 22.3982 14.0038 21.8457 14.0038H9.76558C9.2131 14.0038 8.76367 13.5544 8.76367 13.0019C8.76367 12.4494 9.2131 12 9.76558 12H21.8457Z" fill="white"/>
</svg>
