<svg width="19" height="19" viewBox="0 0 19 19" fill="none" xmlns="http://www.w3.org/2000/svg">
<path d="M9.50051 17.9064C14.1952 17.9064 18.001 14.1218 18.001 9.45321C18.001 4.78463 14.1952 1 9.50051 1C4.80581 1 1 4.78463 1 9.45321C1 14.1218 4.80581 17.9064 9.50051 17.9064Z" stroke="#444444" stroke-linecap="round" stroke-linejoin="round"/>
<path d="M9.50051 17.9064C14.1952 17.9064 18.001 14.1218 18.001 9.45321C18.001 4.78463 14.1952 1 9.50051 1C4.80581 1 1 4.78463 1 9.45321C1 14.1218 4.80581 17.9064 9.50051 17.9064Z" stroke="black" stroke-opacity="0.2" stroke-linecap="round" stroke-linejoin="round"/>
<path d="M1.65625 12.7072H3.94485C4.55182 12.7072 5.13393 12.4674 5.56313 12.0406C5.99233 11.6138 6.23345 11.0349 6.23345 10.4313V8.48056C6.23345 7.87696 6.47456 7.29808 6.90376 6.87128C7.33296 6.44447 7.91507 6.20469 8.52204 6.20469C9.12902 6.20469 9.71113 5.96491 10.1403 5.53811C10.5695 5.1113 10.8106 4.53242 10.8106 3.92883V1.09375" stroke="#444444" stroke-linecap="round" stroke-linejoin="round"/>
<path d="M1.65625 12.7072H3.94485C4.55182 12.7072 5.13393 12.4674 5.56313 12.0406C5.99233 11.6138 6.23345 11.0349 6.23345 10.4313V8.48056C6.23345 7.87696 6.47456 7.29808 6.90376 6.87128C7.33296 6.44447 7.91507 6.20469 8.52204 6.20469C9.12902 6.20469 9.71113 5.96491 10.1403 5.53811C10.5695 5.1113 10.8106 4.53242 10.8106 3.92883V1.09375" stroke="black" stroke-opacity="0.2" stroke-linecap="round" stroke-linejoin="round"/>
<path d="M17.9974 9.32098C17.3426 8.98312 16.6165 8.80482 15.8788 8.80078H13.0933C12.4863 8.80078 11.9042 9.04056 11.475 9.46737C11.0458 9.89417 10.8047 10.473 10.8047 11.0766C10.8047 11.6802 11.0458 12.2591 11.475 12.6859C11.9042 13.1127 12.4863 13.3525 13.0933 13.3525C13.5268 13.3525 13.9426 13.5238 14.2492 13.8286C14.5558 14.1335 14.728 14.547 14.728 14.9781V16.1096" stroke="#444444" stroke-linecap="round" stroke-linejoin="round"/>
<path d="M17.9974 9.32098C17.3426 8.98312 16.6165 8.80482 15.8788 8.80078H13.0933C12.4863 8.80078 11.9042 9.04056 11.475 9.46737C11.0458 9.89417 10.8047 10.473 10.8047 11.0766C10.8047 11.6802 11.0458 12.2591 11.475 12.6859C11.9042 13.1127 12.4863 13.3525 13.0933 13.3525C13.5268 13.3525 13.9426 13.5238 14.2492 13.8286C14.5558 14.1335 14.728 14.547 14.728 14.9781V16.1096" stroke="black" stroke-opacity="0.2" stroke-linecap="round" stroke-linejoin="round"/>
<path d="M8.9722 17.3762C9.11563 17.0545 9.13776 16.6647 8.9719 16.3194C8.80604 15.9741 8.62263 15.4806 8.24464 15.314C7.86664 15.1473 7.44715 15.1152 7.07845 15.2248C6.70975 15.3344 6.42203 15.5767 6.2786 15.8984C6.17615 16.1281 5.97064 16.3012 5.70728 16.3795C5.44392 16.4578 5.14429 16.4349 4.87429 16.3158L4.16575 16.0034" stroke="#444444" stroke-linecap="round" stroke-linejoin="round"/>
<path d="M8.9722 17.3762C9.11563 17.0545 9.13776 16.6647 8.9719 16.3194C8.80604 15.9741 8.62263 15.4806 8.24464 15.314C7.86664 15.1473 7.44715 15.1152 7.07845 15.2248C6.70975 15.3344 6.42203 15.5767 6.2786 15.8984C6.17615 16.1281 5.97064 16.3012 5.70728 16.3795C5.44392 16.4578 5.14429 16.4349 4.87429 16.3158L4.16575 16.0034" stroke="black" stroke-opacity="0.2" stroke-linecap="round" stroke-linejoin="round"/>
</svg>
