<svg width="41" height="41" viewBox="0 0 41 41" fill="none" xmlns="http://www.w3.org/2000/svg">
<path d="M10 2L39 2V31C39 35.4183 35.4183 39 31 39H2L2 10C2 5.58172 5.58172 2 10 2Z" stroke="white" stroke-width="4"/>
<path d="M20.645 7.11173V19.7368C20.641 19.7996 20.589 19.8485 20.5261 19.8485C20.4632 19.8485 20.4111 19.7996 20.4072 19.7368V12.6352C16.1485 12.703 12.7128 16.1403 12.6457 20.4001L19.7384 20.4001C19.8037 20.4001 19.8566 20.4531 19.8566 20.5184C19.8566 20.5837 19.8037 20.6366 19.7384 20.6366H7.11822C7.05292 20.6366 7 20.5837 7 20.5184C7 20.4531 7.05292 20.4001 7.11822 20.4001H12.4237C12.4987 15.9818 16.0348 12.4155 20.4095 12.3526V7.11173C20.4134 7.04893 20.4655 7 20.5284 7C20.5913 7 20.6434 7.04893 20.6473 7.11173H20.645Z" fill="white"/>
<path d="M34.0013 20.5189C34.0014 20.5505 33.9889 20.5808 33.9665 20.6031C33.9441 20.6255 33.9137 20.6378 33.8822 20.6376H28.6329C28.5836 25.0783 25.0378 28.6697 20.6463 28.7336V33.8734C20.649 33.9177 20.627 33.9598 20.5891 33.9828C20.5511 34.0058 20.5035 34.0058 20.4656 33.9828C20.4277 33.9598 20.4057 33.9177 20.4084 33.8734V21.2493C20.4124 21.1865 20.4644 21.1376 20.5273 21.1376C20.5903 21.1376 20.6423 21.1865 20.6463 21.2493V28.4184C24.9176 28.3588 28.3654 24.9092 28.4239 20.6367H21.2606C21.1953 20.6367 21.1423 20.5837 21.1423 20.5184C21.1423 20.4532 21.1953 20.4001 21.2606 20.4001H33.8822C33.9137 20.3999 33.9441 20.4124 33.9665 20.4346C33.9889 20.4569 34.0014 20.4873 34.0013 20.5189Z" fill="white"/>
<path d="M19.8219 21.1999V28.7028C15.8883 28.3616 12.7571 25.1815 12.4453 21.1999H19.8219Z" fill="white"/>
<path d="M28.6004 19.8174H21.1777V12.3788C25.1127 12.6934 28.2564 15.8492 28.6004 19.8174Z" fill="white"/>
</svg>
