<svg width="40" height="40" viewBox="0 0 40 40" fill="none" xmlns="http://www.w3.org/2000/svg">
<path d="M2 10C2 5.58172 5.58172 2 10 2L38 2V30C38 34.4183 34.4183 38 30 38H2L2 10Z" stroke="white" stroke-width="4"/>
<path d="M24.004 9.418C24.004 10.718 22.8059 11.81 21.351 11.81C19.8962 11.81 18.7266 10.718 18.7266 9.418C18.7266 8.118 20.0388 7 21.4651 7C22.8914 7 24.004 8.092 24.004 9.418ZM18.042 25.46L17.6141 26.864C17.2718 27.384 16.5015 28.476 14.9611 30.686C14.0768 31.986 13.1069 32.688 12.4508 32.402C11.9944 32.194 12.3367 31.388 12.8787 30.192C13.763 28.684 14.8755 26.084 14.8755 26.084L15.3034 23.068C15.7313 24.16 18.042 25.46 18.042 25.46ZM29.1672 15.84C29.1672 18.934 29.1672 24.966 29.1672 32.298C29.1672 32.402 29.1672 32.792 28.8535 32.896C28.7393 33 28.5111 33 28.1973 33C27.855 33 27.7409 33 27.5412 32.896C27.313 32.792 27.313 32.506 27.1989 32.506V16.932C26.3146 17.426 25.3162 17.946 25.3162 17.946C24.8883 18.154 24.4319 17.946 24.004 17.738L21.5792 16.022L20.1529 21.144L23.6617 24.368C24.2322 24.862 24.1181 25.564 24.004 26.162C23.8899 26.786 22.8914 31.206 22.8914 31.206C22.8059 31.492 22.4636 32.896 21.8074 32.896C21.0372 32.792 20.9231 32.194 21.0372 31.102L21.5792 26.578L16.958 23.068C15.7313 22.054 15.7313 21.144 16.0736 19.844L17.8423 13.526C17.9564 12.928 18.3843 12.512 18.8407 12.616L21.5792 13.318C21.6933 13.318 21.8074 13.422 21.9215 13.526L25.3162 15.84L27.313 14.93V13.318C27.313 13.214 27.313 13.11 27.5412 13.032C27.6268 12.928 27.855 12.824 27.855 12.824H28.6252C28.7394 12.824 28.9676 12.824 29.0817 12.928C29.2814 13.11 29.1672 13.318 29.1672 13.422C29.1672 13.526 29.1672 13.812 29.1672 14.228C29.5096 14.228 29.7378 14.332 29.9374 14.618C30.1657 15.034 29.7378 15.424 29.1672 15.84L29.1672 15.84ZM16.5015 13.422C16.5015 13.422 14.8755 18.05 14.6473 18.752C14.4191 19.454 13.5348 19.948 12.3367 19.636C11.1101 19.35 9.79785 18.856 10.0261 17.53C10.2257 16.126 11.6806 14.228 12.9928 13.032C14.305 11.81 17.1862 11.42 16.5015 13.422Z"/>
</svg>
