<svg width="54" height="40" viewBox="0 0 54 40" fill="none" xmlns="http://www.w3.org/2000/svg">
<path d="M2 10C2 5.58172 5.58172 2 10 2L52 2V30C52 34.4183 48.4183 38 44 38H2L2 10Z" stroke="white" stroke-width="4"/>
<path d="M48.7611 18.6076V18.708C48.6054 18.8637 48.4449 19.0133 48.2967 19.1752C48.0829 19.4088 47.8868 19.6595 47.6635 19.8821C47.5793 19.9508 47.469 19.9788 47.3623 19.9586C46.5515 19.7462 45.7421 19.5256 44.9389 19.2872C44.748 19.2228 44.538 19.2513 44.3713 19.3644C43.6336 19.8302 42.9 20.3036 42.1549 20.7571C42.0312 20.8322 41.855 20.8391 41.7027 20.8445C41.5292 20.85 41.3557 20.8076 41.1815 20.8035C40.2936 20.7831 39.4057 20.7708 38.5177 20.7509C37.9487 20.738 37.3812 20.7175 36.8101 20.7018C36.1995 20.684 35.5896 20.6697 34.9796 20.6492C34.8717 20.643 34.7647 20.6266 34.66 20.6C33.9967 20.4443 33.6081 20.8438 33.2304 21.2878C32.9872 21.574 32.7468 21.8766 32.4497 22.0986C32.2776 22.2277 31.9996 22.2283 31.7666 22.2591C31.0754 22.3499 30.3842 22.464 29.6895 22.4961C29.2845 22.5166 28.8658 22.4367 28.4656 22.3465C27.3816 22.1033 26.3092 21.8103 25.2232 21.5774C24.6085 21.4456 23.9767 21.393 23.3517 21.3042C23.0785 21.266 22.8094 21.225 22.5369 21.1997C22.4352 21.1874 22.3321 21.2018 22.2377 21.2414C21.9385 21.3848 21.6421 21.5371 21.3559 21.7045C20.705 22.0856 19.9509 22.1553 19.2617 22.4162C18.9093 22.5494 18.5486 22.7085 18.2522 22.936C17.3062 23.662 16.1888 23.9059 15.0631 24.1169C14.1595 24.2863 13.2442 24.399 12.331 24.5213C11.9284 24.5867 11.5211 24.6194 11.1132 24.6189C10.5579 24.6026 10.0053 24.5042 9.44999 24.4762C8.99441 24.4537 8.53063 24.4345 8.08393 24.4974C7.37221 24.5978 6.67005 24.7672 6 24.8997C6.46036 24.5438 6.96102 24.1552 7.46237 23.7686C8.52926 22.9489 9.59638 22.1293 10.6637 21.3097C11.2566 20.8541 11.8618 20.4128 12.4396 19.9395C12.7606 19.6613 13.0653 19.3649 13.3521 19.0516C13.723 18.667 14.0919 18.2791 14.4416 17.8747C14.8386 17.4162 15.2232 16.9467 15.5952 16.4663C16.0699 15.855 16.6163 15.3871 17.4271 15.2792C17.9674 15.2109 18.4974 15.0531 19.0329 14.9418C19.1013 14.9249 19.1733 14.9311 19.2378 14.9595C20.0001 15.4021 20.7582 15.8509 21.5164 16.2996C21.5802 16.3383 21.6393 16.3841 21.6926 16.4362C22.444 17.1514 23.168 17.8966 23.95 18.5755C24.67 19.2005 25.4479 19.7599 26.2081 20.3384C26.4503 20.5202 26.7487 20.6109 27.051 20.5945C28.0551 20.5665 29.0605 20.557 30.0645 20.5385C30.1236 20.5382 30.1792 20.5107 30.2155 20.4641L29.2797 20.2967C28.5783 20.1711 27.8713 20.0686 27.1767 19.9122C26.6986 19.8056 26.2396 19.6335 25.7806 19.4682C25.6679 19.4272 25.5845 19.3002 25.4951 19.2059C25.2997 19.001 25.1003 18.7961 24.9227 18.5769C24.8814 18.5001 24.8814 18.4077 24.9227 18.331C25.2013 17.9683 25.4828 17.607 25.7908 17.2702C25.9285 17.1379 26.091 17.0342 26.2689 16.9649C26.8959 16.6821 27.3447 16.1917 27.7982 15.7013C27.8495 15.6453 27.969 15.5927 28.0298 15.6146C28.6165 15.8249 29.2101 16.0244 29.7742 16.2846C30.0761 16.4246 30.3207 16.6869 30.5939 16.885C31.309 17.3979 32.0221 17.9136 32.7475 18.4122C33.2126 18.7326 33.6907 19.0359 34.1764 19.3248C34.3485 19.418 34.5362 19.4789 34.7303 19.5044C35.1128 19.5659 35.5001 19.5987 35.9475 19.6506C35.1511 19.2271 34.3765 18.8993 33.6982 18.4307C33.02 17.9621 32.434 17.3535 31.7817 16.7839C32.4128 16.3686 33.0111 15.9861 33.5985 15.5811C33.777 15.4518 33.9332 15.2942 34.0609 15.1146C34.5227 14.4862 34.9673 13.8448 35.4208 13.2103C35.7248 12.7848 36.0171 12.349 36.347 11.9433C36.4837 11.7773 36.6981 11.6748 36.8825 11.5505C37.1592 11.3641 37.4399 11.1831 37.7192 11H37.8702C37.875 11.0232 37.8702 11.056 37.8866 11.0683C38.6823 11.709 39.4808 12.3456 40.2738 12.989C40.5579 13.2192 40.9172 13.4159 41.0873 13.7157C41.5872 14.5948 41.9807 15.5367 42.6418 16.3181C42.8591 16.5749 43.0844 16.8372 43.3515 17.0353C43.8167 17.3809 44.3487 17.6404 44.7954 18.0058C45.374 18.484 45.9395 18.8255 46.7475 18.6943C47.3773 18.5926 48.0323 18.6417 48.6757 18.626C48.7048 18.6234 48.7335 18.6172 48.7611 18.6076V18.6076ZM41.0982 14.1679C41.0409 14.0633 40.9619 13.972 40.8666 13.9002C40.4373 13.5591 40.0065 13.2199 39.5744 12.8824C38.9487 12.3948 38.3565 11.847 37.4754 11.7165L34.6907 14.646L34.7365 14.6993C35.5178 14.4616 36.3716 14.3687 36.8928 13.5696C36.9242 13.6985 36.9445 13.8299 36.9536 13.9623C37.0103 14.3387 36.9474 14.7403 37.2732 15.0552C37.5622 15.3331 37.5396 15.3523 37.7691 15.0162C37.9549 14.743 38.1789 14.4937 38.1994 14.1399C38.2104 13.9562 38.2336 13.7724 38.2513 13.5894L38.3251 13.5634L39.2301 14.5606L39.3114 14.5183C39.2929 14.2854 39.2745 14.0518 39.2486 13.7342L41.0982 14.1679ZM30.3193 17.9457C30.5563 18.0188 30.82 18.0052 31.0706 18.0298C30.8391 17.7825 30.5959 17.6076 30.3678 17.415C29.8979 17.0216 29.3036 16.8857 28.7722 16.62C28.4212 16.4438 28.1063 16.4834 27.7825 16.6555C27.5639 16.773 27.3283 16.8672 27.1309 17.0127C26.6227 17.3863 26.131 17.7839 25.6132 18.1868C26.3584 18.2552 26.898 17.9389 27.4028 17.4075C27.4396 17.594 27.454 17.7169 27.4895 17.8324C27.525 17.9478 27.5544 18.1363 27.6418 18.18C27.9628 18.3405 28.3071 18.4532 28.6425 18.5851L28.68 18.5393L28.1664 17.8303C28.4498 17.7169 28.7032 17.6343 28.9382 17.5147C29.0892 17.4382 29.2005 17.4758 29.3337 17.5359C29.6595 17.6794 29.9778 17.8426 30.3193 17.9457ZM22.7923 18.6827L22.8606 18.6226C22.6557 18.208 22.4508 17.7921 22.2349 17.3809C22.1955 17.3276 22.1437 17.2847 22.084 17.2559C21.0984 16.6336 20.0991 16.0346 19.0329 15.5565C18.954 15.5201 18.8666 15.506 18.7802 15.5155C18.2556 15.5947 17.732 15.6813 17.2092 15.7751C17.138 15.794 17.0752 15.8363 17.0309 15.8953C16.656 16.3816 16.2892 16.8754 15.9142 17.3617C15.3391 18.1069 14.753 18.8398 13.8733 19.2599C13.637 19.3726 13.428 19.544 13.2067 19.6882L13.2326 19.7489C13.6663 19.654 14.1021 19.5645 14.5345 19.4614C14.6916 19.4238 14.8678 19.3883 14.9887 19.2927C15.2619 19.0755 15.5098 18.8234 15.7639 18.5816C16.2065 18.1602 16.643 17.7326 17.0869 17.3133C17.2311 17.1766 17.3895 17.0571 17.5494 16.9232C17.4128 17.5434 17.0651 18.0974 17.1908 18.7913C17.4483 18.5803 17.7966 18.5215 17.8212 18.1083C17.8362 17.8672 17.9312 17.6302 18.0029 17.3399C18.4195 17.5762 18.8075 17.7975 19.1968 18.0147C19.3621 18.1069 19.524 18.2237 19.703 18.2702C19.9619 18.3298 20.2257 18.3654 20.4912 18.3767C20.7432 18.3938 20.9973 18.3767 21.2507 18.3767C21.2568 18.348 21.2637 18.3187 21.2698 18.29C20.9078 18.1363 20.5581 17.9252 20.1804 17.8419C19.5418 17.7012 19.3362 17.1377 18.9509 16.7491C19.4673 16.9185 19.9673 17.1145 20.4761 17.2839C21.0711 17.4826 21.6373 17.732 22.1243 18.1329L22.7923 18.6827Z" />
<path d="M46.4971 20.0502C46.5237 20.0584 46.5421 20.0905 46.5763 20.1226C46.4219 20.15 46.2812 20.2073 46.1501 20.1909C45.4622 20.1076 45.019 20.5536 44.5347 20.9129C44.1932 21.165 43.8421 21.4047 43.5259 21.6854C43.292 21.9098 43.0781 22.1541 42.8865 22.4156C42.6605 22.7018 42.3572 22.7687 42.0211 22.7687C41.375 22.7687 40.7268 22.7407 40.0827 22.7769C39.5643 22.8063 39.0486 22.8732 38.5322 22.9367C38.3806 22.9549 38.2285 22.9727 38.076 22.99C37.9291 23.0064 37.7823 23.0255 37.6354 23.0433L37.589 23.13H37.5623C37.5623 23.1171 37.5623 23.1034 37.5623 23.0904C37.4842 23.0761 37.4046 23.0711 37.3253 23.0754C36.7106 23.212 36.1444 22.9627 35.5733 22.8117C35.2762 22.7332 35.0672 22.7646 34.8261 22.9538C34.3821 23.3022 33.9122 23.6177 33.4443 23.9346C33.3462 23.9954 33.2326 24.0265 33.1172 24.0241C32.2292 24.0152 31.3413 23.9913 30.4568 23.9852C30.3234 23.9905 30.1935 24.0292 30.079 24.0979C29.8443 24.2284 29.5966 24.3341 29.34 24.4134C28.8885 24.5516 28.42 24.6263 27.948 24.6354C27.6076 24.652 27.2683 24.6866 26.9316 24.7392C26.8541 24.7619 26.7865 24.81 26.7397 24.8759C26.5082 25.1586 26.2916 25.4544 26.0533 25.7317C25.9774 25.8121 25.8774 25.8656 25.7684 25.884C25.3436 25.9523 24.9153 25.9974 24.511 26.0493C24.4085 26.4154 24.3293 26.7637 24.207 27.0964C24.1674 27.2023 24.0253 27.3061 23.9085 27.3409C23.5916 27.4338 23.2624 27.4857 22.94 27.5615C22.4366 27.679 22.2426 28.0608 22.1497 28.5178C22.1156 28.6872 22.1033 28.8593 22.0814 29.0389C21.3363 28.9788 20.5924 28.9255 19.85 28.8586C18.9976 28.7816 18.1458 28.697 17.2948 28.6045C17.1875 28.5929 17.083 28.5219 16.984 28.4679C16.581 28.2377 16.1971 27.9638 15.773 27.7849C15.4765 27.6592 15.1268 27.6572 14.8003 27.6059C14.0142 27.4809 13.2294 27.3614 12.4405 27.2371C11.7363 27.1258 11.0355 26.9905 10.3278 26.9072C9.93101 26.8607 9.66599 26.623 9.3798 26.4038C8.86753 26.0104 8.36004 25.6094 7.85938 25.1709C8.20772 25.216 8.55538 25.2631 8.90441 25.3075C9.51367 25.3833 10.1229 25.5124 10.7329 25.5179C11.4111 25.5179 12.0901 25.4045 12.7683 25.3403C13.1658 25.3034 13.564 25.272 13.9609 25.2297C14.8345 25.1361 15.7224 25.1559 16.5728 24.8813C17.455 24.6087 18.3063 24.2447 19.113 23.7953C19.6396 23.4934 20.1771 23.2093 20.7106 22.919C21.1204 22.697 21.5302 22.4798 21.9401 22.2564C22.4141 21.9982 22.9407 21.9354 23.4591 21.9149C24.6007 21.8819 25.7409 22.0163 26.8435 22.3138C27.782 22.5583 28.728 22.7755 29.6726 22.9934C29.7874 23.0194 29.9172 22.9695 30.0401 22.9661C30.2745 22.9483 30.5099 22.9483 30.7443 22.9661C31.398 23.0515 31.9601 22.8022 32.5393 22.5563C33.1684 22.2872 33.6861 21.8569 34.2592 21.5072C34.5201 21.3473 34.848 21.2934 35.1471 21.2039C35.4463 21.1144 35.7516 21.0126 36.0617 20.9696C36.3643 20.9299 36.6704 20.9246 36.9742 20.9539C37.5111 21.001 38.0466 21.0748 38.58 21.1527C38.7853 21.1847 38.9866 21.2385 39.1804 21.3132C39.8532 21.5659 40.5526 21.5673 41.2541 21.5481C41.3693 21.5381 41.4822 21.5092 41.5881 21.4628C41.946 21.3261 42.3073 21.1998 42.6557 21.0434C42.849 20.9559 43.0552 20.8508 43.1932 20.6971C43.5846 20.262 44.0887 19.9997 44.5948 19.7531C44.7949 19.6555 45.0784 19.6561 45.3058 19.7012C45.7122 19.7818 46.1023 19.9287 46.4971 20.0502Z" />
<path d="M46.6364 20.3835C46.4459 20.665 46.2799 20.8815 46.1454 21.1164C45.952 21.4532 45.7881 21.807 45.5989 22.1471C45.5084 22.324 45.3972 22.4896 45.2677 22.6403C44.9835 22.949 44.6652 23.2263 44.3845 23.5371C44.0601 23.8964 43.6427 24.1013 43.2165 24.2884C43.0738 24.3513 42.8859 24.3472 42.7247 24.326C42.0731 24.2413 41.4304 24.3117 40.7808 24.3629C40.1695 24.4107 39.6245 24.6607 39.0439 24.7911C38.6449 24.873 38.2394 24.9194 37.8322 24.9298C36.8442 24.9667 35.868 25.1575 34.9389 25.4953C34.4867 25.6613 34.1875 25.9933 33.8078 26.2405C33.6952 26.3198 33.5651 26.3709 33.4287 26.3894C32.3857 26.4741 31.3352 26.4789 30.31 26.7357C29.8769 26.8436 29.4104 26.8512 29.0006 27.0089C27.7622 27.4979 26.6067 28.1752 25.5752 29.0171C25.33 29.2144 24.9721 29.278 24.6606 29.3879C24.3635 29.4924 24.0493 29.5532 23.7604 29.6755C23.2707 29.8804 22.755 29.8804 22.242 29.9186C21.7769 29.9508 21.3124 29.987 20.8418 29.9972L23.6668 29.3825L22.7106 28.3286L25.9434 27.9187C25.7337 27.4918 25.5335 27.0827 25.3109 26.6299L27.1831 27.3675L27.2343 27.2944L26.4543 26.1394H29.95L29.9705 26.0595L27.9733 25.3608C27.9733 25.3526 27.9767 25.3451 27.9781 25.3376L30.9609 25.6996C30.9698 25.6729 30.9787 25.6456 30.9882 25.619L29.3995 24.5992L32.2682 25.2911C32.2826 25.2734 32.2969 25.2549 32.3106 25.2365L31.7573 24.3041C32.2436 24.6579 32.6869 24.9735 33.1234 25.3007C33.2367 25.3861 33.2825 25.3826 33.3795 25.2686C33.7504 24.8321 34.1404 24.4114 34.5488 23.9565C34.6629 24.2741 34.7613 24.5507 34.887 24.9025L36.0317 23.2092L37.4838 24.3403C37.5112 23.9134 37.5351 23.5268 37.5597 23.1293H37.5863L39.1081 24.227L39.1709 24.1716L38.5494 23.1027L43.3436 23.7229C43.3436 23.3814 43.3531 23.0132 43.3395 22.6471C43.3313 22.4313 43.3961 22.3425 43.6229 22.3527C43.8128 22.3616 44.0047 22.3063 44.1939 22.3145C44.3988 22.3233 44.4275 22.199 44.4487 22.0536C44.4583 21.9852 44.4487 21.9169 44.4603 21.8527C44.5546 21.3507 44.5518 21.32 45.0948 21.2558C45.5224 21.2052 45.8202 20.9566 46.1447 20.7326C46.2915 20.6315 46.4384 20.5249 46.6364 20.3835Z"/>
<path d="M33.2412 13.6858C33.1504 14.1181 33.0254 14.3005 32.7891 14.3005L33.2412 13.6858Z" />
<path d="M32.9653 15.1924C32.9742 15.2607 32.8663 15.3775 32.7843 15.426C32.2481 15.7408 31.7078 16.0482 31.16 16.3419C31.0596 16.3838 30.9462 16.3818 30.8472 16.3364C30.574 16.1998 30.3131 16.0379 29.9668 15.8392C30.24 15.4833 30.4893 15.1466 30.7584 14.8269C30.8179 14.7586 30.949 14.7231 31.0508 14.7142C31.591 14.6678 32.1272 14.5838 32.6723 14.747C32.9366 14.8269 32.9434 15.012 32.9653 15.1924Z" />
<path d="M32.1048 13.5347C32.1587 13.7573 32.2127 13.9793 32.2755 14.2348L31.9941 14.2703C32.0201 14.006 32.0433 13.7669 32.0665 13.5278L32.1048 13.5347Z" />
<path d="M31.3043 14.3727C31.0386 14.4171 31.0386 14.4171 31.0625 13.9526C31.1636 14.1268 31.2319 14.2457 31.3043 14.3727Z" />
<path d="M30.5006 14.5093L30.2459 14.7019L29.959 14.3713L30.5006 14.5093Z" />
<path d="M29.9308 15.1111V15.1835H29.5312V15.1111H29.9308Z" />
<path d="M29.4211 11.0054L29.8725 11.1188C29.5993 11.3284 29.335 11.5388 29.0611 11.7335C28.8675 11.8635 28.7232 12.0547 28.6513 12.2765C28.6117 12.394 28.486 12.4896 28.3828 12.5757C28.2802 12.6501 28.1719 12.7166 28.0591 12.7744C28.1479 12.9636 28.445 13.0087 28.3897 13.2348C27.859 13.2348 27.3522 13.2437 26.8467 13.2314C26.5298 13.2239 26.2142 13.1706 25.898 13.1672C25.7754 13.1679 25.6581 13.217 25.5715 13.3038C25.344 13.577 25.0934 13.7136 24.7273 13.6118C24.4349 13.5326 24.1289 13.5053 23.8291 13.4547L23.8086 13.3734C24.2519 13.1153 24.6733 12.7997 25.146 12.6221C25.4151 12.5203 25.7689 12.6515 26.0851 12.6631C26.4704 12.6774 26.8617 12.8359 27.2408 12.6385C27.3534 12.5879 27.4567 12.5186 27.5461 12.4336C27.8385 12.1228 28.1301 11.8093 28.3979 11.4773C28.553 11.2682 28.789 11.134 29.0481 11.1078C29.1429 11.0855 29.2346 11.0517 29.3213 11.0074L29.4211 11.0054Z" />
</svg>
