<svg width="40" height="40" viewBox="0 0 40 40" fill="none" xmlns="http://www.w3.org/2000/svg">
<path d="M13.9593 15.1782C13.9593 14.7114 13.7925 14.3146 13.4587 13.9878C13.125 13.661 12.7277 13.5054 12.2669 13.5209C11.806 13.5365 11.4008 13.6921 11.0512 13.9878C10.7016 14.2834 10.5347 14.6802 10.5506 15.1782C10.5665 15.6762 10.7333 16.0652 11.0512 16.3453C11.369 16.6254 11.7742 16.7888 12.2669 16.8355C12.7595 16.8822 13.1568 16.7188 13.4587 16.3453C13.7607 15.9718 13.9275 15.5828 13.9593 15.1782ZM28.1425 22.671C28.1425 23.1378 27.9836 23.5346 27.6658 23.8614L21.1344 30.2571C20.7847 30.5839 20.3795 30.7473 19.9187 30.7473C19.4419 30.7473 19.0446 30.5839 18.7268 30.2571L9.2157 20.9437C8.88198 20.6169 8.59593 20.1734 8.35756 19.6132C8.11919 19.053 8 18.5472 8 18.096V12.6806C8 12.2293 8.16686 11.8403 8.50058 11.5135C8.83431 11.1867 9.23159 11.0156 9.69245 11H15.2465C15.7074 11 16.2239 11.1167 16.796 11.3501C17.3681 11.5835 17.821 11.8637 18.1547 12.1904L27.6658 21.5039C27.9836 21.8307 28.1425 22.2197 28.1425 22.671ZM33.2676 22.671C33.2676 23.1378 33.1007 23.5346 32.767 23.8614L26.2355 30.2571C25.8859 30.5839 25.4807 30.7473 25.0198 30.7473C24.702 30.7473 24.4398 30.685 24.2332 30.5606C24.0266 30.4361 23.7962 30.2415 23.5419 29.977L29.7873 23.8614C30.121 23.5346 30.2879 23.1378 30.2879 22.671C30.2879 22.2197 30.121 21.8307 29.7873 21.5039L20.2762 12.1904C19.9425 11.8637 19.4896 11.5835 18.9175 11.3501C18.3454 11.1167 17.8289 11 17.3681 11H20.3477C20.8086 11 21.3251 11.1167 21.8972 11.3501C22.4692 11.5835 22.9222 11.8637 23.2559 12.1904L32.767 21.5039C33.1007 21.8307 33.2676 22.2197 33.2676 22.671H33.2676Z" fill="white"/>
<path d="M10 2L38 2V30C38 34.4183 34.4183 38 30 38H2L2 10C2 5.58172 5.58172 2 10 2Z" stroke="white" stroke-width="4"/>
</svg>
