<svg width="41" height="41" viewBox="0 0 41 41" fill="none" xmlns="http://www.w3.org/2000/svg">
<path d="M10 2L39 2V31C39 35.4183 35.4183 39 31 39H2L2 10C2 5.58172 5.58172 2 10 2Z" stroke="white" stroke-width="4"/>
<path fill-rule="evenodd" clip-rule="evenodd" d="M34 20.5C34 27.9558 27.9558 34 20.5 34C13.0442 34 7 27.9558 7 20.5C7 13.0442 13.0442 7 20.5 7C27.9558 7 34 13.0442 34 20.5ZM31 20.453C31 26.252 26.299 30.953 20.5 30.953C14.701 30.953 10 26.252 10 20.453C10 14.654 14.701 9.953 20.5 9.953C26.299 9.953 31 14.654 31 20.453ZM19 13H21V20.503L25.5512 25.0542L24.0542 26.5513L19.5029 22H19V13Z" fill="white"/>
</svg>
