<svg width="320" height="283" viewBox="0 0 320 283" fill="none" xmlns="http://www.w3.org/2000/svg">
<g clip-path="url(#clip0_139_2048)">
<path d="M296.975 14.3499C284.55 22.0749 263.25 35.3749 249.625 43.8499C236.025 52.3249 224.925 59.3499 224.975 59.4499C225.15 59.8249 270.125 88.1999 270.275 88.0499C270.6 87.7249 319.75 0.424942 319.675 0.349945C319.625 0.299942 309.425 6.59995 296.975 14.3499Z" fill="white"/>
<path d="M315.45 1.49989C315.225 1.64989 311.225 2.77489 306.575 4.02489C296.9 6.59989 252.725 18.4249 213.125 28.9999C165.6 41.6999 161.65 42.7499 161.55 42.8499C161.425 42.9999 160.475 42.7249 180.25 47.9999C190.075 50.6249 198.35 52.7249 198.625 52.6749C198.9 52.5999 205.475 49.7749 213.25 46.3749C221.025 42.9749 229.9 39.0999 233 37.7499C236.1 36.3999 246.675 31.7999 256.5 27.4999C266.325 23.2249 280 17.2499 286.875 14.2499C293.75 11.2499 300.55 8.27489 301.975 7.64989C303.4 7.02489 304.625 6.52489 304.65 6.5749C304.7 6.62489 300.45 8.6999 295.175 11.1749C289.925 13.6749 274.55 20.9499 261 27.3749C247.45 33.7999 228.55 42.7749 219 47.2999C209.45 51.8249 201.525 55.6249 201.425 55.7249C201.325 55.8249 203.725 62.7999 206.775 71.2249C209.825 79.6249 212.35 86.4749 212.425 86.4249C212.5 86.3249 214.7 76.3249 217.4 63.6749C217.925 61.2499 218.4 59.1499 218.5 59.0249C218.575 58.8999 240.45 45.9499 267.125 30.2749C293.8 14.5999 315.8 1.64989 316 1.52489C316.5 1.1999 316 1.1999 315.45 1.49989Z" fill="white"/>
<path d="M219.575 75.05C217.75 82.1 216.3 87.9 216.35 87.95C216.5 88.075 235.525 71.425 235.45 71.225C235.375 71 223.275 62.25 223.025 62.25C222.95 62.25 221.4 68.025 219.575 75.05Z" fill="white"/>
<path d="M206.75 86.575C205.175 86.85 203.825 87.1 203.775 87.15C203.575 87.325 204.35 91.25 204.575 91.25C204.725 91.25 206.1 91 207.675 90.725C209.9 90.3 210.5 90.1 210.5 89.775C210.5 88.95 210 86.4 209.825 86.25C209.7 86.15 208.325 86.3 206.75 86.575Z" fill="white"/>
<path d="M194.625 89.4C193.125 89.725 191.525 89.925 191.075 89.875C189.75 89.65 178.25 92.575 178.25 93.125C178.25 93.275 177.075 93.775 175.65 94.2L173.025 95L173.55 96.525C173.85 97.45 174.175 98 174.35 97.925C176.05 97.25 178.9 96.525 179.275 96.625C179.525 96.7 181.275 96.35 183.175 95.85C185.075 95.35 187.7 94.675 189.05 94.375C190.375 94.075 191.625 93.675 191.825 93.45C192.05 93.25 193.325 92.875 194.675 92.625C198.375 91.925 198.225 92.05 197.9 90.425C197.75 89.65 197.575 89 197.5 88.925C197.425 88.875 196.15 89.1 194.625 89.4Z" fill="white"/>
<path d="M162.375 98.85C159.6 100.175 154.8 102.9 154.175 103.475C154.05 103.6 155.725 106.3 156.325 106.9C156.375 106.975 157.35 106.45 158.5 105.75C159.625 105.025 162.025 103.725 163.825 102.85C165.625 101.95 167.15 101.175 167.225 101.125C167.325 101 166.05 97.8 165.775 97.45C165.7 97.35 164.175 97.975 162.375 98.85Z" fill="white"/>
<path d="M147.225 109.8C145.675 111.35 144.15 112.75 143.875 112.875C143.075 113.275 139.95 118.2 138.75 120.9C138.05 122.475 137.65 123.8 137.625 124.5C137.575 125.475 137.4 126.4 136.85 128.275C136.75 128.6 137.05 128.75 138.275 128.975C139.1 129.15 139.825 129.25 139.85 129.2C139.9 129.15 140.125 128.375 140.35 127.425C140.625 126.475 140.95 125.75 141.125 125.75C141.3 125.75 141.525 125.45 141.625 125.05C141.95 123.675 143.8 120.1 145.4 117.7C146.3 116.35 146.95 115.15 146.875 115C146.8 114.875 147.975 113.525 149.5 112L152.3 109.225L151.375 108.125C150.875 107.5 150.375 107 150.25 107C150.15 107 148.775 108.275 147.225 109.8Z" fill="white"/>
<path d="M135.45 137.725C135.1 138.075 135 138.6 135 140.275C135 144.1 136.025 151.25 136.55 151.25C136.825 151.25 140.3 150.275 140.4 150.175C140.45 150.125 140.375 149.7 140.25 149.225C139.8 147.7 139.25 142.775 139.25 140.35C139.25 138.95 139.15 138 139 138C138.875 138 138.75 137.825 138.75 137.625C138.75 137.05 136.025 137.125 135.45 137.725Z" fill="white"/>
<path d="M139.325 153.775C138.6 154.05 138 154.425 138 154.6C138 155.125 141.525 162 141.775 162C142 162 144.25 160.55 144.25 160.425C144.25 160.4 143.525 158.925 142.625 157.15C141.725 155.4 141 153.8 141 153.6C141 153.15 140.9 153.175 139.325 153.775Z" fill="white"/>
<path d="M144 162.4C143.15 163 142.375 163.55 142.3 163.6C141.825 164.1 150.65 173.75 151.25 173.375C151.4 173.3 151.95 173.55 152.45 173.975L153.425 174.725L154.325 173.625C154.825 173.025 155.25 172.425 155.25 172.3C155.25 172.2 154.9 171.85 154.5 171.525C154.075 171.225 153.75 170.85 153.8 170.675C153.825 170.5 152.55 169.075 150.975 167.5C149.375 165.925 147.525 163.875 146.825 162.95L145.575 161.3L144 162.4Z" fill="white"/>
<path d="M161.2 178.4C160.8 179.025 160.5 179.625 160.5 179.75C160.5 179.875 160.825 180.15 161.225 180.35C161.625 180.575 162 180.95 162.05 181.2C162.175 181.6 166.675 184.425 171.55 187.1L173.225 188.025L173.9 186.7C174.275 185.975 174.725 185.125 174.925 184.85C175.25 184.35 175.15 184.25 172.45 182.75C170.9 181.875 168.425 180.45 166.95 179.575C165.475 178.675 164.15 178.025 164 178.125C163.875 178.2 163.425 178.05 163.025 177.775C162.625 177.475 162.2 177.25 162.075 177.25C161.975 177.25 161.575 177.775 161.2 178.4Z" fill="white"/>
<path d="M175.625 186.875C175.225 187.625 174.95 188.275 175.025 188.35C175.075 188.4 176.725 189.275 178.675 190.325L182.225 192.2L183 190.825C183.425 190.075 183.75 189.425 183.7 189.375C183.65 189.35 182 188.475 180 187.425L176.375 185.525L175.625 186.875Z" fill="white"/>
<path d="M185.6 192.275C185.125 193.25 184.75 194.075 184.8 194.125C184.85 194.15 186.125 194.825 187.625 195.625C189.15 196.425 191.55 197.725 193 198.5C194.45 199.3 195.95 199.95 196.375 199.95C197.025 199.95 197.225 199.8 197.825 198.7C198.225 198 198.45 197.35 198.325 197.275C198.2 197.2 198.025 196.95 197.95 196.725C197.8 196.375 195.85 195.225 189.225 191.65C188.05 191.025 186.95 190.5 186.8 190.5C186.625 190.5 186.1 191.3 185.6 192.275Z" fill="white"/>
<path d="M205 203C204.575 203.675 204.275 204.35 204.375 204.5C204.45 204.625 205.025 205.05 205.65 205.4C206.275 205.775 206.875 206.275 206.95 206.5C207.05 206.75 208.7 208.125 210.625 209.575C212.55 211 214.7 212.7 215.425 213.35C216.175 214.025 216.85 214.45 217.075 214.375C217.3 214.275 218.375 215.225 220.2 217.15L222.975 220.075L224.1 219.15C224.725 218.625 225.25 218.125 225.25 218.025C225.25 217.925 223.975 216.5 222.4 214.875C220.825 213.25 219.575 211.825 219.65 211.725C219.95 211.225 210.15 203.65 209.15 203.6C208.825 203.575 208.075 203.25 207.475 202.825C206.875 202.425 206.25 202 206.1 201.925C205.925 201.825 205.475 202.25 205 203Z" fill="white"/>
<path d="M63.25 203.05C63.25 203.15 63.075 203.25 62.875 203.25C62.35 203.25 62.35 206.125 62.875 206.675C63.1 206.9 64.075 207.15 65.2 207.275C67.65 207.575 70.65 208.35 72.875 209.25L74.625 209.95L75.425 208.3C75.875 207.375 76.225 206.5 76.25 206.35C76.25 205.85 71.625 204.15 68.5 203.525C66.425 203.1 63.25 202.825 63.25 203.05Z" fill="white"/>
<path d="M52.375 205.675C51.825 206.025 51.075 206.6 50.7 206.925C50.35 207.275 49.925 207.5 49.8 207.4C49.325 207.1 47.2 209.875 45.825 212.625C44.625 215.025 43.225 218.95 43.375 219.575C43.45 219.875 42.975 221.7 42.3 223.725L41.1 227.325L41.925 227.675C42.4 227.85 43.075 228.075 43.45 228.15C44.125 228.3 44.15 228.275 45.375 224.45C46.075 222.35 46.725 220.675 46.825 220.75C46.95 220.825 47.475 219.725 48 218.325C49.175 215.175 50.525 212.6 51.65 211.275C52.15 210.725 52.475 210.15 52.4 210.05C52.25 209.8 53.25 208.825 54.325 208.15L55 207.725L54.35 206.55C53.4 204.9 53.475 204.925 52.375 205.675Z" fill="white"/>
<path d="M78.3501 209.55C77.7251 210.775 77.7251 210.875 78.1251 211.125C78.3751 211.25 79.7751 212.15 81.2251 213.125C82.6751 214.075 84.0001 214.95 84.1501 215.05C84.3251 215.175 84.8001 214.775 85.3501 214.05L86.2751 212.875L85.3501 212.1C84.2501 211.175 79.6251 208.25 79.2751 208.25C79.1251 208.25 78.7001 208.825 78.3501 209.55Z" fill="white"/>
<path d="M86.675 214.7C86.05 215.525 85.5 216.275 85.45 216.425C85.4 216.55 86.225 217.375 87.25 218.25C88.275 219.125 90.4 221.025 91.95 222.45C93.5 223.9 94.85 225 94.925 224.9C95.025 224.825 95.475 225.1 95.925 225.55L96.75 226.35L97.875 225.25L99 224.15L98.15 223.25C97.7 222.775 97.35 222.25 97.4 222.1C97.55 221.775 92.35 216.95 88.225 213.575C87.875 213.275 87.675 213.45 86.675 214.7Z" fill="white"/>
<path d="M227.025 222.6C226.15 223.225 225.4 223.775 225.325 223.825C225.275 223.9 225.725 224.725 226.325 225.65C227.95 228.175 229.1 230.375 230.025 232.625C230.475 233.725 230.875 234.675 230.925 234.725C230.95 234.775 231.85 234.5 232.9 234.125C235.175 233.3 235.175 233.575 232.975 229C231.775 226.5 228.9 221.5 228.65 221.5C228.625 221.5 227.9 222 227.025 222.6Z" fill="white"/>
<path d="M103.8 231.075L102.75 232.15L103.5 232.875C103.925 233.275 104.2 233.75 104.15 233.925C104.025 234.2 107.45 237.4 111.9 241.2L113.675 242.725L114.525 241.8C115 241.3 115.625 240.575 115.95 240.225L116.5 239.6L114.2 237.6C112.925 236.525 110.8 234.65 109.45 233.425C108.125 232.225 106.875 231.25 106.675 231.25C106.5 231.25 106.075 230.975 105.75 230.625C105.425 230.275 105.1 230 105 230C104.925 230 104.375 230.475 103.8 231.075Z" fill="white"/>
<path d="M38.875 232C38.725 232.25 35.75 243.65 35.75 244C35.75 244.225 38.625 245.25 39.275 245.25C39.725 245.25 39.775 245.075 41.475 238.5C42.025 236.375 42.6 234.25 42.725 233.8C42.9 233.2 42.9 232.95 42.675 232.875C41.45 232.425 39.375 231.75 39.225 231.75C39.125 231.75 38.95 231.85 38.875 232Z" fill="white"/>
<path d="M116.2 242.35L115.275 243.45L118.3 246.25L121.3 249.05L122.425 247.95L123.55 246.825L121.975 245.35C121.1 244.55 119.75 243.275 118.975 242.55C118.2 241.85 117.475 241.25 117.35 241.25C117.225 241.275 116.7 241.75 116.2 242.35Z" fill="white"/>
<path d="M234.575 241.55C233.975 241.675 233.5 241.925 233.5 242.075C233.5 242.25 233.675 243.375 233.875 244.625C234.075 245.85 234.175 246.9 234.05 246.925C233.85 247 233.875 259.2 234.075 259.4C234.25 259.575 233.6 262.35 232.975 264.075C232.675 264.875 232.475 265.55 232.525 265.575C232.825 265.75 235.025 266.75 235.15 266.75C235.4 266.75 236.275 264.375 236.8 262.275C237.1 261.1 237.525 260 237.725 259.825C238.075 259.575 238.125 258.675 238.125 253.25C238.125 247.85 238.075 246.925 237.725 246.675C237.5 246.475 237.225 245.575 237.025 244.25C236.55 240.9 236.7 241.075 234.575 241.55Z" fill="white"/>
<path d="M124.525 250.025C123.175 251.5 123.175 251.525 123.65 251.975C124.825 253.075 129.525 257.25 130.95 258.475C131.825 259.225 132.725 259.85 132.975 259.875C133.2 259.875 133.5 259.975 133.675 260.075C133.825 260.175 134.35 259.775 134.925 259.075C135.825 257.975 135.875 257.825 135.6 257.25C135.425 256.9 134.3 255.775 133.075 254.725C131.875 253.675 129.8 251.85 128.5 250.65C127.2 249.475 126.075 248.525 126 248.525C125.925 248.55 125.275 249.225 124.525 250.025Z" fill="white"/>
<path d="M32 252.55C31.375 253.4 30.7 254.175 30.5 254.275C30.3 254.375 29.85 254.575 29.5 254.725C29.15 254.9 28.25 255.425 27.5 255.9C25.975 256.85 23.2 257.825 20.65 258.275C19.75 258.425 19.05 258.65 19.125 258.75C19.3 259.025 17.925 259.25 16 259.25C15.075 259.25 13.95 259.325 13.525 259.4C12.75 259.55 12.75 259.575 12.75 261.075V262.575L16.1 262.425C18 262.35 19.525 262.375 19.65 262.5C19.95 262.8 24.3 261.925 26.4 261.125C28.925 260.175 32.8 257.725 32.425 257.325C32.325 257.25 32.775 256.6 33.4 255.9C34.05 255.2 34.875 254.15 35.275 253.575L36.025 252.5L34.825 251.75C34.175 251.35 33.525 251.025 33.375 251.025C33.25 251.025 32.625 251.725 32 252.55Z" fill="white"/>
<path d="M0 260.575V262.75H2.2C3.4 262.75 4.775 262.825 5.275 262.9L6.2 263.05L6.3 260.975C6.35 259.825 6.4 258.85 6.375 258.8C6.35 258.775 4.9 258.675 3.175 258.575L0 258.425V260.575Z" fill="white"/>
<path d="M141.775 263.875C141.325 264.5 141.025 265.175 141.075 265.35C141.15 265.55 141.85 266.075 142.6 266.525C143.375 267 143.95 267.5 143.9 267.65C143.7 268.15 154.7 274.175 155.375 273.9C155.575 273.825 157 274.3 158.55 274.975C160.1 275.625 161.85 276.35 162.425 276.575L163.475 276.975L163.925 275.675C164.175 274.95 164.375 274.275 164.375 274.175C164.375 274 158.7 271.475 157.45 271.075C157.2 271 157 270.8 157 270.625C157 270.425 155.275 269.4 153.2 268.325C151.1 267.225 148.625 265.875 147.7 265.325C146.75 264.75 145.95 264.4 145.825 264.525C145.7 264.65 145.225 264.5 144.75 264.15C142.4 262.575 142.675 262.6 141.775 263.875Z" fill="white"/>
<path d="M227.575 270.95C225.925 272.45 224.125 273.55 221.2 274.8C219.925 275.35 218.85 275.825 218.825 275.85C218.75 275.925 219.95 279.525 220.1 279.675C220.25 279.825 224.025 278.275 225.75 277.325C227.6 276.325 230.325 274.375 231.25 273.4L231.85 272.725L230.375 271.25L228.875 269.775L227.575 270.95Z" fill="white"/>
<path d="M168.3 276.9C167.975 277.95 167.775 278.85 167.85 278.925C168.1 279.2 173.225 280.525 176.25 281.125C181 282.05 180.575 282.1 180.8 280.5C180.9 279.75 181.05 278.825 181.1 278.45C181.225 277.8 181.2 277.8 178.925 277.375C177.65 277.15 174.9 276.525 172.775 275.975C170.65 275.45 168.925 275 168.9 275C168.875 275 168.625 275.85 168.3 276.9Z" fill="white"/>
<path d="M212.375 277.875C212.25 277.925 210.9 278.15 209.4 278.375C207.525 278.65 206.625 278.7 206.5 278.5C206.4 278.325 205.425 278.325 203.35 278.5C201.725 278.625 198.875 278.75 197.075 278.75C194.9 278.75 193.75 278.85 193.75 279.025C193.75 279.175 192.85 279.25 191.2 279.225L188.625 279.175L188.55 280.7L188.475 282.2L191.125 282.375C192.65 282.475 193.75 282.675 193.75 282.825C193.75 283 195.35 283.025 198.7 282.925C204.75 282.725 207 282.525 207 282.15C207 281.975 208.325 281.7 210.325 281.425C212.125 281.15 213.65 280.925 213.7 280.875C213.75 280.825 213.65 280.125 213.475 279.275C213.2 277.85 213.025 277.625 212.375 277.875Z" fill="white"/>
</g>
<defs>
<clipPath id="clip0_139_2048">
<rect width="320" height="283" fill="white"/>
</clipPath>
</defs>
</svg>
