<svg width="297" height="298" viewBox="0 0 297 298" fill="none" xmlns="http://www.w3.org/2000/svg">
<path d="M96.9211 149.603C96.9447 122.929 118.562 101.311 145.236 101.288L145.236 101.288C171.912 101.308 193.534 122.926 193.558 149.603V149.603C193.558 176.289 171.922 197.921 145.236 197.917V197.918C118.552 197.917 96.9211 176.286 96.9211 149.603ZM98.827 149.603C98.8544 175.223 119.615 195.987 145.236 196.019C170.859 195.991 191.625 175.226 191.652 149.603C191.621 123.982 170.857 103.221 145.236 103.194C119.616 103.221 98.8545 123.983 98.827 149.603L98.827 149.603Z" fill="#FFFEFE"/>
<path d="M126.362 59.8569L128.048 67.7719L127.685 67.8573L126.007 59.9352L126.362 59.8569ZM164.501 239.277L164.138 239.355L162.46 231.44L162.815 231.362L164.501 239.277Z" fill="#FFFEFE"/>
<path d="M123.247 60.5752L125.203 68.3977L124.84 68.4831L122.885 60.6605L123.247 60.5752ZM167.623 238.559L167.26 238.644L165.304 230.822L165.66 230.729L167.623 238.587V238.559Z" fill="#FFFEFE"/>
<path d="M120.147 61.3859L122.38 69.1657L122.024 69.2724L119.791 61.4925L120.147 61.3859ZM170.709 237.748C170.591 237.777 170.475 237.813 170.36 237.855L168.127 230.075L168.483 229.961L170.709 237.748Z" fill="#FFFEFE"/>
<path d="M117.089 62.3246L119.585 70.0191L119.237 70.1329L116.733 62.4668L117.089 62.353V62.3246ZM173.767 236.781L173.418 236.895L170.915 229.2L171.271 229.08L173.767 236.781H173.767Z" fill="#FFFEFE"/>
<path d="M114.06 63.3557L116.826 70.9649L116.478 71.0858L113.711 63.4837L114.06 63.3557ZM176.796 235.736L176.448 235.864L173.681 228.255L174.03 228.134L176.796 235.736Z" fill="#FFFEFE"/>
<path d="M111.066 64.5007L114.102 72.0033L113.754 72.1455L110.724 64.643L111.066 64.5007ZM179.811 234.562L179.47 234.705L176.434 227.202L176.775 227.06L179.811 234.562Z" fill="#FFFEFE"/>
<path d="M108.121 65.7452L111.407 73.1411L111.073 73.2904L107.78 65.8946L108.121 65.7452ZM182.727 233.325L182.386 233.474L179.1 226.079L179.442 225.929L182.734 233.325H182.727Z" fill="#FFFEFE"/>
<path d="M105.213 67.0963L108.769 74.3713L108.434 74.5348L104.879 67.2599L105.206 67.0963H105.213ZM185.621 231.96L185.294 232.123L181.739 224.848L182.066 224.685L185.621 231.96Z" fill="#FFFEFE"/>
<path d="M102.361 68.547L106.159 75.6584L105.832 75.8291L102.034 68.7177L102.361 68.5399V68.547ZM188.473 230.502L188.146 230.672L184.341 223.561L184.668 223.39L188.473 230.537V230.502Z" fill="#FFFEFE"/>
<path d="M99.5524 70.0902L103.606 77.102L103.286 77.2869L99.2395 70.2893L99.5524 70.1044V70.0902ZM191.289 228.937L190.969 229.129L186.923 222.117L187.243 221.933L191.289 228.937Z" fill="#FFFEFE"/>
<path d="M96.8144 71.7117L101.081 78.5741L100.768 78.7733L96.5015 71.9108L96.8144 71.7117ZM194.034 227.28L193.721 227.472L189.454 220.61L189.767 220.418L194.034 227.28Z" fill="#FFFEFE"/>
<path d="M94.1263 73.4752L98.6492 80.1884L98.3434 80.3946L93.8206 73.6886L94.1263 73.4752ZM196.687 225.531L196.381 225.737L191.851 219.038L192.164 218.825L196.687 225.531Z" fill="#FFFEFE"/>
<path d="M91.5022 75.3172L96.2597 81.8596L95.961 82.0801L91.2035 75.5305L91.5022 75.3171V75.3172ZM199.304 223.682L199.012 223.895L194.262 217.353L194.56 217.132L199.318 223.675L199.304 223.682Z" fill="#FFFEFE"/>
<path d="M88.9421 77.2372L93.9201 83.6375L93.6214 83.8579L88.6434 77.4577L88.935 77.2301L88.9421 77.2372ZM201.857 221.762L201.558 221.99L196.58 215.589L196.879 215.362L201.857 221.762Z" fill="#FFFEFE"/>
<path d="M86.4531 79.2498L91.6586 85.4438L91.3742 85.6856L86.1758 79.4844L86.4531 79.2498ZM204.331 219.728L204.047 219.97L198.849 213.776L199.133 213.534L204.331 219.728Z" fill="#FFFEFE"/>
<path d="M84.0353 81.3475L89.447 87.3567L89.1768 87.6056L83.7579 81.5893L84.0353 81.3475ZM206.742 217.63C206.657 217.708 206.564 217.794 206.465 217.872L201.053 211.863L201.331 211.614L206.742 217.63Z" fill="#FFFEFE"/>
<path d="M81.6743 83.5237L87.2923 89.3479L87.022 89.6039L81.4041 83.7797L81.6743 83.5237ZM209.061 215.44L208.79 215.696L203.172 209.879L203.435 209.616L209.061 215.44Z" fill="#FFFEFE"/>
<path d="M79.427 85.778L85.2441 91.4031L84.9882 91.6662L79.1639 86.0482L79.427 85.778ZM211.336 213.171L211.08 213.435L205.263 207.816L205.519 207.553L211.336 213.171Z" fill="#FFFEFE"/>
<path d="M77.2368 88.1177L83.2459 93.5294L83.0042 93.8068L76.9879 88.395L77.2368 88.1177H77.2368ZM213.519 210.825C213.434 210.917 213.356 211.017 213.271 211.102L207.261 205.69L207.503 205.413L213.519 210.825Z" fill="#FFFEFE"/>
<path d="M75.1318 90.5284L81.3329 95.7269L81.0911 96.0113L74.89 90.8129L75.1318 90.5284ZM215.61 208.407L215.375 208.691L209.174 203.493L209.416 203.208L215.61 208.407H215.61Z" fill="#FFFEFE"/>
<path d="M73.1407 93.0458L79.5409 98.0237C79.4627 98.1233 79.3916 98.2229 79.3133 98.3153L72.9131 93.3373C72.9842 93.2378 73.0553 93.1382 73.1335 93.0458H73.1407ZM217.623 205.918C217.552 206.017 217.473 206.117 217.395 206.209L210.995 201.231L211.222 200.933L217.623 205.911V205.918Z" fill="#FFFEFE"/>
<path d="M71.1779 95.5632L77.7203 100.314L77.507 100.619L70.9574 95.8904L71.1779 95.5917V95.5632ZM219.55 203.358L219.329 203.656L212.78 198.899L213 198.607L219.55 203.358Z" fill="#FFFEFE"/>
<path d="M69.3289 98.1731L76.0349 102.703L75.8287 103.009L69.1227 98.486L69.3289 98.1731V98.1731ZM221.385 200.741L221.178 201.046L214.465 196.516L214.671 196.211L221.385 200.741Z" fill="#FFFEFE"/>
<path d="M67.5866 100.868L74.442 105.135L74.2501 105.448L67.3876 101.181L67.5867 100.868H67.5866ZM223.12 198.045L222.921 198.358L216.058 194.091L216.257 193.779L223.12 198.045Z" fill="#FFFEFE"/>
<path d="M65.9226 103.599L72.9344 107.638C72.8704 107.752 72.8064 107.852 72.7424 107.958L65.7377 103.912C65.7946 103.805 65.8586 103.699 65.9226 103.599ZM224.77 195.336C224.706 195.443 224.642 195.542 224.578 195.656L217.573 191.603L217.765 191.29L224.77 195.336Z" fill="#FFFEFE"/>
<path d="M64.3652 106.394L71.4765 110.191L71.2987 110.519L64.1874 106.721L64.358 106.394H64.3652ZM226.313 192.499L226.142 192.833L219.031 189.028L219.201 188.701L226.313 192.499Z" fill="#FFFEFE"/>
<path d="M62.9073 109.238L70.1751 112.794L70.0115 113.128L62.7366 109.573L62.9072 109.238H62.9073ZM227.763 189.654L227.6 189.981L220.325 186.425L220.496 186.098L227.763 189.654Z" fill="#FFFEFE"/>
<path d="M61.5419 112.14L68.9307 115.425C68.8809 115.539 68.8311 115.653 68.7884 115.767L61.3926 112.474L61.5419 112.14V112.14ZM229.115 186.745L228.965 187.087L221.569 183.787C221.626 183.68 221.669 183.567 221.719 183.453L229.115 186.745Z" fill="#FFFEFE"/>
<path d="M60.2832 115.091L67.7857 118.121L67.6506 118.462L60.1481 115.432L60.2832 115.091ZM230.359 183.801L230.224 184.143L222.714 181.113L222.857 180.772L230.359 183.801Z" fill="#FFFEFE"/>
<path d="M59.124 118.064L66.7403 120.83C66.7048 120.951 66.6621 121.065 66.6194 121.178L59.0173 118.412C59.06 118.298 59.0956 118.177 59.1382 118.064L59.124 118.064ZM231.504 180.807C231.461 180.921 231.426 181.042 231.383 181.149L223.774 178.382L223.902 178.041L231.504 180.807Z" fill="#FFFEFE"/>
<path d="M58.0787 121.093L65.7804 123.625L65.6666 123.98L57.965 121.477L58.0787 121.129V121.093ZM232.535 177.778L232.422 178.126L224.727 175.63L224.841 175.275L232.535 177.778V177.778Z" fill="#FFFEFE"/>
<path d="M57.14 124.151L64.9198 126.384L64.8132 126.74L57.0333 124.507L57.14 124.151ZM233.502 174.713L233.396 175.069L225.616 172.843L225.723 172.487L233.502 174.713Z" fill="#FFFEFE"/>
<path d="M56.3079 127.237L64.1304 129.2L64.0451 129.556L56.187 127.6L56.2794 127.237H56.3079ZM234.285 171.619L234.199 171.975L226.377 170.019L226.462 169.664L234.285 171.619Z" fill="#FFFEFE"/>
<path d="M55.5826 130.359L63.4976 132.045C63.4976 132.166 63.4407 132.286 63.4194 132.407L55.5044 130.736L55.5826 130.373V130.359ZM235.003 168.498L234.925 168.86L227.01 167.175L227.088 166.819L235.003 168.498Z" fill="#FFFEFE"/>
<path d="M54.9639 133.503L62.9358 134.925L62.8717 135.295L54.907 133.872C54.907 133.751 54.9425 133.631 54.9639 133.51L54.9639 133.503ZM235.593 165.354C235.593 165.475 235.558 165.596 235.536 165.724L227.564 164.302L227.628 163.932L235.593 165.354Z" fill="#FFFEFE"/>
<path d="M54.4661 136.66L62.4735 137.791L62.4237 138.16L54.4092 137.03L54.459 136.66L54.4661 136.66ZM236.091 162.19L236.041 162.56L228.027 161.429L228.076 161.066L236.091 162.19V162.19Z" fill="#FFFEFE"/>
<path d="M54.0678 139.839L62.1179 140.692L62.0753 141.062L54.0251 140.216L54.0678 139.846V139.839ZM236.475 159.039L236.432 159.409L228.389 158.563L228.432 158.2L236.475 159.039Z" fill="#FFFEFE"/>
<path d="M53.7905 143.032L61.862 143.594V143.963L53.7977 143.402V143.032H53.7905ZM236.738 155.832V156.202L228.667 155.633V155.263L236.738 155.832Z" fill="#FFFEFE"/>
<path d="M53.6199 146.225L61.7055 146.509V146.872L53.6199 146.595V146.225ZM236.902 152.625V152.995L228.816 152.71V152.341L236.909 152.625H236.902Z" fill="#FFFEFE"/>
<path d="M53.5559 149.425H61.6415V149.795H53.5559V149.425ZM236.951 149.425V149.795H228.88V149.425H236.951Z" fill="#FFFEFE"/>
<path d="M53.6056 152.625L61.6913 152.341V152.71L53.6056 152.995V152.625ZM236.887 146.225V146.595L228.795 146.872V146.509L236.88 146.225H236.887Z" fill="#FFFEFE"/>
<path d="M53.7692 155.825L61.8335 155.256V155.626L53.7621 156.195V155.825H53.7692ZM236.717 143.025V143.394L228.645 143.956V143.586L236.717 143.025Z" fill="#FFFEFE"/>
<path d="M54.0251 159.011L62.0753 158.172L62.1179 158.535L54.075 159.381C54.075 159.253 54.0394 159.139 54.0251 159.011V159.011ZM236.432 139.81C236.432 139.938 236.432 140.059 236.475 140.18L228.432 141.026L228.389 140.657L236.432 139.81Z" fill="#FFFEFE"/>
<path d="M54.4164 162.19L62.4309 161.066L62.4807 161.429L54.4662 162.56L54.4164 162.19ZM236.041 136.667L236.091 137.03L228.076 138.16L228.027 137.791L236.041 136.667Z" fill="#FFFEFE"/>
<path d="M54.907 165.354L62.8717 163.932L62.9358 164.302L54.9639 165.724C54.9639 165.603 54.9283 165.482 54.907 165.361L54.907 165.354ZM235.536 133.502C235.536 133.623 235.536 133.744 235.593 133.865L227.628 135.287L227.564 134.918L235.536 133.495V133.502Z" fill="#FFFEFE"/>
<path d="M55.5044 168.498L63.4194 166.819C63.4194 166.94 63.4763 167.054 63.4976 167.175L55.5826 168.86L55.5044 168.498ZM234.925 130.359L235.003 130.722L227.088 132.407C227.088 132.286 227.031 132.166 227.01 132.045L234.925 130.359Z" fill="#FFFEFE"/>
<path d="M56.2156 171.62L64.0736 169.664L64.159 170.02L56.3365 171.975L56.244 171.62H56.2156ZM234.199 127.245L234.285 127.6L226.462 129.556L226.377 129.2L234.199 127.245Z" fill="#FFFEFE"/>
<path d="M57.0333 174.713L64.8132 172.487C64.8132 172.601 64.8843 172.715 64.9198 172.843L57.14 175.069L57.0333 174.713ZM233.396 124.151L233.502 124.507L225.723 126.74L225.616 126.384L233.396 124.151Z" fill="#FFFEFE"/>
<path d="M57.972 177.778L65.6666 175.282L65.7803 175.63L58.0787 178.126L57.9721 177.778H57.972ZM232.436 121.093L232.549 121.442L224.855 123.945L224.741 123.589L232.436 121.093Z" fill="#FFFEFE"/>
<path d="M59.0032 180.807L66.6053 178.041L66.7333 178.382L59.1241 181.149C59.0814 181.042 59.0459 180.921 59.0032 180.807H59.0032ZM231.383 118.064C231.426 118.177 231.461 118.298 231.504 118.412L223.902 121.178L223.774 120.83L231.383 118.064Z" fill="#FFFEFE"/>
<path d="M60.1481 183.794L67.6506 180.765L67.7857 181.106L60.2832 184.136L60.1481 183.794ZM230.224 115.091L230.359 115.432L222.857 118.462L222.714 118.121L230.224 115.091Z" fill="#FFFEFE"/>
<path d="M61.3926 186.745L68.7884 183.453L68.9307 183.794L61.5419 187.087L61.3926 186.745ZM228.965 112.14L229.115 112.474L221.719 115.802L221.577 115.461L228.965 112.175V112.14Z" fill="#FFFEFE"/>
<path d="M62.7438 189.647L70.0116 186.091L70.1752 186.418L62.9073 189.974L62.7438 189.64V189.647ZM227.6 109.238L227.771 109.573L220.496 113.128L220.332 112.794L227.6 109.238Z" fill="#FFFEFE"/>
<path d="M64.1945 192.499L71.3058 188.701L71.4836 189.028L64.3723 192.833L64.2016 192.499H64.1945ZM226.142 106.394L226.313 106.721L219.201 110.519L219.024 110.191L226.135 106.394H226.142Z" fill="#FFFEFE"/>
<path d="M65.7377 195.308L72.7424 191.261L72.9344 191.574L65.9226 195.628C65.8657 195.521 65.8017 195.414 65.7377 195.308ZM224.613 103.599C224.677 103.706 224.748 103.805 224.805 103.919L217.765 107.98L217.573 107.66L224.578 103.62L224.613 103.599Z" fill="#FFFEFE"/>
<path d="M67.3875 198.045L74.2499 193.779L74.442 194.099L67.5865 198.365L67.3875 198.053L67.3875 198.045ZM222.921 100.868L223.12 101.181L216.257 105.448L216.079 105.135L222.942 100.868H222.921Z" fill="#FFFEFE"/>
<path d="M69.1227 200.741L75.8358 196.211L76.0421 196.516L69.336 201.046L69.1227 200.741H69.1227ZM221.178 98.1731L221.385 98.486L214.657 103.002L214.444 102.696L221.157 98.166L221.178 98.1731Z" fill="#FFFEFE"/>
<path d="M70.9646 203.358L77.5071 198.607L77.7275 198.899L71.1779 203.656L70.9646 203.358H70.9646ZM219.329 95.5632L219.55 95.8619L213 100.619L212.787 100.321L219.329 95.5632Z" fill="#FFFEFE"/>
<path d="M72.8846 205.918L79.2849 200.94L79.5125 201.238L73.1122 206.216C73.034 206.124 72.9629 206.024 72.8918 205.925L72.8846 205.918ZM217.402 93.0458L217.623 93.3373L211.222 98.3153C211.144 98.2229 211.073 98.1233 210.995 98.0237L217.395 93.0458H217.402Z" fill="#FFFEFE"/>
<path d="M74.89 208.407L81.0911 203.208L81.3329 203.493L75.1318 208.691L74.89 208.407ZM215.368 90.5284L215.61 90.8129L209.409 96.0113L209.167 95.7269L215.368 90.5284Z" fill="#FFFEFE"/>
<path d="M76.9879 210.825L83.0042 205.413L83.2459 205.69L77.2368 211.095L76.9879 210.818V210.825ZM213.271 88.1177L213.519 88.395L207.503 93.8068L207.261 93.5294L213.271 88.1177Z" fill="#FFFEFE"/>
<path d="M79.1711 213.171L84.9883 207.553L85.2442 207.816L79.4271 213.434L79.1711 213.171ZM211.102 85.785L211.358 86.0482L205.54 91.6661L205.285 91.403L211.102 85.785Z" fill="#FFFEFE"/>
<path d="M81.4254 215.44L87.0505 209.616L87.3137 209.879L81.6957 215.696L81.4254 215.44ZM208.812 83.5237C208.904 83.609 208.99 83.7015 209.082 83.7797L203.464 89.6039C203.372 89.5186 203.286 89.4261 203.194 89.3479L208.812 83.5237Z" fill="#FFFEFE"/>
<path d="M83.7579 217.63L89.1768 211.614L89.447 211.863L84.0353 217.872L83.7579 217.63ZM206.472 81.3475L206.742 81.5893L201.331 87.6056C201.245 87.5202 201.146 87.442 201.053 87.3567L206.472 81.3475Z" fill="#FFFEFE"/>
<path d="M86.1758 219.728L91.3742 213.534L91.6587 213.776L86.4531 219.97L86.1758 219.728H86.1758ZM204.054 79.2498L204.332 79.4844L199.133 85.6856L198.849 85.4438L204.054 79.2498Z" fill="#FFFEFE"/>
<path d="M88.6505 221.762L93.6285 215.362L93.9201 215.589L88.9421 221.989L88.6434 221.769L88.6505 221.762ZM201.565 77.2372L201.857 77.4648L196.879 83.865L196.587 83.6445L201.565 77.2443V77.2372Z" fill="#FFFEFE"/>
<path d="M91.2035 223.689L95.961 217.14L96.2597 217.36L91.5093 223.902L91.2035 223.689L91.2035 223.689ZM199.012 75.3171L199.311 75.5376L194.553 82.0801L194.255 81.8596L199.012 75.3171Z" fill="#FFFEFE"/>
<path d="M93.8206 225.531L98.3434 218.825L98.6492 219.038L94.1263 225.737L93.8206 225.531ZM196.381 73.4824L196.687 73.6887L192.164 80.3947L191.858 80.1885L196.381 73.4824Z" fill="#FFFEFE"/>
<path d="M96.5015 227.28L100.768 220.418L101.081 220.617L96.8144 227.472L96.5015 227.28V227.28ZM193.693 71.7117L194.006 71.9108L189.739 78.7733L189.426 78.5741L193.693 71.7117Z" fill="#FFFEFE"/>
<path d="M99.2395 228.937L103.286 221.933L103.606 222.117L99.5595 229.129L99.2395 228.937ZM190.976 70.0902L191.296 70.2751L187.25 77.2869L186.93 77.102L190.976 70.0902Z" fill="#FFFEFE"/>
<path d="M102.034 230.502L105.853 223.355L106.18 223.526L102.383 230.637L102.056 230.466L102.034 230.502ZM188.146 68.5471L188.473 68.7249L184.676 75.8363L184.348 75.6656L188.146 68.5542V68.5471Z" fill="#FFFEFE"/>
<path d="M104.886 231.96L108.441 224.685L108.769 224.848L105.213 232.123L104.879 231.96H104.886ZM185.294 67.0963L185.621 67.2599L182.066 74.5348L181.731 74.3713L185.287 67.0963H185.294Z" fill="#FFFEFE"/>
<path d="M107.78 233.325L111.073 225.929L111.407 226.079L108.121 233.474C108.008 233.418 107.894 233.375 107.78 233.325ZM182.393 65.7452L182.727 65.8946L179.435 73.2904C179.328 73.2335 179.214 73.1909 179.1 73.1411L182.393 65.7452Z" fill="#FFFEFE"/>
<path d="M110.724 234.562L113.754 227.06L114.102 227.202L111.066 234.705L110.724 234.562ZM179.442 64.4865L179.783 64.6287L176.746 72.1312L176.412 71.989L179.442 64.4865H179.442Z" fill="#FFFEFE"/>
<path d="M113.711 235.736L116.477 228.162L116.826 228.283L114.06 235.892L113.711 235.764V235.736ZM176.448 63.3557L176.796 63.4837L174.03 71.0858L173.681 70.9649L176.448 63.3557Z" fill="#FFFEFE"/>
<path d="M116.733 236.781L119.237 229.08L119.585 229.2L117.089 236.895L116.733 236.781V236.781ZM173.411 62.3246L173.76 62.4384L171.278 70.1329L170.929 70.0191L173.411 62.3246Z" fill="#FFFEFE"/>
<path d="M119.791 237.727L122.024 229.94L122.38 230.054L120.147 237.834C120.031 237.791 119.912 237.755 119.791 237.727V237.727ZM170.36 61.3646L170.716 61.4713L168.483 69.2511L168.127 69.1445L170.36 61.3646Z" fill="#FFFEFE"/>
<path d="M122.92 238.559L124.883 230.701L125.239 230.793L123.283 238.616L122.92 238.531V238.559ZM167.295 60.5752L167.658 60.6605L165.695 68.4831L165.34 68.3977L167.295 60.5752Z" fill="#FFFEFE"/>
<path d="M126.007 239.277L127.685 231.362L128.048 231.44L126.369 239.355L126.007 239.277ZM164.166 59.8569L164.522 59.9352L162.844 67.8573L162.481 67.7719L164.166 59.8569Z" fill="#FFFEFE"/>
<path d="M129.143 239.896L130.565 231.931L130.928 231.988L129.506 239.96L129.136 239.896L129.143 239.896ZM160.995 59.2667L161.365 59.3307L159.942 67.2955L159.58 67.2386L161.002 59.2667L160.995 59.2667Z" fill="#FFFEFE"/>
<path d="M132.307 240.394L133.438 232.386L133.801 232.436L132.677 240.444L132.307 240.394ZM157.837 58.769L158.2 58.8187L157.055 66.8333L156.685 66.7835L157.816 58.7689L157.837 58.769Z" fill="#FFFEFE"/>
<path d="M135.486 240.792L136.332 232.742L136.695 232.785L135.849 240.835L135.486 240.792ZM154.687 58.3849L155.049 58.4276L154.21 66.4777L153.841 66.4279L154.687 58.3849Z" fill="#FFFEFE"/>
<path d="M138.672 241.076L139.234 233.005H139.604L139.042 241.076H138.672ZM151.473 58.1218H151.842L151.273 66.1933H150.911L151.473 58.1218Z" fill="#FFFEFE"/>
<path d="M141.865 241.24L142.121 233.14H142.491L142.206 241.226H141.837L141.865 241.24ZM148.265 57.9653H148.642L148.358 66.0581H147.988L148.265 57.9724V57.9653Z" fill="#FFFEFE"/>
<path d="M145.065 241.311V233.218H145.442V241.311H145.065ZM145.257 57.9084H145.442V66.0225H145.065V57.9156L145.257 57.9084Z" fill="#FFFEFE"/>
<path d="M148.265 241.254L147.988 233.14H148.358L148.642 241.226H148.265L148.265 241.254ZM141.865 57.9796H142.235L142.519 66.0652H142.149L141.865 57.9796Z" fill="#FFFEFE"/>
<path d="M151.466 241.098L150.904 233.019H151.273L151.835 241.091H151.466V241.098ZM138.665 58.1432H139.035L139.597 66.2146H139.227L138.665 58.1432Z" fill="#FFFEFE"/>
<path d="M154.659 240.835L153.812 232.785L154.182 232.742L155.021 240.792L154.658 240.835H154.659ZM135.458 58.4276L135.82 58.3849L136.667 66.4279L136.304 66.4777L135.458 58.4276Z" fill="#FFFEFE"/>
<path d="M157.83 240.444L156.707 232.429L157.076 232.379L158.2 240.387L157.83 240.436V240.444ZM132.307 58.8258L132.677 58.7689L133.801 66.7835L133.431 66.8332L132.307 58.8258Z" fill="#FFFEFE"/>
<path d="M159.957 231.931L159.594 231.988L161.016 239.996L161.379 239.932L159.957 231.931ZM129.136 59.2881L130.558 67.2884L130.921 67.2315L129.498 59.2312L129.136 59.2881Z" fill="#FFFEFE"/>
<path d="M128.538 107.347L128.126 107.546L106.6 57.7093L106.984 57.5315L128.538 107.347Z" fill="#FFFEFE"/>
<path d="M113.633 116.976L113.334 117.296L46.2169 52.1695L46.5298 51.8708L113.633 116.976Z" fill="#FFFEFE"/>
<path d="M103.556 131.554L103.4 131.974L52.9371 111.948L53.0936 111.564L103.556 131.554Z" fill="#FFFEFE"/>
<path d="M103.001 166.336L103.179 166.72L53.3425 188.26L53.1647 187.876L103.001 166.336Z" fill="#FFFEFE"/>
<path d="M112.616 181.234L112.929 181.547L47.6534 248.799L47.3263 248.522L112.616 181.234Z" fill="#FFFEFE"/>
<path d="M127.23 191.311L127.607 191.482L107.588 241.937L107.169 241.78L127.23 191.311Z" fill="#FFFEFE"/>
<path d="M161.969 191.88L162.367 191.674L183.893 241.539L183.502 241.681L161.969 191.88Z" fill="#FFFEFE"/>
<path d="M176.889 182.258L177.166 181.931L243.935 246.723L243.665 247.05L176.889 182.258Z" fill="#FFFEFE"/>
<path d="M186.951 167.637L187.094 167.246L237.577 187.279L237.407 187.663L186.951 167.637Z" fill="#FFFEFE"/>
<path d="M187.499 132.884L187.314 132.5L237.158 110.959L237.335 111.343L187.499 132.884Z" fill="#FFFEFE"/>
<path d="M176.882 118.839L176.434 118.433L243.281 52.7029L243.707 53.1509L176.882 118.839Z" fill="#FFFEFE"/>
<path d="M163.277 107.916L162.901 107.752L182.898 57.2826L183.317 57.439L163.277 107.916Z" fill="#FFFEFE"/>
<path d="M217.189 75.3669C176.186 35.6405 110.742 36.6732 71.0132 77.6735C31.284 118.674 32.3122 184.117 73.3098 223.849C114.307 263.581 179.751 262.558 219.486 221.563C259.236 180.563 258.208 115.098 217.189 75.3669L217.189 75.3669ZM175.545 244.945C122.888 261.664 66.6486 232.532 49.9279 179.876C33.2072 127.22 62.3368 70.9795 114.992 54.2566C167.647 37.5337 223.889 66.661 240.614 119.315C257.354 171.977 228.215 228.234 175.545 244.945Z" fill="#FFFEFE"/>
<path d="M95.6269 101.515C69.0534 128.919 69.7304 172.678 97.1391 199.247C124.548 225.815 168.306 225.13 194.87 197.717C221.434 170.304 220.741 126.545 193.323 99.9865C165.922 73.4329 122.184 74.1174 95.6269 101.515ZM194.255 197.093C168.017 224.178 124.788 224.861 97.708 198.616C70.6282 172.372 69.9561 129.143 96.2068 102.069C122.457 74.9959 165.687 74.3339 192.754 100.591C219.804 126.831 220.475 170.025 194.255 197.093V197.093Z" fill="#FFFEFE"/>
<path d="M102.176 107.866C79.1069 131.651 79.6889 169.634 103.476 192.701C127.264 215.768 165.247 215.183 188.312 191.393C211.376 167.603 210.786 129.619 186.994 106.557C163.213 83.4905 125.234 84.0764 102.176 107.866ZM187.805 190.82C165.038 214.321 127.53 214.914 104.033 192.143C80.5359 169.373 79.9499 131.865 102.724 108.371C125.498 84.8781 163.007 84.2983 186.496 107.077C209.978 129.842 210.564 167.332 187.805 190.82V190.82Z" fill="#FFFEFE"/>
<path d="M114.095 119.422C97.4225 136.626 97.8531 164.088 115.057 180.761C132.26 197.434 159.723 197.005 176.396 179.801C193.07 162.598 192.641 135.136 175.438 118.462C158.234 101.787 130.769 102.217 114.095 119.422ZM176.049 179.47C159.551 196.475 132.391 196.887 115.385 180.39C98.3786 163.893 97.9647 136.733 114.461 119.725C130.956 102.718 158.116 102.302 175.125 118.796C192.13 135.298 192.544 162.458 176.049 179.47Z" fill="#FFFEFE"/>
<path d="M145.065 0.0999756L153.798 11.0729V3.44232C153.873 2.70107 153.714 1.95479 153.343 1.3089C152.781 0.75264 151.992 0.489746 151.209 0.597771L151.209 0.0999756H157.055V0.597771C156.535 0.635712 156.026 0.760712 155.547 0.967575C155.279 1.13658 155.07 1.38521 154.95 1.6787C154.776 2.25188 154.703 2.85125 154.737 3.44943V18.1771H154.289L142.356 3.44232V14.6925C142.265 15.4504 142.527 16.2079 143.067 16.7477C143.528 17.1007 144.094 17.2885 144.674 17.2811L145.086 17.2811V17.7647H138.814V17.2811C139.541 17.4471 140.302 17.2296 140.831 16.7047C141.36 16.1798 141.584 15.4205 141.424 14.6925L141.424 2.22628L141.047 1.75693C140.776 1.38902 140.439 1.07541 140.052 0.832443C139.661 0.664131 139.24 0.579353 138.814 0.583542V0.0999756H145.065Z" fill="#FFFEFE"/>
<path d="M0.00709534 135.487H0.483566C0.500732 135.786 0.596375 136.075 0.76091 136.326C0.94928 136.577 1.19252 136.781 1.47205 136.923C1.5787 136.98 2.24718 137.25 3.49168 137.748L18.0914 143.288V143.8L6.71313 148.18L18.0914 153.009V153.493L3.64813 159.31C2.73347 159.637 1.85237 160.051 1.01692 160.547C0.677689 160.849 0.481461 161.28 0.476456 161.735H0V154.069H0.476456C0.447449 154.5 0.546402 154.931 0.76091 155.306C0.913757 155.5 1.14709 155.612 1.39381 155.612C2.12088 155.499 2.82764 155.281 3.49165 154.965L12.0822 151.494L5.36908 148.721L3.49168 149.432C2.78435 149.682 2.09924 149.992 1.44357 150.356C1.14221 150.535 0.896103 150.793 0.732468 151.103C0.560242 151.495 0.482285 151.921 0.504883 152.348H0.0284119V143.8H0.504883C0.49469 144.236 0.544968 144.672 0.654221 145.094C0.706497 145.266 0.81395 145.416 0.960007 145.521C1.10175 145.626 1.27432 145.681 1.4507 145.677C2.0817 145.55 2.69693 145.355 3.28543 145.094L11.6627 141.873L4.08191 138.985C3.55702 138.768 3.02048 138.581 2.47473 138.424C2.21695 138.356 1.95186 138.32 1.68538 138.317C1.36322 138.302 1.05273 138.439 0.846237 138.687C0.585693 139.113 0.466232 139.611 0.504898 140.109H0.0284271L0.00709534 135.487Z" fill="#FFFEFE"/>
<path d="M142.974 297.214L142.825 291.318H143.358C143.56 292.68 144.216 293.934 145.222 294.874C146.079 295.716 147.227 296.197 148.429 296.218C149.206 296.269 149.971 296.014 150.562 295.507C151.047 295.101 151.33 294.504 151.337 293.871C151.344 293.504 151.248 293.142 151.06 292.826C150.74 292.348 150.329 291.937 149.851 291.617C148.934 291.051 147.984 290.54 147.007 290.088C144.937 289.071 143.536 288.111 142.818 287.208C142.111 286.328 141.731 285.229 141.744 284.1C141.737 282.637 142.368 281.242 143.472 280.282C144.673 279.196 146.25 278.622 147.867 278.682C148.398 278.679 148.928 278.736 149.446 278.852C150.083 279.015 150.706 279.229 151.309 279.492C151.632 279.646 151.983 279.735 152.34 279.755C152.599 279.744 152.847 279.652 153.051 279.492C153.325 279.289 153.537 279.013 153.663 278.696H154.146V285.38H153.663C153.411 283.745 152.635 282.235 151.451 281.078C150.5 280.146 149.227 279.616 147.895 279.599C147.046 279.555 146.211 279.837 145.563 280.388C144.655 281.142 144.429 282.444 145.03 283.46C145.291 283.894 145.634 284.273 146.039 284.577C146.798 285.106 147.602 285.565 148.443 285.949C149.663 286.511 150.825 287.19 151.913 287.976C152.575 288.48 153.127 289.114 153.535 289.839C153.918 290.533 154.114 291.315 154.104 292.108C154.131 293.475 153.575 294.788 152.575 295.72C151.521 296.717 150.113 297.252 148.664 297.207C148.1 297.208 147.538 297.136 146.992 296.993C146.475 296.85 145.972 296.657 145.492 296.417C145.112 296.199 144.695 296.054 144.262 295.991C144.062 295.984 143.868 296.061 143.728 296.204C143.535 296.508 143.409 296.85 143.358 297.207L142.974 297.214Z" fill="#FFFEFE"/>
<path d="M295.891 147.32H288.687V147.668C288.606 148.608 289.004 149.525 289.746 150.108C290.692 150.692 291.772 151.025 292.883 151.075V151.572H283.638V151.075C284.498 151.007 285.338 150.786 286.12 150.42C286.662 150.172 287.114 149.762 287.414 149.247C287.67 148.638 287.785 147.979 287.748 147.32H282.77C282.172 147.284 281.573 147.325 280.985 147.441C280.758 147.53 280.568 147.693 280.445 147.903C280.284 148.245 280.213 148.622 280.238 148.998V150.058C279.97 152.991 281.984 155.645 284.882 156.174V156.657L279.257 155.861V140.571H279.741V141.154C279.72 141.586 279.816 142.016 280.018 142.399C280.157 142.642 280.379 142.826 280.644 142.918C281.18 143.052 281.735 143.1 282.287 143.06H293.928C294.419 143.077 294.912 143.056 295.4 142.996C295.688 142.928 295.942 142.756 296.111 142.513C296.374 142.11 296.501 141.634 296.474 141.154V140.571H296.957V155.377H291.731V154.915C292.718 154.779 293.661 154.413 294.483 153.848C295.071 153.337 295.497 152.665 295.706 151.914C295.904 151.015 295.983 150.095 295.94 149.176L295.891 147.32Z" fill="#FFFEFE"/>
<path d="M234.747 232.642L232.749 230.737L232.926 230.559C233.442 230.946 234.074 231.147 234.718 231.128C235.281 231.119 235.819 230.898 236.226 230.509C236.496 230.272 236.666 229.942 236.702 229.584C236.727 229.287 236.621 228.993 236.411 228.781C236.293 228.659 236.142 228.572 235.977 228.532C235.712 228.475 235.438 228.475 235.174 228.532C234.692 228.647 234.217 228.789 233.751 228.959C233.009 229.262 232.213 229.41 231.412 229.392C230.88 229.328 230.388 229.076 230.025 228.681C229.531 228.203 229.271 227.533 229.314 226.847C229.402 225.839 229.961 224.932 230.821 224.4C231.085 224.241 231.361 224.103 231.646 223.988C231.802 223.93 231.946 223.846 232.073 223.739C232.157 223.649 232.21 223.534 232.222 223.412C232.248 223.253 232.228 223.09 232.165 222.942L232.329 222.786L234.541 224.998L234.377 225.154C233.76 224.695 233.012 224.446 232.244 224.443C231.62 224.456 231.026 224.711 230.587 225.154C230.287 225.417 230.103 225.788 230.075 226.185C230.022 226.736 230.378 227.242 230.914 227.38C231.146 227.437 231.388 227.449 231.625 227.415C232.051 227.338 232.47 227.224 232.877 227.074C233.466 226.854 234.076 226.694 234.697 226.598C235.082 226.543 235.475 226.57 235.849 226.676C236.207 226.78 236.532 226.973 236.795 227.238C237.253 227.685 237.498 228.305 237.471 228.944C237.455 229.626 237.165 230.272 236.667 230.736C236.483 230.927 236.272 231.09 236.041 231.22C235.816 231.345 235.577 231.445 235.33 231.519C235.133 231.575 234.947 231.667 234.782 231.789C234.711 231.852 234.669 231.943 234.669 232.038C234.708 232.203 234.78 232.358 234.882 232.493L234.747 232.642Z" fill="#FFFEFE"/>
<path d="M231.099 235.345L228.709 232.962L228.596 233.076C228.257 233.36 228.085 233.797 228.14 234.235C228.257 234.739 228.502 235.205 228.852 235.586L228.688 235.75L225.623 232.685L225.779 232.521C226.088 232.781 226.439 232.986 226.818 233.126C227.082 233.221 227.369 233.236 227.643 233.169C227.914 233.043 228.157 232.861 228.354 232.635L226.747 231.007C226.558 230.798 226.345 230.612 226.114 230.452C226.005 230.419 225.888 230.419 225.779 230.452C225.611 230.512 225.462 230.615 225.346 230.751L224.997 231.099C224.504 231.542 224.176 232.138 224.066 232.792C224.004 233.448 224.161 234.105 224.514 234.662L224.35 234.818L222.75 232.685L227.82 227.615L227.977 227.778L227.785 227.97C227.636 228.107 227.525 228.282 227.465 228.475C227.413 228.595 227.413 228.732 227.465 228.852C227.596 229.074 227.762 229.273 227.956 229.442L231.817 233.304C231.971 233.473 232.14 233.628 232.322 233.766C232.442 233.836 232.582 233.864 232.72 233.844C232.94 233.795 233.139 233.678 233.289 233.51L233.481 233.318L233.638 233.474L228.738 238.381L227.003 236.646L227.166 236.49C227.54 236.768 227.973 236.958 228.432 237.044C228.796 237.074 229.161 236.992 229.477 236.81C229.841 236.579 230.173 236.301 230.466 235.985L231.099 235.345Z" fill="#FFFEFE"/>
<path d="M61.5277 237.642L63.4691 235.672L63.6469 235.857C63.2458 236.364 63.0345 236.995 63.0495 237.642C63.0432 238.204 63.2548 238.747 63.6398 239.156C63.8756 239.429 64.206 239.602 64.5642 239.64C64.8598 239.669 65.1534 239.568 65.3679 239.363C65.4953 239.249 65.5868 239.101 65.631 238.936C65.6819 238.671 65.6819 238.398 65.631 238.132C65.5214 237.651 65.386 237.177 65.2256 236.71C64.9294 235.962 64.7937 235.16 64.8274 234.356C64.898 233.832 65.1496 233.349 65.5385 232.991C66.0268 232.507 66.7029 232.263 67.3875 232.322C68.1433 232.376 68.8491 232.72 69.3573 233.282C69.5313 233.458 69.6841 233.654 69.8124 233.866C69.9656 234.134 70.0965 234.415 70.2036 234.705C70.2602 234.863 70.3445 235.01 70.4525 235.138C70.5415 235.221 70.6528 235.275 70.7725 235.295C70.9306 235.32 71.0924 235.302 71.2419 235.245L71.3983 235.402L69.1511 237.578L68.9947 237.421C69.4513 236.803 69.7003 236.056 69.7058 235.288C69.7102 234.667 69.4759 234.069 69.0515 233.617C68.7895 233.317 68.4233 233.129 68.0275 233.09C67.6927 233.055 67.3594 233.169 67.1172 233.403C66.9763 233.543 66.8734 233.717 66.8186 233.908C66.7592 234.14 66.7448 234.382 66.7759 234.619C66.8431 235.048 66.9502 235.469 67.0959 235.878C67.3036 236.471 67.4536 237.084 67.5439 237.706C67.5865 238.083 67.5551 238.464 67.4514 238.829C67.3418 239.185 67.1407 239.507 66.8683 239.761C66.4161 240.213 65.7928 240.451 65.1545 240.415C64.4742 240.382 63.8349 240.08 63.3766 239.576C63.194 239.387 63.0341 239.177 62.9002 238.95C62.7837 238.722 62.6862 238.484 62.6086 238.239C62.5598 238.042 62.4729 237.856 62.3526 237.692C62.2944 237.618 62.2048 237.575 62.1108 237.578C61.945 237.61 61.7892 237.681 61.6557 237.784L61.5277 237.642Z" fill="#FFFEFE"/>
<path d="M52.29 227.821L52.4465 227.664C52.5495 227.756 52.6744 227.82 52.8092 227.849C52.9541 227.884 53.1051 227.884 53.2501 227.849L54.203 227.465L60.9161 224.578L61.0868 224.749L58.676 229.94L64.0878 227.849L64.2443 228.013L61.2788 234.676C61.0737 235.085 60.9116 235.514 60.7952 235.956C60.7758 236.167 60.8514 236.376 61.0015 236.525L60.8379 236.682L58.3418 234.1L58.4982 233.944C58.6309 234.095 58.8034 234.206 58.996 234.264C59.1102 234.281 59.2259 234.244 59.3089 234.164C59.5182 233.892 59.686 233.59 59.8068 233.268L61.5704 229.3L58.4058 230.552L58.0147 231.405C57.8552 231.72 57.7242 232.048 57.6236 232.386C57.5775 232.547 57.5775 232.717 57.6236 232.877C57.6945 233.067 57.809 233.237 57.9578 233.375L57.7943 233.531L54.9995 230.644L55.163 230.488C55.3026 230.637 55.4603 230.768 55.6324 230.879C55.7075 230.915 55.7918 230.927 55.8742 230.914C55.9568 230.907 56.0344 230.872 56.0946 230.815C56.2618 230.563 56.4047 230.297 56.5213 230.018L58.2921 226.199L54.8004 227.7C54.4377 227.856 54.1959 227.963 54.0892 228.034C53.978 228.097 53.8752 228.173 53.7834 228.262C53.6742 228.361 53.6166 228.505 53.627 228.653C53.676 228.878 53.7956 229.083 53.9684 229.236L53.8047 229.392L52.29 227.821Z" fill="#FFFEFE"/>
<path d="M228.709 63.6118L227.998 70.14L230.523 67.6226C230.792 67.3952 230.987 67.0933 231.085 66.7551C231.083 66.3894 230.915 66.0443 230.629 65.8163L230.786 65.6599L232.727 67.5942L232.564 67.7506C232.379 67.589 232.167 67.4614 231.938 67.3737C231.789 67.3457 231.636 67.363 231.497 67.4235C231.252 67.557 231.031 67.73 230.843 67.9355L225.957 72.821L225.815 72.6717L226.732 63.8322L223.006 67.5515C222.74 67.7277 222.572 68.0187 222.552 68.3374C222.532 68.6561 222.664 68.9655 222.906 69.1729L223.042 69.3151L222.885 69.4716L220.802 67.3951L220.965 67.2386C221.186 67.5015 221.499 67.6695 221.84 67.7079C222.172 67.6661 222.475 67.498 222.686 67.2386L226.825 63.1069V62.8224C226.871 62.614 226.871 62.398 226.825 62.1895C226.752 62.0024 226.641 61.8327 226.498 61.6917L226.654 61.5353L228.709 63.6118Z" fill="#FFFEFE"/>
<path d="M234.982 70.5453L232.592 72.9348L232.706 73.0556C232.991 73.3933 233.427 73.5644 233.865 73.5108C234.369 73.3924 234.834 73.1476 235.216 72.7997L235.387 72.9632L232.315 76.0282L232.151 75.8647C232.414 75.558 232.619 75.2062 232.756 74.8264C232.853 74.5645 232.868 74.2792 232.798 74.0086C232.674 73.7357 232.492 73.493 232.265 73.2974L230.615 74.9473C230.408 75.1353 230.224 75.3479 230.068 75.5802C230.024 75.6874 230.024 75.8072 230.068 75.9145C230.122 76.0815 230.223 76.2295 230.359 76.3411L230.708 76.6967C231.156 77.1862 231.753 77.5138 232.407 77.6283C233.061 77.6903 233.716 77.5327 234.27 77.1803L234.434 77.3438L232.301 78.9368L227.216 73.845L227.38 73.6886L227.572 73.8806C227.709 74.0298 227.883 74.1402 228.076 74.2006C228.205 74.2338 228.34 74.2212 228.46 74.165C228.682 74.0309 228.881 73.863 229.051 73.6672L232.905 69.8129C233.075 69.6573 233.23 69.4858 233.367 69.3009C233.438 69.1835 233.466 69.0452 233.445 68.9097C233.398 68.689 233.281 68.4894 233.111 68.3408L232.919 68.1417L233.083 67.9852L237.983 72.8921L236.255 74.6273L236.091 74.4566C236.369 74.0847 236.559 73.6542 236.646 73.1979C236.675 72.8314 236.593 72.4646 236.411 72.1454C236.181 71.7826 235.904 71.4525 235.586 71.164L234.982 70.5453Z" fill="#FFFEFE"/>
<path d="M54.7222 71.9464L61.2504 72.6575L58.733 70.1401C58.5088 69.8676 58.2057 69.6714 57.8654 69.5783C57.4988 69.576 57.1519 69.7441 56.9267 70.0334L56.7702 69.8698L58.7045 67.9355L58.8681 68.092C58.7025 68.2738 58.5745 68.4865 58.4912 68.7178C58.4581 68.8656 58.4731 69.02 58.5338 69.1587C58.6674 69.4055 58.8404 69.6289 59.0459 69.8201L63.9314 74.6985L63.7821 74.8478L54.9426 73.9305L58.669 77.6568C58.8454 77.9205 59.1348 78.0866 59.4515 78.1062C59.7681 78.1257 60.0757 77.9963 60.2832 77.7564L60.4255 77.6213L60.5891 77.7777L58.5054 79.8542L58.349 79.6907C58.6141 79.474 58.7849 79.1631 58.8254 78.8231C58.7793 78.4889 58.6093 78.1843 58.349 77.9697L54.2173 73.8451H53.9328C53.7236 73.8065 53.5091 73.8065 53.2999 73.8451C53.1127 73.9178 52.9431 74.0293 52.8021 74.1722L52.6456 74.0158L54.7222 71.9464Z" fill="#FFFEFE"/>
<path d="M67.6861 58.9823L67.8426 59.1387C67.7483 59.2419 67.6864 59.3705 67.6648 59.5085C67.639 59.6538 67.6512 59.8032 67.7004 59.9423C67.7003 59.9992 67.8497 60.3121 68.0986 60.8882L71.0996 67.5658L70.9289 67.7293L65.702 65.4039L67.8781 70.7801L67.7145 70.9436L61.0014 68.0991C60.5904 67.9046 60.1618 67.7499 59.7214 67.6369C59.5105 67.6267 59.3047 67.7039 59.1524 67.8502L58.9889 67.6938L61.5276 65.1479L61.6912 65.3114C61.5367 65.4442 61.4253 65.6199 61.3712 65.8163C61.3608 65.9303 61.4026 66.0427 61.485 66.1221C61.764 66.3255 62.0705 66.4883 62.3953 66.6057L66.3847 68.3053L65.0833 65.1621L64.2229 64.7781C63.9047 64.6264 63.5739 64.5027 63.2343 64.4083C63.0736 64.3654 62.9044 64.3654 62.7437 64.4083C62.5545 64.48 62.386 64.5972 62.253 64.7496L62.0894 64.5932L64.934 61.7486L65.0976 61.9122C64.9478 62.0495 64.8185 62.2076 64.7135 62.3815C64.6722 62.4575 64.6572 62.545 64.6709 62.6304C64.6853 62.7118 64.7251 62.7865 64.7846 62.8438C65.0372 63.0093 65.3065 63.1476 65.5883 63.2562L69.4284 64.963L67.871 61.4997C67.7713 61.2561 67.6573 61.0187 67.5296 60.7886C67.462 60.6811 67.3834 60.581 67.295 60.4899C67.1958 60.3758 67.0471 60.3173 66.8967 60.3335C66.6751 60.3867 66.476 60.5087 66.3279 60.6819L66.1643 60.5255L67.6861 58.9823Z" fill="#FFFEFE"/>
<path d="M167.452 99.7733C168.049 101.224 167.358 102.885 165.908 103.484C164.457 104.083 162.796 103.395 162.194 101.946C161.592 100.497 162.277 98.8344 163.726 98.2301C164.424 97.9385 165.21 97.9374 165.909 98.2271C166.609 98.5167 167.164 99.0731 167.452 99.7733Z" fill="#FFFEFE"/>
<path d="M196.125 168.704C196.727 170.155 196.039 171.819 194.589 172.421C193.138 173.024 191.474 172.336 190.871 170.886C190.268 169.435 190.955 167.771 192.406 167.168C193.857 166.564 195.522 167.252 196.125 168.704Z" fill="#FFFEFE"/>
<path d="M127.059 197.142C127.656 198.593 126.965 200.254 125.515 200.853C124.065 201.452 122.403 200.764 121.801 199.315C121.2 197.866 121.885 196.203 123.333 195.599C124.031 195.308 124.817 195.306 125.517 195.596C126.216 195.886 126.771 196.442 127.059 197.142Z" fill="#FFFEFE"/>
<path d="M98.386 128.347C98.9847 129.798 98.2938 131.461 96.8424 132.06C95.3911 132.66 93.7285 131.97 93.128 130.519C92.5275 129.068 93.2162 127.405 94.6668 126.804C95.3645 126.514 96.1487 126.514 96.8465 126.804C97.5442 127.093 98.098 127.648 98.386 128.347Z" fill="#FFFEFE"/>
<path d="M125.552 98.2158C127 98.8201 127.685 100.483 127.083 101.932C126.481 103.381 124.82 104.069 123.37 103.47C121.919 102.87 121.228 101.21 121.825 99.7589C122.113 99.0589 122.668 98.5024 123.368 98.2128C124.067 97.9232 124.853 97.9242 125.552 98.2158Z" fill="#FFFEFE"/>
<path d="M194.568 126.683C196.018 127.284 196.707 128.947 196.106 130.398C195.506 131.849 193.843 132.539 192.392 131.939C190.941 131.34 190.25 129.678 190.848 128.226C191.136 127.527 191.69 126.972 192.388 126.683C193.086 126.393 193.87 126.393 194.568 126.683Z" fill="#FFFEFE"/>
<path d="M165.838 195.628C167.288 196.229 167.977 197.892 167.376 199.343C166.776 200.794 165.113 201.484 163.662 200.884C162.211 200.285 161.52 198.622 162.118 197.171C162.406 196.472 162.96 195.917 163.658 195.628C164.356 195.338 165.14 195.338 165.838 195.628V195.628Z" fill="#FFFEFE"/>
<path d="M96.9212 167.26C98.3691 167.866 99.0526 169.53 98.4486 170.979C97.8445 172.428 96.1812 173.113 94.7317 172.511C93.2823 171.909 92.5945 170.247 93.1948 168.796C93.4841 168.098 94.0398 167.543 94.739 167.254C95.4382 166.966 96.2235 166.968 96.9212 167.26Z" fill="#FFFEFE"/>
<path fill-rule="evenodd" clip-rule="evenodd" d="M145.25 139.064L145.236 25.3667V25.3383L145.25 25.2529L157.873 129.172L158.719 136.127L145.25 149.596V139.064Z" stroke="white"/>
<path fill-rule="evenodd" clip-rule="evenodd" d="M145.25 140.593V149.596H145.243V149.588L145.25 140.593Z" stroke="white"/>
<path fill-rule="evenodd" clip-rule="evenodd" d="M158.719 136.127V136.141L145.25 149.596L158.719 136.127Z" stroke="white"/>
<path fill-rule="evenodd" clip-rule="evenodd" d="M145.25 140.593V149.596H145.243V149.588L145.25 140.593Z" fill="#FFFEFE"/>
<path fill-rule="evenodd" clip-rule="evenodd" d="M145.236 149.596H134.697L20.8933 149.617L124.812 136.987H124.819L131.781 136.141L145.236 149.596Z" stroke="white"/>
<path fill-rule="evenodd" clip-rule="evenodd" d="M131.774 163.079L145.243 149.603L131.931 163.129L131.788 163.114L131.746 163.107L124.791 162.261L20.8933 149.617L124.812 162.232L131.774 163.079Z" stroke="white"/>
<path fill-rule="evenodd" clip-rule="evenodd" d="M145.25 149.596L145.243 149.603L134.704 149.61L134.697 149.596H145.236L131.781 136.141L145.243 149.589V149.596H145.25Z" stroke="white"/>
<path fill-rule="evenodd" clip-rule="evenodd" d="M145.243 149.603L131.774 163.079L124.812 162.233L20.8933 149.617L134.697 149.596L134.704 149.61L145.243 149.603Z" fill="#FFFEFE"/>
<path fill-rule="evenodd" clip-rule="evenodd" d="M131.774 163.079L145.243 149.603L131.781 163.079H131.774Z" fill="#FFFEFE"/>
<path fill-rule="evenodd" clip-rule="evenodd" d="M145.25 149.596L145.243 149.603L134.704 149.61L134.697 149.596H145.25Z" fill="#FFFEFE"/>
<path fill-rule="evenodd" clip-rule="evenodd" d="M145.264 160.17V273.881L145.257 273.967L132.627 170.062V170.041L131.788 163.114L131.93 163.129L145.243 149.603L145.25 160.156L145.264 160.17Z" stroke="white"/>
<path fill-rule="evenodd" clip-rule="evenodd" d="M131.781 163.079L145.243 149.603L131.93 163.129L131.788 163.114L131.781 163.079Z" stroke="white"/>
<path fill-rule="evenodd" clip-rule="evenodd" d="M145.328 160.12L145.264 160.17L145.25 160.156L145.243 149.603L145.25 149.596L145.257 149.603L145.264 149.61V152.234L145.328 160.12Z" stroke="white"/>
<path fill-rule="evenodd" clip-rule="evenodd" d="M145.328 160.12L145.264 160.17V152.234L145.328 160.12Z" fill="#FFFEFE"/>
<path fill-rule="evenodd" clip-rule="evenodd" d="M269.614 149.61L165.688 162.233H165.681L158.733 163.079L145.257 149.603L155.796 149.61L155.811 149.596H269.522L269.614 149.61Z" stroke="white"/>
<path fill-rule="evenodd" clip-rule="evenodd" d="M155.811 149.596L155.796 149.61L145.257 149.603L145.25 149.596H155.811Z" stroke="white"/>
<path fill-rule="evenodd" clip-rule="evenodd" d="M158.733 163.079H158.719L145.264 149.61L158.733 163.079Z" stroke="white"/>
<path fill-rule="evenodd" clip-rule="evenodd" d="M145.25 139.064V140.593L145.243 149.588L131.781 136.141L132.627 129.172L145.236 25.3667L145.25 139.064Z" fill="#FFFEFE" stroke="white"/>
<path fill-rule="evenodd" clip-rule="evenodd" d="M132.627 129.172L131.781 136.141L124.819 136.987H124.812L96.6154 100.989L96.594 100.968L96.5656 100.925L132.627 129.172Z" stroke="white"/>
<path fill-rule="evenodd" clip-rule="evenodd" d="M145.243 149.589V149.603L134.704 149.61L134.697 149.596H145.236L131.781 136.141L145.243 149.589Z" stroke="white"/>
<path fill-rule="evenodd" clip-rule="evenodd" d="M96.6154 100.989L131.781 136.141L124.819 136.987H124.812L96.6154 100.989Z" fill="#FFFEFE"/>
<path fill-rule="evenodd" clip-rule="evenodd" d="M145.243 149.603L134.704 149.61L134.697 149.596H145.236L145.243 149.603Z" fill="#FFFEFE"/>
<path fill-rule="evenodd" clip-rule="evenodd" d="M131.788 163.114L132.627 170.041V170.062L96.5656 198.294L124.791 162.261L124.812 162.232L131.774 163.079L145.243 149.603L131.93 163.129L131.788 163.114Z" stroke="white"/>
<path fill-rule="evenodd" clip-rule="evenodd" d="M145.328 160.12L145.264 160.17L145.25 160.156L145.243 149.603L145.264 152.234L145.328 160.12Z" stroke="white"/>
<path fill-rule="evenodd" clip-rule="evenodd" d="M131.788 163.114L132.627 170.041L96.5656 198.294L131.746 163.107L131.774 163.079L145.243 149.603L131.93 163.129L131.788 163.114Z" fill="#FFFEFE"/>
<path fill-rule="evenodd" clip-rule="evenodd" d="M158.719 163.079L157.873 170.048L145.264 273.881V160.17L145.328 160.12L145.264 152.234V149.61L158.719 163.079Z" fill="#FFFEFE" stroke="white"/>
<path fill-rule="evenodd" clip-rule="evenodd" d="M145.257 149.603L145.264 149.61V152.234L145.328 160.12L145.264 160.17L145.25 160.156L145.243 149.603H145.257Z" stroke="white"/>
<path fill-rule="evenodd" clip-rule="evenodd" d="M157.873 170.048L158.719 163.079L145.264 149.61L158.733 163.079L165.681 162.232H165.688L193.906 198.259L193.935 198.294L157.873 170.048Z" stroke="white"/>
<path fill-rule="evenodd" clip-rule="evenodd" d="M193.906 198.259L158.733 163.079L165.681 162.233H165.688L193.906 198.259Z" fill="#FFFEFE"/>
<path fill-rule="evenodd" clip-rule="evenodd" d="M269.5 149.596H145.25L158.719 136.141L165.688 136.987L269.5 149.596Z" fill="#FFFEFE" stroke="white"/>
<path fill-rule="evenodd" clip-rule="evenodd" d="M155.81 149.596L155.796 149.61L145.257 149.603H145.243V149.588L145.25 140.593V149.596H155.81Z" stroke="white"/>
<path fill-rule="evenodd" clip-rule="evenodd" d="M193.935 100.925L165.688 136.987L158.719 136.141L145.25 149.596L158.719 136.127L157.873 129.172L193.871 100.975L193.892 100.954L193.935 100.925Z" stroke="white"/>
<path fill-rule="evenodd" clip-rule="evenodd" d="M145.25 140.593V149.596L145.243 149.603V149.588L145.25 140.593Z" fill="#FFFEFE"/>
<path fill-rule="evenodd" clip-rule="evenodd" d="M193.871 100.975L158.719 136.127L157.873 129.172L193.871 100.975Z" fill="#FFFEFE"/>
</svg>
