<svg viewBox="0 0 1440 38" fill="none" xmlns="http://www.w3.org/2000/svg">
<path d="M0 34.6099L24.8135 30.922L53.5 30.922L84.8135 35.7447L128.313 35.7447L155.313 32.9078L176.813 28.3617H188.313L196.813 30.922L208.5 34.6099L227 37.8617L246.5 34.6099L259.5 35.7447H269.5L281.5 32.9078H286L298 34.6099L310.5 35.7447L323 34.6099L330.5 32.9078L344 28.3617L347.5 26L356.5 22.5L354 26L359.5 28.3617L368 30.922L384 28.3617L393 32.9078L404 34.6099L420 30.922L438 26L451 22.5L465.5 24.4432L479 26L491 30.922L497.5 32.9078L511.5 34.6099L525 32.9078L542.5 28.0851L552 26H562L578.5 30.922L594.5 32.9078L612.5 33.7589L637 29.5035L650 28.0851L662 28.0851L678.5 33.7589L698.5 37.4432L710 35.4432L721 33.7589L732 30.922L745 26H757L768.5 29.5035L786 32.0567L802.5 30.922L817 33.7589L828 30.922L851.5 28.0851L863 32.5L875 33.7589L890 32.5L907.5 30.922L918.5 30.922L923 30.4965L930.5 26L938.5 24L944 26L948.5 28.0851L958 30.922L967.5 28.7943L978 26H984L992 24L998.5 24L1003 27L1009 28.7943H1016.5L1024.5 26H1032.5L1043.5 28.7943L1055 27L1064 26L1076 28.7943L1086 28.7943H1097.5L1110.5 26L1117.5 24H1126.5L1135 27L1143 28.7943L1151.5 28.0851L1162.5 26L1171 27L1185.5 26L1194.5 30.5L1205 32.3404H1216L1223 28.7943L1231.5 26L1237 28.0851H1243L1249.5 28.7943L1254.86 32.3404L1261.5 34L1270 32.3404L1277.5 36.4149L1284.5 30.5L1297 28.0851L1305 32.3404L1313.5 36.5L1322.5 34L1330.5 30.5L1341.5 32.3404L1353.89 31.4894L1365 30.5L1372.5 32.3404L1378.29 34.8936L1387.5 34L1395 36.4149L1400 36.5L1407 34L1411.5 30.5L1418.5 31.4894L1426.5 31.4894L1433.5 34.8936L1438.5 34L1440 28.0851V0L0 0L0 34.6099Z"/>
</svg>
