<svg viewBox="0 0 1441 30" fill="none" xmlns="http://www.w3.org/2000/svg">
  <path d="M0 6.26087L22.992 2.08695L53.4814 0.782602L79.4724 3.65217L101.465 6.26087L118.245 4.69565L138.809 4.17391L158.945 4.95652L178.938 6.26087L193.933 3.65217L209.427 2.34783L241.63 3.65217L259.41 4.95652L276.904 3.65217L299.896 2.08695L323.888 4.17391L360.875 4.95652L378.869 3.65217L398.862 4.17391L437.348 0.782604L472.336 0.782604L496.328 1.79446L527.317 2.08695L544.954 -8.9407e-07L565.518 0.782604H587.796L604.29 1.79446L619.285 4.17391L644.776 1.79446H661.271L694.259 3.65217L736.245 3.65217L782.728 -8.9407e-07L818.716 1.56522L836.21 5.01582H853.204L871.198 3.65217H890.191L926.678 6.37946L967.664 5.01582L992.156 6L1007.65 7.30434L1021.65 8.83401H1042.64L1059.63 6.37946L1078.13 6.37946L1089.37 7.60673L1100.62 8.83401L1110.69 7.417L1122.61 6.37946L1139.1 7.60673L1155.1 10.1739L1182.45 7.04348L1195.09 6.52174H1203.01L1223.58 10.1739L1254.42 8.08695L1277.06 7.30434L1295.55 9.3913H1307.55L1323.54 7.30434L1337.54 6.52174L1361.53 7.30434L1380.52 8.08695L1407.51 6.52174L1425.01 7.04348L1441 9.39128L1439.5 30L0 30L0 6.26087Z" />
</svg>
