<svg width="1440" height="904" viewBox="0 0 1440 904" fill="none" xmlns="http://www.w3.org/2000/svg">
<path d="M524.854 2.24849C516.625 3.54132 509.165 4.99576 508.319 5.56137C507.319 6.28859 504.396 6.53099 499.705 6.36938C490.629 6.12698 487.014 7.25821 484.015 11.2983C481.554 14.4496 481.554 16.4697 483.707 18.4089C484.322 18.9745 484.861 19.7017 484.861 20.1057C484.861 21.4794 481.938 20.833 477.016 18.4089C470.632 15.2576 468.325 15.2576 466.71 18.4897C465.71 20.6714 465.249 20.9138 463.48 20.429C462.326 20.1057 460.019 19.7825 458.327 19.7017C456.635 19.6209 454.481 19.0553 453.558 18.5705C451.251 17.1969 449.713 17.3585 444.944 19.2977C442.637 20.1866 438.791 21.3178 436.484 21.8026C430.793 22.853 428.716 24.065 425.409 28.3476C423.717 30.61 421.794 32.1453 420.333 32.3877C418.179 32.8725 405.028 41.3567 403.951 42.8919C402.951 44.508 404.335 45.8816 407.796 46.8512C411.565 47.9825 412.334 49.1945 411.488 52.8306C410.719 55.9011 406.72 58.0019 401.644 58.0019C398.413 58.0019 395.952 58.6483 392.414 60.3452C389.722 61.638 386.569 63.0117 385.339 63.3349C379.878 65.0317 381.185 68.6678 388.723 72.3847C392.876 74.4048 395.798 74.728 403.336 74.0007C405.335 73.8391 406.028 74.0816 406.028 74.9704C406.028 75.8592 404.874 76.2632 401.797 76.5864C399.49 76.8288 396.798 77.4753 395.875 78.0409C394.952 78.6065 393.337 79.0105 392.261 79.0105C389.722 79.0105 389.646 81.1113 392.107 81.7578C394.645 82.4042 396.414 84.4242 396.414 86.6059C396.414 87.6563 397.106 89.1107 397.952 89.9188C399.336 91.2924 400.028 91.2924 407.335 90.3228C411.719 89.7572 418.026 89.1915 421.41 89.1915C426.87 89.1107 428.024 89.434 431.639 91.5348C436.33 94.2013 443.329 101.797 445.79 106.726C446.636 108.584 448.174 112.543 449.174 115.614C450.174 118.604 451.635 121.997 452.481 123.128C453.943 125.068 453.943 125.472 452.943 128.057C451.482 131.613 451.482 134.683 452.866 135.249C453.404 135.491 455.25 135.087 456.788 134.441L459.711 133.148L462.48 136.218C468.556 142.925 468.479 146.076 462.326 144.299C458.48 143.248 457.634 143.491 458.327 145.511C458.865 146.803 461.403 148.096 465.249 148.985C466.556 149.228 468.325 150.036 469.248 150.601L471.017 151.732L469.556 155.692C468.633 158.277 466.633 161.267 463.864 164.014C459.096 168.943 457.096 173.711 458.634 176.619C459.096 177.508 459.48 179.609 459.48 181.225C459.48 185.104 464.48 195.85 467.325 198.032C468.94 199.325 469.479 200.214 469.171 201.426C468.171 205.627 473.632 216.536 479.785 222.757C482.169 225.181 483.015 225.505 485.938 225.343C489.168 225.181 489.552 225.424 491.398 228.414C493.013 230.918 494.013 231.646 496.167 231.888C497.936 232.13 499.397 231.807 500.32 230.999C502.32 229.141 505.011 220.091 504.473 216.94C503.858 213.465 505.165 209.991 508.088 207.486C510.241 205.547 510.472 204.981 510.395 200.618C510.241 193.83 511.241 191.891 515.856 189.305C518.086 188.093 520.393 186.639 521.009 186.073C521.624 185.508 523.778 184.861 525.777 184.7C531.699 183.972 536.468 181.064 538.698 176.539C541.006 171.933 545.774 166.519 548.389 165.469C549.466 164.984 551.312 164.661 552.465 164.661C555.234 164.661 566.924 161.59 569.616 160.136C570.77 159.489 573.231 157.55 575 155.772C576.846 153.995 579.23 152.136 580.461 151.652C581.614 151.167 582.537 150.278 582.537 149.632C582.537 148.581 582.153 148.339 575.846 146.884C573.692 146.399 571.77 145.511 571.539 145.026C570.924 143.087 573.385 136.38 574.615 136.38C575.308 136.38 577.538 138.238 579.538 140.501C582.691 144.056 583.46 144.541 585.691 144.299C589.767 143.895 589.613 141.066 585.229 134.845L581.691 129.754L583.614 127.896C585.229 126.361 585.614 125.148 585.614 122.32C585.614 118.927 585.844 118.442 588.69 116.583C590.382 115.452 591.766 113.998 591.766 113.351C591.766 112.705 592.843 110.927 594.151 109.311L596.612 106.402L594.92 104.059C592.92 101.15 592.92 100.746 594.843 98.9686C597.381 96.7061 596.458 91.858 592.766 87.7371C589.767 84.4242 590.613 82.889 596.15 81.8386C598.842 81.3537 601.226 80.6265 601.534 80.3033C601.842 79.9801 601.534 78.7681 600.842 77.556C600.073 76.344 598.919 74.1624 598.227 72.7887C597.304 70.9303 595.92 69.799 593.766 69.0718C591.151 68.183 590.613 67.6174 590.382 65.5973C590.228 63.8197 590.92 62.2845 593.689 58.9716C595.612 56.5475 597.381 53.7194 597.612 52.669C597.842 51.6186 598.381 50.7298 598.765 50.7298C599.688 50.7298 607.918 42.0031 609.456 39.4983C610.071 38.4478 613.224 36.1046 616.378 34.1653C624.915 29.0748 625.761 25.6003 619.377 22.2874C616.455 20.7522 614.763 21.0754 604.226 24.9539C601.611 25.9235 597.996 26.4891 594.458 26.4891C588.921 26.4891 588.69 26.5699 585.998 29.4788C582.768 32.9533 581.999 32.6301 583.614 28.5092C585.152 24.7115 585.152 23.661 583.614 22.1258C581.768 20.1057 579.999 20.5906 574.385 24.4691C567.001 29.6404 565.848 29.1556 569.155 22.2874C570.078 20.3482 573.846 18.4089 576.769 18.4089C578.692 18.4089 583.383 16.6313 584.46 15.5C586.383 13.48 584.614 11.5407 579.307 9.92468C576.615 9.11667 571.385 7.01581 567.617 5.31897C554.003 -0.902802 548.312 -1.30681 524.854 2.24849Z" fill="black" fill-opacity="0.04" style="fill:black;fill-opacity:0.04;"/>
<path d="M376.185 9.19773C375.878 9.52094 370.11 9.84414 363.265 10.0057C348.652 10.2482 342.345 11.945 338.807 16.5507C336.653 19.4596 334.577 19.8636 330.347 18.3284C328.347 17.6012 327.501 17.6819 325.117 19.2172C323.502 20.1868 319.195 21.6413 315.503 22.5301C305.12 24.8733 302.736 26.4894 307.043 28.1862C308.197 28.671 310.812 31.2567 312.811 33.8424C317.041 39.3369 319.041 40.4681 323.425 39.7409C326.963 39.0945 328.039 40.7106 326.117 43.6194C324.579 45.8819 324.579 47.8211 326.04 49.114C327.809 50.6492 327.424 51.6996 325.117 51.3764C323.502 51.2148 322.579 50.326 321.348 47.9019C320.272 45.7203 319.195 44.5891 317.964 44.3466C316.887 44.2658 315.119 43.377 314.042 42.569C312.888 41.761 311.042 41.0338 309.966 41.0338C308.735 41.0338 307.504 40.2257 306.658 38.9329C302.044 31.9839 298.737 30.2063 295.429 32.9535C292.353 35.5392 288.969 41.2762 288.354 44.9931C287.892 48.0635 288.046 48.3868 291.199 51.538C293.045 53.3157 295.045 54.9317 295.737 55.1741C296.429 55.4165 297.429 57.1942 297.814 59.0526C298.352 61.0727 299.736 63.4967 301.352 65.1936C303.966 67.8601 304.043 67.8601 309.119 67.2944C313.119 66.8904 314.734 66.244 316.657 64.5472C318.041 63.3351 319.887 62.1231 320.887 61.7999C322.579 61.3959 322.656 61.4767 322.194 64.4664C321.733 67.4561 321.81 67.6177 324.117 68.2641C326.501 68.9105 329.578 72.789 328.578 73.8394C328.27 74.0818 326.271 73.6778 324.117 72.9506C321.964 72.2234 319.964 71.8194 319.656 72.0618C319.426 72.385 319.656 73.8394 320.195 75.4555C321.348 78.7683 321.271 78.8491 316.964 81.0308C314.811 82.0812 313.734 83.1317 313.734 84.2629C313.734 85.5557 314.734 86.1213 319.502 87.3334C324.502 88.6262 326.347 88.707 333.116 87.9798C339.422 87.3334 341.73 87.3334 345.267 88.303C350.959 89.919 352.497 89.8382 355.497 87.899C358.112 86.2021 358.804 83.3741 356.804 82.566C355.343 81.9196 355.266 79.334 356.727 78.7683C357.342 78.5259 358.419 76.8291 359.188 75.1323C360.265 72.385 361.034 71.7386 363.649 71.0113C368.956 69.6377 371.802 65.1936 371.802 58.487C371.802 53.8005 373.417 52.5077 379.877 51.6188L385.184 50.9724L390.183 45.1547C394.721 39.9833 396.028 39.0137 402.95 35.8624C410.718 32.3071 412.872 30.0447 409.565 29.1558C405.796 28.1054 409.642 25.2773 415.717 24.6309C425.254 23.6613 429.638 18.5708 422.947 16.2275C421.255 15.6619 418.871 14.2075 417.563 13.0762C415.41 11.137 414.871 11.0562 410.103 11.541C406.488 11.8642 404.258 11.7026 402.412 10.8946C399.643 9.68254 377.185 8.2281 376.185 9.19773ZM337.73 41.9226C338.961 43.2154 338.115 45.0739 336.423 45.0739C334.654 45.0739 333.808 43.781 334.423 42.2458C334.885 40.7914 336.577 40.7106 337.73 41.9226ZM331.654 57.4366C331.962 58.8102 329.732 60.1031 325.425 60.9919C322.425 61.6383 323.348 59.6182 327.04 57.3558C330.193 55.4165 331.27 55.4165 331.654 57.4366Z" fill="black" fill-opacity="0.04" style="fill:black;fill-opacity:0.04;"/>
<path d="M1089.76 74.0006C1088.46 74.8894 1086.46 76.8287 1085.3 78.4448C1082.61 82.2424 1077.84 85.5554 1072.23 87.8178C1066.92 89.8379 1064.62 89.9186 1062.08 88.2218C1060.54 87.1714 1059.54 87.0906 1056.15 87.8178C1049.93 89.2723 1039.31 92.7467 1036.08 94.5244C1031.62 96.8676 1026.24 102.362 1024.62 106.241C1023.85 108.18 1022.55 110.038 1021.85 110.442C1021.16 110.846 1017.08 111.331 1012.85 111.493C1005.32 111.897 1001.09 113.19 999.626 115.533C999.318 116.098 999.01 118.927 999.01 121.835V127.088L994.396 127.168C991.858 127.249 989.012 127.33 988.089 127.411C987.166 127.492 985.397 128.461 984.09 129.592C981.398 131.936 979.706 131.693 978.629 128.784C977.475 125.633 976.399 125.552 973.553 128.38C970.553 131.37 970.246 133.794 972.169 138.804C973.322 141.874 973.322 143.248 972.015 149.874C971.707 151.409 972.015 153.995 972.861 156.5C975.014 163.368 973.245 167.327 970.246 162.156C967.323 157.146 966.093 148.339 966.477 135.733C966.939 122.32 966.785 121.835 961.017 121.835C952.556 121.835 944.019 131.936 944.019 141.874C944.019 145.753 944.481 146.965 950.018 157.712C951.249 160.055 951.48 161.186 950.864 161.913C949.788 163.287 947.557 162.398 940.251 157.631C931.791 152.055 921.946 149.389 919.562 151.894C919.023 152.459 918.639 154.237 918.639 156.015C918.639 157.712 918.254 159.812 917.87 160.62C917.101 162.075 916.947 162.075 913.64 160.782C910.64 159.651 909.717 159.57 906.564 160.54C894.797 164.095 895.489 163.933 892.105 162.236C890.336 161.348 887.875 160.62 886.644 160.62C884.106 160.62 878.415 163.933 871.723 169.347C866.417 173.63 862.033 175.892 860.264 175.407C858.726 175.003 857.572 171.206 858.341 169.105C858.649 168.458 858.572 166.6 858.341 165.065C857.572 161.024 855.342 161.267 853.188 165.63C851.804 168.458 851.573 169.913 851.957 174.438C852.265 178.155 852.111 180.175 851.496 180.659C850.958 181.063 848.573 181.71 846.189 181.952C841.498 182.599 840.805 183.083 837.883 188.82C835.422 193.669 832.653 195.042 828.038 193.911C824.731 193.184 824.577 193.184 823.347 195.446C820.962 199.971 817.271 196.981 815.348 188.901C814.733 186.477 814.425 183.972 814.579 183.407C815.04 182.195 822.193 182.114 827.115 183.326C831.576 184.376 834.96 183.73 837.883 181.144C840.575 178.72 840.959 175.084 838.883 171.933C837.191 169.266 835.883 168.297 831.73 166.196C829.807 165.226 823.731 162.156 818.117 159.328C810.964 155.611 805.965 153.671 800.812 152.459C796.889 151.571 793.352 150.52 792.89 150.035C792.429 149.551 792.659 148.5 793.505 146.965C794.582 145.026 794.582 144.46 793.736 143.167C792.89 141.955 791.813 141.713 788.199 141.874C783.199 142.036 780.969 142.036 772.509 142.117C767.048 142.117 766.664 142.278 764.818 144.541C762.895 147.046 759.665 148.662 753.666 150.197C749.513 151.328 745.898 154.399 744.821 157.792C743.821 160.944 742.052 161.428 738.668 159.408C736.438 158.196 734.823 159.085 734.823 161.509C734.823 162.641 735.361 163.044 737.13 163.044C739.053 163.044 739.437 163.368 739.437 164.984C739.437 166.357 737.899 168.377 734.054 171.933C730.439 175.246 728.131 178.235 726.824 181.063C725.824 183.407 724.209 187.043 723.209 189.224C721.133 194.073 713.211 203.042 706.75 207.809C697.29 215 694.598 220.091 696.291 228.333C696.829 230.837 697.521 234.07 697.983 235.443C698.367 236.817 698.675 238.837 698.675 240.049C698.675 241.18 699.444 243.119 700.444 244.331C702.059 246.271 702.597 246.432 705.289 245.947C707.519 245.463 709.288 244.251 712.288 240.938C714.441 238.514 716.749 236.574 717.441 236.574C718.21 236.574 719.056 238.11 719.825 241.18C720.517 243.766 722.132 249.018 723.363 252.896C724.594 256.694 725.593 260.815 725.593 261.865C725.593 263.724 727.285 266.471 728.439 266.471C729.9 266.471 738.284 260.977 739.899 258.957C741.745 256.694 741.822 256.129 741.36 250.796C740.822 244.574 741.36 243.281 746.052 240.049C750.974 236.736 750.82 231.726 745.821 227.363C743.129 225.02 743.052 224.939 743.514 220.01C744.129 212.899 745.206 211.122 750.974 207.162C757.281 202.799 759.972 199.486 760.588 195.527C761.434 189.467 761.972 188.578 765.818 186.962C769.202 185.507 769.74 185.427 772.74 186.477C775.355 187.447 776.047 188.093 776.201 189.952C776.431 191.729 775.508 193.345 771.586 197.951C768.894 201.102 765.049 205.385 762.972 207.566L759.126 211.364L760.049 215.727C760.588 218.071 760.742 221.222 760.511 222.676C760.049 224.939 760.357 225.666 762.818 228.09C766.587 231.807 768.663 232.211 774.739 230.676C787.122 227.605 788.583 227.363 789.814 228.494C791.66 230.11 791.198 232.453 788.506 234.231C786.353 235.605 785.199 235.766 780.584 235.362C776.277 235.039 774.662 235.201 772.509 236.332C769.202 238.11 768.817 239.968 770.971 244.008C772.817 247.563 772.817 251.361 770.817 251.765C770.125 251.927 768.433 251.2 767.202 250.23C764.895 248.452 764.818 248.452 763.203 249.988C761.203 251.846 760.28 254.27 759.357 259.926C758.665 264.694 754.05 272.935 752.204 272.935C751.666 272.935 749.974 272.37 748.513 271.804C745.975 270.673 745.59 270.754 741.283 273.016C733.9 276.895 731.285 277.541 729.439 275.763C728.131 274.471 727.516 274.471 724.517 275.359C720.748 276.491 718.364 275.925 715.826 273.501C713.595 271.4 713.595 268.976 715.672 264.694C717.21 261.623 717.21 260.977 716.364 257.017C715.826 254.674 715.057 252.735 714.595 252.735C713.365 252.735 708.673 258.633 708.135 260.815C707.827 261.946 708.289 264.774 709.288 267.683C710.211 270.35 710.98 273.663 710.98 275.117C710.98 277.541 710.673 277.864 705.366 280.45C698.598 283.763 695.214 286.753 692.137 292.247C690.522 295.156 688.907 296.772 686.677 297.903C684.831 298.873 682.831 300.65 681.908 302.347C679.985 305.741 676.063 308.488 673.14 308.488C671.064 308.488 670.372 308.973 668.372 312.044C667.526 313.336 666.526 313.579 663.527 313.417C660.758 313.336 659.373 313.66 658.681 314.548C657.22 316.407 658.374 318.104 662.527 320.285C665.757 321.982 669.295 326.103 671.064 330.305C672.141 332.971 671.295 342.991 669.756 345.496C668.449 347.596 667.757 347.596 649.452 345.98C644.376 345.576 643.376 345.738 641.838 347.112C640.069 348.566 639.915 349.213 639.684 359.474C639.223 375.635 639.223 377.332 639.838 380.402C640.684 384.523 641.53 385.331 644.53 384.765C646.837 384.361 647.452 384.685 650.144 387.513L653.221 390.745L657.681 388.806C660.143 387.755 662.911 386.866 663.911 386.866C666.603 386.866 668.218 385.654 671.679 381.129C674.525 377.332 674.832 376.524 674.832 372.241C674.832 366.827 676.601 363.999 682.216 360.525C686.523 357.858 687.907 355.758 687.907 351.96C687.907 347.596 690.445 345.9 695.137 347.192C700.367 348.566 701.213 348.324 706.058 344.445C708.442 342.425 711.057 340.809 711.75 340.809C713.903 340.809 716.133 343.072 718.133 347.435C720.364 352.445 723.748 356.242 729.131 359.878C734.361 363.353 737.745 367.635 738.822 371.999C739.36 373.938 740.053 375.554 740.36 375.554C741.591 375.554 742.437 372.403 741.975 369.494C741.437 366.1 742.514 364.807 745.359 365.615C747.744 366.181 747.59 364.646 745.129 362.868C744.052 362.06 741.898 360.282 740.36 358.909C738.745 357.535 736.515 356.162 735.361 355.838C733.592 355.434 732.746 354.303 730.977 350.101C729.747 347.273 727.901 344.364 726.901 343.637C724.747 342.183 723.825 339.355 724.517 336.365C725.132 333.699 727.439 332.325 728.824 333.86C729.439 334.426 730.977 335.557 732.362 336.284C733.9 337.092 735.284 338.87 736.284 341.213C737.13 343.233 738.13 344.849 738.514 344.849C740.053 344.849 751.128 353.172 751.743 354.788C752.128 355.758 752.82 358.586 753.281 361.09C753.82 364.08 755.435 367.797 757.896 371.918C759.972 375.312 761.818 379.513 762.126 381.21C762.895 386.22 766.664 387.836 767.279 383.473C767.433 382.422 768.433 381.21 769.663 380.564C771.817 379.433 772.278 378.463 770.971 377.574C769.817 376.847 767.125 371.029 767.125 369.332C767.125 367.635 773.663 361.818 775.585 361.818C779.2 361.818 782.969 369.494 781.969 374.827C781.354 378.382 786.814 385.735 791.89 388.159C794.813 389.533 795.121 389.533 797.274 388.24C800.274 386.462 801.889 386.543 804.273 388.482C806.734 390.502 807.965 390.502 811.887 388.402C813.81 387.351 815.656 386.947 816.809 387.19C818.501 387.674 818.655 388.078 818.655 392.846C818.655 398.34 816.656 407.632 814.117 413.773C812.041 418.783 810.041 419.753 804.504 418.379C800.889 417.49 799.889 417.571 796.351 418.783C793.659 419.753 791.121 420.076 788.737 419.753C782.892 419.026 772.893 415.309 768.586 412.238C765.279 409.976 764.049 409.491 762.126 409.814C758.973 410.461 755.742 414.097 755.127 417.571C754.435 421.369 753.512 422.419 750.82 422.419C747.744 422.419 745.898 421.288 740.976 416.359C735.976 411.43 733.131 409.733 728.593 409.006C726.747 408.683 724.286 407.956 723.209 407.39C719.364 405.37 719.056 404.32 719.287 394.462L719.594 385.25L717.595 384.361C716.057 383.634 714.365 383.634 710.442 384.281C707.519 384.846 701.597 385.654 697.137 386.058C687.292 387.109 682.216 388.563 671.833 393.088C667.449 395.027 663.219 396.563 662.527 396.563C661.758 396.563 659.527 395.835 657.528 394.866C653.451 392.926 653.451 392.926 649.99 398.906C648.606 401.168 645.53 406.016 643.068 409.733C639.223 415.551 638.531 417.167 637.839 421.934C636.685 430.499 634.762 433.408 627.379 437.287C622.533 439.792 621.533 441.408 614.765 456.76C609.228 469.446 609.459 467.911 610.612 489.485L611.151 499.585L608.843 504.11C606.536 508.473 606.536 508.635 607.613 512.918C608.228 515.342 608.689 517.847 608.689 518.574C608.689 519.301 610.766 522.533 613.381 525.846C615.996 529.159 620.149 535.461 622.687 539.744C625.764 545.077 629.071 549.44 632.762 552.995C642.146 562.207 643.453 562.611 652.682 559.702C657.22 558.248 658.527 558.086 660.989 558.894C665.526 560.268 668.141 559.944 673.217 557.359C678.524 554.611 688.753 551.783 691.522 552.349C692.599 552.591 694.137 553.965 695.137 555.662C697.675 559.864 698.829 560.591 703.905 561.399C709.212 562.126 712.903 563.985 714.134 566.328C715.287 568.671 714.288 578.69 712.442 582.973C711.673 584.831 710.98 587.175 710.98 588.225C711.057 591.053 713.595 596.467 717.364 601.638C722.748 609.072 723.055 609.718 726.055 622C728.362 631.454 728.978 635.252 728.978 641.797C729.054 650.362 728.978 650.524 723.594 660.785C719.979 667.573 721.902 679.451 729.208 695.207C731.823 700.782 732.362 702.964 732.823 708.943C733.669 719.69 734.361 722.114 741.591 737.871C747.436 750.637 748.205 752.819 748.051 756.294C747.898 760.818 750.359 767.848 752.589 769.06C754.435 770.111 756.973 770.03 760.203 768.656C768.663 765.182 769.432 765.02 772.509 765.747C774.585 766.232 776.047 766.151 777.354 765.424C778.354 764.939 780.738 763.808 782.661 763.081C787.583 761.061 791.736 756.213 796.428 746.84C798.582 742.396 801.966 736.335 803.811 733.346C807.119 728.174 807.196 727.851 806.734 723.488C806.196 719.125 806.273 718.882 808.811 716.377C810.272 714.923 812.733 712.741 814.271 711.448C818.271 708.297 818.655 705.065 816.04 696.742C814.963 693.106 814.041 689.632 814.041 688.905C814.041 686.642 822.347 677.269 828.115 673.067C831.115 670.805 834.806 667.734 836.268 666.118C838.729 663.452 838.883 663.129 838.19 659.412C837.806 657.311 837.652 651.412 837.806 646.403C837.96 637.676 837.883 637.11 835.652 632.262C833.73 628.061 833.268 625.879 832.807 618.688C832.345 610.365 832.345 609.961 834.345 606.486C835.422 604.547 837.037 600.83 837.806 598.245C840.113 591.376 843.42 587.175 852.573 579.579C861.802 571.903 864.186 568.509 872.416 552.187C878.03 541.118 880.03 535.381 880.722 528.916C881.26 523.099 880.414 522.533 873.954 525.038C871.339 526.008 867.032 527.139 864.263 527.543C861.571 527.947 858.341 528.836 857.11 529.482C855.88 530.128 854.342 530.452 853.726 530.209C852.034 529.563 849.727 525.2 849.112 521.563C848.804 519.867 847.881 518.089 847.035 517.523C846.189 517.038 844.728 515.261 843.805 513.726C842.882 512.19 840.19 508.635 837.729 505.888C835.345 503.141 833.114 499.908 832.884 498.616C831.884 493.687 830.038 489.566 828.346 488.435C825.808 486.657 824.039 482.213 824.039 477.688C824.039 474.941 823.424 472.678 821.732 469.608C820.501 467.264 819.117 463.628 818.655 461.608C818.194 459.588 815.963 453.69 813.656 448.438C808.426 436.64 808.349 435.752 812.579 435.752C815.579 435.752 815.733 435.913 818.424 441.004C822.655 449.084 823.885 451.831 824.423 454.174C824.731 455.306 825.731 456.841 826.654 457.487C828.807 458.942 829.73 461.285 831.422 469.608C832.499 474.779 833.191 476.476 835.191 478.496C836.575 479.87 838.114 482.294 838.729 483.829C839.267 485.364 841.19 488.919 843.036 491.747C845.728 495.949 846.343 497.484 846.343 500.636C846.343 507.989 849.65 517.2 852.496 518.17C854.419 518.816 863.879 514.776 870.724 510.494C873.339 508.878 877.107 507.019 879.03 506.453C882.26 505.484 883.798 504.191 885.952 500.474C886.413 499.747 888.798 498.292 891.336 497.161C896.719 494.899 903.872 487.95 906.718 482.213C907.718 480.193 909.333 477.769 910.409 476.718C911.409 475.668 912.948 473.405 913.717 471.547C915.101 468.396 915.101 468.234 913.64 465.406C912.717 463.709 910.179 461.043 907.487 459.184C904.18 456.76 902.641 455.063 902.026 453.043C901.565 451.508 900.642 450.215 900.103 450.054C899.488 449.973 897.642 451.346 896.027 453.205C892.489 457.083 890.567 457.972 885.952 457.972C882.26 457.972 880.953 456.599 880.953 452.801C880.953 451.346 879.568 449.165 876.876 446.013C872.185 440.681 869.647 435.671 868.955 430.338C868.57 427.267 868.724 426.379 870.031 425.005C871.031 423.954 872.185 423.47 873.185 423.793C874.569 424.116 879.722 429.853 885.875 437.772C887.106 439.307 888.951 441.246 890.105 441.973C892.335 443.589 897.181 443.913 899.488 442.539C901.719 441.327 903.488 442.216 905.103 445.367C905.872 446.902 907.41 448.518 908.564 449.003C914.024 451.185 927.637 452.154 934.406 450.862C939.943 449.73 941.712 450.619 945.404 456.195C947.865 459.831 949.788 461.851 952.249 463.063C954.325 464.113 955.402 465.164 955.171 465.81C954.941 466.376 954.556 467.426 954.325 468.072C953.787 469.446 958.632 474.941 960.401 474.941C961.017 474.941 962.401 474.133 963.555 473.244C966.554 470.739 967.323 472.113 967.477 480.354C967.708 490.778 970.938 502.333 980.936 528.997C985.859 542.087 986.551 542.41 992.088 533.845C995.319 528.836 995.857 527.381 996.78 521.159C997.318 517.281 997.626 511.948 997.318 509.281L996.934 504.353L1001.32 500.474C1003.7 498.292 1007.39 494.252 1009.47 491.586C1011.62 488.839 1015.32 484.96 1017.7 482.94C1020.47 480.678 1022.78 477.769 1024.01 475.345C1026.24 470.658 1028.39 469.284 1033.39 469.284C1036.39 469.284 1037.47 468.88 1039.39 466.86C1042.54 463.628 1044.23 464.598 1045.85 470.254C1046.46 472.597 1047.93 475.829 1049 477.365C1052.46 482.132 1053.85 485.687 1055.08 492.636C1055.77 496.353 1056.46 499.666 1056.77 500.07C1057.46 501.363 1059 500.878 1061.69 498.373C1063.15 497.08 1064.77 496.03 1065.23 495.949C1066.77 495.949 1068.61 498.858 1068.61 501.363C1068.61 502.656 1069.31 506.615 1070.23 510.17C1073.23 521.967 1073.38 523.422 1072.46 530.694L1071.54 537.562L1074.23 541.926C1075.77 544.269 1078.15 550.167 1079.69 554.935C1083.3 566.732 1085.3 571.014 1088.15 572.792C1091.07 574.65 1093.92 574.731 1094.53 573.115C1094.99 571.822 1091.15 560.348 1088.15 553.965C1087.15 551.945 1085 548.551 1083.3 546.531C1081.61 544.511 1080 542.006 1079.77 541.037C1079.46 539.986 1078 537.077 1076.46 534.492L1073.69 529.805L1075.77 525.523C1076.92 523.179 1077.84 520.271 1077.84 519.139C1077.84 513.806 1079.77 513.241 1084.07 517.362C1085.77 518.897 1087.38 520.19 1087.69 520.19C1088.07 520.19 1089.07 521.563 1089.92 523.179C1090.84 524.876 1092.84 527.543 1094.3 528.997C1095.84 530.532 1097.07 532.229 1097.07 532.714C1097.07 534.33 1099.38 537.077 1100.46 536.673C1100.99 536.431 1102.61 534.653 1103.99 532.714C1105.38 530.775 1108.22 527.947 1110.22 526.492C1114.99 523.099 1116.76 518.897 1116.07 512.756C1115.45 507.342 1112.91 502.009 1106.69 493.202C1100.07 483.748 1100.07 482.294 1106.07 475.668C1110.76 470.496 1113.45 469.608 1116.84 472.113C1118.45 473.244 1118.84 473.244 1122.22 471.466C1124.22 470.335 1126.76 469.204 1127.84 468.88C1128.91 468.557 1130.84 467.426 1132.22 466.376C1133.68 465.164 1135.68 464.436 1137.37 464.436C1141.68 464.436 1143.91 463.063 1149.37 457.245C1153.45 452.962 1155.06 450.458 1157.06 445.448C1158.45 441.893 1160.75 437.448 1162.14 435.428C1167.37 428.318 1167.6 419.914 1162.91 408.683C1161.37 404.966 1159.22 400.926 1158.22 399.714C1155.75 396.563 1156.37 394.866 1162.14 389.452C1164.83 386.947 1167.06 384.281 1167.06 383.553C1167.06 382.261 1164.14 380.402 1162.14 380.402C1161.52 380.402 1160.68 380.968 1160.14 381.614C1158.06 384.281 1154.29 382.341 1151.75 377.332C1150.29 374.504 1150.83 373.292 1154.22 371.191C1155.98 370.059 1158.83 367.716 1160.52 365.939C1164.75 361.333 1166.29 361.494 1166.29 366.504C1166.29 368.686 1166.52 370.625 1166.75 370.948C1166.98 371.191 1169.06 370.464 1171.37 369.251C1174.67 367.555 1175.9 367.312 1177.6 367.959C1179.52 368.686 1179.75 369.09 1179.98 373.211C1180.21 377.332 1180.37 377.736 1182.9 379.19C1185.29 380.564 1185.6 381.049 1185.52 383.957C1185.36 397.532 1185.44 398.179 1187.21 398.179C1188.21 398.179 1190.75 397.128 1192.82 395.916C1196.44 393.896 1196.67 393.492 1196.9 390.341C1197.06 387.674 1196.44 385.169 1194.06 379.675C1189.36 368.767 1189.36 369.171 1193.9 363.919C1196.06 361.494 1198.52 357.939 1199.36 356.162C1202.21 350.344 1203.28 349.697 1209.67 349.697C1212.82 349.697 1216.28 349.374 1217.28 348.97C1220.13 347.839 1222.9 344.364 1225.97 337.981C1227.59 334.911 1231.28 328.527 1234.36 323.841C1240.66 314.144 1241.36 312.367 1242.05 304.287C1242.36 301.054 1243.28 295.883 1244.12 292.893C1245.89 286.591 1245.59 282.308 1243.12 278.026C1241.28 274.875 1238.82 274.067 1235.43 275.279C1231.2 276.814 1228.9 276.41 1226.74 273.663C1223.2 269.218 1223.82 266.794 1230.82 258.633C1234.13 254.755 1239.05 248.776 1241.82 245.463C1246.2 240.049 1247.2 239.241 1251.66 237.625C1254.51 236.655 1260.97 235.443 1266.81 234.878C1276.43 233.908 1277.27 233.908 1284.27 235.605C1291.96 237.463 1295.27 237.786 1296.81 236.736C1297.35 236.332 1298.65 233.746 1299.73 230.918C1303.04 222.03 1307.27 218.798 1315.5 218.798C1320.03 218.798 1320.19 218.879 1321.42 221.626C1322.11 223.161 1323.27 224.454 1323.88 224.454C1324.57 224.454 1327.34 221.949 1330.11 218.798C1333.73 214.596 1335.49 213.142 1336.42 213.546C1340.8 215.323 1336.96 223.08 1330.11 226.232C1325.73 228.171 1323.19 230.757 1318.96 237.382C1317.11 240.291 1313.34 245.22 1310.5 248.452C1304.11 255.805 1303.65 257.825 1305.11 272.531C1306.88 289.904 1309.04 293.702 1312.73 286.025C1313.81 283.844 1316.73 279.319 1319.19 276.006C1325.65 267.522 1330.57 256.937 1331.19 250.472C1331.65 244.978 1333.49 240.615 1337.65 234.797C1342.34 228.252 1345.95 227.444 1353.49 230.999C1359.87 234.07 1363.26 232.858 1372.41 224.535C1383.18 214.596 1384.95 213.546 1392.1 212.334C1394.95 211.849 1397.79 211.041 1398.33 210.556C1399.95 209.182 1399.48 206.678 1396.95 202.476C1394.79 199.082 1394.64 198.274 1395.41 196.335C1395.87 195.123 1397.64 193.184 1399.33 192.052C1401.18 190.84 1403.1 188.578 1404.18 186.396C1405.71 183.083 1406.1 182.841 1408.71 182.922C1411.1 183.003 1412.71 184.053 1418.79 189.628C1428.09 198.032 1430.32 198.193 1433.17 190.679C1433.71 189.144 1435.48 187.043 1437.17 185.911C1442.48 182.195 1440.94 180.013 1427.25 171.367C1417.17 164.984 1414.4 163.449 1403.56 158.6C1387.87 151.571 1373.72 146.884 1368.1 146.884C1364.49 146.884 1362.95 148.823 1363.41 152.702C1363.95 156.661 1362.41 157.55 1359.49 155.045C1354.8 151.167 1353.95 151.005 1338.88 150.682C1330.88 150.439 1323.73 150.035 1323.03 149.712C1322.34 149.47 1320.65 147.288 1319.27 144.945C1315.5 138.4 1314.04 137.753 1302.27 137.915C1290.89 137.996 1289.19 137.43 1286.04 132.421C1283.5 128.38 1280.04 126.441 1270.74 123.936C1257.58 120.381 1247.66 120.462 1243.66 124.098C1242.89 124.906 1241.2 127.734 1239.97 130.481L1237.82 135.572H1226.82C1217.36 135.572 1215.51 135.329 1212.98 133.956C1208.82 131.612 1207.21 131.855 1205.75 135.168C1203.44 140.258 1199.52 139.612 1196.98 133.713C1195.36 129.916 1195.13 126.199 1196.36 122.967C1197.75 119.088 1196.67 117.068 1191.9 114.806C1188.75 113.27 1185.9 112.624 1180.9 112.301L1174.14 111.897L1172.14 115.29L1170.14 118.603H1162.98C1154.52 118.603 1138.76 115.129 1129.76 111.412C1126.53 110.038 1123.37 108.907 1122.76 108.907C1122.14 108.907 1120.38 110.119 1118.84 111.574C1112.68 117.31 1109.07 118.684 1109.53 115.21C1109.68 113.998 1111.3 112.301 1113.99 110.442C1129.14 100.1 1131.99 97.8372 1133.3 95.6556C1136.06 90.8882 1134.76 88.3026 1127.84 84.5857C1125.14 83.1312 1122.61 82.6464 1116.07 82.2424L1107.76 81.7576L1103.76 77.1519C1099.84 72.7078 1099.53 72.5462 1095.84 72.5462C1093.53 72.5462 1091.15 73.1118 1089.76 74.0006Z" fill="black" fill-opacity="0.04" style="fill:black;fill-opacity:0.04;"/>
<path d="M941.326 80.7065C939.634 81.6762 936.865 83.4538 935.173 84.6658C930.559 87.8979 927.713 88.7059 924.329 87.7363C920.33 86.6051 916.792 87.8979 911.331 92.342C908.87 94.2813 905.332 96.5437 903.332 97.271C899.102 98.887 897.872 100.341 897.872 103.412C897.872 104.947 896.872 106.886 894.795 109.23C892.642 111.654 891.719 113.431 891.719 115.128C891.719 116.744 890.873 118.28 889.104 120.138C887.643 121.592 886.258 123.774 885.951 124.986C885.643 126.117 884.951 127.653 884.412 128.299C881.413 131.854 882.644 135.571 887.335 136.702C888.796 137.026 889.796 137.995 890.258 139.53C891.258 142.439 893.796 143.651 899.025 143.651C902.64 143.651 903.256 143.409 903.256 142.116C903.256 141.308 902.717 140.177 902.025 139.53C899.487 137.349 898.41 133.794 898.795 128.703C899.487 120.057 904.332 113.027 915.023 105.19C918.484 102.685 922.406 99.6142 923.637 98.483C925.098 97.1902 930.482 94.8469 937.404 92.342C949.633 88.0595 952.632 86.1203 951.94 82.969C951.017 78.6865 946.556 77.7977 941.326 80.7065Z" fill="black" fill-opacity="0.04" style="fill:black;fill-opacity:0.04;"/>
<path d="M284.36 82.0009C284.052 82.8089 284.59 83.9401 285.898 85.1521C287.821 86.849 289.59 87.5762 295.819 89.0306C298.434 89.6771 301.049 94.606 301.049 98.8077C301.049 101.232 301.511 101.959 304.28 104.06C307.125 106.241 308.125 106.565 312.509 106.565C315.355 106.565 320.738 106.565 324.507 106.645C328.353 106.726 333.198 106.807 335.275 106.726C337.428 106.645 341.274 106.726 343.812 106.726C349.426 106.888 351.81 105.272 351.81 101.474C351.81 94.3636 344.811 92.5051 332.506 96.4644C327.507 98.0805 325.045 98.4037 321.661 98.0805C314.355 97.3533 307.971 93.6364 307.971 90.1619C307.971 88.1418 304.664 86.1218 300.819 85.9602C298.665 85.8794 296.358 84.9097 293.82 83.2129C289.513 80.304 285.206 79.7384 284.36 82.0009Z" fill="black" fill-opacity="0.04" style="fill:black;fill-opacity:0.04;"/>
<path d="M229.675 84.667C227.598 86.6871 227.598 86.4446 229.521 90.3231C230.367 92.02 230.828 94.04 230.598 94.6865C229.905 96.6257 226.368 96.2217 223.137 93.8784C219.138 91.0504 210.524 87.0911 208.37 87.0911C207.14 87.0911 205.371 88.5455 202.679 92.02C198.372 97.3529 197.988 99.0498 200.295 101.231C201.602 102.443 202.679 102.605 207.217 102.201C212.216 101.797 212.601 101.797 212.601 103.332C212.601 106.08 214.062 108.1 216.062 108.1C217.138 108.1 221.368 106.968 225.445 105.595C229.752 104.06 234.981 102.928 237.596 102.847C240.134 102.767 242.673 102.605 243.211 102.524C244.595 102.363 247.21 97.5953 247.21 95.0905C247.21 92.2624 245.826 91.1312 242.288 91.1312C238.366 91.1312 237.827 90.7272 235.751 86.4446C233.905 82.6469 232.29 82.1621 229.675 84.667Z" fill="black" fill-opacity="0.04" style="fill:black;fill-opacity:0.04;"/>
<path d="M172.147 108.342C171.224 108.908 171.07 109.877 171.454 112.867C171.916 116.261 171.608 117.311 168.839 122.886C164.994 130.401 164.917 131.936 168.147 133.795C169.455 134.522 171.762 136.38 173.146 137.754C176.223 140.905 176.838 140.986 181.453 138.643C184.145 137.269 185.683 135.653 187.682 132.259C190.682 127.007 194.758 122.886 197.681 122.159C200.834 121.351 200.68 122.321 196.912 126.765C192.989 131.371 192.682 133.067 194.912 137.027C195.758 138.481 196.45 140.34 196.45 141.067C196.45 144.784 198.911 145.834 207.987 146.076L212.217 146.157L208.218 147.612C203.295 149.389 201.834 150.601 201.834 152.945C201.834 155.53 204.141 157.308 208.218 157.712C212.217 158.116 213.909 158.924 215.986 161.348C218.908 164.742 233.29 163.126 240.751 158.52L244.135 156.419L248.365 159.005C251.441 160.863 253.595 161.591 256.133 161.591C260.671 161.591 262.055 160.298 261.44 156.823C261.055 154.722 261.286 153.995 262.593 153.187C265.131 151.49 264.362 149.713 259.748 146.804C254.21 143.329 253.056 141.632 250.672 132.744C248.749 125.634 248.749 125.472 250.057 121.593C251.672 116.988 250.903 115.129 247.365 114.725C245.75 114.564 244.289 115.129 242.443 116.745C241.058 117.957 239.213 119.412 238.367 119.897C236.674 120.866 236.598 122.078 237.597 129.027C238.367 134.279 236.905 134.522 235.213 129.512C234.675 127.734 233.598 125.795 232.829 125.23C231.368 124.179 230.829 124.179 226.753 125.957C224.523 126.926 224.138 126.765 221.831 124.745C219.677 122.886 218.831 122.644 216.524 123.048C214.294 123.452 213.371 123.21 212.294 121.917C211.525 121.028 209.987 120.058 208.833 119.816C207.372 119.493 206.449 118.523 205.756 116.584C204.449 112.624 200.757 110.524 195.374 110.524C192.528 110.524 189.99 109.958 187.99 108.908C185.606 107.615 183.683 107.291 179.145 107.453C175.915 107.615 172.762 108.019 172.147 108.342Z" fill="black" fill-opacity="0.04" style="fill:black;fill-opacity:0.04;"/>
<path d="M320.735 115.372C319.582 115.776 317.89 116.745 317.044 117.553C315.275 119.25 310.275 130.159 310.275 132.421C310.275 135.572 312.044 137.996 315.044 138.966C318.12 139.936 318.736 140.986 316.813 141.713C316.198 142.037 315.659 142.683 315.659 143.249C315.659 144.703 319.351 147.693 321.197 147.693C321.966 147.693 323.965 148.42 325.657 149.309C328.196 150.682 330.195 150.925 338.117 150.925C345.193 151.006 347.962 151.248 349.038 152.137C351.192 153.834 352.807 153.672 354.884 151.329C357.345 148.582 359.037 148.824 362.728 152.46C365.036 154.642 365.959 156.258 366.036 157.874C366.036 160.217 366.728 160.702 371.958 161.833C374.803 162.399 379.495 166.843 380.725 170.075C382.494 174.438 382.033 176.458 378.341 180.822C375.957 183.65 374.88 185.67 374.88 187.205C374.88 189.952 373.957 190.437 367.42 191.083C362.344 191.568 359.498 193.346 359.498 196.093C359.498 199.487 363.344 200.295 371.419 198.679C374.265 198.113 375.726 198.194 377.188 199.002C379.418 200.214 385.648 207.001 385.648 208.294C385.648 209.91 404.952 218.556 406.414 217.586C407.567 216.859 407.336 214.274 406.029 213.142C405.414 212.577 404.875 211.607 404.875 211.042C404.875 209.668 408.029 209.506 409.336 210.88C410.644 212.254 413.951 210.476 414.258 208.133C414.951 203.608 412.49 198.76 407.952 195.77C404.26 193.346 402.414 189.791 402.722 185.831C402.876 183.407 403.26 182.761 404.722 182.599C406.49 182.276 406.721 182.518 413.412 190.76C415.874 193.831 417.566 193.346 420.873 188.659C422.18 186.801 424.103 184.215 425.026 183.003C427.718 179.448 425.718 177.589 416.027 174.6C414.797 174.277 413.412 173.145 412.951 172.257C412.49 171.287 410.105 168.62 407.644 166.277C403.568 162.237 403.26 161.752 403.722 159.247C403.952 157.793 403.876 156.096 403.568 155.53C402.953 154.561 402.876 154.076 402.722 151.329C402.645 150.198 400.261 148.097 395.646 144.865C391.801 142.279 388.109 139.451 387.417 138.643C386.724 137.835 385.263 137.188 384.186 137.188C379.879 137.188 376.649 135.572 374.573 132.502C372.419 129.189 368.343 126.361 364.497 125.553C362.728 125.149 361.113 125.553 358.498 127.088C355.883 128.543 354.191 128.947 352.73 128.623C349.654 127.815 348.884 126.927 348.346 123.29C348.038 121.432 346.962 119.089 345.885 117.958C344.193 116.18 343.501 116.018 339.809 116.422C337.502 116.665 334.195 117.715 332.349 118.766L329.118 120.624L328.888 126.119C328.657 130.805 328.503 131.532 327.196 131.532C324.35 131.532 323.812 124.098 326.35 120.301C327.965 117.958 328.503 115.453 327.426 115.291C327.042 115.291 325.965 115.129 324.888 114.968C323.812 114.806 321.966 115.049 320.735 115.372Z" fill="black" fill-opacity="0.04" style="fill:black;fill-opacity:0.04;"/>
<path d="M289.895 135.734C289.049 136.218 287.818 137.431 287.126 138.319C285.741 140.178 284.588 148.824 285.511 150.601C285.818 151.248 287.664 152.541 289.51 153.591C292.587 155.207 292.971 155.773 293.971 160.136L295.048 164.903L291.741 167.974C289.895 169.671 288.049 171.044 287.587 171.044C287.203 171.044 286.28 169.913 285.665 168.458C284.742 166.438 283.973 165.792 281.896 165.63C279.742 165.388 278.896 165.873 276.743 168.378L274.128 171.367L266.206 170.883C256.054 170.317 253.208 169.347 248.671 164.903C245.287 161.59 244.671 161.267 242.287 161.752C240.826 162.075 238.826 162.964 237.826 163.772C236.288 165.146 236.211 165.469 237.134 167.327C238.365 169.751 237.596 172.741 235.827 172.741C235.057 172.741 233.673 172.175 232.673 171.448C231.135 170.236 229.443 170.155 220.521 170.559C211.677 171.044 210.138 170.963 209.754 169.913C209.523 169.186 209.908 167.974 210.677 167.085C211.907 165.63 211.907 165.388 210.831 163.53C209.677 161.752 208.985 161.59 202.832 161.267C196.679 161.025 195.679 160.782 191.295 158.035C184.989 154.076 182.066 153.349 177.528 154.318C174.529 155.045 173.529 154.884 171.683 153.833C169.76 152.54 169.376 152.54 167.838 153.672C165.377 155.53 164.377 155.288 161.377 152.136C158.378 148.904 157.993 148.824 154.917 150.52C153.609 151.248 151.84 151.571 150.764 151.248C149.61 151.005 146.457 151.571 142.842 152.864C139.535 153.995 135.305 155.126 133.382 155.449C129.229 156.096 127.537 156.904 124.768 159.651C123.076 161.348 122.23 161.59 119.769 161.186C118.23 160.863 115.308 159.732 113.385 158.601C103.079 152.621 102.464 152.46 90.4657 151.732C80.9288 151.248 78.7753 150.844 76.4679 149.389C74.5452 148.177 72.5455 147.692 69.3153 147.692C66.3927 147.692 63.6239 147.127 61.2396 145.996C59.3169 145.026 55.5483 143.975 53.0102 143.652C50.3953 143.329 47.2419 142.44 45.8575 141.713C42.6273 139.935 40.0892 140.097 38.3972 142.036C37.6281 142.925 35.5515 144.056 33.8595 144.541C25.3224 146.965 21.0923 149.793 16.0932 156.5C12.8629 160.863 12.2476 161.267 8.70975 161.752C5.63333 162.156 4.7104 162.722 4.01821 164.257C3.32601 165.873 3.40292 166.519 4.47967 167.812C5.24877 168.701 6.63316 169.59 7.633 169.832C8.63284 170.075 10.6325 172.095 12.0938 174.276C13.632 176.458 15.8624 178.882 17.093 179.69C19.708 181.306 21.5538 184.215 20.7847 185.589C19.8618 187.043 16.0163 186.558 14.5549 184.861C12.6322 182.599 10.6325 182.841 5.4026 185.912C-0.827159 189.548 -1.05789 190.113 1.63398 194.962C3.55674 198.436 4.40276 199.163 7.32536 199.971C11.7093 201.183 18.0928 201.264 20.8616 200.133C22.6306 199.487 23.1689 199.567 24.0149 200.779C24.5533 201.587 24.9379 203.527 24.784 205.062C24.5533 207.728 24.3226 207.971 17.2468 211.203C8.47902 215.324 4.94113 218.313 4.94113 221.869C4.94113 223.242 5.32568 224.616 5.71024 224.858C6.1717 225.182 7.47918 227.444 8.70975 229.949C11.2478 235.039 13.0936 236.655 17.5545 237.302C20.3232 237.706 20.6309 238.11 21.4 241.019C22.246 244.251 22.3229 244.251 26.8606 244.897C32.9366 245.786 33.0904 245.786 38.0896 245.059C41.6275 244.574 42.4735 244.655 42.858 245.705C44.1655 249.422 35.8592 258.31 25.2455 264.532C22.4767 266.148 19.4772 268.572 18.5543 269.946C17.6314 271.239 15.8624 272.774 14.5549 273.42C12.6322 274.309 12.4784 274.552 13.632 274.956C14.478 275.36 15.5548 275.036 16.4008 274.148C17.2468 273.42 21.0923 271.32 25.0917 269.542C33.2442 265.906 35.3208 264.371 43.3964 256.29C46.6266 253.139 49.9338 250.149 50.8567 249.584C52.3949 248.776 53.3948 246.352 54.4715 240.615C55.3944 236.009 62.2395 227.686 65.1621 227.686C66.2388 227.686 65.7005 229.626 64.1622 231.323C63.2393 232.373 62.5471 234.393 62.3933 236.251L62.2395 239.403L65.9312 239.322C69.0076 239.322 70.0074 238.837 72.2379 236.575C73.7761 235.039 75.545 232.535 76.3141 230.919C78.0061 227.202 80.1596 226.959 84.159 230.03C87.9276 232.939 90.0042 233.666 99.0796 235.363C107.847 237.059 111.77 238.918 116.385 243.443C119.538 246.594 120.538 247.079 123.306 247.079C127.767 247.079 129.382 248.21 129.998 251.604C130.305 253.543 130.998 254.674 131.92 254.917C132.766 255.159 133.612 256.21 133.843 257.26C134.074 258.31 135.458 260.088 136.843 261.138C138.227 262.27 139.765 264.451 140.227 265.906C140.765 267.441 142.457 269.784 144.149 271.239C145.841 272.693 147.918 275.198 148.687 276.814C149.533 278.43 151.148 281.824 152.379 284.248C153.532 286.753 155.224 289.662 156.07 290.874C156.993 292.005 158.301 294.348 158.993 296.045C160.07 298.469 162.377 300.732 168.837 305.58C173.529 309.054 177.913 312.852 178.605 313.983C180.143 316.488 179.067 318.508 175.836 318.831C172.76 319.154 172.222 320.932 173.76 325.538C174.837 328.689 174.837 329.74 173.683 336.769C172.683 342.829 172.529 347.112 172.914 356.727C173.452 369.737 173.99 372.08 177.759 377.574C178.99 379.352 180.836 383.554 181.758 386.867C183.45 392.765 183.681 393.088 192.295 401.896C200.448 410.218 201.217 411.269 202.217 415.471C203.524 420.884 205.447 424.844 209.985 432.277C211.83 435.267 213.369 438.661 213.369 439.873C213.369 441.408 214.445 443.024 217.214 445.69C220.291 448.599 221.367 450.296 222.367 453.852C223.213 457.084 224.521 459.346 226.828 461.77C231.75 467.022 233.519 466.295 229.828 460.639C228.751 458.942 226.597 454.821 225.136 451.508C212.138 422.985 211.061 419.995 213.984 419.995C215.984 419.995 217.599 422.096 219.445 427.106C221.444 432.439 222.829 434.701 227.136 439.792C232.519 446.256 246.44 466.053 248.44 470.254C249.824 473.163 250.286 475.345 250.286 479.385C250.286 484.152 250.516 484.96 252.439 486.819C253.593 487.95 255.823 489.566 257.362 490.374C258.977 491.263 262.361 493.364 264.899 495.061C267.437 496.757 270.436 498.454 271.513 498.697C272.667 499.02 274.82 500.151 276.282 501.202C277.82 502.333 280.896 503.626 283.127 504.11C286.664 504.999 287.664 504.918 289.972 503.787C292.279 502.575 292.971 502.575 295.202 503.545C296.586 504.191 298.739 505.969 299.97 507.585C303.969 512.918 309.584 515.827 318.813 517.362C321.12 517.685 322.274 518.655 324.966 522.372C326.735 524.877 328.811 528.593 329.504 530.613C330.273 533.038 331.426 534.654 332.734 535.381C333.888 535.946 335.964 537.805 337.348 539.502C338.733 541.199 341.194 543.219 342.809 543.865C344.424 544.592 346.27 545.723 346.962 546.451C348.577 548.228 351.346 547.663 351.654 545.562C351.961 543.219 354.423 540.956 356.192 541.36C357.038 541.522 358.499 543.542 359.806 546.451C361.652 550.329 362.191 552.915 362.729 559.783L363.344 568.186L360.729 571.095C359.268 572.631 357.499 575.216 356.807 576.751C356.038 578.287 354.884 580.307 354.115 581.196C353.346 582.084 351.808 585.155 350.731 587.983L348.731 593.154L350.731 596.71L352.731 600.265L350.731 603.255C346.27 610.042 346.424 613.193 351.423 620.385C355.269 625.96 363.652 644.544 366.498 653.998C369.42 663.533 370.958 665.553 378.726 669.674C385.187 673.148 389.571 677.431 391.493 682.198C393.955 688.339 393.801 700.46 391.109 716.539C389.494 725.751 388.417 735.77 387.879 745.224C386.802 766.556 386.033 772.373 383.726 777.06C381.111 782.554 379.265 791.2 379.726 795.725C379.957 797.826 379.649 801.139 379.034 803.644C377.65 808.492 378.573 813.098 381.034 813.906C383.187 814.633 383.418 816.249 382.11 823.44C379.419 839.035 379.572 838.631 377.111 839.52C374.804 840.328 374.65 840.732 374.881 846.631C374.881 848.651 374.419 851.64 373.727 853.418C372.65 856.084 372.574 857.377 373.343 862.306C374.65 870.548 375.65 874.346 376.957 875.881C377.88 877.012 378.034 878.386 377.573 882.507C377.111 887.355 377.188 887.92 378.88 889.698C379.88 890.668 383.264 893.011 386.494 894.869C389.725 896.728 393.57 899.556 394.954 901.172C397.262 903.677 397.954 904 401.415 904C405.337 904 411.798 901.495 411.798 900.041C411.798 899.556 410.337 898.182 408.568 896.889C404.03 893.577 402.876 892.041 401.8 887.84C401.261 885.9 400.031 882.507 399.031 880.406C398.031 878.305 397.185 875.638 397.185 874.507C397.185 871.679 399.108 867.881 401.107 866.75C401.953 866.265 403.492 864.003 404.491 861.741C405.491 859.397 407.029 856.408 407.875 855.115C410.106 851.721 409.875 848.974 407.183 845.418C405.953 843.722 404.876 841.621 404.876 840.651C404.953 837.823 407.491 832.894 412.49 825.864C415.028 822.228 417.182 818.754 417.182 818.188C417.182 817.542 416.489 816.491 415.566 815.683C414.49 814.633 414.105 813.502 414.259 811.643L414.49 809.058L418.874 809.3C423.104 809.623 423.334 809.462 424.104 807.441C424.488 806.31 424.873 804.129 424.873 802.755C424.873 797.826 426.334 796.21 431.179 795.644C438.717 794.756 447.177 789.18 447.177 784.979C447.177 783.928 446.331 780.938 445.254 778.434C444.177 775.929 443.331 773.101 443.331 772.212C443.331 770.677 443.639 770.515 446.254 771C455.099 772.454 455.637 772.454 457.406 771.242C458.406 770.596 460.482 767.283 462.02 763.889C463.559 760.495 466.251 755.809 468.02 753.546C469.788 751.203 472.326 746.921 473.711 744.012C475.095 741.103 477.095 736.982 478.249 734.8C479.479 732.296 480.248 729.548 480.248 727.367C480.248 723.003 482.786 715.731 485.094 713.549C486.017 712.661 488.016 711.206 489.478 710.479C490.939 709.671 493.4 708.055 494.861 706.843C496.476 705.469 499.091 704.338 501.245 704.015C506.475 703.207 508.859 700.702 512.012 692.864C517.242 680.178 518.934 672.744 519.011 662.402L519.088 653.029L523.01 647.857C531.24 636.868 536.393 626.526 536.393 620.869C536.393 616.91 533.624 613.274 527.779 609.557C524.933 607.699 521.703 605.275 520.472 604.143C517.242 600.992 515.012 600.023 510.32 599.699C500.476 599.134 498.015 598.487 496.246 595.982C494.015 592.669 488.17 588.872 485.247 588.872C483.325 588.872 482.248 589.599 480.325 592.104C478.787 594.124 477.249 595.336 476.095 595.336C474.249 595.336 469.481 590.73 469.481 588.872C469.481 588.306 470.558 585.882 471.788 583.458C473.096 581.115 474.095 578.772 474.095 578.368C474.095 577.883 473.249 575.459 472.173 573.035C471.096 570.611 470.25 568.106 470.25 567.459C470.25 565.52 465.02 560.025 461.559 558.248C459.79 557.359 455.791 556.228 452.637 555.743C445.869 554.773 442.947 553.077 439.563 547.986C438.024 545.724 435.717 543.703 433.948 542.815C432.256 542.007 430.103 540.148 429.026 538.532C428.026 536.916 426.565 535.462 425.719 535.138C424.873 534.896 423.719 533.765 423.027 532.714C421.566 530.371 419.797 530.209 416.105 532.068C413.798 533.199 412.875 533.199 410.413 532.472C408.721 531.906 406.337 531.502 405.107 531.502C403.722 531.502 401.646 530.533 399.877 529.078C396.031 525.927 394.647 525.523 391.801 527.058C389.186 528.513 387.956 528.109 387.956 525.765C387.956 523.584 386.264 523.826 378.573 527.139L371.881 530.048L369.42 535.219C366.498 541.522 364.575 542.411 360.729 539.259C357.576 536.754 356.115 536.674 351.115 538.775L347.27 540.31L342.655 536.27C337.118 531.422 336.656 529.805 337.733 518.655C338.964 505.807 336.887 503.383 325.35 504.434C320.813 504.838 318.736 504.676 318.352 504.03C317.659 502.898 320.121 489.808 321.582 486.738C322.197 485.526 322.735 482.213 322.812 479.466L322.966 474.537L318.89 474.294C313.275 473.971 311.66 475.264 309.43 481.809C307.738 486.98 304.738 490.778 303.277 489.808C302.893 489.566 300.893 489.97 298.816 490.616C295.125 491.748 294.817 491.748 292.433 490.051C289.664 488.031 284.896 481.809 282.819 477.365C281.665 474.941 281.435 472.113 281.358 458.78C281.358 448.034 281.588 442.216 282.281 440.438C282.896 438.903 284.819 436.802 287.357 435.025C289.587 433.409 292.663 431.146 294.125 430.015C296.432 428.237 297.278 428.076 300.662 428.56C302.739 428.803 306.046 429.611 307.815 430.257C311.66 431.631 313.352 431.227 313.352 429.045C313.352 426.46 315.506 425.328 320.582 425.167C323.735 425.086 326.12 425.49 327.965 426.46C329.888 427.51 331.734 427.833 334.195 427.51C338.195 427.025 338.194 427.025 340.656 437.045C342.425 444.559 346.424 451.912 348.731 451.912C352.346 451.912 352.192 443.913 348.501 434.136C343.732 421.369 345.04 417.895 359.114 405.613C362.96 402.3 366.421 398.583 366.959 397.371C367.421 396.24 368.036 392.927 368.267 390.179C368.574 387.028 369.266 384.281 370.266 382.826C371.112 381.614 372.035 379.352 372.343 377.898C372.574 376.443 373.65 374.019 374.65 372.484C375.573 370.949 376.419 368.848 376.419 367.878C376.419 365.454 378.265 363.838 383.726 361.737C389.878 359.394 390.263 358.99 390.263 354.627C390.263 349.132 393.032 345.334 398.954 342.506C401.569 341.294 404.184 339.678 404.799 338.951C405.337 338.143 406.645 337.577 407.645 337.577C409.183 337.577 409.414 337.981 409.644 341.375C409.875 345.658 411.567 346.87 414.028 344.526C414.72 343.88 417.72 341.86 420.643 340.244C426.719 336.769 427.718 334.507 423.719 333.295C415.643 330.709 412.952 327.558 413.644 321.094C413.874 318.912 414.567 316.569 415.259 315.761C416.72 314.064 416.72 312.205 415.259 310.913C414.259 310.105 413.105 310.105 409.029 311.317C406.26 312.125 403.799 312.529 403.568 312.205C402.492 311.074 405.03 307.68 408.491 305.499C412.106 303.317 412.49 303.236 421.873 303.398L431.564 303.64L434.871 300.974C436.717 299.6 439.024 297.742 440.178 297.015C442.331 295.479 446.408 295.075 446.408 296.368C446.408 297.661 442.793 306.549 439.639 313.094C437.717 316.973 437.025 319.154 437.563 319.72C438.255 320.447 448.715 322.225 454.099 322.548C455.175 322.629 456.867 323.275 457.944 324.083C462.328 327.315 462.713 325.457 459.329 315.761C457.714 310.913 457.329 310.428 454.483 309.458C452.791 308.893 450.561 307.519 449.484 306.469C447.792 304.691 447.715 304.206 448.561 301.863C449.023 300.408 449.484 297.015 449.561 294.348C449.561 291.682 449.638 288.53 449.638 287.238C449.715 283.844 447.177 278.592 445.254 278.107C444.331 277.865 442.254 278.269 440.562 278.996L437.64 280.289L439.332 278.349C441.87 275.44 441.562 273.178 438.255 271.724C436.717 271.077 433.41 268.33 430.949 265.583C426.949 261.219 426.411 260.25 426.411 257.422C426.411 254.109 425.026 250.473 423.104 248.776C422.488 248.291 421.719 246.513 421.412 244.816C420.796 240.938 415.874 233.343 414.105 233.343C413.182 233.343 411.798 235.039 410.183 237.948C406.876 244.251 405.722 245.463 403.415 245.463C399.261 245.463 396.493 241.584 394.801 233.423C394.185 230.434 393.416 228.898 392.032 227.848C390.878 227.121 387.571 224.05 384.572 221.061L379.034 215.647L374.035 215.728C371.266 215.728 368.267 215.405 367.421 214.839C365.19 213.627 360.652 213.708 359.729 214.92C358.653 216.374 359.037 229.302 360.114 231.484C361.498 234.07 361.268 236.898 359.499 239.241C357.345 242.069 357.499 243.524 361.037 250.634C364.036 256.775 364.806 260.815 363.421 264.29C363.113 265.098 361.037 267.764 358.73 270.188L354.576 274.552L355.499 278.349C356.038 280.531 356.653 284.248 356.884 286.672C357.345 290.793 357.191 291.439 355.269 293.783C352.654 297.095 350.962 297.015 348.039 293.54C344.27 289.015 343.117 285.945 342.501 278.673C342.117 274.471 341.502 271.4 340.809 270.673C340.194 270.027 337.425 269.299 334.734 268.976C331.119 268.572 328.734 267.683 325.274 265.502C314.968 259.038 308.353 255.967 304.661 255.967C301.201 255.967 301.124 255.886 300.355 252.897C299.893 251.281 299.508 249.503 299.508 249.018C299.508 247.402 296.432 243.928 294.74 243.685C290.433 243.039 291.279 233.585 296.894 221.465C299.97 214.758 300.662 213.788 303.739 212.092C305.969 210.96 307.661 209.264 308.584 207.486C309.507 205.547 311.122 204.011 313.968 202.557C319.582 199.648 321.813 197.224 321.813 194.154C321.813 192.699 322.505 190.598 323.351 189.548C324.197 188.417 325.197 186.477 325.658 185.265C326.427 183.164 326.658 183.084 329.657 183.568C333.349 184.215 339.733 182.276 342.501 179.69C345.27 177.024 345.809 174.761 344.424 171.287C343.424 168.701 343.348 167.651 344.194 163.934L345.193 159.57L342.886 157.712C341.655 156.661 338.81 155.045 336.579 154.076C331.426 151.894 329.888 152.783 330.503 157.712C330.811 160.055 330.58 161.51 329.504 163.045C328.734 164.176 327.504 166.762 326.735 168.782C324.966 173.468 324.274 174.357 322.12 174.357C319.505 174.357 317.89 170.64 318.428 166.115C318.813 163.045 318.659 162.237 316.89 160.136L314.891 157.793L312.506 160.621L310.199 163.449L307.969 160.621C306.738 159.086 304.815 156.823 303.739 155.611C302.2 153.995 301.893 153.025 302.277 151.328C302.662 149.793 302.047 147.773 300.201 143.814C296.124 135.087 293.894 133.31 289.895 135.734ZM388.417 536.027C388.033 537.078 387.648 537.158 387.033 536.512C386.571 536.027 386.417 535.058 386.725 534.25C387.11 533.199 387.494 533.118 388.109 533.765C388.571 534.25 388.725 535.219 388.417 536.027Z" fill="black" fill-opacity="0.04" style="fill:black;fill-opacity:0.04;"/>
<path d="M582.771 182.194C581.233 182.841 581.618 185.346 583.386 186.638C584.848 187.608 584.925 188.012 584.156 189.547C583.386 191.002 583.54 191.971 584.694 194.799C586.694 199.486 592.77 202.718 600.461 203.284C605.152 203.607 606.229 203.364 610.613 201.102C615.997 198.274 619.458 194.638 619.458 191.81C619.458 189.143 613.305 182.437 610.844 182.437C609.075 182.437 597.307 184.134 591.693 185.265C589.616 185.669 588.539 185.346 586.463 183.73C585.002 182.518 583.771 181.629 583.771 181.71C583.694 181.71 583.233 181.952 582.771 182.194Z" fill="black" fill-opacity="0.04" style="fill:black;fill-opacity:0.04;"/>
<path d="M655.604 244.816C654.681 245.867 653.22 247.887 652.374 249.341C650.528 252.492 650.759 256.856 653.22 262.593C653.989 264.451 654.989 267.118 655.373 268.491C655.758 269.865 656.911 271.319 658.065 271.966C660.372 273.097 663.295 276.652 663.295 278.268C663.295 278.834 662.449 279.965 661.449 280.854C660.372 281.662 658.834 284.49 657.988 287.156L656.45 291.924L658.065 293.782L659.757 295.56L657.68 297.822C655.45 300.246 654.912 302.832 656.604 302.832C657.142 302.832 657.988 302.428 658.45 301.943C658.834 301.539 662.68 300.731 666.833 300.327C678.292 299.034 678.985 298.792 679.523 295.56C679.754 294.025 680.369 291.681 680.907 290.389C681.984 287.56 681.446 285.298 679.369 284.652C678.6 284.328 677.293 282.955 676.6 281.581C675.216 278.753 668.14 267.36 665.448 263.724C663.987 261.623 663.91 261.219 664.833 258.876C665.372 257.502 665.833 255.24 665.91 253.947C665.987 251.765 665.679 251.442 663.295 251.119C660.68 250.715 660.603 250.553 660.757 247.483C661.065 242.877 658.526 241.584 655.604 244.816Z" fill="black" fill-opacity="0.04" style="fill:black;fill-opacity:0.04;"/>
<path d="M643.067 270.107C637.76 276.248 637.068 277.622 637.529 280.45C637.914 282.308 637.606 284.086 636.837 285.702C635.222 288.934 635.299 292.651 636.837 294.025C637.914 294.914 638.452 294.833 640.529 293.54C641.836 292.732 644.067 291.358 645.528 290.55C649.373 288.449 649.527 288.207 650.373 282.147C650.758 279.076 651.296 275.44 651.527 273.986C652.296 268.895 646.451 266.148 643.067 270.107Z" fill="black" fill-opacity="0.04" style="fill:black;fill-opacity:0.04;"/>
<path d="M1248.35 335.718C1248.12 336.122 1247.74 337.981 1247.43 339.92C1247.04 342.344 1246.12 344.203 1244.66 345.657C1242.43 347.758 1240.51 352.525 1241.35 353.818C1242.12 355.111 1243.12 354.545 1243.35 352.687C1243.58 351.071 1243.97 350.909 1248.97 350.909C1253.97 350.909 1254.58 350.667 1257.66 348.162C1261.73 344.687 1261.81 342.748 1258.04 341.051C1256.43 340.405 1253.97 338.789 1252.58 337.496C1250.04 335.072 1248.97 334.668 1248.35 335.718Z" fill="black" fill-opacity="0.04" style="fill:black;fill-opacity:0.04;"/>
<path d="M1242.13 361.171C1241.51 362.222 1240.59 365.534 1240.13 368.605C1238.82 377.089 1236.43 381.291 1231.67 383.311C1230.2 383.957 1227.59 386.139 1225.82 388.24C1222.67 391.957 1222.59 391.957 1216.67 392.442C1211.21 392.926 1210.52 393.169 1208.52 395.593C1206.05 398.421 1205.59 400.603 1207.44 400.603C1208.05 400.603 1210.36 399.875 1212.59 398.987C1217.98 396.805 1219.67 396.886 1220.74 399.391C1221.82 401.815 1224.21 401.976 1226.28 399.795C1227.13 398.906 1229.13 398.017 1230.74 397.855C1232.28 397.694 1235.66 396.482 1238.2 395.27L1242.82 392.926L1243.74 386.058C1244.36 382.26 1245.66 376.766 1246.82 373.776L1248.82 368.363L1247.36 364.08C1245.74 359.313 1243.89 358.262 1242.13 361.171Z" fill="black" fill-opacity="0.04" style="fill:black;fill-opacity:0.04;"/>
<path d="M339.117 466.053C336.963 466.941 335.348 469.042 336.348 469.608C336.733 469.85 337.963 469.769 339.117 469.285C340.809 468.638 342.655 468.961 348.961 471.224C355.499 473.648 357.268 474.618 360.575 478.092C363.267 480.839 365.343 482.294 367.343 482.617C374.803 484.071 375.496 479.87 368.343 476.153C365.805 474.779 362.498 472.759 361.036 471.628C354.807 466.78 343.885 463.952 339.117 466.053Z" fill="black" fill-opacity="0.04" style="fill:black;fill-opacity:0.04;"/>
<path d="M384.108 482.942C381.724 483.346 381.417 483.75 380.955 486.659C380.647 488.76 380.724 490.134 381.34 490.457C384.493 492.639 396.03 491.507 396.952 488.922C397.568 487.306 394.261 483.993 391.107 483.023C388.185 482.134 388.185 482.134 384.108 482.942Z" fill="black" fill-opacity="0.04" style="fill:black;fill-opacity:0.04;"/>
<path d="M1145.83 548.308C1145.37 548.631 1144.06 550.408 1142.91 552.267C1141.83 554.206 1139.53 556.63 1137.83 557.761C1136.14 558.893 1133.99 561.074 1133.06 562.61C1132.06 564.145 1129.99 566.084 1128.45 567.054C1126.83 568.023 1124.84 570.205 1123.84 572.144C1122.53 574.568 1121.37 575.7 1119.37 576.346C1117.91 576.75 1116.22 577.477 1115.76 577.8C1114.14 578.851 1114.61 582.649 1116.61 585.557C1117.61 586.931 1118.84 589.678 1119.3 591.537C1119.76 593.395 1120.37 595.334 1120.68 595.819C1121.68 597.193 1128.07 599.375 1131.22 599.375C1132.99 599.375 1134.91 600.021 1136.06 600.991C1138.99 603.415 1141.45 603.091 1143.22 599.94C1144.06 598.567 1144.75 596.466 1144.75 595.334C1144.75 592.991 1149.68 580.224 1151.37 578.285C1152.83 576.508 1152.75 575.538 1150.45 570.69C1148.22 565.761 1148.45 563.66 1151.75 560.024C1154.52 556.873 1154.52 555.741 1151.98 553.237C1150.91 552.186 1149.68 550.489 1149.29 549.439C1148.6 547.661 1147.37 547.176 1145.83 548.308Z" fill="black" fill-opacity="0.04" style="fill:black;fill-opacity:0.04;"/>
<path d="M1061.92 556.308C1061.31 558.004 1062.38 560.105 1071.77 574.892C1082.84 592.345 1092.22 606.243 1095.22 609.637C1099.38 614.243 1101.68 611.576 1101.68 602.284C1101.68 597.759 1101.38 596.789 1099.07 593.638C1097.69 591.699 1095.46 587.901 1094.15 585.235C1091.38 579.579 1088.07 575.781 1080.38 569.721C1077.07 567.135 1073.92 563.822 1072.77 561.802C1070.31 557.277 1069.23 556.469 1065.46 555.742C1063.08 555.257 1062.23 555.419 1061.92 556.308Z" fill="black" fill-opacity="0.04" style="fill:black;fill-opacity:0.04;"/>
<path d="M1206.13 586.122C1203.36 587.658 1203.44 589.597 1206.21 592.425C1207.44 593.718 1208.67 595.657 1208.98 596.869C1209.75 600.182 1211.59 602.606 1213.28 602.606C1214.13 602.606 1215.9 603.172 1217.28 603.899C1218.59 604.626 1221.75 605.757 1224.28 606.404C1229.67 607.696 1230.51 608.343 1232.59 612.625C1233.82 615.211 1234.05 616.746 1233.67 620.14L1233.2 624.422H1235.67C1237.05 624.422 1239.97 625.311 1242.05 626.281C1249.89 630.159 1252.12 629.836 1254.74 624.422C1256.05 621.675 1256.66 621.19 1258.82 621.19C1260.89 621.19 1262.2 622.16 1267.2 627.735C1272.35 633.472 1273.74 634.523 1277.2 635.412C1283.12 637.028 1283.66 635.735 1278.74 631.21C1273.58 626.523 1270.89 621.675 1270.89 617.312C1270.89 614.565 1270.51 613.676 1268.81 612.545C1267.58 611.737 1266.12 610.363 1265.58 609.474C1262.89 605.676 1258.66 602.444 1252.51 599.697C1248.89 598.081 1243.13 595.495 1239.74 594.041C1236.44 592.506 1232.9 591.294 1231.9 591.294C1230.97 591.294 1228.59 592.748 1226.67 594.526C1224.74 596.303 1222.28 597.758 1221.36 597.758C1219.28 597.758 1217.52 595.334 1216.67 591.294C1215.52 585.476 1211.05 583.294 1206.13 586.122Z" fill="black" fill-opacity="0.04" style="fill:black;fill-opacity:0.04;"/>
<path d="M1103.38 614.082C1100.38 617.234 1104.53 620.789 1112.45 622.001C1115.45 622.486 1118.61 623.132 1119.3 623.617C1120.07 624.021 1124.45 624.91 1128.99 625.637C1142.22 627.738 1142.83 626.364 1131.37 620.385C1123.76 616.426 1123.14 616.264 1120.61 617.153C1117.45 618.203 1115.76 617.799 1111.91 615.052C1108.99 612.951 1104.92 612.466 1103.38 614.082Z" fill="black" fill-opacity="0.04" style="fill:black;fill-opacity:0.04;"/>
<path d="M1248.51 642.365C1247.97 643.415 1247.28 649.395 1246.97 655.616C1246.43 666.686 1245.28 671.938 1243.2 673.312C1241.51 674.362 1238.59 672.827 1230.9 666.767C1223.28 660.788 1223.21 660.626 1223.21 657.313C1223.21 655.374 1223.9 652.788 1224.74 651.253C1226.51 648.263 1226.74 645.516 1225.36 645.354C1224.82 645.274 1222.82 645.193 1220.9 645.112C1218.98 645.031 1215.82 644.466 1213.82 643.819C1210.44 642.769 1210.05 642.769 1208.44 644.304C1207.44 645.274 1205.05 646.97 1203.06 648.182C1199.21 650.445 1197.06 653.677 1197.06 657.152C1197.06 658.283 1196.59 659.252 1196.13 659.252C1193.67 659.495 1191.98 658.848 1190.37 657.071C1188.29 654.727 1187.13 654.647 1183.29 656.748C1181.29 657.798 1179.83 659.414 1178.75 661.757C1176.98 665.717 1172.83 670.161 1170.52 670.645C1169.45 670.807 1168.83 671.858 1168.37 674.12C1166.6 682.766 1163.45 685.432 1152.06 688.341C1143.99 690.361 1142.83 690.846 1139.76 694.24C1138.45 695.613 1136.22 697.391 1134.84 698.199L1132.22 699.653L1132.76 705.471C1132.99 708.703 1133.53 714.359 1133.91 718.157C1134.22 721.955 1136.22 731.974 1138.3 740.539C1141.91 755.892 1141.99 756.134 1140.68 758.962C1138.84 763.002 1139.07 764.376 1141.68 767.042C1144.99 770.355 1149.14 770.274 1155.45 766.719C1159.22 764.618 1161.6 763.891 1166.29 763.487C1172.14 763.002 1172.44 762.841 1175.29 759.689C1177.91 756.7 1178.75 756.296 1183.67 755.488C1186.83 755.003 1191.29 753.629 1194.06 752.175C1196.75 750.801 1199.67 749.67 1200.52 749.67C1203.98 749.751 1212.75 752.175 1214.21 753.468C1215.05 754.276 1216.9 757.589 1218.28 760.821C1219.74 764.053 1221.44 766.881 1222.13 767.204C1222.98 767.527 1224.28 766.558 1226.28 764.134C1227.9 762.194 1229.51 760.821 1229.82 761.225C1230.13 761.548 1230.36 763.245 1230.28 765.022C1230.13 767.446 1230.36 768.416 1231.36 768.82C1233.67 769.709 1237.36 774.799 1238.51 778.516C1239.9 783.122 1244.82 788.859 1248.28 790.071C1249.82 790.637 1252.2 790.798 1253.82 790.475C1257.51 789.748 1261.43 789.748 1264.58 790.475C1266.43 790.879 1267.51 790.717 1268.43 789.829C1269.2 789.101 1271.74 787.647 1274.12 786.516C1279.12 784.172 1280.58 782.314 1281.58 776.658C1282.58 771.325 1283.89 767.608 1288.2 758.073C1292.66 748.135 1294.73 739.812 1294.73 731.732C1294.73 721.066 1292.35 713.147 1287.81 708.865C1286.89 707.976 1285.43 705.794 1284.58 704.017C1283.73 702.239 1282.04 699.896 1280.89 698.765C1279.74 697.633 1278.2 695.129 1277.5 693.108C1276.81 691.088 1274.2 686.563 1271.66 683.008C1266.58 675.978 1262.97 668.625 1262.12 663.777C1261.74 661.757 1260.58 659.737 1258.51 657.636C1256.12 655.293 1255.12 653.435 1254.28 649.799C1252.05 640.425 1250.51 638.486 1248.51 642.365Z" fill="black" fill-opacity="0.04" style="fill:black;fill-opacity:0.04;"/>
<path d="M871.262 650.848C867.494 657.312 865.571 659.655 859.418 665.554C855.726 669.109 852.496 672.745 852.342 673.553C852.112 674.361 852.419 676.785 852.958 678.967C854.188 683.896 853.804 686.562 850.727 692.38L848.42 696.986L849.65 705.308C851.112 714.762 852.804 717.348 857.265 717.348C861.572 717.348 864.11 713.308 868.109 700.218C872.339 686.32 874.8 676.381 874.8 672.987C874.8 671.614 875.339 668.786 876.031 666.685C877.184 663.291 877.184 661.998 876.338 656.746C875.031 648.343 873.647 646.727 871.262 650.848Z" fill="black" fill-opacity="0.04" style="fill:black;fill-opacity:0.04;"/>
<path d="M1373.95 770.191C1373.95 770.838 1375.33 773.827 1377.1 776.817C1380.41 782.797 1380.64 784.978 1378.48 792.17C1377.64 795.159 1377.72 795.644 1379.25 797.906C1380.48 799.603 1380.87 801.139 1380.72 803.401C1380.56 805.987 1380.79 806.633 1381.87 806.876C1383.87 807.28 1385.87 805.179 1387.79 800.411C1388.71 798.149 1390.48 794.917 1391.71 793.058C1392.94 791.281 1393.94 788.776 1393.94 787.483C1393.94 785.301 1393.79 785.221 1390.56 785.221C1387.56 785.221 1386.87 784.897 1385.1 782.392C1383.95 780.857 1382.41 779.403 1381.56 779.16C1380.72 778.837 1379.79 777.383 1379.25 775.282C1378.33 771.565 1376.64 769.06 1374.95 769.06C1374.41 769.06 1373.95 769.545 1373.95 770.191Z" fill="black" fill-opacity="0.04" style="fill:black;fill-opacity:0.04;"/>
<path d="M1369.95 805.181C1369.26 805.989 1367.72 808.817 1366.41 811.483C1363.87 816.735 1360.79 820.21 1355.64 823.523C1352.03 825.866 1347.64 832.411 1347.95 834.835C1348.26 837.017 1351.49 839.198 1355.33 839.845C1358.33 840.329 1358.8 840.168 1361.1 837.582C1362.41 836.047 1364.33 832.572 1365.33 829.906C1366.41 826.916 1367.87 824.492 1369.26 823.361C1372.1 821.179 1378.02 810.029 1377.48 808.009C1377.18 807.201 1375.79 805.908 1374.33 805.181C1371.02 803.484 1371.33 803.484 1369.95 805.181Z" fill="black" fill-opacity="0.04" style="fill:black;fill-opacity:0.04;"/>
</svg>
