<svg width="80" height="81" viewBox="0 0 80 81" fill="noll" xmlns="http://www.w3.org/2000/svg">
    <path d="M12.5303 48.5103C12.5468 48.5251 12.5681 48.5332 12.5903 48.5332C12.6124 48.5332 12.6338 48.5251 12.6503 48.5103C12.7103 48.4003 12.7603 48.2903 12.8103 48.1803C13.1503 47.3403 13.5203 46.5203 13.9003 45.7003C14.5003 44.4003 15.1503 43.1203 15.8403 41.8603C16.4022 40.8168 17.0371 39.8143 17.7403 38.8603L19.2603 36.8603L20.6803 34.9503C20.9403 34.5903 21.1903 34.2203 21.4503 33.8703C22.128 32.9733 22.8558 32.1153 23.6303 31.3003C24.66 30.2055 25.7482 29.1673 26.8903 28.1903C27.3003 27.8303 27.7303 27.4803 28.1603 27.1303L28.3503 26.9503C28.3628 26.9309 28.3694 26.9084 28.3694 26.8853C28.3694 26.8622 28.3628 26.8397 28.3503 26.8203C28.2531 26.732 28.1415 26.6609 28.0203 26.6103L27.3003 26.2803C26.5703 25.9903 25.8303 25.7403 25.0903 25.5003C23.7803 25.0803 22.4603 24.6903 21.0903 24.3403C19.6003 23.9403 18.0903 23.5603 16.5903 23.2703L15.5903 23.1103H15.1003C14.9445 23.079 14.7828 23.1001 14.6403 23.1703C14.6403 23.1703 14.5703 23.2703 14.5403 23.3303L14.1203 24.0403C13.9703 24.3003 13.8003 24.5503 13.6503 24.8003C13.2903 25.4003 12.9603 26.0103 12.6503 26.6403C12.5703 26.8003 12.5003 26.9803 12.4303 27.1503C12.2503 27.6603 12.0703 28.1503 11.9103 28.6903C11.5539 29.8131 11.2601 30.9549 11.0303 32.1103C10.9003 32.7803 10.7803 33.4503 10.7003 34.1103C10.7003 34.3203 10.6503 34.5203 10.6203 34.7303C10.5903 34.9403 10.6203 35.0403 10.5703 35.1903C10.5203 35.3403 10.5703 35.3403 10.5703 35.4203V36.1403C10.5387 36.4025 10.522 36.6662 10.5203 36.9303V39.9603C10.5203 40.1903 10.5203 40.6703 10.6203 40.9603C10.6483 41.3997 10.7018 41.8371 10.7803 42.2703C10.8403 42.7003 10.9203 43.1203 11.0103 43.5403C11.2028 44.4937 11.4499 45.4352 11.7503 46.3603C11.9603 46.9703 12.1803 47.5803 12.4403 48.1803L12.5303 48.5103ZM32.9503 23.5103C32.959 23.5019 32.966 23.4918 32.9708 23.4806C32.9756 23.4695 32.978 23.4574 32.978 23.4453C32.978 23.4332 32.9756 23.4211 32.9708 23.41C32.966 23.3988 32.959 23.3887 32.9503 23.3803C32.8033 23.3025 32.6493 23.2389 32.4903 23.1903L30.7103 22.4803C30.4703 22.3903 30.2403 22.3103 29.9903 22.2403L27.8403 21.6103C27.0503 21.3803 26.2703 21.1603 25.4803 20.9703L24.1303 20.6603L23.1303 20.4603L22.2603 20.2803L21.3503 20.1303L20.7903 20.0403C20.6503 20.0403 20.5103 20.0403 20.3703 19.9803C20.2292 19.9481 20.085 19.9314 19.9403 19.9303H19.3203C19.1731 19.894 19.0218 19.8772 18.8703 19.8803H18.6703C18.6073 19.8707 18.5432 19.8707 18.4803 19.8803L18.0803 19.8303C17.8303 19.8303 17.5803 19.8303 17.2803 19.7703C17.2166 19.7747 17.1545 19.7921 17.0978 19.8213C17.041 19.8506 16.9909 19.891 16.9503 19.9403L16.8603 20.0403L16.2803 20.7603C16.2103 20.8503 16.1503 20.9403 16.0803 21.0203C16.0639 21.0438 16.0552 21.0717 16.0552 21.1003C16.0552 21.1289 16.0639 21.1568 16.0803 21.1803H16.3403C16.9103 21.1803 17.4803 21.2503 18.0503 21.3103C18.8103 21.3803 19.5603 21.5003 20.3103 21.6403C21.5303 21.8503 22.7303 22.1203 23.9203 22.4303C25.6103 22.8703 27.2803 23.3703 28.9203 23.9503C29.6403 24.2003 30.3603 24.4603 31.0503 24.7703L31.2103 24.8303C31.2334 24.8426 31.2591 24.849 31.2853 24.849C31.3114 24.849 31.3372 24.8426 31.3603 24.8303L31.5003 24.7403L32.8603 23.7403C32.9007 23.6789 32.9311 23.6113 32.9503 23.5403V23.5103ZM33.2703 47.6403H33.0603L33.1803 47.3203C33.1857 47.2872 33.1857 47.2534 33.1803 47.2203H33.1203L33.0503 47.2903C32.953 47.4783 32.8759 47.6761 32.8203 47.8803C32.815 47.9335 32.815 47.9871 32.8203 48.0403C32.8293 48.0667 32.8472 48.089 32.8709 48.1036C32.8946 48.1182 32.9227 48.1241 32.9503 48.1203H33.0103L33.2703 47.7803C33.2751 47.7505 33.2751 47.7201 33.2703 47.6903V47.6403ZM33.2703 48.5403C33.2315 48.5769 33.1828 48.6013 33.1303 48.6103C33.1553 48.5494 33.1553 48.4812 33.1303 48.4203C33.1042 48.4292 33.0811 48.4451 33.0634 48.4663C33.0458 48.4874 33.0343 48.513 33.0303 48.5403C32.9498 48.7433 32.8797 48.9502 32.8203 49.1603C32.8104 49.2031 32.8104 49.2475 32.8203 49.2903C32.8214 49.3106 32.8287 49.3302 32.8412 49.3463C32.8537 49.3623 32.8708 49.3742 32.8903 49.3803C32.9228 49.391 32.9578 49.391 32.9903 49.3803L33.0303 49.3003L33.3703 48.7403C33.3792 48.7076 33.3792 48.673 33.3703 48.6403C33.3703 48.6217 33.3629 48.6039 33.3498 48.5908C33.3366 48.5777 33.3188 48.5703 33.3003 48.5703L33.2703 48.5403ZM36.1903 21.4003C36.2267 21.4154 36.2658 21.4232 36.3053 21.4232C36.3447 21.4232 36.3838 21.4154 36.4203 21.4003L36.5403 21.3303L37.8203 20.6403L38.3403 20.3503L38.4703 20.2503C38.4833 20.233 38.4903 20.2119 38.4903 20.1903C38.4903 20.1687 38.4833 20.1476 38.4703 20.1303L38.0903 20.0003C37.3503 19.7203 36.6103 19.4503 35.8603 19.2003C34.6403 18.7903 33.4003 18.4103 32.1603 18.0703C31.5003 17.9003 30.8403 17.7303 30.1603 17.5803C29.4803 17.4303 28.8003 17.2903 28.1603 17.1603L27.7203 17.0003L27.0303 16.9303C26.8303 16.9303 26.6403 16.8603 26.4403 16.8403C26.2351 16.8032 26.0282 16.7765 25.8203 16.7603C25.6828 16.7255 25.542 16.7054 25.4003 16.7003C25.2484 16.6705 25.0947 16.6504 24.9403 16.6403H23.7603C23.4803 16.5803 23.1903 16.6403 22.9103 16.5303H22.8103C22.5203 16.5303 22.2303 16.4403 21.9303 16.4503H21.6303C21.4089 16.4502 21.188 16.4301 20.9703 16.3903H20.5003C20.4467 16.3843 20.3924 16.3912 20.342 16.4103C20.2916 16.4294 20.2464 16.4603 20.2103 16.5003L19.1403 17.5003L19.0603 17.6103C19.0481 17.6261 19.0415 17.6454 19.0415 17.6653C19.0415 17.6852 19.0481 17.7045 19.0603 17.7203H19.2203L19.9703 17.7903C20.4803 17.8503 20.9703 17.8903 21.4903 17.9603C22.4103 18.0703 23.3303 18.1903 24.2403 18.3403C25.3503 18.5103 26.4603 18.7203 27.5503 18.9703C30.419 19.597 33.2502 20.3849 36.0303 21.3303L36.2203 21.4003H36.1903ZM44.1903 0.190299L45.5403 0.350299C46.0403 0.416966 46.5403 0.496966 47.0403 0.590299C47.5203 0.670299 48.0403 0.770299 48.4703 0.870299C49.5708 1.10165 50.6589 1.38869 51.7303 1.7303C53.1523 2.16982 54.548 2.69068 55.9103 3.2903C56.9103 3.7403 57.9103 4.2203 58.9103 4.7503C61.5301 6.20382 63.9844 7.9373 66.2303 9.9203C67.1703 10.7403 68.0703 11.6103 68.9303 12.5103C70.2401 13.8838 71.4562 15.3438 72.5703 16.8803C73.3703 17.9903 74.1303 19.1303 74.8303 20.3003C76.6957 23.4746 78.068 26.9138 78.9003 30.5003C79.0503 31.1403 79.1803 31.7903 79.2903 32.4403C79.3603 32.8503 79.4303 33.2703 79.4903 33.6803C79.5503 34.0903 79.5903 34.5603 79.6603 34.9903V35.6803C79.6603 36.0603 79.6603 36.4303 79.7303 36.8003C79.8003 37.1703 79.7303 37.5503 79.7903 37.9303C79.8004 38.1068 79.8004 38.2838 79.7903 38.4603V39.5503C79.8054 39.8468 79.8054 40.1438 79.7903 40.4403V41.7703C79.7903 41.8803 79.7903 42.1303 79.7403 42.3003V42.7903C79.7403 43.1203 79.6703 43.4303 79.6503 43.7903C79.6303 44.1503 79.6503 44.2303 79.5703 44.4503C79.4903 44.6703 79.4903 45.0503 79.4403 45.3603C79.3903 45.6703 79.3103 46.1803 79.2303 46.6003C79.1503 47.0203 79.0803 47.4003 79.0003 47.8003C78.8203 48.6703 78.6203 49.5403 78.3903 50.4003C78.0836 51.5603 77.7503 52.7103 77.3903 53.8503V53.9703C77.4195 53.8751 77.4428 53.7783 77.4603 53.6803C77.6103 53.0603 77.7403 52.4403 77.8503 51.8103C77.8503 51.5003 77.9703 51.2003 78.0103 50.8903C78.0503 50.5803 78.0303 50.0003 78.0303 49.6403C78.0303 49.2803 78.0903 49.1903 78.1303 48.9603V48.3703C78.1351 48.3137 78.1351 48.2569 78.1303 48.2003C78.1303 47.9903 78.1303 47.7903 78.1903 47.5803C78.1903 47.1303 78.2903 46.6803 78.2803 46.2203C78.2753 46.1471 78.2753 46.0736 78.2803 46.0003C78.3157 45.6682 78.3324 45.3343 78.3303 45.0003V43.0003C78.3338 42.6363 78.3171 42.2724 78.2803 41.9103V41.5403C78.3051 41.311 78.3051 41.0796 78.2803 40.8503C78.275 40.7837 78.275 40.7169 78.2803 40.6503C78.2951 40.4773 78.2951 40.3033 78.2803 40.1303V39.9003C78.2855 39.8337 78.2855 39.7669 78.2803 39.7003C78.2803 39.4303 78.2103 39.1503 78.1803 38.8803L78.0303 38.1103L77.8803 37.1103C77.8103 36.7003 77.7203 36.2903 77.6503 35.8803C77.5803 35.4703 77.4203 34.7803 77.2903 34.2303C76.9455 32.8416 76.5249 31.4729 76.0303 30.1303C75.6503 29.0503 75.2203 27.9903 74.7503 26.9403C74.199 25.7128 73.5848 24.5146 72.9103 23.3503C72.8529 23.2466 72.7895 23.1465 72.7203 23.0503C72.7069 23.0183 72.6821 22.9923 72.6507 22.9775C72.6193 22.9628 72.5835 22.9602 72.5503 22.9703C72.379 23.0029 72.2042 23.013 72.0303 23.0003C71.9305 22.9905 71.83 22.9905 71.7303 23.0003C71.5612 23.0471 71.3852 23.064 71.2103 23.0503C71.1444 23.0356 71.0761 23.0356 71.0103 23.0503C70.9146 23.0703 70.8159 23.0703 70.7203 23.0503C70.6775 23.0405 70.633 23.0405 70.5903 23.0503C70.4003 23.0503 70.2203 23.0503 70.0303 23.1203C69.8403 23.1903 69.6603 23.1203 69.4803 23.2003L68.7603 23.3203L67.8203 23.4703L66.9703 23.6203L65.8103 23.8603C64.8703 24.0603 63.9403 24.2903 63.0203 24.5503L62.6903 24.6403C62.6265 24.6325 62.5669 24.6045 62.5203 24.5603C61.8271 24.0494 61.0986 23.5882 60.3403 23.1803L59.8303 22.8903C59.826 22.8739 59.826 22.8567 59.8303 22.8403C59.8303 22.8403 59.8303 22.7803 59.8903 22.7703L60.0503 22.7203L61.4203 22.3403C62.2903 22.1003 63.1803 21.9203 64.0703 21.7603C64.7103 21.6503 65.3503 21.5503 66.0003 21.4703L67.4103 21.2903L68.3303 21.2003L69.0603 21.1403L69.2503 21.0903C69.2564 21.0779 69.2597 21.0642 69.2597 21.0503C69.2597 21.0364 69.2564 21.0227 69.2503 21.0103C69.2575 20.9807 69.2575 20.9499 69.2503 20.9203L68.5003 19.7503L68.4403 19.6703C68.4171 19.6469 68.3887 19.6292 68.3574 19.6188C68.3262 19.6084 68.2929 19.6055 68.2603 19.6103C68.0103 19.6703 67.7503 19.6103 67.5003 19.7003H67.2103C66.9603 19.7603 66.7003 19.7003 66.4603 19.8003C66.2203 19.9003 66.0203 19.8603 65.8003 19.8903L65.2503 19.9703L64.4603 20.0903L63.4603 20.2703L62.5403 20.4203L61.1803 20.7003C60.4703 20.8503 59.7703 21.0103 59.0703 21.2003L57.7603 21.5603H57.6603C57.5572 21.5995 57.4433 21.5995 57.3403 21.5603L56.9003 21.3303L55.9803 20.8503C55.5003 20.6003 54.9803 20.3403 54.5403 20.0703L53.9703 19.7403V19.6803C53.9703 19.6203 53.9703 19.6203 54.0303 19.6103H54.0903L54.3403 19.5303C55.8403 19.0903 57.3403 18.7303 58.8803 18.4403C60.0403 18.2303 61.2003 18.0403 62.3703 17.8803L64.7403 17.5803L65.7403 17.4803L66.1703 17.4203C66.1941 17.4094 66.2133 17.3902 66.2243 17.3664C66.2353 17.3426 66.2374 17.3156 66.2303 17.2903L66.1503 17.1903L65.2403 16.2803C65.2185 16.2519 65.1913 16.2281 65.1603 16.2103C65.1091 16.17 65.0454 16.1487 64.9803 16.1503C64.6603 16.2303 64.3403 16.1503 63.9803 16.2603H63.7203C63.4103 16.3103 63.0803 16.3103 62.7203 16.3603H62.2903C62.1284 16.3907 61.9647 16.4108 61.8003 16.4203L61.0503 16.5203H60.8903L60.5303 16.5703L59.8403 16.6603L59.2203 16.7503L58.4703 16.8603L57.9803 16.9403L57.4303 17.0403C56.9503 17.1203 56.4803 17.2103 56.0003 17.3103L54.6503 17.5903L54.4603 17.6403C54.4278 17.651 54.3928 17.651 54.3603 17.6403C54.3497 17.6277 54.3439 17.6118 54.3439 17.5953C54.3439 17.5788 54.3497 17.5629 54.3603 17.5503C54.3827 17.4885 54.4095 17.4284 54.4403 17.3703C54.4403 17.2703 54.5303 17.1803 54.5703 17.0803V17.0103C54.5703 16.9503 54.5703 16.8903 54.6403 16.8203C54.6565 16.8006 54.6654 16.7758 54.6654 16.7503C54.6654 16.7248 54.6565 16.7 54.6403 16.6803C54.6178 16.6661 54.5918 16.6585 54.5653 16.6585C54.5387 16.6585 54.5127 16.6661 54.4903 16.6803L54.3603 16.7803L53.3603 17.6803L53.0403 17.9703L52.9503 18.0203H52.8903C52.8432 17.9881 52.8025 17.9474 52.7703 17.9003C52.5703 17.6503 52.3803 17.4003 52.1703 17.1603C51.9603 16.9203 51.8603 16.8103 51.7003 16.6503C51.6239 16.5695 51.5321 16.5049 51.4303 16.4603C51.4049 16.4468 51.3769 16.4388 51.3483 16.4365C51.3196 16.4343 51.2908 16.438 51.2636 16.4474C51.2364 16.4568 51.2114 16.4716 51.1902 16.491C51.169 16.5105 51.152 16.534 51.1403 16.5603C51.1191 16.6087 51.1024 16.6589 51.0903 16.7103L51.0003 17.0003C50.9969 17.0125 50.9911 17.0239 50.983 17.0337C50.975 17.0435 50.965 17.0515 50.9537 17.0571C50.9424 17.0628 50.93 17.066 50.9173 17.0665C50.9047 17.0671 50.892 17.065 50.8803 17.0603L50.7603 17.0003C50.5285 16.9007 50.2818 16.8399 50.0303 16.8203C49.9111 16.8003 49.7894 16.8003 49.6703 16.8203C49.3306 16.8609 48.9956 16.9346 48.6703 17.0403C48.4303 17.1303 48.1903 17.2003 47.9503 17.2803H47.8203C47.7898 17.2863 47.7582 17.2803 47.7321 17.2635C47.706 17.2467 47.6874 17.2205 47.6803 17.1903V16.5303C47.6804 16.5021 47.6891 16.4746 47.7052 16.4514C47.7212 16.4282 47.7439 16.4104 47.7703 16.4003L47.9803 16.3103C49.5503 15.8103 51.1303 15.3103 52.7303 14.9903C53.6369 14.7903 54.5469 14.6203 55.4603 14.4803C56.1303 14.3803 56.8003 14.2803 57.4603 14.2003L59.0303 14.1603L60.3903 14.0003C60.8203 14.0003 61.2503 13.9203 61.6803 13.9203C61.7664 13.9345 61.8542 13.9345 61.9403 13.9203C61.9519 13.9024 61.9581 13.8816 61.9581 13.8603C61.9581 13.839 61.9519 13.8182 61.9403 13.8003L61.8103 13.7003C61.4503 13.4603 61.1003 13.2203 60.7303 12.9903C59.6409 12.3197 58.5159 11.7088 57.3603 11.1603C55.7409 10.4005 54.0701 9.75559 52.3603 9.2303C51.5203 8.9703 50.6703 8.7403 49.8103 8.5403C49.2703 8.4203 48.7303 8.3103 48.1903 8.2103C47.8703 8.1503 47.5403 8.0903 47.1903 8.0503L46.5103 7.9403H46.0503C45.9637 7.9354 45.8769 7.9354 45.7903 7.9403C45.6707 7.95505 45.5498 7.95505 45.4303 7.9403H45.3303C44.9203 7.9403 44.5203 7.8403 44.1103 7.8603C44.0373 7.8703 43.9633 7.8703 43.8903 7.8603C43.6487 7.82376 43.4046 7.80703 43.1603 7.8103H41.0303C40.8539 7.79507 40.6766 7.79507 40.5003 7.8103H40.1703C39.9739 7.79505 39.7766 7.79505 39.5803 7.8103H39.4403C39.2549 7.80049 39.0692 7.82075 38.8903 7.8703H38.2603C37.8603 7.8703 37.4603 7.9803 37.0603 8.0503C36.6603 8.1203 36.3203 8.1903 35.9603 8.2603C35.4303 8.3703 34.9003 8.5003 34.3803 8.6303C33.1555 8.95073 31.9502 9.34138 30.7703 9.8003C30.0603 10.0703 29.3603 10.3703 28.6703 10.6903C27.9803 11.0103 27.3703 11.3103 26.7403 11.6903C25.6582 12.2612 24.6128 12.8991 23.6103 13.6003L23.4203 13.7403C23.403 13.7526 23.3892 13.7692 23.3804 13.7885C23.3716 13.8079 23.3681 13.8292 23.3703 13.8503C23.3703 13.8503 23.4203 13.9303 23.4903 13.9403H23.6203C24.1203 13.9403 24.6203 14.0203 25.1103 14.0703L26.5203 14.2203C27.3703 14.3103 28.2103 14.4203 29.0503 14.5303C29.8903 14.6403 30.6003 14.7603 31.3703 14.8903C33.2842 15.2082 35.175 15.6525 37.0303 16.2203C38.3203 16.6303 39.6003 17.0803 40.8503 17.6103C41.3503 17.8203 41.8503 18.0503 42.3303 18.2703C42.6603 18.4203 42.6203 18.4303 42.9503 18.2703L43.1003 18.2103C43.1203 18.1998 43.1426 18.1943 43.1653 18.1943C43.1879 18.1943 43.2102 18.1998 43.2303 18.2103L44.0103 19.1103H43.8903C43.5962 19.0553 43.2944 19.0553 43.0003 19.1103C42.7733 19.1516 42.5495 19.2084 42.3303 19.2803C42.225 19.3148 42.1243 19.3618 42.0303 19.4203C42.0021 19.4383 41.9782 19.4622 41.9603 19.4903C41.942 19.509 41.9317 19.5341 41.9317 19.5603C41.9317 19.5865 41.942 19.6116 41.9603 19.6303H43.3303C43.4752 19.6375 43.6176 19.6714 43.7503 19.7303L43.8303 19.7903H42.3403C42.0103 19.7903 41.6803 19.7203 41.3403 19.7003C41.0003 19.6803 40.7003 19.7003 40.3403 19.7003C39.9964 19.7129 39.6577 19.7874 39.3403 19.9203C38.9619 20.0864 38.6417 20.3614 38.4203 20.7103C38.2627 20.9487 38.1476 21.2126 38.0803 21.4903C38.0558 21.5752 38.0558 21.6654 38.0803 21.7503C38.0803 21.8203 38.1803 21.8703 38.2303 21.8403L38.4203 21.7103C38.5803 21.5703 38.7303 21.4303 38.9003 21.3003C39.029 21.1958 39.1661 21.1021 39.3103 21.0203C39.6993 20.7829 40.1622 20.6975 40.6103 20.7803H40.8703C40.9405 20.786 41.0071 20.814 41.0603 20.8603H40.8903C40.5578 20.8602 40.232 20.9538 39.9503 21.1303C39.9201 21.1454 39.8963 21.171 39.8835 21.2022C39.8706 21.2334 39.8695 21.2683 39.8803 21.3003C39.891 21.3248 39.9097 21.345 39.9332 21.3577C39.9568 21.3703 39.9839 21.3748 40.0103 21.3703H40.2803C40.4661 21.3453 40.6544 21.3453 40.8403 21.3703C40.8403 21.3703 40.9003 21.3703 40.8403 21.4303C40.4803 21.4303 40.1203 21.5003 39.7703 21.5703C39.4203 21.6403 39.2903 22.0003 39.0303 22.0003L38.5303 22.1703C38.4781 22.1907 38.4305 22.2213 38.3903 22.2603C38.3713 22.2807 38.3607 22.3075 38.3607 22.3353C38.3607 22.3631 38.3713 22.3899 38.3903 22.4103C38.433 22.4205 38.4775 22.4205 38.5203 22.4103C38.6169 22.4153 38.7137 22.4153 38.8103 22.4103H39.7103C39.8065 22.42 39.9008 22.4435 39.9903 22.4803C39.8914 22.5221 39.787 22.549 39.6803 22.5603C39.3417 22.5918 39.0068 22.6554 38.6803 22.7503C38.0924 22.9018 37.5173 23.0991 36.9603 23.3403C36.6403 23.4703 36.3103 23.6103 35.9603 23.7603L35.8103 23.8303C35.7203 23.8303 35.6703 23.9403 35.6903 24.0003C35.7087 24.0344 35.7362 24.0627 35.7698 24.0821C35.8033 24.1015 35.8415 24.1113 35.8803 24.1103H36.6303C37.0223 24.0654 37.4182 24.0654 37.8103 24.1103C37.9973 24.1337 38.1776 24.195 38.3403 24.2903C38.3403 24.2903 38.4103 24.2903 38.3403 24.3703C38.2703 24.4503 38.3403 24.3703 38.2703 24.4203H38.1403C37.9003 24.4203 37.6603 24.5103 37.4203 24.5403C37.09 24.5982 36.7555 24.6283 36.4203 24.6303C36.1889 24.617 35.9603 24.5733 35.7403 24.5003C35.5621 24.4404 35.3961 24.3489 35.2503 24.2303L35.0603 24.1003C35.0405 24.0889 35.0181 24.0829 34.9953 24.0829C34.9725 24.0829 34.95 24.0889 34.9303 24.1003C34.9206 24.1188 34.9156 24.1394 34.9156 24.1603C34.9156 24.1812 34.9206 24.2018 34.9303 24.2203C34.9724 24.4016 35.0582 24.5698 35.1803 24.7103C35.2979 24.842 35.4364 24.9535 35.5903 25.0403L35.8203 25.1803L36.0503 25.2903C35.9412 25.31 35.8294 25.31 35.7203 25.2903C35.4635 25.2232 35.2312 25.0844 35.0503 24.8903C34.9429 24.7794 34.8458 24.6589 34.7603 24.5303C34.6603 24.3903 34.5703 24.2303 34.4703 24.0903C34.4416 24.0437 34.4042 24.0029 34.3603 23.9703C34.3424 23.9587 34.3216 23.9525 34.3003 23.9525C34.279 23.9525 34.2581 23.9587 34.2403 23.9703C34.2236 23.9992 34.2148 24.0319 34.2148 24.0653C34.2148 24.0987 34.2236 24.1314 34.2403 24.1603L34.4803 24.8403C34.5175 24.9428 34.5609 25.043 34.6103 25.1403C34.6987 25.3269 34.8254 25.4929 34.9822 25.6273C35.139 25.7616 35.3223 25.8615 35.5203 25.9203L35.7703 26.0003C35.7764 26.0164 35.7764 26.0342 35.7703 26.0503L35.6503 26.1603L35.3203 26.3903C35.2203 26.4703 35.2503 26.5303 35.3203 26.5803L35.4103 26.6803C35.4147 26.6897 35.417 26.6999 35.417 26.7103C35.417 26.7207 35.4147 26.7309 35.4103 26.7403L35.2903 26.8403L34.4403 27.4803C34.0825 27.7883 33.7482 28.1225 33.4403 28.4803L33.2703 28.6303C33.2563 28.6373 33.2409 28.641 33.2253 28.641C33.2096 28.641 33.1942 28.6373 33.1803 28.6303C33.1301 28.6062 33.083 28.576 33.0403 28.5403L32.6903 28.1903C32.5444 28.0392 32.3908 27.8957 32.2303 27.7603L32.1503 27.6903L31.8803 27.5103C31.8408 27.5013 31.7998 27.5013 31.7603 27.5103C31.7448 27.5114 31.7298 27.5158 31.7162 27.5232C31.7026 27.5305 31.6906 27.5407 31.6812 27.5529C31.6718 27.5652 31.665 27.5793 31.6614 27.5944C31.6578 27.6094 31.6574 27.6251 31.6603 27.6403L31.7303 27.7503C31.7989 27.8189 31.8624 27.8925 31.9203 27.9703C32.0303 28.1203 32.1403 28.2703 32.2403 28.4303L32.4103 28.6903C32.4158 28.7099 32.4158 28.7307 32.4103 28.7503C32.415 28.7801 32.415 28.8105 32.4103 28.8403V28.8903C31.8303 29.3903 31.2803 29.8903 30.7303 30.4403L29.3303 31.9203C28.3569 32.9003 27.4169 33.9003 26.5103 34.9203C25.6403 36.0003 24.8003 37.0003 24.0303 38.0003C22.9569 39.3568 21.9556 40.7688 21.0303 42.2303C20.3303 43.3703 19.6803 44.5603 19.0903 45.7603C18.3503 47.3403 17.6703 49.0003 17.0303 50.5903C16.6603 51.5903 16.3103 52.5903 16.0303 53.5903C16.0129 53.6654 15.9895 53.739 15.9603 53.8103C15.9342 53.872 15.9269 53.9401 15.9394 54.0059C15.9518 54.0717 15.9834 54.1324 16.0303 54.1803C16.2603 54.4403 16.4903 54.7103 16.7303 54.9703C17.1603 55.4503 17.6103 55.9003 18.0803 56.3303L18.2903 56.5003C18.2987 56.5091 18.3088 56.5161 18.3199 56.5208C18.3311 56.5256 18.3431 56.5281 18.3553 56.5281C18.3674 56.5281 18.3794 56.5256 18.3906 56.5208C18.4018 56.5161 18.4119 56.5091 18.4203 56.5003C18.4529 56.4293 18.4797 56.3557 18.5003 56.2803C18.9203 54.8003 19.3703 53.2803 19.8803 51.8703C20.2703 50.7603 20.6903 49.6703 21.1303 48.5903C21.5703 47.5103 21.9403 46.7103 22.3903 45.7803C22.9933 44.4821 23.6711 43.22 24.4203 42.0003C25.4683 40.3524 26.6241 38.7756 27.8803 37.2803C28.6403 36.3703 29.4303 35.4703 30.2603 34.6103C30.7203 34.1503 31.1703 33.6803 31.6203 33.2103L31.8103 33.0303C31.8586 32.984 31.9123 32.9437 31.9703 32.9103L32.1003 32.8603C32.4502 32.6981 32.8153 32.5708 33.1903 32.4803C33.3522 32.4502 33.5183 32.4502 33.6803 32.4803H33.8303C33.8369 32.4868 33.8422 32.4946 33.8458 32.5032C33.8494 32.5118 33.8513 32.521 33.8513 32.5303C33.8513 32.5396 33.8494 32.5488 33.8458 32.5574C33.8422 32.566 33.8369 32.5738 33.8303 32.5803L33.7203 32.7103C33.2432 33.2096 32.9353 33.8463 32.8403 34.5303C32.8357 34.5735 32.8357 34.6171 32.8403 34.6603C32.8534 34.6902 32.8766 34.7146 32.9058 34.7292C32.9351 34.7438 32.9685 34.7477 33.0003 34.7403L33.0903 34.6503L33.3803 34.2903C33.5726 34.0447 33.7868 33.8171 34.0203 33.6103C34.3137 33.3575 34.6533 33.164 35.0203 33.0403H35.0803L34.8403 33.3603C34.5347 33.7775 34.2638 34.2189 34.0303 34.6803C33.8232 35.047 33.6684 35.4408 33.5703 35.8503C33.5653 35.8935 33.5653 35.9371 33.5703 35.9803C33.5714 35.997 33.5761 36.0133 33.5839 36.0282C33.5918 36.043 33.6027 36.056 33.6158 36.0664C33.629 36.0768 33.6443 36.0842 33.6605 36.0884C33.6768 36.0925 33.6937 36.0931 33.7103 36.0903C33.7504 36.073 33.7876 36.0494 33.8203 36.0203L34.1203 35.7603L34.2803 35.6603V35.7103C34.0003 36.0403 33.7203 36.3603 33.4503 36.7103C33.1415 37.0753 32.8607 37.463 32.6103 37.8703C32.4679 38.0934 32.3506 38.3315 32.2603 38.5803C32.2087 38.7326 32.1308 38.8748 32.0303 39.0003C31.4503 39.7003 30.9003 40.4103 30.3503 41.1303C29.3031 42.5086 28.3284 43.9406 27.4303 45.4203C26.8281 46.4147 26.2839 47.4431 25.8003 48.5003C25.2803 49.6403 24.8003 50.8003 24.3703 51.9803C24.0203 52.9803 23.7003 53.9803 23.3703 54.9803C23.1603 55.7003 22.9703 56.4303 22.7903 57.1503C22.6103 57.8703 22.4603 58.6103 22.3203 59.3503V59.4503C22.3191 59.4728 22.3229 59.4952 22.3316 59.516C22.3403 59.5368 22.3535 59.5553 22.3703 59.5703C22.4089 59.6122 22.4526 59.6491 22.5003 59.6803L23.0103 59.9803C23.6403 60.3503 24.2803 60.6903 24.9403 60.9803C24.9862 61.0115 25.0369 61.0351 25.0903 61.0503C25.2503 61.1203 25.3103 61.0503 25.3403 60.9203C25.3703 60.7903 25.4703 60.3203 25.5303 60.0103C25.6703 59.2403 25.8403 58.4803 26.0203 57.7203C26.2703 56.6503 26.5503 55.5803 26.8703 54.5203C27.3619 52.8825 27.953 51.2762 28.6403 49.7103C29.0536 48.7703 29.5036 47.8503 29.9903 46.9503L30.1803 46.6203H30.2403V46.8903C30.25 47.0209 30.2804 47.1492 30.3303 47.2703C30.3403 47.2903 30.3562 47.3068 30.3759 47.3175C30.3955 47.3282 30.418 47.3327 30.4403 47.3303H30.5203C30.5512 47.2586 30.5779 47.1851 30.6003 47.1103C30.6503 46.8203 30.6903 46.5203 30.7403 46.2303L30.8303 45.8103C30.8204 45.7675 30.8204 45.7231 30.8303 45.6803C30.8451 45.6522 30.8689 45.63 30.898 45.6173C30.9271 45.6046 30.9596 45.6021 30.9903 45.6103C30.9991 45.6102 31.0078 45.612 31.0158 45.6156C31.0238 45.6192 31.0309 45.6246 31.0367 45.6312C31.0424 45.6379 31.0466 45.6458 31.0489 45.6543C31.0513 45.6627 31.0517 45.6716 31.0503 45.6803C31.0503 45.6803 31.0503 45.7803 31.0003 45.8403C30.8781 46.1666 30.7778 46.5006 30.7003 46.8403C30.6503 47.0903 30.6003 47.3403 30.5703 47.5903C30.5304 47.8987 30.5103 48.2093 30.5103 48.5203V49.2403C30.4998 49.2931 30.4998 49.3475 30.5103 49.4003C30.5192 49.4198 30.5331 49.4367 30.5507 49.449C30.5683 49.4613 30.5889 49.4686 30.6103 49.4703C30.6327 49.4743 30.6558 49.4706 30.6758 49.4597C30.6958 49.4488 30.7115 49.4313 30.7203 49.4103C30.7246 49.3704 30.7246 49.3302 30.7203 49.2903C30.7703 49.0003 30.8103 48.7203 30.8603 48.4403C30.9673 47.8088 31.1245 47.1868 31.3303 46.5803C31.438 46.2261 31.5963 45.8893 31.8003 45.5803V45.7203C31.7526 46.0515 31.7292 46.3857 31.7303 46.7203C31.7204 46.7765 31.7204 46.8341 31.7303 46.8903C31.741 46.9203 31.758 46.9476 31.7803 46.9703C31.7887 46.9807 31.7994 46.9892 31.8115 46.9949C31.8236 47.0007 31.8369 47.0037 31.8503 47.0037C31.8637 47.0037 31.8769 47.0007 31.8891 46.9949C31.9012 46.9892 31.9118 46.9807 31.9203 46.9703C31.9701 46.9105 32.0013 46.8376 32.0103 46.7603C32.0808 46.4152 32.1916 46.0796 32.3403 45.7603V45.7103L32.4203 45.5903C32.4364 45.5841 32.4542 45.5841 32.4703 45.5903C32.4976 45.6051 32.5214 45.6256 32.5403 45.6503C32.5505 45.693 32.5505 45.7376 32.5403 45.7803C32.5216 45.8583 32.4982 45.9351 32.4703 46.0103C32.2374 46.6983 32.0602 47.4039 31.9403 48.1203C31.9403 48.3103 31.8703 48.5103 31.8403 48.7003C31.8877 48.8095 31.9518 48.9107 32.0303 49.0003C32.0345 49.021 32.0441 49.0403 32.0582 49.0561C32.0722 49.0719 32.0902 49.0837 32.1103 49.0903C32.1368 49.0968 32.1647 49.0933 32.1888 49.0804C32.2128 49.0674 32.2311 49.046 32.2403 49.0203V48.9603V48.8003C32.4126 48.0901 32.7034 47.414 33.1003 46.8003C33.1631 46.7211 33.2076 46.6288 33.2303 46.5303V46.4803H33.1103L33.0203 46.6103C32.7919 46.9504 32.5976 47.3121 32.4403 47.6903C32.407 47.7864 32.3669 47.8799 32.3203 47.9703C32.317 47.9471 32.317 47.9235 32.3203 47.9003C32.4303 47.3803 32.5503 46.9003 32.7103 46.3303C32.8003 46.0703 32.8903 45.8103 32.9703 45.5503C32.993 45.4983 33.0197 45.4481 33.0503 45.4003C33.0568 45.3937 33.0646 45.3884 33.0732 45.3848C33.0817 45.3811 33.091 45.3793 33.1003 45.3793C33.1096 45.3793 33.1188 45.3811 33.1274 45.3848C33.136 45.3884 33.1438 45.3937 33.1503 45.4003C33.1552 45.4267 33.1552 45.4539 33.1503 45.4803V45.7103C33.1488 45.7435 33.1543 45.7767 33.1664 45.8077C33.1784 45.8386 33.1968 45.8668 33.2203 45.8903C33.2898 45.9752 33.347 46.0695 33.3903 46.1703C33.4403 46.2823 33.5006 46.3894 33.5703 46.4903L33.6603 46.5803C33.676 46.5925 33.6954 46.5991 33.7153 46.5991C33.7352 46.5991 33.7545 46.5925 33.7703 46.5803C33.8177 46.4558 33.8414 46.3235 33.8403 46.1903C33.8197 46.1286 33.8197 46.062 33.8403 46.0003C33.8444 46.0435 33.8444 46.0871 33.8403 46.1303V46.6703C33.831 46.7567 33.831 46.8439 33.8403 46.9303C33.8395 46.9619 33.8481 46.993 33.865 47.0197C33.8819 47.0464 33.9064 47.0675 33.9352 47.0804C33.9641 47.0932 33.9962 47.0972 34.0273 47.0918C34.0585 47.0865 34.0873 47.072 34.1103 47.0503L34.3303 46.9003L34.5903 46.7703H34.6703C34.6903 46.7703 34.6703 46.7703 34.6703 46.8303C34.6731 46.8502 34.6731 46.8704 34.6703 46.8903L33.7903 47.7403H33.7103C33.7003 47.7403 33.7103 47.7403 33.7103 47.6803C33.7013 47.6476 33.7013 47.613 33.7103 47.5803C33.7603 47.5003 33.8203 47.4403 33.8703 47.3703C33.8935 47.3461 33.9065 47.3138 33.9065 47.2803C33.9065 47.2468 33.8935 47.2145 33.8703 47.1903C33.7836 47.1276 33.7174 47.0406 33.6803 46.9403V47.4003C33.6698 47.4833 33.6698 47.5673 33.6803 47.6503C33.6851 47.7069 33.6851 47.7637 33.6803 47.8203V47.9203C33.6845 47.933 33.6914 47.9445 33.7006 47.9542C33.7098 47.9638 33.721 47.9713 33.7334 47.9761C33.7459 47.9809 33.7592 47.9828 33.7725 47.9818C33.7858 47.9808 33.7987 47.9769 33.8103 47.9703C33.9222 47.9018 34.0177 47.8096 34.0903 47.7003L34.0303 47.8203L33.9303 47.9703C33.6603 48.4003 33.3903 48.8303 33.1403 49.2703C32.8803 49.7319 32.6498 50.2095 32.4503 50.7003C32.4076 50.815 32.3709 50.9318 32.3403 51.0503C32.3343 51.077 32.3368 51.1049 32.3476 51.13C32.3584 51.1551 32.3768 51.1762 32.4003 51.1903C32.5203 51.2703 32.5203 51.2703 32.4703 51.3903C32.2503 51.9103 32.0303 52.3903 31.8303 52.9503C31.4303 53.9503 31.0803 55.0503 30.7803 56.1203C30.4803 57.1903 30.2203 58.1903 30.0003 59.2303C29.8703 59.8603 29.7403 60.4803 29.6403 61.1103C29.5903 61.4303 29.5303 61.7403 29.4703 62.1103C29.4703 62.2703 29.4703 62.4303 29.4003 62.6003C29.3957 62.6383 29.404 62.6768 29.424 62.7094C29.4439 62.7421 29.4743 62.7671 29.5103 62.7803H29.6303L30.2303 62.9803C30.6476 63.0901 31.0817 63.1206 31.5103 63.0703C32.4942 63.019 33.4333 62.6427 34.1803 62.0003C34.5758 61.6186 34.9128 61.1805 35.1803 60.7003C35.5733 60.012 35.8663 59.2712 36.0503 58.5003C36.1634 58.0496 36.2469 57.5919 36.3003 57.1303C36.3581 56.8002 36.3849 56.4654 36.3803 56.1303C36.3803 55.8703 36.3803 55.6003 36.3103 55.3403C36.2977 55.1989 36.2533 55.0621 36.1803 54.9403C36.1483 54.8794 36.0936 54.8337 36.028 54.813C35.9624 54.7924 35.8913 54.7986 35.8303 54.8303C35.7326 54.8817 35.65 54.9575 35.5903 55.0503C35.4803 55.2103 35.3603 55.3503 35.2603 55.5103C35.1603 55.6703 34.9403 56.0303 34.7703 56.2903C34.6003 56.5503 34.5803 56.6003 34.4803 56.7503C34.4756 56.7306 34.4756 56.71 34.4803 56.6903C34.4713 56.6508 34.4713 56.6098 34.4803 56.5703C34.4759 56.5505 34.4759 56.5301 34.4803 56.5103C34.7552 55.816 35.0898 55.1468 35.4803 54.5103C35.5511 54.3905 35.6082 54.263 35.6503 54.1303C35.6615 54.1035 35.6627 54.0735 35.6535 54.0459C35.6443 54.0183 35.6254 53.995 35.6003 53.9803C35.5778 53.9661 35.5518 53.9585 35.5253 53.9585C35.4987 53.9585 35.4727 53.9661 35.4503 53.9803L35.1803 54.2703L35.0403 54.4503C35.0021 54.4897 34.9536 54.5174 34.9003 54.5303C34.8984 54.507 34.8984 54.4836 34.9003 54.4603L34.9803 54.2303C35.2083 53.611 35.5472 53.0383 35.9803 52.5403L36.2803 52.1903C36.3078 52.1623 36.3232 52.1246 36.3232 52.0853C36.3232 52.046 36.3078 52.0083 36.2803 51.9803C36.2111 51.8807 36.108 51.8096 35.9903 51.7803C35.8384 51.7504 35.6821 51.7504 35.5303 51.7803C35.2681 51.8188 35.0103 51.8824 34.7603 51.9703L34.5103 52.0503H34.3303L34.4503 51.9703L34.5903 51.8803L35.9103 51.0003C35.9635 50.9614 36.0205 50.928 36.0803 50.9003C36.1 50.8889 36.1225 50.8829 36.1453 50.8829C36.1681 50.8829 36.1905 50.8889 36.2103 50.9003L36.3403 51.0403C36.529 51.2576 36.765 51.4286 37.0303 51.5403H37.1203C37.2061 51.5682 37.2815 51.6213 37.3368 51.6926C37.3921 51.7639 37.4247 51.8502 37.4303 51.9403C37.4303 52.0503 37.4303 52.1503 37.5003 52.2603C37.5412 52.4222 37.6124 52.5749 37.7103 52.7103C37.7851 52.8187 37.8852 52.9073 38.0019 52.9683C38.1187 53.0292 38.2486 53.0608 38.3803 53.0603C38.5071 53.0707 38.6344 53.0453 38.7475 52.987C38.8607 52.9286 38.9552 52.8397 39.0203 52.7303C39.1628 52.5308 39.246 52.2951 39.2603 52.0503C39.2732 51.8426 39.2965 51.6357 39.3303 51.4303C39.3294 51.385 39.3399 51.3401 39.3608 51.2999C39.3818 51.2598 39.4126 51.2255 39.4503 51.2003C39.6303 51.0603 39.8303 50.9303 40.0103 50.8003C40.0268 50.7855 40.0481 50.7774 40.0703 50.7774C40.0924 50.7774 40.1138 50.7855 40.1303 50.8003L40.3103 51.1103C40.3988 51.2622 40.4956 51.4091 40.6003 51.5503C40.7573 51.7529 40.8387 52.0041 40.8303 52.2603C40.8505 52.5132 40.8505 52.7674 40.8303 53.0203C40.7903 53.2821 40.7903 53.5485 40.8303 53.8103C40.8501 54.0432 40.8501 54.2774 40.8303 54.5103C40.8352 54.5535 40.8352 54.5971 40.8303 54.6403C40.8303 54.8503 40.7603 55.0703 40.7203 55.2903C40.7147 55.3569 40.7147 55.4238 40.7203 55.4903C40.7134 55.742 40.6867 55.9928 40.6403 56.2403C40.6403 56.4903 40.5803 56.7403 40.5503 57.0003C40.5203 57.2603 40.5503 57.2403 40.5503 57.3603V58.0003C40.5655 58.1867 40.5655 58.3739 40.5503 58.5603C40.5103 58.7684 40.5103 58.9822 40.5503 59.1903V59.4203C40.5506 59.5756 40.5707 59.7302 40.6103 59.8803C40.6151 59.9435 40.6151 60.0071 40.6103 60.0703C40.6148 60.1152 40.61 60.1606 40.5962 60.2036C40.5824 60.2466 40.56 60.2863 40.5303 60.3203C40.4068 60.4889 40.3153 60.6787 40.2603 60.8803C40.2603 60.9603 40.2603 61.0303 40.1803 61.1003C40.1227 61.2768 40.042 61.445 39.9403 61.6003C39.7623 61.8434 39.6708 62.1391 39.6803 62.4403V62.5403C39.6812 62.7399 39.6403 62.9375 39.5603 63.1203C39.5603 63.2003 39.5003 63.2603 39.4803 63.3303C39.3909 63.5465 39.3401 63.7766 39.3303 64.0103C39.3357 64.0969 39.3357 64.1837 39.3303 64.2703C39.3207 64.3232 39.3207 64.3774 39.3303 64.4303C39.3206 64.6526 39.2905 64.8735 39.2403 65.0903C39.2202 65.2767 39.1623 65.457 39.0703 65.6203C38.9559 65.8719 38.8752 66.1376 38.8303 66.4103C38.8204 66.4531 38.8204 66.4975 38.8303 66.5403C38.8919 66.8091 38.9188 67.0847 38.9103 67.3603C38.9004 67.5368 38.9004 67.7138 38.9103 67.8903C38.9504 68.1286 38.9504 68.372 38.9103 68.6103C38.8503 68.9803 38.7903 69.3503 38.7403 69.7203C38.7021 69.9385 38.6788 70.159 38.6703 70.3803C38.5703 70.8203 38.5503 71.2803 38.4403 71.7103C38.4202 71.7755 38.4202 71.8451 38.4403 71.9103C38.4403 72.1503 38.5303 72.3903 38.5703 72.6303C38.6103 72.8703 38.6403 72.9903 38.6703 73.1803C38.6793 73.2792 38.7176 73.3732 38.7803 73.4503L38.8803 73.5903C38.9206 73.6453 38.9417 73.7121 38.9403 73.7803V74.1403C38.9254 74.36 38.9254 74.5806 38.9403 74.8003V75.6903C38.9453 75.7353 38.963 75.778 38.9914 75.8134C39.0197 75.8488 39.0574 75.8755 39.1003 75.8903C39.3803 75.9603 39.6603 76.0803 39.9503 76.1303C40.224 76.1801 40.5023 76.2002 40.7803 76.1903H42.0303C42.1634 76.1799 42.2971 76.1799 42.4303 76.1903H42.9203L43.6503 76.2803C43.8454 76.3151 44.0451 76.3151 44.2403 76.2803L44.9503 76.1203C45.0096 76.1064 45.0642 76.0768 45.1081 76.0345C45.1521 75.9923 45.1839 75.939 45.2003 75.8803C45.3217 75.4686 45.3691 75.0386 45.3403 74.6103C45.3326 74.488 45.2911 74.3703 45.2203 74.2703C45.1336 74.142 45.0212 74.033 44.8903 73.9503L44.0303 73.5203C43.8411 73.3854 43.6441 73.2618 43.4403 73.1503C43.4053 73.1315 43.3776 73.1018 43.3613 73.0656C43.345 73.0294 43.3411 72.9889 43.3503 72.9503C43.3408 72.9075 43.3408 72.8631 43.3503 72.8203C43.39 72.6488 43.42 72.4752 43.4403 72.3003C43.4544 72.2041 43.4544 72.1065 43.4403 72.0103C43.403 71.6718 43.3361 71.3371 43.2403 71.0103C43.2403 70.8403 43.1403 70.6703 43.1003 70.5003C43.0603 70.3303 43.0303 70.2003 43.0303 70.0003C42.9976 69.8268 43.0011 69.6483 43.0407 69.4762C43.0803 69.3041 43.155 69.1421 43.2603 69.0003C43.4082 68.8191 43.5141 68.6074 43.5703 68.3803C43.5703 68.2903 43.6303 68.1903 43.6603 68.1003C43.6971 68.0203 43.7161 67.9333 43.7161 67.8453C43.7161 67.7573 43.6971 67.6703 43.6603 67.5903C43.6158 67.52 43.5923 67.4385 43.5923 67.3553C43.5923 67.2721 43.6158 67.1906 43.6603 67.1203C43.8103 66.8303 43.9403 66.5403 44.1003 66.2703C44.2782 65.9488 44.432 65.6146 44.5603 65.2703C44.6403 65.0503 44.7303 64.8403 44.8203 64.6303C44.922 64.4323 44.9929 64.2198 45.0303 64.0003C45.0415 63.9019 45.0795 63.8085 45.1403 63.7303L45.2703 63.5803C45.4489 63.3555 45.5475 63.0775 45.5503 62.7903C45.5644 62.38 45.6146 61.9718 45.7003 61.5703C45.7003 61.3903 45.7703 61.2003 45.7903 61.0203C45.8253 60.8454 45.8253 60.6652 45.7903 60.4903C45.7798 60.4375 45.7798 60.3831 45.7903 60.3303C45.7553 59.9678 45.7553 59.6028 45.7903 59.2403V58.3503H45.8503C45.9917 58.7031 46.1729 59.0386 46.3903 59.3503C46.6003 59.6803 46.8003 60.0303 47.0003 60.3503C47.064 60.4547 47.1081 60.57 47.1303 60.6903C47.196 61.0437 47.3247 61.3824 47.5103 61.6903L47.6103 61.8603C47.7341 62.0973 47.9255 62.2922 48.1603 62.4203C48.1765 62.44 48.1854 62.4648 48.1854 62.4903C48.1854 62.5159 48.1765 62.5406 48.1603 62.5603C48.1054 62.6161 48.0451 62.6663 47.9803 62.7103C47.8792 62.7772 47.7911 62.8619 47.7203 62.9603C47.6006 63.148 47.5413 63.3679 47.5503 63.5903V63.7503C47.5953 64.1457 47.5953 64.5449 47.5503 64.9403C47.4937 65.4013 47.477 65.8664 47.5003 66.3303C47.5235 66.4741 47.5168 66.6211 47.4807 66.7622C47.4445 66.9033 47.3797 67.0354 47.2903 67.1503C47.2543 67.2036 47.2242 67.2606 47.2003 67.3203C47.0572 67.6418 46.9467 67.9768 46.8703 68.3203C46.8649 68.4069 46.8649 68.4937 46.8703 68.5803V69.0103C46.8719 69.4288 46.7903 69.8435 46.6303 70.2303C46.5779 70.3639 46.5345 70.5009 46.5003 70.6403C46.4302 70.899 46.4302 71.1716 46.5003 71.4303C46.6004 71.8152 46.6408 72.2131 46.6203 72.6103V74.3303C46.605 74.5267 46.605 74.7239 46.6203 74.9203C46.628 75.0311 46.671 75.1365 46.743 75.2211C46.815 75.3056 46.9122 75.3649 47.0203 75.3903C47.1385 75.42 47.2588 75.4401 47.3803 75.4503C47.6434 75.4351 47.9072 75.4351 48.1703 75.4503C48.3466 75.4652 48.5239 75.4652 48.7003 75.4503H49.7003C49.7769 75.4454 49.8537 75.4454 49.9303 75.4503C50.3775 75.5204 50.833 75.5204 51.2803 75.4503H52.6603C52.7742 75.4439 52.886 75.4168 52.9903 75.3703C53.1091 75.3265 53.2128 75.2495 53.289 75.1485C53.3652 75.0474 53.4108 74.9265 53.4203 74.8003C53.4455 74.648 53.4455 74.4926 53.4203 74.3403C53.3696 74.0244 53.2927 73.7134 53.1903 73.4103C53.1865 73.3804 53.1865 73.3502 53.1903 73.3203C53.1554 73.2372 53.0914 73.1696 53.0103 73.1303L52.4703 72.9503L51.8403 72.7503C51.6725 72.7004 51.5208 72.6073 51.4003 72.4803C51.3167 72.3916 51.2536 72.2856 51.2156 72.1698C51.1776 72.054 51.1655 71.9313 51.1803 71.8103C51.2445 71.5984 51.2445 71.3722 51.1803 71.1603C51.0815 70.8184 50.9578 70.4842 50.8103 70.1603L50.6803 70.0003C50.6557 69.9577 50.6428 69.9094 50.6428 69.8603C50.6428 69.8111 50.6557 69.7629 50.6803 69.7203L50.8103 69.5703C50.9388 69.4448 51.02 69.2788 51.0403 69.1003C51.0617 68.9697 51.0986 68.8421 51.1503 68.7203C51.2914 68.3258 51.3192 67.8997 51.2303 67.4903C51.2153 67.4245 51.2153 67.3561 51.2303 67.2903C51.2803 67.0003 51.3403 66.7103 51.3903 66.4103C51.4276 66.2034 51.5249 66.0122 51.6703 65.8603C52.053 65.432 52.3092 64.9057 52.4103 64.3403C52.4903 63.9803 52.5203 63.6203 52.5803 63.2603C52.5857 63.1937 52.5857 63.1269 52.5803 63.0603C52.5605 62.9311 52.5605 62.7995 52.5803 62.6703C52.5859 62.6372 52.5859 62.6034 52.5803 62.5703C52.5999 62.2977 52.64 62.0269 52.7003 61.7603C52.7202 61.484 52.7202 61.2066 52.7003 60.9303V60.5703C52.6991 60.0835 52.6318 59.599 52.5003 59.1303C52.4508 58.9746 52.4206 58.8134 52.4103 58.6503C52.3806 58.3967 52.3304 58.1459 52.2603 57.9003C52.2003 57.5603 52.0803 57.2403 52.0003 56.9003C51.9296 56.646 51.8893 56.3841 51.8803 56.1203C51.895 56.0108 51.895 55.8998 51.8803 55.7903C51.8086 55.3777 51.7918 54.9574 51.8303 54.5403C51.8403 54.3438 51.8403 54.1468 51.8303 53.9503V53.6803C51.8091 53.2046 51.6415 52.7471 51.3503 52.3703C51.2314 52.2235 51.1212 52.0699 51.0203 51.9103C50.9303 51.7803 50.8503 51.6303 50.7603 51.4903C50.636 51.2795 50.5933 51.0305 50.6403 50.7903C50.6254 50.7278 50.6254 50.6628 50.6403 50.6003C50.816 50.114 50.9433 49.6116 51.0203 49.1003C51.0303 49.0139 51.0303 48.9267 51.0203 48.8403C51.0179 48.7895 51.0017 48.7404 50.9736 48.6981C50.9454 48.6558 50.9062 48.622 50.8603 48.6003L50.6203 48.4903C50.5885 48.4789 50.5619 48.4565 50.5454 48.4271C50.5289 48.3977 50.5235 48.3633 50.5303 48.3303C50.6103 47.9903 50.6903 47.6403 50.7603 47.3303V47.1003C50.7537 47.0826 50.7507 47.0637 50.7514 47.0448C50.7521 47.0259 50.7566 47.0074 50.7645 46.9902C50.7724 46.973 50.7836 46.9576 50.7974 46.9447C50.8113 46.9319 50.8275 46.9219 50.8453 46.9153C50.863 46.9087 50.8819 46.9057 50.9007 46.9064C50.9196 46.9072 50.9382 46.9116 50.9554 46.9195C50.9726 46.9274 50.988 46.9386 51.0009 46.9524C51.0137 46.9663 51.0237 46.9826 51.0303 47.0003L51.6703 47.1603L51.9903 47.2503C52.3201 47.3182 52.6604 47.3182 52.9903 47.2503C53.0769 47.2454 53.1637 47.2454 53.2503 47.2503C53.3013 47.2452 53.3526 47.2559 53.3973 47.2809C53.442 47.306 53.478 47.3442 53.5003 47.3903C53.583 47.5318 53.6374 47.688 53.6603 47.8503C53.7213 48.0852 53.7483 48.3277 53.7403 48.5703C53.7303 48.6466 53.7303 48.724 53.7403 48.8003C53.8103 49.1703 53.8103 49.5503 53.8803 49.9103V50.7303C53.865 50.8599 53.865 50.9907 53.8803 51.1203C53.8844 51.1435 53.8844 51.1671 53.8803 51.1903C53.8982 51.4653 53.9316 51.7391 53.9803 52.0103C53.9803 52.2203 53.9803 52.4303 54.0603 52.6303C54.0651 52.6869 54.0651 52.7437 54.0603 52.8003C54.0604 52.9853 54.0805 53.1697 54.1203 53.3503C54.1244 53.3735 54.1244 53.3971 54.1203 53.4203C54.1203 53.8603 54.2203 54.3003 54.2203 54.7403C54.2203 55.0048 54.2404 55.2689 54.2803 55.5303V56.1203C54.2717 56.3647 54.2884 56.6093 54.3303 56.8503V57.1503C54.3203 57.3468 54.3203 57.5438 54.3303 57.7403C54.3303 58.0603 54.4003 58.3803 54.4103 58.7403C54.4203 59.1003 54.4803 59.4603 54.5603 59.8203C54.5706 59.9167 54.5706 60.0139 54.5603 60.1103C54.6503 60.5703 54.7003 61.0203 54.7903 61.4803C54.7951 61.5469 54.7951 61.6137 54.7903 61.6803C54.7921 61.8118 54.8089 61.9426 54.8403 62.0703V62.1703C54.8403 62.5503 54.9303 62.9303 54.9703 63.3203C55.0089 63.5249 55.0323 63.7322 55.0403 63.9403C55.0353 63.9734 55.0353 64.0071 55.0403 64.0403C55.085 64.2675 55.1051 64.4988 55.1003 64.7303V65.0903C55.1102 65.2101 55.1102 65.3305 55.1003 65.4503C55.11 65.8051 55.14 66.159 55.1903 66.5103C55.1903 66.8503 55.2303 67.1836 55.3103 67.5103C55.3703 67.9203 55.4503 68.3303 55.5203 68.7403C55.5903 69.1503 55.6103 69.2603 55.6303 69.5303V69.6303C55.7103 69.9803 55.7203 70.3503 55.8003 70.7003C55.8803 71.0503 55.8803 71.2503 55.8903 71.5203V71.8203C55.8903 71.9203 55.9403 72.2303 55.9803 72.4403C55.9898 72.5063 55.985 72.5735 55.966 72.6374C55.947 72.7013 55.9143 72.7603 55.8703 72.8103C55.5479 73.2431 55.1971 73.654 54.8203 74.0403C54.161 74.7097 53.4375 75.3126 52.6603 75.8403C51.5785 76.5818 50.4342 77.2276 49.2403 77.7703C48.2403 78.2203 47.2403 78.6303 46.2403 78.9803C45.5421 79.2206 44.8267 79.4078 44.1003 79.5403C43.7903 79.6003 43.4703 79.6803 43.1603 79.7103C42.8503 79.7403 42.6603 79.7903 42.4003 79.8103C42.1403 79.8303 41.8803 79.8703 41.6103 79.8803C41.4187 79.9285 41.2252 79.9685 41.0303 80.0003H38.5203C38.3542 80.0201 38.1864 80.0201 38.0203 80.0003H37.9303C37.6103 80.0003 37.2903 80.0003 36.9303 79.9203C36.7556 79.9151 36.5816 79.8951 36.4103 79.8603C36.1403 79.8603 35.8803 79.8003 35.6203 79.7803C35.4323 79.7635 35.2454 79.7367 35.0603 79.7003C34.6703 79.7003 34.2803 79.5803 33.8903 79.5103C33.5003 79.4403 32.9603 79.3403 32.5003 79.2403C31.6003 79.0503 30.7103 78.8303 29.8303 78.5903C28.5603 78.2503 27.3003 77.8503 26.0503 77.4003C25.2103 77.1003 24.3803 76.7803 23.5603 76.4003C22.3286 75.8811 21.1237 75.3004 19.9503 74.6603C17.312 73.2026 14.8607 71.4295 12.6503 69.3803C11.7103 68.5003 10.8203 67.5903 9.97027 66.6303C8.28609 64.6988 6.79248 62.6091 5.51027 60.3903C4.85168 59.2565 4.24766 58.0918 3.70027 56.9003C2.95256 55.2519 2.30799 53.5586 1.77027 51.8303C1.42027 50.6803 1.11027 49.5203 0.860273 48.3503C0.730273 47.7503 0.610273 47.1603 0.520273 46.5603C0.460273 46.2103 0.400273 45.8703 0.350273 45.5603C0.300273 45.2503 0.290273 45.0003 0.260273 44.7203C0.230273 44.4403 0.190273 44.1303 0.160273 43.8303V43.5703V43.1103V42.7803C0.175483 42.4938 0.175483 42.2068 0.160273 41.9203C0.15531 41.8304 0.15531 41.7402 0.160273 41.6503V39.0003C0.155288 38.9271 0.155288 38.8535 0.160273 38.7803C0.136717 38.4811 0.0932878 38.1838 0.0302734 37.8903L0.0302734 37.5903V37.4603C0.0302734 37.1403 0.0902734 36.8203 0.110273 36.4603C0.130273 36.1003 0.110273 36.0703 0.190273 35.8703C0.250273 35.4603 0.310273 35.0403 0.390273 34.6303C0.470273 34.2203 0.590273 33.6303 0.690273 33.0803C0.870273 32.1703 1.10027 31.2703 1.34027 30.3803C1.68027 29.1103 2.07027 27.8603 2.52027 26.6203C2.97027 25.3803 3.45027 24.2003 3.99027 23.0103C4.69529 21.4634 5.49342 19.9606 6.38027 18.5103C7.28869 17.0348 8.30832 15.6307 9.43027 14.3103C9.83027 13.8503 10.2403 13.4103 10.6703 12.9803C12.6395 10.9991 14.7739 9.18921 17.0503 7.5703C18.5321 6.52914 20.0749 5.57744 21.6703 4.7203C23.4475 3.76321 25.2924 2.93767 27.1903 2.2503C28.603 1.75505 30.0418 1.33776 31.5003 1.0003C32.3503 0.800299 33.2003 0.620299 34.0603 0.480299C34.5903 0.400299 35.1303 0.310299 35.6603 0.250299C36.1903 0.190299 36.7403 0.160299 37.2803 0.130299C37.8203 0.100299 38.2003 0.0702995 38.6603 0.000299478C39.6603 -0.0597005 40.6603 0.000299478 41.6103 0.000299478C42.1403 0.0602995 42.6703 0.000299476 43.1903 0.100299C43.5103 0.140299 43.8303 0.150299 44.1503 0.190299H44.1903Z"/>
</svg>
