<svg width="23" height="23" viewBox="0 0 23 23" fill="black" xmlns="http://www.w3.org/2000/svg">
<path d="M20.8908 0.497314H1.22075C0.547035 0.497314 0 1.04435 0 1.71805V21.3881C0 22.0619 0.547035 22.6089 1.22075 22.6089H11.0558V13.8564H8.41277V10.6318H11.0558V8.24788C11.0558 5.3918 13.0366 3.83709 15.5875 3.83709C16.8083 3.83709 18.1211 3.92922 18.4263 3.96952V6.95228H16.3937C15.0059 6.95228 14.7411 7.60872 14.7411 8.5761V10.6318H18.0463L17.6144 13.8564H14.7411V22.6089H20.8908C21.5645 22.6089 22.1116 22.0619 22.1116 21.3881V1.71805C22.1116 1.04435 21.5645 0.497314 20.8908 0.497314Z"/>
</svg>
