<svg width="27" height="27" viewBox="0 0 27 27" fill="none" xmlns="http://www.w3.org/2000/svg">
    <path d="M26.8683 23.8127L20.3157 1.31273C20.0827 0.512578 19.5751 0 19.0163 0H14.4418L14.5567 1.62844C14.5801 1.96031 14.4062 2.25 14.1836 2.25H12.8167C12.594 2.25 12.4201 1.96031 12.4436 1.62844L12.5584 0H7.98391C7.42469 0 6.91704 0.512578 6.68407 1.31273L0.131463 23.8127C-0.302128 25.3027 0.389742 27 1.43177 27H10.6586L11.1419 20.1319C11.1822 19.5595 11.5037 19.125 11.8876 19.125H15.1126C15.4965 19.125 15.8181 19.5595 15.8584 20.1319L16.3417 27H25.5685C26.6105 27 27.3024 25.3027 26.8683 23.8127ZM12.2064 5.00344C12.2265 4.71712 12.3876 4.49985 12.5795 4.5H14.4212C14.6129 4.5 14.7742 4.71727 14.7943 5.00344L15.0099 8.06766C15.0451 8.56617 14.7845 9 14.4507 9H12.5504C12.2162 9 11.9561 8.56617 11.9912 8.06766L12.2064 5.00344H12.2064ZM14.7957 16.875H12.204C11.7587 16.875 11.4114 16.2963 11.4583 15.6319L11.6959 12.2569C11.7362 11.6845 12.0578 11.25 12.4417 11.25H14.5581C14.942 11.25 15.2635 11.6845 15.3039 12.2569L15.5415 15.6319C15.5884 16.2963 15.241 16.875 14.7957 16.875H14.7957Z"/>
</svg>
