<svg width="29" height="29" viewBox="0 0 29 29" fill="none" xmlns="http://www.w3.org/2000/svg">
<path d="M26.2 6.62506H7.3C6.31 6.62506 5.5 7.63756 5.5 8.87506V25.75C5.5 26.9875 6.31 28 7.3 28H26.2C27.19 28 28 26.9875 28 25.75V8.87506C28 7.63756 27.19 6.62506 26.2 6.62506Z" stroke="white"/>
<path d="M5.72501 4.65624H24.4V3.24999C24.4 2.0125 23.59 1 22.6 1H2.8C1.81 1 1 2.0125 1 3.24999V21.2499C1 22.4874 1.81 23.4999 2.8 23.4999H3.925V6.90623C3.925 5.66874 4.73501 4.65624 5.72501 4.65624Z" stroke="white"/>
</svg>
