<svg width="27" height="27" viewBox="0 0 27 27" fill="none" xmlns="http://www.w3.org/2000/svg">
<path d="M6.75 15.75H10.1813L15.8063 10.125C15.975 9.95625 16.1017 9.76388 16.1865 9.54788C16.2712 9.33188 16.3132 9.12113 16.3125 8.91563C16.3125 8.70938 16.2656 8.508 16.1719 8.3115C16.0781 8.115 15.9563 7.932 15.8063 7.7625L14.7937 6.69375C14.625 6.525 14.4375 6.39825 14.2312 6.3135C14.025 6.22875 13.8094 6.18675 13.5844 6.1875C13.3781 6.1875 13.1674 6.22988 12.9521 6.31463C12.7369 6.39938 12.5445 6.52575 12.375 6.69375L6.75 12.3188V15.75ZM8.4375 14.0625V12.9938L11.2781 10.1531L11.8406 10.6594L12.3469 11.2219L9.50625 14.0625H8.4375ZM11.8406 10.6594L12.3469 11.2219L11.2781 10.1531L11.8406 10.6594ZM12.5719 15.75H20.25V13.5H14.8219L12.5719 15.75ZM2.25 24.75V4.5C2.25 3.88125 2.4705 3.35138 2.9115 2.91038C3.3525 2.46938 3.882 2.24925 4.5 2.25H22.5C23.1188 2.25 23.6486 2.4705 24.0896 2.9115C24.5306 3.3525 24.7507 3.882 24.75 4.5V18C24.75 18.6188 24.5295 19.1486 24.0885 19.5896C23.6475 20.0306 23.118 20.2508 22.5 20.25H6.75L2.25 24.75ZM5.79375 18H22.5V4.5H4.5V19.2656L5.79375 18Z"/>
</svg>
