<svg viewBox="0 0 13 20" fill='' xmlns="http://www.w3.org/2000/svg">
    <path d="M9.1913 2.40809C9.1913 3.32402 8.43201 4.09339 7.51001 4.09339C6.58802 4.09339 5.84681 3.32402 5.84681 2.40809C5.84681 1.49216 6.67841 0.704468 7.58233 0.704468C8.48624 0.704468 9.1913 1.47385 9.1913 2.40809ZM5.41293 13.7106L5.14175 14.6998C4.92482 15.0662 4.4367 15.8356 3.46047 17.3926C2.90004 18.3086 2.28538 18.8032 1.86958 18.6017C1.58033 18.4551 1.79727 17.8872 2.14076 17.0446C2.70118 15.9821 3.40624 14.1503 3.40624 14.1503L3.67741 12.0253C3.94858 12.7947 5.41293 13.7106 5.41293 13.7106ZM12.4635 6.93276C12.4635 9.11267 12.4635 13.3626 12.4635 18.5284C12.4635 18.6017 12.4635 18.8764 12.2646 18.9497C12.1923 19.023 12.0477 19.023 11.8488 19.023C11.6319 19.023 11.5596 19.023 11.433 18.9497C11.2884 18.8764 11.2884 18.6749 11.2161 18.6749V7.70214C10.6556 8.05019 10.0229 8.41656 10.0229 8.41656C9.75172 8.56311 9.46247 8.41656 9.1913 8.27001L7.65464 7.06099L6.75072 10.6697L8.97436 12.9412C9.33593 13.2893 9.26361 13.7839 9.1913 14.2052C9.11898 14.6449 8.48625 17.759 8.48625 17.759C8.43201 17.9605 8.21507 18.9497 7.79927 18.9497C7.31116 18.8764 7.23884 18.4551 7.31116 17.6857L7.65464 14.4983L4.72596 12.0253C3.94858 11.3109 3.94858 10.6697 4.16553 9.75381L5.28639 5.30241C5.3587 4.88109 5.62987 4.58799 5.91912 4.66127L7.65464 5.15587C7.72696 5.15587 7.79927 5.22914 7.87158 5.30241L10.0229 6.93276L11.2884 6.29161V5.15587C11.2884 5.08259 11.2884 5.00932 11.433 4.95436C11.4872 4.88109 11.6319 4.80782 11.6319 4.80782H12.12C12.1923 4.80782 12.3369 4.80782 12.4092 4.88109C12.5358 5.00932 12.4635 5.15587 12.4635 5.22914C12.4635 5.30241 12.4635 5.50392 12.4635 5.79701C12.6804 5.79701 12.825 5.87029 12.9516 6.07179C13.0962 6.36489 12.825 6.63967 12.4635 6.93276L12.4635 6.93276ZM4.4367 5.22914C4.4367 5.22914 3.40624 8.48984 3.26161 8.98444C3.11698 9.47904 2.55655 9.82709 1.79727 9.60727C1.0199 9.40576 0.188297 9.05771 0.332921 8.12347C0.45947 7.13427 1.38147 5.79701 2.21307 4.95436C3.04467 4.09339 4.87058 3.81862 4.4367 5.22914Z" stroke="white" stroke-width=".5"/>
</svg>
