<svg width="591" height="194" viewBox="0 0 591 194" fill="none" xmlns="http://www.w3.org/2000/svg">
    <g opacity="0.5">
    <path d="M552.783 0.817307C544.475 3.79241 541.163 10.4724 544.644 17.3207C545.486 18.9486 546.272 21.3063 546.44 22.6535C546.777 24.8988 546.664 25.1795 544.812 26.5829C543.689 27.4249 541.949 28.9967 540.939 30.0632L539.086 32.0279L539.03 26.6952C538.974 23.7201 538.75 20.6888 538.581 19.9591C538.3 18.8364 538.413 18.5557 539.311 18.5557C539.928 18.5557 540.827 17.9944 541.276 17.3207C543.184 14.5701 541.893 11.4267 537.795 8.95671C536.673 8.22704 535.606 7.4973 535.438 7.2166C535.269 6.99205 533.978 6.82366 532.631 6.82366C531.227 6.82366 528.926 6.65526 527.523 6.4868C525.165 6.15001 524.772 6.26225 522.92 7.89018C521.797 8.84447 520.73 10.1355 520.562 10.6969C520.281 11.595 519.552 11.8196 516.296 11.9319C511.861 12.1003 511.356 12.5494 510.177 17.3769C509.672 19.1731 509.391 19.6784 508.886 19.1731C508.044 18.3312 505.967 18.3873 504.059 19.3416C502.206 20.2958 499.456 24.2814 499.231 26.3583C499.119 27.1443 498.501 29.558 497.828 31.7473C497.21 33.8804 496.817 36.1819 496.93 36.7432C497.098 37.3607 496.312 39.1009 494.965 41.0655C492.607 44.5458 492.046 46.3421 493.842 44.7143C494.796 43.8161 494.796 44.0967 493.561 47.1842C492.776 49.0927 492.27 51.0574 492.383 51.5627C492.663 52.6853 492.551 52.8537 494.684 47.1842L496.087 43.5355L495.751 49.5419C495.414 55.4359 495.414 55.6043 496.93 57.569L498.445 59.5337L497.322 60.9932C495.47 63.3509 494.347 67.5609 494.46 71.9955C494.572 74.2409 494.404 78.5071 494.179 81.4822C493.786 86.4782 493.842 86.9272 494.853 87.657C495.47 88.106 496.144 89.1726 496.368 90.0707C497.042 92.7651 498.389 94.2247 502.655 96.9191C507.258 99.782 511.244 101.41 515.342 102.196C517.587 102.645 518.71 102.533 521.236 101.634C522.976 101.017 524.491 100.568 524.548 100.68C524.604 100.736 525.558 104.329 526.681 108.651C529.319 119.204 531.003 129.084 530.329 130.375C529.375 132.171 526.063 134.192 519.72 136.999C513.208 139.862 503.778 145.756 500.971 148.731C500.017 149.685 498.838 150.471 498.277 150.471C497.715 150.471 495.47 151.538 493.281 152.829C491.092 154.12 487.723 155.86 485.871 156.646C481.773 158.33 480.651 159.958 481.605 162.765C481.942 163.719 482.447 164.505 482.728 164.505C483.008 164.505 483.233 164.954 483.233 165.459C483.289 166.806 484.804 168.603 486.994 169.838C488.958 171.016 489.969 172.756 489.969 175.17C489.969 176.125 490.53 177.416 491.372 178.314C492.158 179.156 492.776 180.166 492.776 180.559C492.776 181.008 494.011 182.58 495.526 184.152C499.961 188.867 502.936 189.765 505.406 187.239C507.09 185.611 507.202 184.208 505.686 182.355C503.89 180.054 502.318 175.395 502.543 172.981C502.824 170.006 503.553 168.939 506.248 167.312C507.539 166.526 509.391 165.122 510.458 164.224C511.468 163.27 516.633 160.295 521.909 157.544C527.186 154.794 532.912 151.762 534.596 150.752L537.627 148.899L536.055 152.043C535.157 153.839 530.386 163.045 525.39 172.588C517.082 188.53 515.566 192.011 516.801 192.011C518.092 192.011 519.72 189.428 526.232 176.574C538.188 152.885 542.51 144.689 544.587 141.658C545.654 140.03 546.721 137.897 546.945 136.887C547.17 135.876 547.843 134.024 548.461 132.845L549.583 130.6L550.65 132.003C552.222 134.024 552.446 135.989 551.492 139.3C550.482 142.837 549.134 154.457 548.573 164.505C548.348 168.659 547.899 171.802 547.506 172.195C547.113 172.532 546.664 175.339 546.44 178.37C546.215 181.401 545.766 185.499 545.429 187.464C544.756 191 544.756 191.056 546.328 192.347C547.619 193.526 548.461 193.695 551.997 193.695C554.692 193.695 556.825 193.358 558.06 192.796C559.856 191.954 560.137 191.954 562.045 192.853C563.785 193.695 565.133 193.807 570.465 193.526C579.784 193.077 583.488 190.776 581.917 186.397C581.299 184.545 579.278 183.366 577.819 183.983C576.584 184.432 570.409 183.029 569.623 182.131C569.287 181.682 568.781 181.457 568.557 181.626C568.332 181.738 567.715 181.401 567.153 180.784C566.255 179.773 566.199 179.324 566.817 176.742C567.21 174.833 567.266 173.711 566.873 173.486C566.536 173.262 567.153 167.985 568.613 158.891C570.465 147.496 570.914 143.118 570.914 137.28C570.914 129.365 570.465 126.951 565.806 111.233L563.617 103.768L568.332 94.5614C571.813 87.9376 573.328 85.5239 573.946 85.7484C574.9 86.0852 574.956 85.2994 574.058 84.2889C573.44 83.7276 573.553 83.6153 574.507 83.7837C577.258 84.1766 579.896 81.2015 580.682 76.8791C580.962 75.1951 580.794 74.69 579.952 74.2409C579.166 73.7357 579.054 73.5112 579.671 72.9498C580.008 72.5569 580.345 71.8832 580.345 71.4342C580.345 70.5921 577.538 70.7606 574.226 71.8271C573.16 72.1639 571.644 72.2762 570.858 72.1078C567.21 71.2657 567.153 71.1535 570.522 70.3676C572.374 69.9747 575.686 68.7397 577.875 67.617C581.243 65.933 582.085 65.7085 583.096 66.2136L584.274 66.8873V128.354C584.274 190.607 584.387 193.638 586.239 191.112C586.8 190.327 586.913 178.482 586.632 128.467C586.351 71.6026 586.407 66.8312 587.306 66.4943C588.484 66.0453 588.484 65.1471 587.25 65.1471C586.52 65.0909 586.632 64.8664 587.755 64.3052C588.877 63.6876 589.383 62.7895 589.832 60.6002C590.225 58.804 590.281 57.4567 589.944 57.0638C589.663 56.727 589.326 55.8288 589.214 55.043C589.102 54.0887 588.653 53.5835 587.755 53.4712C586.744 53.3028 586.576 53.0221 586.857 51.8994C587.025 51.1697 587.025 50.5522 586.857 50.5522C585.846 50.5522 582.815 52.517 581.636 53.9203C579.952 55.9411 577.426 56.3902 569.904 55.8849L564.066 55.4921L564.459 53.4151C564.74 52.2924 564.908 48.6998 564.852 45.3879C564.852 40.841 564.571 38.8763 563.785 37.1361L562.775 34.7785L564.515 32.9822C566.592 30.8491 566.648 30.5123 565.357 29.1089C564.515 28.1546 564.515 28.0986 565.806 28.0986C567.659 28.0986 568.781 27.2565 568.388 26.2461C567.996 25.1234 569.567 21.8115 570.297 22.2606C571.139 22.7658 571.588 20.8011 570.914 19.51C570.185 18.0505 570.185 14.065 570.914 13.1107C571.251 12.7177 571.307 11.9319 571.139 11.3705C570.914 10.8092 571.139 9.57427 571.588 8.73222C572.486 6.99205 572.318 6.20616 571.027 6.20616C570.522 6.20616 570.241 5.58867 570.241 4.2415C570.241 2.55742 570.072 2.27678 568.95 2.27678C568.22 2.27678 565.638 1.77153 563.224 1.1541C558.172 -0.136977 555.646 -0.19313 552.783 0.817307ZM537.178 10.2478C540.153 12.5494 541.444 15.2999 540.153 16.591C539.03 17.7137 538.244 17.2085 538.244 15.2438C538.244 14.2334 537.515 13.0546 535.999 11.5389C532.406 8.05858 533.192 7.2166 537.178 10.2478ZM569.96 83.4469C570.634 84.4012 570.353 85.2432 567.21 91.2496C565.301 94.9545 563.449 98.6031 563.112 99.3891C562.55 100.736 562.494 100.736 562.101 99.6697C561.877 99.0522 560.53 95.9087 559.182 92.7091C557.498 88.6673 556.937 86.6465 557.33 86.2536C557.611 85.9729 557.891 84.9064 557.891 83.896V82.0997L563.561 82.2681C568.276 82.3803 569.287 82.6049 569.96 83.4469ZM547.45 126.614C548.18 127.737 548.236 128.242 547.675 129.477L546.945 130.993L546.608 129.645C546.159 128.13 545.991 125.211 546.328 125.211C546.44 125.211 546.945 125.828 547.45 126.614Z" fill="black"/>
    <path d="M199.474 11.2022C193.243 14.065 190.829 21.1379 193.636 28.2108L194.759 31.1298L193.58 34.8347C192.513 38.1466 190.661 40.5043 189.819 39.6622C189.651 39.4938 189.987 37.7537 190.549 35.8451C192.064 30.793 191.896 20.6889 190.212 17.4892C188.528 14.1211 186.788 13.223 182.185 13.223H178.311L175.673 16.0297C173.372 18.5557 172.698 18.9487 169.442 19.5662C165.288 20.4082 163.717 21.6992 162.65 25.2919C162.033 27.3127 161.864 27.4811 159.956 27.3688C157.373 27.3127 154.118 29.4458 151.984 32.7016C151.086 34.0488 150.357 35.396 150.357 35.6767C150.357 36.0135 149.571 38.0905 148.616 40.3919C147.662 42.6373 147.045 44.8828 147.213 45.3318C147.438 45.7809 146.09 48.9805 144.126 52.5731C142.273 56.1096 140.814 59.3091 140.982 59.7022C141.094 60.0389 142.105 58.411 143.284 55.9412C144.406 53.5274 145.473 51.675 145.641 51.8434C145.81 52.0118 145.529 53.6396 145.08 55.4921C143.845 60.1512 143.957 62.0037 145.529 63.8L146.82 65.3717L145.024 67.7294C142.722 70.7045 141.375 74.7462 141.487 78.058C141.544 79.4614 141.151 82.7172 140.645 85.3555C139.467 91.2496 139.467 90.9689 140.814 90.9689C141.656 90.9689 141.936 91.3619 141.936 92.4846C141.993 94.8422 143.508 96.3578 147.55 98.1541C151.928 100.175 156.026 101.073 160.349 101.073C164.559 101.073 165.906 100.287 168.151 96.5824L170.004 93.4949V96.5824C170.004 98.2664 170.284 100.624 170.621 101.747C171.295 104.329 170.846 107.304 167.702 119.878C164.839 131.329 163.043 136.718 159.057 145.419C157.317 149.292 154.398 156.478 152.658 161.417C150.862 166.357 148.673 171.802 147.831 173.486C146.932 175.17 146.203 177.303 146.147 178.258C146.034 179.156 145.585 181.682 145.08 183.871C143.845 189.428 143.901 190.663 145.585 191.786C147.718 193.189 154.398 193.47 156.251 192.235C157.598 191.337 157.822 191.337 159.956 192.291C162.425 193.414 170.509 193.807 172.53 192.909C173.708 192.347 174.214 192.179 174.943 192.067C175.898 191.954 179.434 188.306 179.771 187.183C179.996 186.453 179.715 185.499 179.041 184.601C178.031 183.366 177.357 183.141 173.203 182.917C170.621 182.748 167.983 182.299 167.365 181.963C165.906 181.233 165.344 177.752 166.355 175.675C166.748 174.833 174.326 164.28 183.251 152.155L199.418 130.151L201.551 132.564C205.368 136.887 206.322 139.076 206.772 144.016C206.94 146.486 207.838 153.278 208.736 159.172C209.578 165.01 210.476 171.522 210.701 173.598C210.925 175.732 211.262 177.416 211.487 177.416C211.767 177.416 211.824 179.773 211.655 182.692L211.375 187.969L213.002 188.811C215.304 189.99 220.3 189.877 223.219 188.53C225.52 187.52 225.801 187.52 227.878 188.306C229.562 188.979 230.404 189.035 231.19 188.642C231.976 188.193 232.313 188.193 232.313 188.642C232.313 189.035 232.986 189.148 234.165 188.923C235.119 188.755 236.691 188.474 237.589 188.306C238.487 188.193 239.666 187.688 240.171 187.239C240.677 186.79 241.294 186.566 241.462 186.79C242.192 187.464 246.346 182.917 246.346 181.457C246.346 178.482 245.56 177.977 240.564 177.977C235.456 177.977 231.864 177.191 231.414 176.012C231.134 175.283 236.298 128.747 240.284 96.021C241.631 84.8503 242.248 81.37 243.09 80.1912C243.708 79.293 244.045 78.3949 243.876 78.1703C243.708 77.8896 243.932 76.9915 244.381 76.1494C245.055 74.9145 245.055 74.4094 244.494 73.5112C244.157 72.9498 243.652 72.4446 243.427 72.4446C243.146 72.4446 242.978 71.6588 242.978 70.7606C242.978 69.6379 242.697 69.0765 242.136 69.0765C241.687 69.0765 241.294 69.5818 241.294 70.1992C241.294 71.0974 240.901 71.3219 239.273 71.3219C238.151 71.3219 236.579 71.8271 235.737 72.4446C234.277 73.455 233.323 73.5112 223.5 73.3989L212.778 73.2867L212.385 68.7958C212.217 66.326 211.767 62.5649 211.431 60.3758C211.038 57.5691 211.038 56.4464 211.487 56.278C211.824 56.1657 212.104 55.6044 212.104 54.9869C212.104 54.3694 212.497 53.3028 212.946 52.5731C213.732 51.3943 213.62 51.0574 210.757 46.5106C209.073 43.8162 207.95 41.4024 208.175 41.0095C208.399 40.6726 209.803 40.0552 211.318 39.6622C213.676 39.0447 214.069 38.7641 214.125 37.5852C214.125 35.5083 215.472 32.5893 216.427 32.5893C217.662 32.5893 217.886 31.0737 216.988 28.7722C216.427 27.3688 216.314 26.3584 216.651 25.741C217.156 24.8428 216.707 21.8677 215.697 19.4539C215.416 18.7241 215.472 18.4996 215.921 18.7803C216.988 19.3977 217.325 16.9279 216.314 15.4122C214.967 13.3914 212.385 11.988 208.063 10.9777C203.291 9.91101 202.225 9.91101 199.474 11.2022ZM239.105 81.8191C239.498 82.212 239.442 84.0083 239.105 87.0956C238.768 89.6779 238.375 93.2143 238.207 94.8983C236.916 108.314 229.225 173.879 229.001 174.16C228.776 174.384 228.552 173.991 228.495 173.262C228.215 169.95 226.531 159.677 225.24 153.559C224.454 149.854 223.556 143.679 223.275 139.806C222.601 130.824 221.984 128.803 216.988 119.485L212.89 111.851L214.686 109.381C215.978 107.697 216.876 107.023 217.662 107.136C218.953 107.36 220.524 106.574 222.601 104.834C224.903 102.813 225.184 101.859 224.117 99.6697C223.219 97.7612 223.219 97.705 224.678 95.9648C225.464 95.0106 226.138 93.8879 226.138 93.4388C226.138 91.9232 224.173 92.653 222.826 94.6738C221.647 96.4139 221.254 96.5824 219.739 96.2455C216.37 95.5719 214.799 94.1685 212.666 90.0708L210.645 86.0291L217.437 85.8046C224.454 85.5239 224.454 85.5239 230.909 82.0436C232.593 81.0893 233.828 80.8647 235.849 81.0331C237.365 81.1454 238.824 81.5384 239.105 81.8191ZM211.038 102.252C211.936 102.869 212.666 103.206 212.666 102.982C212.666 102.757 213.171 103.038 213.788 103.599C214.406 104.16 214.911 104.89 214.911 105.227C214.911 106.013 211.767 109.886 211.431 109.493C210.869 108.82 206.491 101.522 206.491 101.298C206.491 100.624 209.634 101.241 211.038 102.252ZM194.927 123.078L198.071 128.579L194.029 134.024C191.84 137.055 187.967 142.276 185.44 145.7C171.744 164.336 169.162 167.761 168.993 167.592C168.656 167.255 172.81 154.344 174.045 151.875C174.663 150.64 176.796 147.159 178.817 144.128C182.971 137.841 183.364 136.943 187.405 125.099C189.819 118.138 190.605 116.398 191.11 116.959C191.503 117.296 193.243 120.103 194.927 123.078Z" fill="black"/>
    <path d="M59.0265 14.6263C58.0161 15.1877 56.7811 16.5349 56.2759 17.5453C55.7707 18.5558 54.4796 20.5765 53.4692 21.9799C52.2343 23.6639 50.7186 27.1443 49.3153 31.5227C46.4524 40.5042 46.3402 40.6726 45.1613 37.3046C44.6561 35.8451 44.2632 34.554 44.2632 34.4979C44.2632 34.3856 44.9368 34.2734 45.8349 34.1611C47.0138 34.0488 47.4067 33.6559 47.519 32.421C47.9119 28.9967 43.5896 26.9197 35.3378 26.6952C29.3876 26.4706 27.7036 27.032 25.6266 29.7827C24.5039 31.2982 24.111 31.4666 21.1359 31.4666C18.3853 31.4666 17.5994 31.6912 16.4767 32.87C15.5786 33.712 15.0734 34.8908 15.0734 35.9574C15.0734 37.6414 15.0172 37.6975 13.1648 37.3607C10.5265 36.8555 7.38299 38.4272 5.86737 40.9532C5.24989 42.076 4.74468 43.1987 4.85695 43.4233C4.91308 43.6478 4.57628 45.2756 4.07107 46.9597C3.56586 48.6999 3.34133 50.6646 3.50973 51.3943C3.73427 52.2924 3.17292 54.4255 1.88184 57.5129C-0.251264 62.7334 -0.307401 62.9018 0.422343 62.9018C0.703015 62.9018 1.09596 62.2844 1.26436 61.5546C1.43276 60.8248 2.05024 59.1408 2.66772 57.7935L3.73427 55.3237L3.67813 60.0389L3.56586 64.6981L5.5867 66.4944C7.43912 68.1223 7.49526 68.2907 6.59711 69.1888C4.85695 70.8167 4.12721 74.4094 4.85695 77.2722C5.24989 78.6194 5.53056 81.6506 5.53056 84.0083C5.53056 87.8254 5.64283 88.2745 6.65324 88.5552C7.32686 88.7236 8.16887 89.5656 8.67408 90.4637C9.12315 91.3619 10.0774 92.4846 10.8072 92.9336C13.1648 94.5054 21.9779 97.1437 26.9738 97.8173L31.8575 98.4348L32.1943 101.298C32.4189 102.869 32.9802 105.115 33.4293 106.294C34.4958 108.932 34.159 110.953 31.5768 116.229C30.4542 118.531 27.9281 124.481 25.9073 129.421C21.7534 139.693 21.3043 140.536 16.8135 146.486C11.8737 152.941 9.17929 157.32 7.21459 162.091C3.9588 169.838 2.61158 175.114 2.49931 180.222C2.44318 182.861 2.16251 185.892 1.93797 186.959C1.60116 188.53 1.76957 189.26 2.55545 190.27C3.4536 191.337 4.18334 191.561 7.21459 191.618C9.29155 191.674 11.6492 191.337 12.6596 190.888C14.2875 190.158 14.6804 190.214 16.0838 191C17.2626 191.73 18.7221 191.898 22.2024 191.786C29.7806 191.449 33.9906 188.53 31.7453 185.05C31.0155 183.983 30.2296 183.703 27.5352 183.422C22.034 182.973 22.034 182.917 25.9634 176.798C27.8159 173.823 35.2256 162.259 42.2985 151.145C49.4275 139.974 55.3778 130.88 55.5462 130.824C55.7146 130.824 57.567 133.014 59.644 135.652L63.3488 140.536V153.783C63.3488 161.754 63.6856 170.399 64.247 175.451C64.7522 180.335 64.9206 185.555 64.7522 187.857C64.247 193.358 64.8083 193.863 70.5902 193.47C75.1932 193.133 76.0352 193.133 84.2869 193.358C89.0022 193.526 90.1249 193.414 92.1457 192.347L94.5033 191.169L94.5595 187.52C94.6717 184.152 101.352 139.188 106.572 106.967C107.751 99.5575 108.93 92.0355 109.098 90.2953C109.323 88.3868 109.828 86.9834 110.277 86.8151C110.726 86.6465 111.063 86.1414 111.063 85.6923C111.063 85.2432 111.287 84.289 111.568 83.5593C111.849 82.8295 112.017 82.1559 112.017 81.9874C112.017 81.819 112.298 81.2016 112.579 80.5842C113.084 79.686 113.028 79.1246 112.186 78.0581C111.456 77.1038 111.287 76.1495 111.456 74.5778C111.737 72.6692 111.624 72.4446 110.614 72.4446C109.716 72.4446 109.323 72.8937 109.042 74.4094C108.761 76.0372 108.425 76.374 107.302 76.374C106.516 76.374 105.281 76.9915 104.608 77.7213C103.316 79.1246 102.587 79.1246 95.626 77.5529C94.1104 77.216 90.181 76.7108 86.9252 76.4301C79.9646 75.7565 80.1891 75.925 76.8772 67.6733C74.8002 62.5089 74.6318 61.6107 74.5196 56.4464C74.5196 53.359 74.6318 50.1032 74.8564 49.2612C75.1932 47.9701 74.9686 47.3527 73.6775 46.0054C72.2742 44.546 72.218 44.3775 73.2285 44.3775C73.8459 44.3775 75.4177 43.3671 76.7088 42.1321C77.9437 40.8972 79.4032 39.8868 79.9084 39.8868C80.3575 39.8868 80.7505 39.3815 80.7505 38.7079C80.7505 36.7432 81.817 35.2838 82.9958 35.6767C85.2412 36.4064 87.0375 29.6703 85.578 26.1339C84.0624 22.5413 79.291 18.2751 75.3054 16.9279C73.3969 16.2542 71.4322 15.7491 70.927 15.7491C70.4779 15.7491 69.1307 15.2438 68.008 14.6263C65.2574 13.1669 61.3841 13.1669 59.0265 14.6263ZM63.6295 19.2855C61.3841 21.5309 59.4194 27.425 59.4194 31.9718C59.4194 35.1154 57.9038 38.7641 56.6127 38.7641C55.7707 38.7641 55.9391 37.3607 57.4547 31.0176C59.0826 24.2815 61.1596 19.6223 63.1804 17.9944C65.3697 16.2542 65.7065 17.2085 63.6295 19.2855ZM42.8037 28.9967C45.7788 30.4001 47.0138 31.9157 46.2279 33.1506C45.6104 34.1611 44.5439 33.712 43.5896 32.028C43.0844 31.0737 42.0178 30.1194 41.3442 29.8387C39.8286 29.2774 38.1446 27.5372 39.155 27.5372C39.4918 27.5372 41.1197 28.2109 42.8037 28.9967ZM71.5444 83.1102C73.2285 84.6819 76.2597 86.7589 78.2805 87.7132C81.9293 89.3972 82.0415 89.4533 88.8338 89.1165C92.8755 88.9481 96.6364 88.4429 98.0959 87.9377C101.127 86.8151 106.292 86.1414 106.684 86.8151C106.853 87.0957 106.292 91.9793 105.393 97.705C104.551 103.431 101.408 123.976 98.4327 143.454C95.4576 162.877 92.7632 180.447 92.4264 182.412L91.7528 185.948L89.2829 185.611C86.3639 185.218 83.2204 183.815 81.3118 182.075C80.5259 181.345 79.74 180.784 79.5716 180.784C79.3471 180.784 79.291 180.335 79.4594 179.773C79.5716 179.212 79.291 176.349 78.7858 173.43C77.4385 165.964 77.5508 155.411 79.0664 145.981C79.9084 141.041 80.1891 137.392 79.9646 135.427C79.5155 131.554 75.8106 122.348 71.9935 115.5C68.9623 110.167 68.9061 109.942 69.7481 108.651C70.2533 107.865 71.0954 107.248 71.6006 107.248C72.9478 107.248 76.2597 105.003 76.2597 104.104C76.2597 103.655 76.4843 103.318 76.7649 103.318C77.7753 103.318 77.8876 101.522 77.0456 99.8381C76.4281 98.6033 76.3158 97.9857 76.7649 97.5366C77.6631 96.6385 77.4947 95.6281 76.4281 95.2351C75.8106 94.9545 75.137 95.2913 74.5196 96.0771C73.7898 97.0314 73.2846 97.1999 72.1058 96.9192C70.5902 96.5262 67.2782 93.6072 67.2782 92.653C67.2782 92.3723 66.8853 91.7548 66.3801 91.2496C65.5381 90.4076 65.5381 90.0146 66.6608 86.1975C67.2782 83.9521 67.8396 81.7068 67.8396 81.2016C67.8396 79.7982 68.3448 80.0789 71.5444 83.1102ZM67.8957 106.35L67.166 107.697L65.2013 105.508C64.0786 104.273 63.2927 103.206 63.405 103.094C63.5172 102.982 64.4154 102.645 65.3135 102.364C66.8292 101.859 67.0537 101.915 67.7834 103.375C68.4571 104.722 68.4571 105.227 67.8957 106.35ZM53.6376 128.747C53.4692 129.14 47.4067 138.627 40.1092 149.91C32.8679 161.193 25.4582 172.7 23.6619 175.563C21.8656 178.426 20.2939 180.728 20.1255 180.784C19.9571 180.784 19.5641 180.559 19.1712 180.335C18.2169 179.717 21.9779 169.445 26.3564 160.632C29.3315 154.737 30.5664 152.885 34.6642 148.563C40.5022 142.388 42.523 139.413 47.0138 130.375L50.4941 123.414L52.1781 125.772C53.1324 127.063 53.7499 128.41 53.6376 128.747Z" fill="black"/>
    <path d="M401.221 21.3625C400.716 21.6431 399.986 22.6535 399.593 23.6078C398.639 25.8532 399.312 26.5268 403.522 27.8179C405.375 28.3792 406.89 28.9967 406.89 29.2212C406.89 30.4562 405.263 30.7369 401.67 30.2317C397.404 29.558 396.562 29.951 395.271 33.0384C394.653 34.6101 394.373 34.7785 393.418 34.2734C390.836 32.87 385.896 34.2734 384.156 36.8555C383.707 37.5852 383.426 38.2027 383.595 38.2027C383.707 38.2027 383.09 39.3816 382.191 40.841C381.237 42.3006 380.507 44.2092 380.507 45.1072C380.507 46.1738 379.497 48.1385 377.42 50.9452C375.736 53.3028 374.333 55.3798 374.333 55.6605C374.333 56.727 375.343 56.1095 375.96 54.5939C376.353 53.7519 377.252 52.2924 378.093 51.3943C379.441 49.7664 379.497 49.7664 379.16 51.1136C377.42 57.7936 377.42 58.1865 378.936 60.488L380.339 62.6211L378.992 63.6877C376.746 65.3717 375.455 68.01 375.455 70.8728C375.455 72.3324 375.062 75.3075 374.613 77.4967C373.715 81.6506 373.883 82.8295 375.231 82.3243C375.736 82.0997 376.017 82.4365 376.017 83.2785C376.017 83.9521 376.522 85.2994 377.083 86.3097L378.206 88.1061L376.297 91.9232C374.669 95.179 374.389 96.3578 374.445 99.3891C374.501 101.41 374.333 103.88 374.108 104.834C373.827 106.069 373.883 106.687 374.276 106.687C374.613 106.687 374.894 106.125 374.894 105.452C374.894 103.824 375.624 104.666 376.297 107.136C376.634 108.202 377.195 109.213 377.532 109.325C378.037 109.493 378.037 109.044 377.42 107.585C375.96 104.104 376.241 103.711 379.16 105.283C382.304 106.967 384.998 107.023 388.085 105.62C390.78 104.385 392.239 102.813 394.204 99.1084L395.72 96.3017L395.383 99.5013C395.102 102.476 395.214 102.757 396.225 102.757C397.404 102.757 397.46 102.926 398.47 109.044C398.807 111.121 399.817 115.387 400.716 118.587C402.793 125.716 403.635 132.284 403.691 141.77C403.747 148.338 403.635 149.461 402.287 153.109C401.445 155.355 400.21 159.902 399.537 163.214C398.526 168.322 398.414 170.287 398.695 175.788C398.976 179.886 398.863 183.254 398.47 185.05C398.133 186.566 397.965 188.586 398.19 189.597C398.583 191.786 400.66 192.628 406.497 192.853C408.743 192.965 412.504 193.245 414.862 193.414C419.577 193.863 424.18 193.021 424.685 191.618C424.853 191.225 424.797 190.27 424.629 189.541C424.348 188.306 424.011 188.193 421.822 188.25C418.791 188.362 416.882 187.351 414.974 184.601C412.953 181.738 413.683 181.233 416.153 183.703C418.286 185.836 422.552 187.52 425.752 187.52C427.267 187.52 427.828 187.239 428.165 186.229C428.839 184.489 428.502 184.039 426.032 182.861C423.675 181.794 422.047 179.212 422.047 176.517C422.047 175.619 422.664 172.981 423.45 170.68C424.91 166.357 426.874 163.663 436.978 152.38C438.943 150.191 441.02 147.777 441.638 147.047C442.255 146.317 442.76 145.924 442.816 146.205C442.816 146.542 439.785 155.804 436.08 166.862C432.375 177.977 429.344 187.464 429.344 187.969C429.344 191.169 431.982 184.489 439.112 163.326C443.546 150.247 447.419 138.739 447.756 137.841C448.037 136.887 450.787 128.635 453.819 119.429C458.365 105.395 459.657 102.027 461.734 98.9399C464.035 95.5719 464.147 95.179 463.305 94.5614C462.463 93.944 462.407 93.5511 462.969 92.0354C463.811 89.6778 463.754 89.2849 462.688 89.2849C462.239 89.2849 461.621 89.9585 461.285 90.8005C460.835 92.0916 460.442 92.3723 458.646 92.4845C457.523 92.4845 455.839 92.7091 454.885 92.8775C452.022 93.495 451.517 92.653 453.033 89.6217C453.987 87.6009 454.548 87.0395 455.447 87.1518C456.064 87.2079 457.131 86.9273 457.748 86.4782C459.095 85.5239 460.442 83.1663 459.993 82.7172C459.825 82.4927 459.937 82.0436 460.274 81.6506C460.667 81.1454 460.499 80.7525 459.657 80.1351C458.646 79.4053 458.534 79.1246 459.095 78.0581C459.769 76.767 459.488 75.2513 458.534 75.2513C458.197 75.2513 457.523 76.1495 457.018 77.216C456.176 79.0124 455.896 79.1807 452.696 79.5737C450.787 79.7981 448.935 79.9105 448.542 79.8544C448.205 79.7421 446.97 79.9105 445.904 80.2472C444.051 80.7525 443.939 80.6963 442.76 78.7317C441.357 76.3179 440.01 70.48 440.01 66.5506C440.01 64.9787 439.785 62.9579 439.504 61.9476C438.887 59.7583 439.392 59.2531 442.704 58.6918C443.995 58.4672 445.062 58.1865 445.062 57.962C445.062 57.7936 444.5 57.0638 443.827 56.3341L442.648 55.043H445.006C447.419 55.043 447.7 54.7624 447.981 52.2363C448.093 51.4504 448.374 50.4961 448.654 50.1032C448.879 49.7103 448.935 49.2051 448.767 49.0366C448.598 48.8683 448.879 48.363 449.44 47.9701C450.338 47.2964 450.338 47.1842 449.103 45.5563C447.419 43.2549 447.475 41.683 449.272 41.2339C451.124 40.7848 451.068 39.3254 449.047 37.4169C447.7 36.1258 447.475 35.5083 447.7 33.9927C447.981 32.2525 447.868 32.1402 445.286 31.1298C441.918 29.8387 435.463 29.8949 432.319 31.186C427.099 33.3751 424.629 38.1466 424.741 45.5563C424.853 49.3173 424.685 50.5522 424.011 51.1136C422.833 52.124 422.496 51.5627 423.169 49.7103C424.124 47.2403 423.955 39.7184 422.889 36.5187C421.598 32.6454 418.51 29.4458 415.198 28.6037C412.897 27.9863 412.56 27.6495 412.279 26.1339C411.942 24.3376 410.427 22.5974 408.182 21.4186C406.722 20.6888 402.456 20.6327 401.221 21.3625ZM407.396 23.271C408.911 24.113 410.82 26.4146 410.82 27.4811C410.82 28.716 408.631 28.3792 405.094 26.5829C402.961 25.5725 401.277 24.506 401.277 24.2815C401.277 22.4852 404.757 21.9238 407.396 23.271ZM451.236 88.5551C451.18 88.8358 450.9 89.5655 450.507 90.2392C449.889 91.3057 449.665 91.3619 448.486 90.6882L447.139 89.9585L448.767 89.1165C450.619 88.1061 451.236 87.9377 451.236 88.5551ZM434.845 97.4244C436.529 98.3225 438.887 98.9399 441.581 99.1645C443.771 99.3891 445.623 99.6697 445.623 99.782C445.623 100.007 438.831 113.591 438.55 113.928C438.269 114.265 430.186 105.508 430.018 104.666C429.906 104.161 430.298 103.88 430.972 103.88C431.926 103.88 432.095 103.599 431.87 102.589C431.365 100.063 431.309 96.021 431.87 96.021C432.039 96.021 433.386 96.6385 434.845 97.4244ZM456.008 100.343C457.131 100.849 457.916 101.578 457.804 101.859C457.636 102.196 455.447 108.707 452.921 116.342L448.317 130.263L445.23 125.042C443.546 122.236 441.525 119.092 440.796 118.082L439.448 116.285L443.658 107.809L447.925 99.3891H450.956C452.64 99.3891 454.885 99.782 456.008 100.343ZM428.109 134.305C428.334 134.81 419.745 151.706 419.408 151.369C419.296 151.257 419.745 149.854 420.363 148.282C421.092 146.373 421.71 142.781 422.103 138.234C422.44 134.305 422.833 130.768 422.945 130.319C423.113 129.814 423.955 130.263 425.583 131.722C426.874 132.901 427.997 134.024 428.109 134.305ZM428.839 140.086C427.267 142.219 425.976 143.735 425.976 143.567C425.976 143.342 426.93 141.321 428.053 138.964C429.849 135.371 430.242 134.866 430.916 135.539C431.589 136.213 431.309 136.887 428.839 140.086Z" fill="black"/>
    <path d="M320.051 41.1217C317.693 43.6477 316.626 51.0013 317.861 56.1657C318.367 58.1865 318.76 60.0951 318.76 60.4319C318.76 60.7687 317.412 61.4422 315.841 62.0036C314.213 62.5089 312.473 63.1263 312.023 63.2948C311.574 63.4632 311.855 62.958 312.641 62.2282C314.886 60.2635 316.234 57.9058 315.56 57.2322C314.437 56.1095 312.865 57.0077 311.462 59.646C310.676 61.1055 309.89 62.3966 309.778 62.5649C309.61 62.6773 309.497 60.0951 309.497 56.727C309.497 53.359 309.666 50.7768 309.89 50.8891C310.452 51.282 312.023 49.4296 312.023 48.363C312.023 46.0053 308.038 44.2652 302.088 44.0407C297.429 43.8162 297.429 43.8162 295.239 45.7808C293.443 47.4087 292.657 47.7456 290.524 47.7456C287.661 47.7456 286.314 48.6999 285.809 51.1698C285.528 52.5169 285.304 52.6853 283.956 52.4608C283.058 52.2362 281.711 52.5169 280.701 53.0222C279.016 53.8642 276.434 56.8954 276.94 57.4007C277.108 57.5129 276.715 58.9162 276.098 60.5441C275.48 62.1159 275.143 63.7999 275.312 64.249C275.48 64.6419 274.694 66.8312 273.571 69.0765C272.449 71.3219 271.663 73.2866 271.831 73.455C272.224 73.7918 272.168 73.9041 273.74 70.7606L274.975 68.2345L274.638 71.7149C274.301 74.9145 274.357 75.2513 275.761 76.6547C277.108 78.0019 277.164 78.1703 276.322 79.0685C274.806 80.528 273.74 83.6715 274.133 85.2994C274.357 86.0852 274.47 88.7235 274.47 91.0812C274.357 94.6738 274.526 95.4597 275.255 95.4597C275.705 95.4597 276.098 95.7965 276.098 96.1894C276.098 98.547 283.114 102.083 290.412 103.375L294.117 103.992L293.78 108.034C293.387 112.019 293.443 112.131 295.857 116.791L298.327 121.562L297.99 133.631L297.597 145.7L294.173 152.773C292.264 156.702 290.692 160.126 290.692 160.463C290.692 160.744 286.931 166.245 282.272 172.7C277.669 179.1 273.852 184.657 273.852 185.106C273.852 187.239 276.098 184.994 281.767 177.135C285.191 172.364 288.11 168.434 288.279 168.434C288.84 168.434 287.605 172.644 286.763 173.486C286.258 173.991 285.64 175.788 285.416 177.472C285.191 179.156 284.518 182.355 283.9 184.545C282.721 188.867 282.946 190.495 284.911 191.112C287.83 191.954 290.243 192.067 291.984 191.449C293.724 190.776 294.06 190.832 295.632 192.011C297.148 193.133 298.046 193.302 302.031 193.302C309.273 193.245 311.294 191.842 310.396 187.464C310.059 185.78 309.722 185.443 307.533 184.769C301.133 182.861 298.944 180.952 300.235 178.594C300.572 177.921 300.684 176.854 300.516 176.125C299.955 174.104 305.343 159.004 309.497 150.752C312.585 144.689 313.258 142.781 313.595 139.637L313.988 135.82L316.963 139.525L319.882 143.23L318.816 147.833C316.739 156.365 315.841 162.484 315.672 168.995C315.616 172.532 315.391 175.844 315.223 176.293C315.055 176.742 314.774 179.549 314.606 182.468C314.381 185.387 314.1 188.53 313.932 189.484C313.483 192.011 314.606 193.077 318.198 193.414C320.5 193.638 321.735 193.47 323.082 192.74C324.822 191.842 325.047 191.842 326.506 192.684C327.685 193.414 329.088 193.582 332.4 193.414C338.014 193.189 340.876 191.842 341.101 189.316C341.382 186.734 340.315 185.106 338.575 185.443C336.723 185.78 332.737 184.545 332.007 183.422C331.558 182.748 334.589 171.858 344.301 139.469C355.752 101.241 357.38 96.414 358.503 95.9649C359.176 95.6842 359.906 95.0106 360.13 94.5053C360.355 93.944 360.692 93.3827 360.86 93.2143C361.534 92.7091 361.983 89.341 361.422 89.0042C361.141 88.8358 361.029 87.9377 361.253 87.0395C361.534 85.5801 361.365 85.3555 360.355 85.3555C359.681 85.3555 359.008 85.7485 358.839 86.1975C358.615 86.6466 357.829 87.0395 356.987 87.0395C356.201 87.0395 354.91 87.5447 354.124 88.1622C353.058 89.0042 351.823 89.285 348.904 89.285C346.771 89.285 343.346 89.5656 341.213 89.9024C337.789 90.4638 337.172 90.4638 335.263 89.5094C333.186 88.499 333.074 88.2745 332.12 83.6715C331.558 81.0332 331.053 76.8792 330.941 74.4093C330.772 71.9394 330.492 69.4696 330.267 68.9082C329.537 67.168 330.941 66.2699 333.691 66.6628C335.993 66.9435 336.161 66.8874 336.723 65.3717C337.677 62.7895 338.631 60.9932 339.417 60.3758C339.978 59.9267 339.978 59.3653 339.249 57.6814C338.743 56.5025 338.519 54.9869 338.743 54.3694C338.912 53.6958 339.08 52.1801 339.08 50.8891C339.024 49.2611 339.361 48.4192 340.147 47.8578C341.157 47.128 341.718 45.6686 340.708 46.286C340.427 46.4545 340.091 45.8932 339.922 45.0511C339.754 44.1529 339.08 42.8619 338.463 42.076L337.34 40.7287L337.621 42.3567C337.789 43.2548 338.07 44.2652 338.238 44.602C338.407 44.9389 337.789 44.4336 336.779 43.5355C335.038 41.9637 334.702 41.8514 330.323 41.8514C326.899 41.8514 325.383 41.6269 324.261 40.8411C322.24 39.5499 321.454 39.6061 320.051 41.1217ZM308.375 46.2299C309.778 47.0158 310.62 47.914 310.62 48.5314C310.62 50.1593 309.273 50.2716 308.712 48.6999C308.375 47.914 307.645 47.128 307.028 46.9035C306.466 46.7351 305.624 46.2299 305.287 45.7808C304.221 44.4898 305.736 44.7143 308.375 46.2299ZM355.135 96.9753C354.966 97.5367 349.297 116.791 342.56 139.806C331.951 175.9 330.267 181.233 330.099 178.875C329.986 177.359 329.594 175.788 329.144 175.395C328.022 174.272 327.517 166.806 328.19 161.474C328.583 158.555 329.706 154.513 331.165 150.696C332.737 146.598 333.579 143.342 333.747 140.928C334.028 137.336 333.972 137.167 330.66 130.768C328.808 127.232 326.562 123.078 325.608 121.506L323.868 118.755L325.159 117.071C325.889 116.173 326.955 115.275 327.517 115.219C331.727 114.433 334.477 111.121 333.298 108.314C332.793 107.079 332.905 106.518 333.691 105.283C334.421 104.16 334.477 103.655 333.972 103.15C333.411 102.645 333.018 102.813 332.063 103.936C330.997 105.171 330.492 105.339 328.302 105.115C326.113 104.946 325.552 104.609 324.205 102.645L322.577 100.399L324.373 98.547C326.113 96.7507 326.225 96.7507 327.18 97.705C329.481 100.007 331.839 100.792 336.161 100.736C340.764 100.68 345.704 99.4452 349.633 97.3683C352.721 95.7403 355.527 95.5158 355.135 96.9753ZM324.541 112.075C325.047 112.244 325.496 112.524 325.496 112.749C325.496 113.366 322.801 116.566 322.577 116.229C322.464 116.061 321.566 114.826 320.5 113.479L318.591 111.065L321.061 111.458C322.408 111.626 323.98 111.963 324.541 112.075Z" fill="black"/>
    </g>
</svg>
