<svg viewBox="0 0 54 54" xmlns="http://www.w3.org/2000/svg">
<path d="M21.3642 30.6989C21.3591 30.4883 21.3901 30.2784 21.4558 30.0783C21.4652 30.0513 21.4796 30.0264 21.4983 30.0049C21.5086 29.9953 21.5233 29.9918 21.5368 29.9957C21.5684 30.0124 21.5974 30.0335 21.6228 30.0585C21.6347 30.0764 21.6392 30.0981 21.6355 30.1193C21.6316 30.1405 21.6238 30.1609 21.6127 30.1795C21.5333 30.3341 21.4633 30.4933 21.4032 30.6564C21.3986 30.667 21.3849 30.6766 21.3642 30.6989Z"/>
<path d="M22.7781 34.1092C22.7725 34.1209 22.7568 34.127 22.7457 34.1356C22.74 34.1232 22.7369 34.1097 22.7366 34.0961C22.8167 33.685 22.9711 33.292 23.1922 32.9363C23.2311 32.8746 23.2661 32.8108 23.3005 32.746C23.3047 32.7323 23.3047 32.7177 23.3005 32.704L23.3759 32.6868C23.3854 32.7293 23.396 32.7718 23.4078 32.8143C23.4271 32.8852 23.4524 32.954 23.4762 33.0229C23.4929 33.0735 23.5121 33.1176 23.5313 33.1682C23.5144 33.1931 23.4951 33.2164 23.4736 33.2375C23.1807 33.4736 22.9433 33.7712 22.7781 34.1092Z"/>
<path d="M23.6422 33.5783C23.6792 33.5276 23.7182 33.5276 23.7728 33.5783C23.7844 33.5872 23.7936 33.5989 23.7997 33.6122C23.8045 33.6252 23.8045 33.6396 23.7997 33.6527C23.7913 33.6645 23.7804 33.6744 23.7678 33.6815L23.4731 33.9027C23.4804 33.8742 23.4896 33.8461 23.5005 33.8187C23.5366 33.7325 23.5843 33.6516 23.6422 33.5783H23.6422Z"/>
<path d="M21.8167 33.7391C21.9156 33.5024 22.027 33.271 22.1503 33.0461C22.459 32.4875 22.7989 31.9467 23.1683 31.4262C23.1867 31.4045 23.2078 31.3852 23.2311 31.369C23.2336 31.369 23.2473 31.3726 23.2488 31.3771C23.2581 31.3963 23.2642 31.4168 23.267 31.4379C23.2726 31.6282 23.2767 31.819 23.2812 32.0094C23.2878 32.2363 23.318 32.462 23.3713 32.6826L23.2959 32.6999C23.2934 32.6852 23.2579 32.672 23.2392 32.6766C23.2248 32.6799 23.2106 32.6839 23.1967 32.6887C23.1415 32.708 23.0853 32.7252 23.0317 32.7479C22.7255 32.8745 22.4523 33.0693 22.2329 33.3174C22.1119 33.4551 21.9995 33.5994 21.8831 33.7406C21.8601 33.7781 21.8302 33.8109 21.795 33.8373C21.7778 33.8009 21.8041 33.7695 21.8167 33.7391Z"/>
<path d="M19.7878 30.4331C19.7468 30.4468 19.7068 30.4619 19.64 30.4837C19.6555 30.4613 19.6724 30.4398 19.6906 30.4194C19.9078 30.2448 20.1229 30.0676 20.3442 29.8975C20.4572 29.8162 20.5503 29.7102 20.6165 29.5877C20.6888 29.4515 20.7759 29.3237 20.8762 29.2065C20.8905 29.1896 20.9076 29.1752 20.9268 29.164C20.9399 29.1595 20.9543 29.1618 20.9653 29.1701C20.9838 29.1927 20.9995 29.2175 21.0119 29.244C21.0989 29.4383 21.2127 29.6194 21.35 29.7821C21.4037 29.8454 21.4006 29.8763 21.3576 29.938C21.3186 29.9912 21.2802 30.0448 21.2381 30.0954C21.0986 30.266 20.9864 30.4573 20.9056 30.6624C20.8014 30.9178 20.7168 31.1808 20.6525 31.4491C20.6443 31.4805 20.6373 31.5113 20.6297 31.5427C20.579 31.7493 20.5375 31.9568 20.4915 32.1639C20.4887 31.5993 20.5935 31.0394 20.8003 30.5141C20.822 30.4599 20.8438 30.4053 20.863 30.3501C20.8802 30.299 20.8556 30.2433 20.8063 30.2215C20.7937 30.2142 20.7803 30.2082 20.7663 30.2038C20.7025 30.1855 20.6348 30.1855 20.5709 30.2038C20.5196 30.215 20.4776 30.2519 20.4601 30.3015C20.4177 30.4337 20.3862 30.5691 20.3659 30.7065C20.3452 30.8295 20.3285 30.9525 20.3077 31.0755C20.3003 31.1049 20.2907 31.1336 20.2789 31.1615C20.2665 31.1431 20.2592 31.1219 20.2576 31.0998C20.2576 31.0775 20.2576 31.0562 20.2576 31.036C20.2433 30.8309 20.2557 30.6249 20.2946 30.423C20.2987 30.4033 20.3009 30.3833 20.3011 30.3632C20.2995 30.3253 20.2678 30.2956 20.2298 30.2964C20.201 30.3012 20.1726 30.3078 20.1447 30.3162C20.0237 30.3541 19.9058 30.3936 19.7878 30.4331Z"/>
<path d="M36.0576 27.658C36.0718 27.6832 36.084 27.7094 36.0941 27.7364C36.2333 28.1541 36.3446 28.5798 36.4484 29.0081C36.455 29.0364 36.4636 29.0648 36.4687 29.0936C36.4964 29.2455 36.5587 29.3889 36.6509 29.5128L36.5846 29.535C36.5727 29.519 36.5595 29.5039 36.5451 29.49C36.4879 29.4333 36.4241 29.3832 36.3644 29.329C36.3138 29.2845 36.2662 29.2404 36.2221 29.1918C36.1822 29.1476 36.1613 29.0894 36.1639 29.0298C36.1639 28.9858 36.1639 28.9418 36.1639 28.8977C36.1645 28.8094 36.1517 28.7215 36.1259 28.637C36.1016 28.5601 36.094 28.4791 36.0753 28.4016C36.0323 28.2275 36.0374 28.0518 36.0338 27.8762C36.0338 27.8033 36.0338 27.7299 36.0338 27.6575C36.0444 27.6575 36.0561 27.655 36.0576 27.658Z"/>
<path d="M42.9665 41.3132C42.9936 41.3099 43.0202 41.3036 43.0459 41.2945C43.1686 41.246 43.3006 41.2256 43.4322 41.2348C43.4686 41.2348 43.5051 41.2348 43.542 41.2348C43.7508 41.2318 43.9442 41.1249 44.0579 40.9498C44.0872 40.908 44.1141 40.8646 44.1384 40.8197C44.2263 40.6505 44.2961 40.4725 44.3464 40.2887C44.3492 40.2676 44.3453 40.2462 44.3353 40.2274C44.3272 40.2082 44.2847 40.2087 44.2568 40.2274C44.2204 40.2517 44.1839 40.2755 44.149 40.3023C43.7646 40.5946 43.3812 40.8875 42.9989 41.1811C42.976 41.1991 42.9554 41.2199 42.9376 41.2429C42.9296 41.2548 42.9271 41.2695 42.9305 41.2834C42.9346 41.294 42.9503 41.3006 42.9665 41.3132ZM40.6814 37.224C40.6814 37.2433 40.7092 37.2579 40.732 37.2549C40.7548 37.2519 40.7902 37.2483 40.8186 37.2428C41.099 37.1861 41.3805 37.1339 41.6594 37.0717C42.2896 36.9304 42.9153 36.7705 43.537 36.5963C43.9045 36.4951 44.2705 36.3857 44.636 36.2764C44.8531 36.2111 44.8521 36.2075 44.8461 35.9509C44.8461 35.9281 44.8461 35.8694 44.8369 35.8112C44.8283 35.7307 44.8116 35.6512 44.8061 35.5712C44.7885 35.3225 44.7573 35.0749 44.7124 34.8296C44.6756 34.6196 44.6032 34.4174 44.4983 34.2318C44.4428 34.1276 44.3644 34.0374 44.269 33.968C44.14 33.8675 43.9711 33.8337 43.8134 33.8769C43.6787 33.913 43.551 33.9716 43.4357 34.05C43.2155 34.197 43.0224 34.3812 42.8652 34.5942C42.7204 34.7967 42.5711 34.9992 42.4218 35.1976C41.9105 35.881 41.3719 36.5391 40.7391 37.1152C40.7217 37.1296 40.7066 37.1467 40.6946 37.1658C40.6854 37.1838 40.6809 37.2038 40.6814 37.224ZM36.581 29.5351L36.6474 29.5128C36.6767 29.5548 36.7091 29.5953 36.743 29.6348C36.8885 29.8004 37.0455 29.9556 37.2128 30.099C37.5277 30.3749 37.8598 30.6295 38.1898 30.8872C38.5199 31.1449 38.8479 31.402 39.1764 31.6627C39.4126 31.8496 39.6374 32.0504 39.8497 32.2641C39.9812 32.3927 40.0998 32.5337 40.204 32.6853C40.232 32.7282 40.2639 32.7686 40.2992 32.8058C40.3598 32.8714 40.4443 32.91 40.5336 32.9126C40.6217 32.9202 40.7104 32.9105 40.7948 32.8842C40.8707 32.8574 40.9467 32.8336 41.0221 32.8007C41.2109 32.7207 41.3992 32.6382 41.587 32.5547C41.76 32.474 41.9271 32.3813 42.0872 32.2773C42.2239 32.1912 42.3575 32.1006 42.4921 32.0125C42.6268 31.9244 42.7508 31.8445 42.8819 31.7635C43.0273 31.6779 43.1682 31.585 43.3041 31.485C43.4489 31.3717 43.6133 31.2859 43.7891 31.2319C43.9868 31.168 44.2016 31.1825 44.3889 31.2724C44.4556 31.3031 44.5198 31.3387 44.5813 31.3787C44.705 31.4582 44.8199 31.5507 44.924 31.6546C45.0379 31.7693 45.1664 31.8685 45.3062 31.9497C45.4379 32.03 45.5751 32.1009 45.7167 32.1619C45.7981 32.1954 45.8777 32.233 45.9552 32.2747C46.2255 32.4266 46.3662 32.6655 46.4007 32.9683C46.4138 33.0847 46.4153 33.2026 46.4168 33.3226C46.4199 33.5575 46.4168 33.7924 46.4351 34.0268C46.4452 34.1437 46.4396 34.2616 46.4411 34.3811C46.4442 34.5649 46.4411 34.7481 46.4513 34.9319C46.4604 35.1344 46.4781 35.3414 46.4928 35.5464C46.495 35.5609 46.4983 35.5751 46.5029 35.5889C46.518 35.6234 46.5552 35.6425 46.592 35.6345C46.6386 35.6122 46.6841 35.5895 46.7292 35.5652C46.8006 35.5262 46.8689 35.4826 46.9413 35.4472C47.2117 35.3092 47.5201 35.2645 47.8186 35.3201C47.9561 35.3445 48.0915 35.3797 48.2235 35.4254C48.4743 35.5096 48.7182 35.613 48.953 35.7347C49.2138 35.8722 49.4391 36.0684 49.6111 36.3078C49.7308 36.4756 49.8212 36.6625 49.8784 36.8606C49.9239 37.015 49.9771 37.167 50.0378 37.3162C50.4332 38.3119 50.8478 39.299 51.2963 40.2725C51.5048 40.7281 51.7266 41.173 51.9437 41.6225C51.9852 41.7081 52.0349 41.7901 52.0814 41.8731C52.2188 42.1079 52.3181 42.363 52.3755 42.6289C52.4059 42.8099 52.4059 42.9946 52.3755 43.1756C52.3381 43.3275 52.3117 43.4794 52.289 43.6312C52.2589 43.8423 52.2563 44.0563 52.2814 44.268C52.321 44.5956 52.38 44.9204 52.458 45.241C52.5244 45.5275 52.5628 45.8181 52.6099 46.1071C52.6163 46.1508 52.6187 46.1951 52.617 46.2392C52.6183 46.4154 52.639 46.591 52.6788 46.7627C52.7139 46.9871 52.7363 47.2135 52.7456 47.4405C52.7456 47.5281 52.7349 47.6161 52.7278 47.7037C52.7233 47.7619 52.7137 47.8202 52.7101 47.8789C52.6852 48.1638 52.6389 48.4463 52.5714 48.7242C52.5615 48.776 52.5236 48.8179 52.4732 48.8331C52.4402 48.8488 52.4051 48.8597 52.3689 48.8655C52.2447 48.8764 52.1195 48.8718 51.9964 48.8518C51.6947 48.7894 51.4005 48.6947 51.1191 48.5694C50.6859 48.3865 50.276 48.1527 49.8981 47.8728C49.8571 47.8419 49.8166 47.8105 49.7771 47.7776C49.6804 47.6957 49.6217 47.5776 49.6146 47.4511C49.6028 47.3414 49.6083 47.2306 49.6308 47.1226C49.6693 46.951 49.7032 46.7784 49.7351 46.6052C49.767 46.4321 49.7969 46.2737 49.8166 46.1066C49.8402 45.9464 49.8366 45.7833 49.806 45.6242C49.7849 45.5509 49.8197 45.473 49.8885 45.4399C49.9513 45.4014 50.0161 45.367 50.0788 45.3296C50.1416 45.2921 50.2201 45.2496 50.2854 45.203C50.3456 45.1613 50.4014 45.1134 50.4519 45.0603C50.604 44.9039 50.6606 44.6781 50.6002 44.4685C50.5647 44.3333 50.5089 44.2043 50.4347 44.0858C50.3886 44.0109 50.339 43.938 50.2869 43.8671C50.1734 43.7036 50.107 43.512 50.095 43.3133C50.0889 43.2546 50.0915 43.1959 50.0874 43.1371C50.0798 43.0273 50.0707 42.9179 50.0621 42.8081C50.0596 42.7787 50.0545 42.7499 50.0535 42.7205C50.0459 42.3662 49.9599 42.0235 49.851 41.6878C49.767 41.4302 49.6865 41.171 49.6045 40.9123C49.4199 40.3086 49.1801 39.7231 48.8882 39.1633C48.7094 38.834 48.4987 38.523 48.259 38.2349C48.1754 38.1325 48.0789 38.0413 47.9719 37.9636C47.7185 37.7824 47.4573 37.7706 47.1883 37.9282C47.0802 37.9907 46.9807 38.0669 46.8922 38.155C46.8361 38.2043 46.8118 38.2806 46.8289 38.3534C46.8755 38.5908 46.914 38.8297 46.9595 39.0672C46.9989 39.2458 47.0223 39.4276 47.0294 39.6103C47.0294 39.7055 47.0294 39.8012 47.0263 39.8963C47.0129 40.1329 46.9183 40.3577 46.7585 40.5327C46.6958 40.6045 46.6254 40.6698 46.5561 40.7351C46.3632 40.9265 46.1708 41.1178 45.9926 41.3239C45.7533 41.593 45.5447 41.8879 45.3705 42.2032C45.1376 42.638 44.8137 42.9934 44.4426 43.3108C44.4092 43.3391 44.3748 43.3665 44.3414 43.3948C44.154 43.5484 43.9779 43.7152 43.8144 43.8939C43.5701 44.1682 43.3055 44.4235 43.0227 44.6578C42.8921 44.7651 42.7549 44.8633 42.6177 44.9656C42.5221 45.0376 42.3958 45.0545 42.2846 45.0101C42.1361 44.964 42.0091 44.8663 41.9262 44.7348C41.8738 44.6549 41.8318 44.5686 41.8012 44.4781C41.7286 44.2702 41.6844 44.0534 41.6695 43.8337C41.6614 43.7163 41.6503 43.5993 41.6407 43.4824C41.6371 43.4383 41.6311 43.3948 41.6311 43.3508C41.6311 43.0501 41.6179 42.7489 41.6437 42.4482C41.6504 42.4044 41.645 42.3595 41.628 42.3186C41.6199 42.3014 41.5911 42.2832 41.5774 42.2897C41.5566 42.2961 41.5364 42.3044 41.5172 42.3145C41.4802 42.3388 41.4453 42.3652 41.4104 42.392C41.1573 42.5839 40.9077 42.7737 40.6586 42.9681C40.5441 43.0601 40.4152 43.1325 40.2769 43.1822C39.9798 43.2865 39.6832 43.3938 39.3885 43.5062C39.1461 43.5983 39.1314 43.5811 39.1268 43.8656C39.1268 43.9162 39.1157 43.9668 39.1096 44.0175C39.1035 44.0681 39.0949 44.1045 39.0919 44.1486C39.0666 44.4488 39.0257 44.7475 38.9694 45.0436C38.9017 45.419 38.8104 45.7897 38.696 46.1537C38.587 46.504 38.453 46.8461 38.2951 47.1773C38.287 47.1934 38.2678 47.2046 38.2475 47.2248C38.2144 47.071 38.1974 46.914 38.1969 46.7566C38.2017 46.6543 38.1911 46.552 38.1655 46.4529C38.1592 46.4318 38.1557 46.41 38.1549 46.3881C38.1513 46.1805 38.0946 45.9831 38.045 45.7836C38.0147 45.6632 37.9944 45.5401 37.9691 45.4181C37.9347 45.2455 37.9306 45.0689 37.8952 44.8962C37.8834 44.8239 37.876 44.7508 37.8729 44.6776C37.8552 44.4655 37.8446 44.2528 37.8112 44.0423C37.803 43.9693 37.7996 43.8959 37.801 43.8226C37.8028 43.7196 37.7926 43.6168 37.7707 43.5163C37.7642 43.4953 37.7604 43.4735 37.7595 43.4515C37.7541 43.2536 37.7355 43.0562 37.7038 42.8607C37.6892 42.7519 37.6811 42.6415 37.6659 42.5327C37.6416 42.403 37.6264 42.2717 37.6203 42.1399C37.6186 42.1032 37.6134 42.0667 37.6046 42.0311C37.596 42.0029 37.5897 41.9742 37.5859 41.945C37.5818 41.7931 37.5494 41.6413 37.5353 41.4894C37.5196 41.3062 37.4928 41.1249 37.47 40.9432C37.4507 40.7913 37.4507 40.6349 37.4087 40.4876C37.4036 40.4587 37.4016 40.4294 37.4026 40.4C37.4036 40.3634 37.4022 40.3267 37.3986 40.2902C37.3687 40.1241 37.3566 39.9556 37.3368 39.7885C37.3237 39.6792 37.311 39.5703 37.3004 39.4605C37.2872 39.3294 37.268 39.1988 37.2498 39.0677C37.2422 39.0094 37.231 38.9517 37.2285 38.893C37.2291 38.7682 37.2157 38.6437 37.1885 38.522C37.1801 38.4788 37.1771 38.4347 37.1794 38.3909C37.1821 38.2806 37.1702 38.1705 37.144 38.0633C37.1364 38.0347 37.1327 38.0053 37.1328 37.9758C37.1283 37.6892 37.0645 37.4078 37.0468 37.1223C37.043 37.0784 37.0368 37.0348 37.0281 36.9917C37.019 36.9637 37.0131 36.9349 37.0103 36.9056C37.022 36.6768 36.9501 36.4551 36.9531 36.2273C36.9545 36.1978 36.9528 36.1683 36.9481 36.1392C36.8899 35.8512 36.9005 35.554 36.8382 35.266C36.8303 35.2158 36.8271 35.1649 36.8286 35.1141C36.8275 35.0261 36.8185 34.9383 36.8018 34.8519C36.7892 34.7797 36.7824 34.7065 36.7815 34.6332C36.7816 34.5422 36.7721 34.4514 36.7532 34.3624C36.7423 34.3196 36.7362 34.2758 36.7349 34.2318C36.7293 34.0997 36.7153 33.9682 36.6929 33.8379C36.6689 33.6933 36.6552 33.5471 36.6519 33.4006C36.6492 33.3496 36.6429 33.2988 36.6332 33.2487C36.6239 33.2133 36.617 33.1772 36.6124 33.1409C36.6124 32.9703 36.5618 32.8078 36.5244 32.6443C36.4981 32.5522 36.4811 32.4578 36.4737 32.3623C36.4737 32.3117 36.4591 32.2611 36.452 32.2104C36.4449 32.1598 36.4368 32.0945 36.4297 32.0363C36.4282 31.9853 36.4226 31.9345 36.413 31.8844C36.3669 31.7184 36.3826 31.5493 36.376 31.3808C36.3716 31.3204 36.4026 31.2629 36.4555 31.2335C36.4677 31.2258 36.4798 31.2173 36.493 31.2107C36.6048 31.1555 36.6448 31.0588 36.6524 30.9419C36.659 30.8543 36.6707 30.7667 36.6818 30.6796C36.696 30.5704 36.7218 30.463 36.7587 30.3592C36.7992 30.2479 36.7956 30.1253 36.7486 30.0165C36.7088 29.9138 36.6775 29.808 36.655 29.7001C36.6431 29.6405 36.6184 29.5842 36.5826 29.5351L36.581 29.5351Z"/>
<path d="M22.3174 19.4745C22.416 19.525 22.5246 19.553 22.6353 19.5565C22.7967 19.5542 22.9556 19.5174 23.1016 19.4486C23.3722 19.3161 23.6161 19.1347 23.8209 18.9136C23.833 18.8963 23.8397 18.8759 23.8401 18.8548C23.8401 18.8346 23.8037 18.8184 23.7683 18.8245C23.7321 18.8295 23.6963 18.8366 23.6609 18.8457C23.4134 18.9131 23.1694 18.991 22.9274 19.074C22.7331 19.1397 22.5433 19.2184 22.3595 19.3094C22.328 19.3276 22.2979 19.3481 22.2693 19.3707C22.2577 19.3895 22.2577 19.4132 22.2693 19.4319C22.2834 19.4482 22.2996 19.4625 22.3174 19.4745ZM21.43 21.7018C21.3907 21.721 21.3528 21.743 21.3167 21.7676L21.3232 21.7626V21.7626C21.3333 21.7196 21.3567 21.681 21.3901 21.6522C21.7328 21.3444 22.117 21.11 22.568 20.9941C22.6754 20.9714 22.7848 20.9591 22.8945 20.9572C22.9455 20.9537 22.9962 20.9475 23.0464 20.9384C23.0585 20.9384 23.0692 20.9217 23.0778 20.9106C23.0866 20.8905 23.0815 20.867 23.0651 20.8524C22.9465 20.7426 22.8011 20.666 22.6434 20.6301C22.4939 20.5956 22.339 20.5913 22.1879 20.6175C22.0071 20.6458 21.8274 20.6752 21.6497 20.7187C21.6354 20.7195 21.621 20.7171 21.6077 20.7117C21.5915 20.7081 21.5986 20.6808 21.6224 20.661C21.755 20.535 21.8877 20.4079 22.0213 20.2839C22.1861 20.1274 22.3643 19.9857 22.5538 19.8602C22.5871 19.8441 22.614 19.8174 22.6303 19.7843C22.6359 19.7691 22.6257 19.7336 22.6105 19.7281C22.5899 19.7213 22.5688 19.7164 22.5473 19.7134C22.3514 19.7033 22.1798 19.6233 22.0122 19.5312C21.9881 19.5149 21.966 19.4959 21.9464 19.4745C21.8291 19.3636 21.7248 19.2398 21.6356 19.1054C21.5703 19.0082 21.5075 18.9095 21.4432 18.8113C21.4407 18.8073 21.4381 18.8037 21.4361 18.7997C21.4317 18.7922 21.4279 18.7844 21.4245 18.7764C21.4193 18.7645 21.4156 18.7521 21.4133 18.7394C21.4128 18.733 21.4128 18.7266 21.4133 18.7202L21.6118 18.912L21.8173 19.1115C21.8882 19.186 21.9675 19.2519 22.0537 19.3079C22.0863 19.3249 22.1257 19.3216 22.1549 19.2993C22.1661 19.2897 22.1782 19.2811 22.1884 19.271C22.2091 19.2502 22.2294 19.2284 22.2496 19.2072C22.7047 18.727 23.2167 18.3042 23.7743 17.9482C24.0274 17.7842 24.2876 17.6344 24.5443 17.4774C24.5915 17.4573 24.6335 17.4264 24.6668 17.3873C24.6713 17.3818 24.6733 17.3746 24.6724 17.3676C24.6658 17.3559 24.6577 17.3382 24.6476 17.3362C24.6188 17.3315 24.5896 17.3297 24.5605 17.3306L24.076 17.3306C23.9292 17.3276 23.7839 17.2992 23.6468 17.2466C23.4578 17.1799 23.2999 17.0463 23.2028 16.871C23.1799 16.8334 23.1595 16.7943 23.1416 16.754C23.1132 16.6872 23.0909 16.6179 23.0646 16.5516C23.0773 16.5343 23.0864 16.5369 23.0985 16.5516C23.1714 16.6529 23.2549 16.7463 23.3476 16.83C23.5323 17.0023 23.7754 17.0981 24.028 17.0983C24.0938 17.0983 24.1601 17.0983 24.2259 17.0947C24.2624 17.092 24.2986 17.0864 24.3342 17.078C24.3788 17.0689 24.4142 17.0375 24.4117 17.0132C24.4059 16.9836 24.3846 16.9594 24.356 16.9499C24.3104 16.9267 24.2613 16.91 24.2147 16.8892C24.1135 16.8436 24.0123 16.8006 23.9151 16.7505C23.8373 16.7092 23.7619 16.6636 23.6893 16.6138C23.6032 16.5568 23.5313 16.4808 23.4792 16.3916C23.4756 16.3796 23.4744 16.3671 23.4757 16.3546C23.5091 16.3521 23.5293 16.3769 23.5526 16.3921C23.779 16.5312 24.0391 16.606 24.3049 16.6082C24.5104 16.6114 24.7157 16.5945 24.9179 16.5576C25.1573 16.5202 25.3952 16.4766 25.6337 16.4346C25.6621 16.4284 25.6899 16.4196 25.7167 16.4083C25.7502 16.3907 25.7637 16.3497 25.7471 16.3157C25.7109 16.2507 25.6586 16.1961 25.5952 16.1572C25.4847 16.0839 25.3597 16.0352 25.2287 16.0145C24.8881 15.9575 24.541 15.9509 24.1985 15.9947C24.1479 16.0008 24.0973 16.0033 24.0507 16.0074C24.0355 15.9912 24.0366 15.9775 24.0538 15.9699C24.5458 15.7384 25.0533 15.541 25.5724 15.3792C25.9032 15.2802 26.2419 15.2102 26.5849 15.1701C26.6648 15.161 26.7463 15.1635 26.8268 15.1584C26.863 15.1558 26.8989 15.15 26.9341 15.1412C26.9469 15.1353 26.9564 15.124 26.96 15.1104C26.9648 15.0969 26.9637 15.082 26.9569 15.0693C26.9383 15.047 26.9162 15.0277 26.8916 15.0121C26.7375 14.9258 26.5658 14.8754 26.3895 14.8648C26.3166 14.8598 26.2427 14.8618 26.1693 14.8618H25.8149C25.8271 14.8476 25.8331 14.8314 25.8438 14.8279C26.1351 14.7268 26.4345 14.651 26.7387 14.6011C26.9129 14.5751 27.0883 14.5582 27.2642 14.5505C27.3596 14.5514 27.455 14.5577 27.5497 14.5692C27.5861 14.572 27.6227 14.572 27.659 14.5692C27.6727 14.5657 27.684 14.5562 27.6899 14.5434C27.6956 14.5305 27.6956 14.5158 27.6899 14.5029C27.5928 14.4026 27.4704 14.3303 27.3356 14.2938C27.2155 14.2596 27.0909 14.244 26.966 14.2478C26.9451 14.2466 26.9244 14.2421 26.9048 14.2346C26.9048 14.2346 26.9048 14.2174 26.9078 14.2149C26.9864 14.1741 27.0726 14.1503 27.1609 14.145C27.3658 14.1273 27.572 14.1334 27.7755 14.1632C27.8321 14.1792 27.8923 14.1776 27.9481 14.1587C27.9603 14.1515 27.9686 14.1392 27.9709 14.1253C27.9708 14.1115 27.9652 14.0983 27.9552 14.0888C27.9439 14.0796 27.931 14.0726 27.9172 14.068L27.7957 14.0174C27.5355 13.9161 27.2633 13.849 26.9858 13.818C26.7642 13.7935 26.5401 13.8255 26.3343 13.9111C26.1578 13.9847 25.9941 14.0858 25.8493 14.2108C25.7531 14.2903 25.658 14.3708 25.5623 14.4508C25.5565 14.455 25.5493 14.457 25.542 14.4563C25.5258 14.4538 25.5198 14.4416 25.5248 14.4249C25.5628 14.2835 25.6186 14.1474 25.6909 14.02C25.8751 13.6954 26.1931 13.4686 26.56 13.4004C26.7105 13.366 26.8643 13.348 27.0187 13.3467C27.2682 13.3467 27.5168 13.3507 27.7659 13.375C28.1602 13.414 28.555 13.4571 28.9524 13.4454C29.0405 13.4429 29.1286 13.4419 29.2162 13.4363C29.2526 13.433 29.2886 13.4259 29.3235 13.415C29.3487 13.4081 29.3688 13.3891 29.3772 13.3643C29.3855 13.3396 29.3809 13.3123 29.365 13.2915C29.3238 13.2302 29.2677 13.1804 29.202 13.1467C29.105 13.0941 28.9981 13.0624 28.8881 13.0536C28.7869 13.0465 28.6856 13.0293 28.5844 13.0237C28.4832 13.0182 28.3819 13.0202 28.2807 13.0192C28.2751 12.9969 28.2807 12.9848 28.2984 12.9797C28.5814 12.8931 28.8684 12.8435 29.1655 12.8931C29.2677 12.9067 29.3691 12.9256 29.4693 12.9498C29.505 12.9563 29.5413 12.9586 29.5776 12.9569C29.5851 12.9559 29.5916 12.9511 29.5948 12.9443C29.5989 12.9316 29.6065 12.9124 29.6004 12.9043C29.5708 12.8629 29.5383 12.8236 29.5032 12.7868C29.3088 12.5843 29.1215 12.3819 28.9464 12.1611C28.674 11.8238 28.4443 11.4542 28.2625 11.0606C28.1888 10.8926 28.1262 10.72 28.0752 10.5438C28.0372 10.4203 28.0347 10.3575 28.0564 10.3565C28.1207 10.3529 28.1648 10.3975 28.2133 10.4273C28.4199 10.5539 28.6249 10.683 28.8284 10.8146C29.0258 10.9422 29.2228 11.0677 29.4288 11.1826C29.769 11.3729 30.1394 11.5036 30.5237 11.5689L30.5455 11.5729C30.7298 11.6028 30.7779 11.579 30.8219 11.3836C30.8663 11.205 30.88 11.0201 30.8624 10.8369C30.8518 10.7498 30.8502 10.6612 30.8406 10.5742C30.8214 10.4066 30.8011 10.239 30.7784 10.072C30.7581 9.92721 30.7338 9.78243 30.7125 9.63765C30.7122 9.62303 30.7135 9.60841 30.7166 9.59412C30.7252 9.60525 30.7379 9.61487 30.7419 9.62702C30.8432 9.96416 30.9474 10.2998 31.035 10.6395C31.1126 10.9231 31.1467 11.2168 31.1363 11.5107C31.1355 11.5252 31.1355 11.5397 31.1363 11.5542C31.1354 11.5755 31.1471 11.5953 31.1661 11.6048C31.1959 11.613 31.2267 11.5959 31.2355 11.5663C31.2682 11.5014 31.2952 11.4336 31.316 11.3638C31.3666 11.1642 31.3768 10.9565 31.3458 10.7528C31.315 10.5726 31.2896 10.3914 31.2446 10.2178C31.2552 10.1985 31.2689 10.1985 31.276 10.2178C31.3327 10.3696 31.3904 10.5215 31.4425 10.6734C31.5456 10.9727 31.5829 11.2908 31.5519 11.6058C31.5488 11.6347 31.5473 11.664 31.5468 11.6929C31.5513 11.7309 31.5851 11.7584 31.6232 11.7552C31.7017 11.7379 31.7807 11.7212 31.8571 11.6969C32.0323 11.6413 32.2054 11.582 32.3795 11.5238C32.561 11.4635 32.7473 11.4188 32.9364 11.3902C33.192 11.3508 33.4535 11.3904 33.6861 11.5036C33.7458 11.5314 33.8035 11.5638 33.8632 11.5922C33.8993 11.6045 33.9389 11.5883 33.9559 11.5542C33.9913 11.4428 34.0242 11.3304 34.0571 11.2181C34.0637 11.1973 34.0718 11.1776 34.0799 11.1573C34.092 11.1385 34.114 11.1286 34.1361 11.132C34.1699 11.1446 34.2019 11.1617 34.2313 11.1826C34.3085 11.2503 34.3815 11.3227 34.45 11.3993C34.6251 11.6068 34.7947 11.8189 34.9663 12.029C35.0083 12.0796 35.0483 12.1303 35.0908 12.1809C35.1066 12.2018 35.1308 12.2148 35.157 12.2164C35.1832 12.2179 35.2088 12.2079 35.227 12.189C35.2943 12.1323 35.3601 12.0736 35.4249 12.0143L36.0035 11.4813C36.0481 11.4324 36.1027 11.3935 36.1635 11.3674C36.1604 11.373 36.157 11.3784 36.1534 11.3836C36.1371 11.4058 36.1227 11.4294 36.1103 11.454C35.9848 11.7111 35.8663 11.9713 35.7605 12.2376C35.6805 12.4426 35.6205 12.6548 35.5813 12.8714C35.5726 12.9293 35.5678 12.9879 35.5672 13.0465C35.566 13.0917 35.5885 13.1343 35.6264 13.1589C35.6801 13.1973 35.7357 13.2329 35.7929 13.2657C36.046 13.412 36.2992 13.5613 36.5588 13.7005C36.7613 13.8106 36.9655 13.9189 37.1714 14.0255C37.3772 14.1322 37.5824 14.239 37.7869 14.346C38.3944 14.6613 39.0018 14.9732 39.6042 15.2901C39.7676 15.3758 39.9297 15.4634 40.0907 15.5528C40.3607 15.7033 40.6253 15.8597 40.8845 16.0221C41.1342 16.1766 41.3757 16.3443 41.6079 16.5242C41.7584 16.6418 41.8998 16.7707 42.0305 16.91C42.1208 17.0067 42.2002 17.1129 42.2674 17.2269C42.3282 17.3279 42.3614 17.4431 42.3636 17.561C42.3663 17.7151 42.3558 17.8692 42.3322 18.0216C42.3085 18.1811 42.2816 18.34 42.2644 18.5005C42.2336 18.7988 42.1714 19.093 42.0791 19.3783C41.995 19.6451 41.8623 19.8941 41.6878 20.1128C41.6554 20.1528 41.6205 20.1908 41.5866 20.2297C41.5127 20.3222 41.4098 20.3872 41.2945 20.414C41.2662 20.4201 41.2393 20.4337 41.2115 20.4423C40.9934 20.5097 40.7904 20.6185 40.6136 20.7628C40.5392 20.8225 40.4704 20.8888 40.3934 20.9455C40.2583 21.0468 40.111 21.0974 39.9378 21.0468C39.8872 21.0321 39.8366 21.027 39.789 21.0093C39.5815 20.9308 39.4139 20.8068 39.339 20.5876C39.3161 20.5068 39.2407 20.4524 39.1568 20.456C38.9443 20.444 38.7311 20.4529 38.5204 20.4828C38.3402 20.5147 38.159 20.5395 37.9813 20.5841C37.8679 20.6134 37.7545 20.6443 37.6437 20.6813C37.4621 20.7407 37.2934 20.834 37.1466 20.9562C36.9053 21.1616 36.6211 21.3103 36.3148 21.3915C36.15 21.4286 35.9809 21.4434 35.8122 21.4355C35.5916 21.4359 35.3729 21.3938 35.1683 21.3115C35.0605 21.2637 34.9434 21.2407 34.8256 21.2442C34.7073 21.2485 34.594 21.2924 34.5036 21.3687C34.3504 21.4987 34.2562 21.6851 34.2424 21.8856C34.2285 22.0245 34.24 22.1648 34.2763 22.2997C34.4479 22.9522 34.6231 23.6037 34.8164 24.2496C35.0449 25.0314 35.3177 25.7996 35.6335 26.5504C35.7575 26.8399 35.8699 27.1345 35.9878 27.4276C35.9913 27.4339 35.9913 27.4415 35.988 27.4478C35.9846 27.4542 35.9783 27.4584 35.9711 27.459C35.9639 27.4597 35.9567 27.4577 35.9509 27.4535C35.9226 27.4304 35.8957 27.4057 35.8704 27.3795C35.8594 27.3625 35.8499 27.3446 35.842 27.3259C35.7752 27.2183 35.6638 27.1463 35.5383 27.1295C35.4578 27.1166 35.3754 27.1314 35.3044 27.1715C35.2579 27.1968 35.2283 27.245 35.227 27.298C35.2215 27.3638 35.2233 27.4301 35.2326 27.4955C35.2515 27.6188 35.2642 27.7429 35.2705 27.8675C35.2756 27.9263 35.2837 27.9845 35.2887 28.0427C35.3054 28.2254 35.351 28.4046 35.349 28.5894C35.3485 28.6261 35.3531 28.6628 35.3627 28.6982C35.4006 28.8349 35.3905 28.9746 35.392 29.1138C35.3919 29.2177 35.3535 29.3179 35.2842 29.3953C35.2506 29.4342 35.2129 29.4693 35.1718 29.5001C34.9918 29.6401 34.7876 29.7457 34.5694 29.8119C34.5064 29.8334 34.438 29.8334 34.375 29.8119C34.3609 29.8086 34.347 29.8042 34.3335 29.7987C34.1556 29.7118 33.9719 29.6372 33.7838 29.5755C33.7397 29.561 33.7092 29.5206 33.7073 29.4743C33.6906 29.2212 33.6061 28.9868 33.5555 28.7438C33.5184 28.6022 33.4917 28.458 33.4755 28.3125C33.4704 28.2396 33.4456 28.1682 33.44 28.0958C33.4128 27.8106 33.4192 27.5231 33.4593 27.2393C33.4699 27.174 33.4734 27.1082 33.4805 27.0424C33.4853 26.9694 33.4939 26.8968 33.5064 26.8247C33.5224 26.7447 33.5095 26.6617 33.4699 26.5903C33.4356 26.5149 33.364 26.4632 33.2816 26.4542C33.1937 26.4488 33.1069 26.4317 33.0234 26.4036C32.9504 26.3812 32.9034 26.3104 32.911 26.2345C32.9103 26.1905 32.919 26.1468 32.9364 26.1064C32.9706 26.0331 33.013 25.964 33.0629 25.9004C33.1024 25.8497 33.1424 25.7951 33.1768 25.7389C33.2681 25.601 33.2869 25.4275 33.2274 25.2732C33.1166 24.9846 33.0563 24.6819 32.9576 24.3903C32.9338 24.321 32.9156 24.2501 32.8938 24.1802C32.8821 24.1374 32.8853 24.0919 32.9029 24.0512C32.9074 24.0371 32.9128 24.0234 32.9191 24.0102C33.0872 23.6928 33.2188 23.3566 33.4163 23.0539C33.4626 22.979 33.5045 22.9014 33.5418 22.8216C33.5644 22.7757 33.5831 22.7279 33.5975 22.6788C33.6164 22.6069 33.6036 22.5302 33.5623 22.4684C33.5209 22.4065 33.4551 22.3654 33.3813 22.3553C33.2502 22.3381 33.1186 22.3275 32.987 22.3138C32.9467 22.307 32.912 22.2816 32.8934 22.2451C32.8748 22.2087 32.8746 22.1657 32.8928 22.1291C32.9085 22.087 32.9377 22.0514 32.9758 22.0278C33.0806 21.9772 33.1864 21.9266 33.2917 21.8734C33.3472 21.8533 33.4066 21.846 33.4654 21.8522C33.5464 21.8533 33.6267 21.8369 33.7007 21.8041C33.7209 21.7955 33.7404 21.7853 33.759 21.7737C33.8418 21.7203 33.8787 21.6181 33.8491 21.5241C33.8217 21.4563 33.7984 21.3869 33.7706 21.3186C33.7545 21.2769 33.7583 21.2302 33.7807 21.1915C33.7976 21.1578 33.8158 21.1259 33.8354 21.0959C33.8786 21.0344 33.8848 20.9542 33.8516 20.8868C33.8203 20.8255 33.8356 20.7506 33.8886 20.7066C33.8936 20.7015 33.8982 20.696 33.9032 20.6904C33.945 20.6484 33.9712 20.5934 33.9776 20.5345C33.9886 20.4537 34.029 20.3798 34.091 20.3269C34.1281 20.2913 34.1628 20.2532 34.1948 20.213C34.2369 20.1598 34.2459 20.0876 34.2181 20.0257C34.207 19.9986 34.1936 19.9726 34.1781 19.9478C34.0861 19.7888 33.98 19.6384 33.8612 19.4982C33.8374 19.4704 33.8106 19.4436 33.7893 19.4152C33.75 19.378 33.7443 19.3173 33.7762 19.2735C33.8438 19.1855 33.8805 19.0777 33.8805 18.9667C33.879 18.9129 33.9156 18.8656 33.968 18.8533C34.1892 18.787 34.3436 18.6316 34.492 18.4671C34.5608 18.3906 34.6286 18.3152 34.6975 18.2378C34.7215 18.2137 34.7319 18.1792 34.7251 18.1459C34.7182 18.1126 34.6951 18.0849 34.6636 18.0722C34.644 18.0624 34.6239 18.0538 34.6033 18.0464C34.5826 18.0398 34.5603 18.0373 34.539 18.0327C34.4175 18.0049 34.2956 17.9796 34.1751 17.9492C34.0682 17.9229 33.9679 17.8745 33.881 17.807C33.7421 17.6986 33.6144 17.5767 33.4998 17.443C33.349 17.2727 33.2071 17.0948 33.0746 16.91C32.9682 16.7606 32.8493 16.6204 32.7364 16.4756C32.6993 16.4308 32.6655 16.3835 32.6352 16.3339C32.4833 16.0646 32.2808 15.8302 32.093 15.5857C31.9958 15.4548 31.8535 15.3646 31.6936 15.3326C31.5866 15.3076 31.477 15.2954 31.3671 15.2961C31.2863 15.3007 31.2054 15.3007 31.1246 15.2961C30.8715 15.2723 30.629 15.328 30.387 15.3903C30.3071 15.4056 30.2322 15.4404 30.1689 15.4915C30.0008 15.57 29.8651 15.694 29.7133 15.7998C29.6315 15.8623 29.5592 15.9363 29.4986 16.0195C29.4576 16.0701 29.4192 16.1253 29.3822 16.18C29.2508 16.3693 29.2008 16.6035 29.2435 16.83C29.2658 16.9601 29.2896 17.0902 29.3204 17.2182C29.3812 17.4683 29.4166 17.7219 29.4526 17.9776C29.4527 17.985 29.4539 17.9923 29.4561 17.9993C29.5067 18.1193 29.4789 18.2099 29.365 18.2788C29.3372 18.3028 29.3157 18.3332 29.3022 18.3674C29.2789 18.4057 29.2737 18.4524 29.288 18.4949C29.3635 18.6974 29.3852 18.907 29.4065 19.1191C29.4113 19.2399 29.4846 19.3474 29.5953 19.396C29.6151 19.4051 29.6338 19.4167 29.6535 19.4274C29.6867 19.4442 29.711 19.4744 29.7204 19.5104C29.7313 19.5453 29.7402 19.5808 29.7472 19.6167C29.775 19.8232 29.8824 19.9857 30.0261 20.129C30.0676 20.1705 30.1122 20.2085 30.1552 20.249C30.2118 20.2971 30.2433 20.3685 30.2408 20.4428C30.2377 20.5092 30.2408 20.575 30.2408 20.6413C30.2396 20.7025 30.1933 20.7534 30.1324 20.7602C30.1252 20.7616 30.118 20.7624 30.1107 20.7628C29.8899 20.7542 29.6707 20.7739 29.4526 20.784C29.2243 20.7902 28.9974 20.7483 28.7864 20.661C28.7281 20.645 28.684 20.5973 28.6725 20.538C28.6664 20.5021 28.6502 20.4682 28.6431 20.4322C28.5864 20.132 28.4528 19.8632 28.2984 19.6035C28.2229 19.4675 28.104 19.3606 27.9608 19.2998C27.8438 19.2499 27.7178 19.2249 27.5907 19.2264C27.3085 19.227 27.0378 19.3385 26.8369 19.5367C26.6167 19.7547 26.4562 20.0256 26.3707 20.3234C26.3314 20.4423 26.3143 20.5673 26.3201 20.6924C26.3212 20.7216 26.319 20.7508 26.3135 20.7795C26.3109 20.81 26.2891 20.8355 26.2593 20.8428C26.0731 20.8711 25.9166 20.9688 25.7557 21.0549C25.6843 21.0928 25.6149 21.1343 25.5425 21.1703C25.251 21.3141 24.9948 21.5105 24.7427 21.7135C24.4415 21.9559 24.2487 22.2703 24.1196 22.6292C24.1053 22.6782 24.0884 22.7263 24.0689 22.7735C24.0086 22.9075 23.9731 23.0514 23.9642 23.1982C23.9627 23.2128 23.9627 23.2276 23.9642 23.2422C23.9773 23.3941 23.991 23.5485 24.0062 23.7019C24.0102 23.7454 24.0249 23.7884 24.0274 23.832C24.0504 24.1322 24.0445 24.4339 24.0097 24.733C23.99 24.8783 23.9728 25.0241 23.952 25.1689C23.9367 25.3223 23.9318 25.4765 23.9373 25.6306C23.9373 25.7409 23.9373 25.8508 23.9414 25.9611C23.9408 26.0348 23.9244 26.1075 23.8933 26.1742C23.8789 26.2005 23.8479 26.2129 23.8194 26.2036C23.8057 26.1975 23.792 26.193 23.7789 26.1864C23.699 26.1482 23.6289 26.0923 23.5739 26.0229C23.5087 25.9434 23.4331 25.8731 23.3491 25.8138C23.215 25.7126 23.0818 25.6068 22.9482 25.5035C22.9193 25.4812 22.891 25.4574 22.8601 25.4382C22.7623 25.3705 22.6402 25.3476 22.5245 25.3754C22.403 25.4043 22.2853 25.4471 22.1737 25.503C22.0289 25.5749 21.8923 25.6621 21.7662 25.7632C21.6978 25.8179 21.627 25.8705 21.5566 25.9237C21.5466 25.9284 21.5348 25.9265 21.5269 25.9188C21.519 25.9111 21.5167 25.8993 21.5212 25.8892C21.5891 25.6721 21.6818 25.4635 21.7976 25.2676C21.9522 25.0023 22.129 24.7504 22.326 24.5149C22.5047 24.3007 22.6885 24.0906 22.8697 23.8785C22.9416 23.795 23.0135 23.7115 23.0839 23.6254C23.1021 23.6025 23.1175 23.5775 23.1299 23.551C23.1349 23.5376 23.134 23.5227 23.1274 23.51C23.1192 23.4985 23.1065 23.491 23.0925 23.4893C23.0337 23.4871 22.9752 23.4976 22.9209 23.5201C22.8192 23.5625 22.7236 23.6183 22.6369 23.6862C22.5964 23.7176 22.5584 23.7525 22.5179 23.7834C22.5064 23.7897 22.4925 23.7897 22.4809 23.7834C22.4729 23.7717 22.4698 23.7573 22.4723 23.7434C22.4765 23.7218 22.4825 23.7007 22.4901 23.6801C22.5852 23.3945 22.7172 23.1225 22.8829 22.8712C23.055 22.6059 23.2504 22.3584 23.4463 22.1118C23.5146 22.0253 23.5799 21.9367 23.6463 21.8491C23.6577 21.8298 23.655 21.8053 23.6397 21.7889C23.6276 21.7813 23.6139 21.7764 23.5997 21.7747C23.5777 21.7743 23.5558 21.7767 23.5344 21.7818C23.5131 21.7863 23.4929 21.7955 23.4721 21.802C23.0276 21.9415 22.6321 22.205 22.3321 22.5614C22.2567 22.651 22.1838 22.7431 22.1094 22.8337C22.0826 22.8666 22.0451 22.8843 22.04 22.8696C22.0313 22.85 22.028 22.8283 22.0304 22.8069C22.0856 22.5934 22.1709 22.3889 22.2835 22.1994C22.3673 22.061 22.468 21.9334 22.5832 21.8198C22.6247 21.7788 22.6632 21.7342 22.7012 21.6902C22.716 21.6642 22.7134 21.6319 22.6946 21.6087C22.627 21.529 22.53 21.4802 22.4258 21.4735C22.2944 21.458 22.1613 21.4653 22.0324 21.4953C21.8272 21.5493 21.6259 21.6175 21.43 21.6993L21.43 21.7018Z"/>
<path d="M21.8198 32.7931C21.8218 32.8225 21.842 32.8476 21.8704 32.8558C21.8918 32.8571 21.9131 32.8528 21.9322 32.8432C21.9508 32.8316 21.9663 32.8156 21.9772 32.7966C22.0532 32.6731 22.1283 32.5487 22.2025 32.4235C22.2132 32.4045 22.2198 32.3835 22.2217 32.3618C22.2218 32.3476 22.2159 32.3341 22.2055 32.3245C22.1951 32.3148 22.1812 32.31 22.1671 32.3111C22.1531 32.3148 22.1406 32.3226 22.1311 32.3334C22.1059 32.3593 22.0728 32.3761 22.037 32.381L22.0466 32.3688C22.0719 32.3317 22.0837 32.2871 22.08 32.2423C22.08 32.2317 22.0643 32.2205 22.0542 32.2124C22.0441 32.2043 22.0395 32.2124 22.0329 32.2124C21.9989 32.2267 21.973 32.2555 21.9625 32.2909C21.9143 32.4259 21.8682 32.5634 21.8244 32.7035C21.8185 32.7329 21.8169 32.7631 21.8198 32.7931H21.8198ZM21.8198 31.8707C21.8123 31.9063 21.81 31.9428 21.8127 31.9791C21.8182 31.9999 21.8327 32.0173 21.8522 32.0265C21.8718 32.0357 21.8944 32.0357 21.9139 32.0266C21.9267 32.0196 21.9384 32.0109 21.9489 32.0008C22.0081 31.9264 22.0678 31.849 22.1235 31.7745C22.1324 31.7554 22.1343 31.7337 22.1291 31.7133C22.1261 31.6925 22.0921 31.69 22.0527 31.7072L21.9909 31.7376C22.0243 31.648 22.0481 31.5857 22.0699 31.524C22.0768 31.5033 22.0797 31.4815 22.0785 31.4597C22.0758 31.446 22.0671 31.4342 22.0547 31.4278C22.0409 31.4242 22.0261 31.4266 22.0142 31.4344C21.9959 31.4478 21.9809 31.465 21.9701 31.485C21.9078 31.6079 21.8575 31.7366 21.8198 31.8692V31.8707ZM12.8385 11.7025C13.0061 11.7197 13.1746 11.7324 13.3422 11.7501C13.6778 11.7845 14.0139 11.8174 14.349 11.8579C14.9606 11.9329 15.5716 12.0149 16.18 12.1111C16.9196 12.2285 17.6551 12.3642 18.3846 12.5348C20.2707 12.9814 22.1298 13.5349 23.953 14.1926C23.994 14.2078 24.036 14.2215 24.0775 14.2356C24.1274 14.2532 24.1822 14.2497 24.2294 14.226C24.2557 14.2129 24.28 14.1992 24.3073 14.185C24.5915 14.0311 24.8751 13.8769 25.1583 13.7223C25.2742 13.6591 25.3901 13.5953 25.5045 13.53C25.5356 13.5108 25.5653 13.4893 25.5931 13.4657C25.6091 13.4401 25.6055 13.4069 25.5845 13.3852C25.5045 13.3493 25.4256 13.3103 25.3441 13.2789C24.8515 13.0896 24.3544 12.9129 23.8548 12.7443C23.0428 12.4706 22.2234 12.2212 21.3966 11.9961C20.9579 11.8777 20.5175 11.7678 20.0754 11.6666C19.6259 11.5654 19.1738 11.4737 18.7212 11.3867C18.6281 11.3684 18.5339 11.3527 18.4403 11.336C18.296 11.3128 18.1517 11.2895 18.008 11.2621C17.8784 11.2383 17.7483 11.2171 17.6172 11.2039C17.4861 11.1908 17.3443 11.1477 17.2036 11.1497C17.1125 11.1174 17.0153 11.1224 16.9216 11.1077C16.8215 11.0864 16.72 11.0724 16.6179 11.0657C16.5888 11.0626 16.5599 11.0576 16.5313 11.051L16.3354 11.0252L16.1836 11.006C16.1183 10.9979 16.053 10.9888 15.9877 10.9817C15.937 10.9756 15.8864 10.9761 15.8358 10.966C15.6485 10.928 15.4556 10.9392 15.2693 10.8966C15.2475 10.8938 15.2255 10.8928 15.2035 10.8936C15.0056 10.887 14.8117 10.8359 14.6128 10.843C14.591 10.8401 14.5695 10.8354 14.5485 10.8288C14.5053 10.8204 14.4617 10.8145 14.4179 10.8111C14.2689 10.8108 14.1202 10.7979 13.9734 10.7726C13.9166 10.7642 13.8592 10.7606 13.8018 10.762C13.7396 10.762 13.7006 10.762 13.6662 10.762C13.5921 10.7549 13.5189 10.7823 13.4677 10.8364C13.2323 11.0682 12.9954 11.2986 12.759 11.5304C12.7398 11.5521 12.7228 11.5757 12.7084 11.6008C12.6972 11.6283 12.7069 11.6598 12.7317 11.6762C12.7663 11.6885 12.8021 11.6973 12.8385 11.7025V11.7025ZM12.1511 37.5667C12.1667 37.5762 12.1856 37.5787 12.2032 37.5735C12.2207 37.5682 12.2353 37.5559 12.2432 37.5393C12.2614 37.4887 12.2791 37.4432 12.2938 37.3941C12.5717 36.4054 12.8734 35.4244 13.2136 34.455C13.4708 33.7213 13.7477 32.9949 14.0443 32.2757C14.3058 31.6456 14.5849 31.023 14.8816 30.4078C15.2887 29.561 15.7434 28.738 16.2433 27.9425C16.9421 26.8466 17.7126 25.7982 18.5496 24.8039C19.0559 24.1965 19.5813 23.5996 20.1326 23.0291C20.4339 22.7176 20.736 22.4072 21.0387 22.0977C21.0797 22.0557 21.1212 22.0137 21.1653 21.9752C21.1969 21.9446 21.2329 21.9189 21.2721 21.8988L21.3581 21.8613C21.5895 21.7543 21.8305 21.6695 22.078 21.6082C22.1855 21.5834 22.2965 21.5778 22.406 21.5915C22.441 21.5985 22.475 21.6099 22.5072 21.6254C22.521 21.6312 22.5314 21.6428 22.5358 21.6571C22.5402 21.6713 22.5381 21.6868 22.53 21.6993C22.5067 21.7272 22.4834 21.7555 22.4581 21.7818C22.1301 22.1205 21.9519 22.531 21.876 22.9917C21.8733 23.0206 21.8752 23.0499 21.8816 23.0782C21.8897 23.1028 21.9084 23.1224 21.9325 23.1316C21.9567 23.1408 21.9837 23.1387 22.0061 23.1258C22.0294 23.1081 22.0509 23.0881 22.0704 23.0661C22.1357 22.9866 22.1984 22.9056 22.2632 22.8256C22.3895 22.6631 22.5299 22.5122 22.6829 22.3746C22.8704 22.2092 23.0868 22.0798 23.3212 21.9929C23.3293 21.9899 23.345 22.003 23.3552 22.0111C23.3653 22.0192 23.3577 22.0268 23.3552 22.0319C23.3045 22.1028 23.2504 22.1731 23.1962 22.2425C22.9849 22.5047 22.7939 22.7826 22.6247 23.0737C22.4879 23.317 22.3857 23.5782 22.321 23.8497C22.3153 23.8784 22.3129 23.9076 22.3139 23.9368C22.3172 23.9625 22.332 23.9853 22.3542 23.9987C22.3764 24.0121 22.4035 24.0146 22.4278 24.0056C22.454 23.9929 22.4787 23.9775 22.5017 23.9596C22.569 23.9024 22.6333 23.8421 22.7006 23.7859C22.734 23.7586 22.7725 23.7353 22.8044 23.7156C22.8297 23.7257 22.8343 23.7383 22.8216 23.7535C22.6353 23.9707 22.447 24.1863 22.2648 24.4055C22.0588 24.6456 21.8725 24.9019 21.7079 25.172C21.6155 25.322 21.5372 25.4803 21.474 25.6448C21.435 25.7477 21.3787 25.8432 21.3075 25.9272C20.9258 26.393 20.5537 26.8654 20.1913 27.3446C19.4934 28.2621 18.8441 29.2154 18.2459 30.2007C17.8469 30.8617 17.4853 31.5445 17.1626 32.2458C16.8147 33.0068 16.4984 33.7798 16.2139 34.5648C15.9777 35.2205 15.7632 35.883 15.5705 36.5522C15.4334 37.0316 15.3053 37.514 15.1909 37.999C15.0765 38.4839 14.9682 38.9704 14.878 39.4604C14.8739 39.482 14.8711 39.5038 14.8694 39.5257C14.8664 39.5554 14.8775 39.5848 14.8993 39.6052C14.9256 39.6322 14.9546 39.6565 14.9859 39.6776C15.0988 39.7464 15.2127 39.8138 15.3266 39.8801C15.7442 40.1256 16.1745 40.3483 16.6083 40.564C16.6412 40.5807 16.6741 40.5969 16.7095 40.6111C16.8194 40.6576 16.8584 40.6328 16.8796 40.524C16.9186 40.3215 16.9637 40.1226 17.0016 39.9206C17.0968 39.4093 17.2112 38.9016 17.3291 38.3943C17.4959 37.6799 17.6857 36.9712 17.8986 36.2682C18.2238 35.1783 18.615 34.1093 19.07 33.0669C19.3454 32.4417 19.6486 31.8307 19.9726 31.2299C20.0141 31.1529 20.0602 31.078 20.1002 31.0081C20.1245 30.998 20.1381 31.0026 20.1397 31.0193C20.1397 31.0486 20.1432 31.078 20.1447 31.1074C20.1462 31.1367 20.1473 31.1661 20.1483 31.1949C20.1545 31.283 20.1753 31.3694 20.21 31.4506C20.2253 31.476 20.2534 31.4908 20.2829 31.489C20.3027 31.484 20.3295 31.4744 20.3371 31.4587C20.3602 31.4132 20.3773 31.3649 20.3877 31.3149C20.4231 31.12 20.453 30.9241 20.4864 30.7292C20.5026 30.6354 20.5208 30.5419 20.5411 30.4488C20.5492 30.4205 20.5602 30.3932 20.574 30.3673C20.5945 30.3262 20.6409 30.3051 20.6854 30.3166C20.7081 30.3197 20.7284 30.3435 20.7228 30.3627C20.7127 30.3981 20.7031 30.4331 20.6904 30.4675C20.6084 30.6795 20.5416 30.897 20.4905 31.1185C20.456 31.2835 20.4272 31.4491 20.4034 31.6166C20.3768 31.8202 20.3627 32.0253 20.3614 32.2306C20.3614 32.2894 20.3513 32.3476 20.3487 32.4063C20.3437 32.5075 20.3391 32.6118 20.3381 32.7141C20.3406 32.7506 20.3469 32.7867 20.3568 32.8219C20.3691 32.849 20.3955 32.8668 20.4252 32.868C20.4551 32.8696 20.4831 32.8528 20.4955 32.8255C20.509 32.7995 20.5186 32.7717 20.5239 32.7429C20.5558 32.5551 20.5841 32.3668 20.6185 32.1795C20.6621 31.9441 20.7097 31.7097 20.7704 31.4779C20.8165 31.2977 20.8686 31.1195 20.9304 30.9433C21.0025 30.7119 21.1081 30.4923 21.2437 30.2913C21.2483 30.2859 21.2548 30.2824 21.2619 30.2817C21.2771 30.2817 21.2842 30.2934 21.2817 30.3111C21.2393 30.5646 21.2161 30.821 21.2123 31.078C21.212 31.1147 21.2152 31.1513 21.222 31.1873C21.2284 31.208 21.2393 31.227 21.2538 31.243C21.2823 31.2681 21.3255 31.2661 21.3515 31.2385C21.3814 31.1965 21.401 31.1481 21.4087 31.0972C21.4555 30.8669 21.5289 30.6429 21.6274 30.4295C21.6458 30.3898 21.6671 30.3516 21.6912 30.3151C21.6978 30.305 21.7206 30.2949 21.7287 30.2989C21.7464 30.308 21.7687 30.3237 21.7727 30.3404C21.7796 30.3689 21.7796 30.3985 21.7727 30.427C21.7611 30.4776 21.7439 30.5252 21.7277 30.5738C21.584 30.9968 21.4721 31.43 21.3931 31.8697C21.3865 31.9062 21.3804 31.9431 21.3743 31.9801C21.3536 32.1107 21.3267 32.2398 21.3055 32.3699C21.2903 32.4493 21.2877 32.5306 21.2979 32.6108C21.3013 32.6399 21.3209 32.6644 21.3485 32.6741C21.3854 32.681 21.4222 32.6614 21.4371 32.627C21.4427 32.6133 21.4482 32.5997 21.4528 32.586C21.4634 32.5506 21.4751 32.5156 21.4832 32.4802C21.5961 32.0005 21.7894 31.5434 22.0547 31.1281C22.0967 31.0772 22.1251 31.0164 22.1372 30.9514C22.1367 30.9372 22.1298 30.924 22.1185 30.9155C22.1054 30.9104 22.091 30.9104 22.078 30.9155C22.0644 30.9203 22.0525 30.9289 22.0435 30.9403C22.0208 30.9692 21.999 30.999 21.9793 31.0299C21.8303 31.2572 21.7024 31.4977 21.5971 31.7482C21.5728 31.8085 21.5464 31.8677 21.514 31.937C21.508 31.9132 21.5004 31.9011 21.5024 31.8905C21.5753 31.5386 21.6543 31.1889 21.7636 30.8456C21.8183 30.6705 21.878 30.4974 21.9372 30.3237C21.9504 30.2888 21.9663 30.2549 21.9848 30.2225C21.9944 30.2112 22.0085 30.2048 22.0233 30.2048C22.0381 30.2048 22.0522 30.2112 22.0618 30.2225C22.0758 30.239 22.0857 30.2586 22.0906 30.2797C22.0962 30.3303 22.0957 30.3809 22.0962 30.4315C22.0929 30.4762 22.1079 30.5202 22.1377 30.5535C22.1868 30.6079 22.2257 30.6707 22.2526 30.7388C22.2886 30.8107 22.3285 30.8806 22.3711 30.9494C22.3889 30.9723 22.4098 30.9926 22.4333 31.0096C22.4453 31.0176 22.46 31.0205 22.4741 31.0175C22.4882 31.0146 22.5005 31.0061 22.5083 30.994C22.5365 30.9105 22.5507 30.8229 22.5503 30.7348C22.5457 30.6909 22.5548 30.6468 22.5761 30.6082C22.5809 30.6031 22.5873 30.5998 22.5943 30.5991C22.5994 30.5991 22.609 30.6026 22.6095 30.6057C22.6137 30.6345 22.6164 30.6636 22.6176 30.6928C22.6176 30.8102 22.6176 30.9276 22.6176 31.0471C22.619 31.1056 22.6258 31.1639 22.6378 31.2212C22.6586 31.32 22.7366 31.3539 22.8191 31.3022C22.8697 31.2714 22.9147 31.2344 22.9654 31.2045C23.0216 31.171 23.0799 31.141 23.14 31.1149C23.1517 31.1099 23.1785 31.1296 23.1906 31.1438C23.2028 31.158 23.1982 31.1706 23.1992 31.1848C23.1989 31.192 23.1962 31.199 23.1916 31.2045C23.1846 31.2174 23.1759 31.2293 23.1658 31.24C22.9708 31.4293 22.7755 31.6181 22.5801 31.8064C22.5688 31.8155 22.5566 31.8235 22.5437 31.8302C22.529 31.8403 22.4991 31.8211 22.4931 31.8009C22.4827 31.7651 22.488 31.7266 22.5077 31.6951C22.5401 31.6444 22.5796 31.6024 22.613 31.5548C22.6382 31.5165 22.6308 31.4655 22.5958 31.4359C22.5037 31.3574 22.5037 31.3574 22.4652 31.2719C22.4611 31.2768 22.4577 31.2822 22.4551 31.2881C22.4338 31.3893 22.4809 31.4906 22.4551 31.5918C22.4293 31.693 22.4551 31.7816 22.4495 31.8768C22.4505 31.8987 22.4539 31.9204 22.4597 31.9416C22.4667 31.9585 22.4805 31.9717 22.4977 31.9781C22.5149 31.9844 22.5339 31.9833 22.5503 31.975C22.626 31.9282 22.6911 31.8659 22.7411 31.7923C22.74 31.7988 22.7383 31.8052 22.7361 31.8115C22.7271 31.8401 22.7147 31.8674 22.6991 31.893C22.6789 31.9274 22.6556 31.9608 22.6338 31.9942C22.45 32.2777 22.2739 32.5658 22.1083 32.8599C21.9343 33.1663 21.7811 33.4841 21.6497 33.811C21.6204 33.8861 21.5956 33.9629 21.5753 34.0409C21.5677 34.078 21.5846 34.1159 21.6173 34.135C21.6922 34.1917 21.6917 34.1922 21.6588 34.2707C21.513 34.6154 21.3677 34.9602 21.2351 35.31C20.9726 36.0031 20.7392 36.7058 20.535 37.4178C20.3383 38.1012 20.1657 38.7909 20.0172 39.4867C19.9286 39.9024 19.842 40.3185 19.7787 40.7391C19.7468 40.9492 19.7033 41.1573 19.6679 41.3668C19.6496 41.4752 19.6365 41.5845 19.6218 41.6933C19.6144 41.7461 19.6435 41.7973 19.6927 41.8179C19.7192 41.8305 19.7464 41.8416 19.7742 41.8513C19.9068 41.8943 20.0384 41.9414 20.1726 41.9778C20.4496 42.0532 20.7385 42.0742 21.0235 42.0396C21.6892 41.9591 22.2551 41.6721 22.7406 41.218C23.0071 40.9643 23.2352 40.6732 23.4179 40.3539C23.6796 39.8945 23.8745 39.4002 23.997 38.8859C24.0728 38.5873 24.1288 38.2841 24.1646 37.9782C24.1894 37.7606 24.2314 37.5424 24.2152 37.3201C24.2021 37.1445 24.1909 36.9658 24.1707 36.7937C24.1614 36.6983 24.1319 36.606 24.0841 36.5228C24.0608 36.4804 24.0207 36.4497 23.9737 36.4381C23.9266 36.4266 23.8769 36.4353 23.8366 36.4621C23.7738 36.502 23.7194 36.5535 23.6761 36.614C23.6017 36.7152 23.5268 36.8139 23.4589 36.9177C23.3476 37.0898 23.2418 37.266 23.1324 37.4401C23.0691 37.5414 23.0043 37.6426 22.9395 37.7438C22.9403 37.7298 22.9418 37.7157 22.9441 37.7018C22.9482 37.6756 22.9543 37.6497 22.9623 37.6244C22.9664 37.6107 22.9714 37.597 22.9765 37.5829C23.1498 37.1171 23.3611 36.6664 23.6083 36.2353C23.6595 36.1553 23.6985 36.0681 23.7242 35.9767C23.7365 35.9413 23.7236 35.9022 23.6928 35.881C23.6582 35.8652 23.6174 35.8733 23.5916 35.9012C23.5298 35.9625 23.4701 36.0263 23.4113 36.0916C23.3774 36.1295 23.3481 36.1716 23.3167 36.212C23.293 36.2394 23.2603 36.2573 23.2245 36.2627C23.2344 36.2486 23.2431 36.2337 23.2504 36.2181C23.2742 36.1675 23.2873 36.1169 23.3066 36.0637C23.4522 35.6557 23.6671 35.2759 23.9419 34.9409C24.0077 34.8625 24.0785 34.7891 24.1443 34.7106C24.1816 34.6715 24.1816 34.61 24.1443 34.5709C24.0965 34.5049 24.0278 34.457 23.9495 34.4347C23.8514 34.4039 23.7479 34.394 23.6457 34.4059C23.472 34.4308 23.3008 34.4714 23.1344 34.5274C23.0788 34.5456 23.0246 34.5694 22.9684 34.5835C22.9283 34.5912 22.8877 34.5956 22.8469 34.5967L22.9284 34.5425C22.9588 34.5223 22.9897 34.5026 23.0205 34.4828C23.3101 34.2952 23.5998 34.1079 23.8897 33.9209C23.9267 33.8971 23.9662 33.8774 24.0051 33.8566C24.0326 33.8447 24.0645 33.8501 24.0866 33.8703C24.1175 33.9017 24.1474 33.9341 24.1767 33.9665C24.3022 34.1115 24.4605 34.2245 24.6384 34.296C24.6592 34.3036 24.6779 34.3158 24.6987 34.3228C24.8252 34.3664 24.8799 34.4626 24.9011 34.5876C24.9123 34.66 24.931 34.7309 24.9477 34.8022C24.9739 34.9094 25.0212 35.0103 25.0869 35.0989C25.1893 35.2461 25.3566 35.3346 25.5359 35.3363C25.7088 35.3496 25.8742 35.2637 25.9627 35.1146C26.055 34.981 26.1096 34.825 26.1206 34.663C26.1287 34.5243 26.149 34.3856 26.1626 34.2469C26.1656 34.1869 26.1951 34.1312 26.2431 34.0951C26.3676 34.0044 26.4962 33.9174 26.6213 33.8298C26.6484 33.8165 26.6812 33.8241 26.6997 33.848C26.7392 33.9184 26.7752 33.9908 26.8182 34.0591C26.8804 34.1604 26.9432 34.2581 27.0136 34.3517C27.1183 34.4861 27.1721 34.6532 27.1654 34.8235C27.1657 34.9928 27.1547 35.1619 27.1325 35.3297C27.1042 35.5041 27.1042 35.6818 27.1325 35.8562C27.1545 36.0089 27.1642 36.1631 27.1614 36.3173C27.1633 36.3466 27.1616 36.376 27.1563 36.4049C27.1209 36.5477 27.1108 36.694 27.086 36.8382C27.0741 36.8806 27.0667 36.924 27.0637 36.9678C27.0703 37.1379 27.0293 37.3029 27.0131 37.4705C26.9969 37.6381 26.9711 37.8051 26.9528 37.9732C26.9437 38.0532 26.9392 38.1336 26.9371 38.2146C26.9346 38.3468 26.9371 38.4789 26.9371 38.611C26.9376 38.7358 26.928 38.8604 26.9083 38.9836C26.8858 39.1215 26.8858 39.2622 26.9083 39.4002C26.9159 39.4508 26.9275 39.5014 26.9306 39.5521C26.9327 39.6545 26.9464 39.7564 26.9716 39.8558C26.9816 39.8986 26.987 39.9424 26.9878 39.9864C26.9946 40.0455 26.9776 40.1048 26.9407 40.1514C26.8552 40.2622 26.7923 40.3886 26.7554 40.5235C26.7402 40.5741 26.725 40.6217 26.7048 40.6698C26.6649 40.788 26.6107 40.9009 26.5433 41.0059C26.4279 41.1683 26.3677 41.3636 26.3717 41.5628C26.3717 41.5845 26.3717 41.6068 26.3717 41.6286C26.3726 41.761 26.3466 41.8922 26.2953 42.0143C26.2765 42.0649 26.2548 42.109 26.2381 42.1571C26.1874 42.3029 26.1368 42.4481 26.1393 42.6066C26.1363 42.665 26.1285 42.7231 26.1161 42.7802C26.1066 42.8157 26.1005 42.8519 26.0978 42.8885C26.1049 43.0374 26.0563 43.1786 26.0386 43.3239C26.0249 43.4483 25.9865 43.5688 25.9257 43.6782C25.8321 43.8412 25.8103 44.0255 25.7647 44.2022C25.7588 44.2311 25.7601 44.2609 25.7683 44.2892C25.807 44.4687 25.8253 44.6519 25.823 44.8354C25.8238 44.953 25.8348 45.0702 25.8559 45.1858C25.8829 45.3452 25.8815 45.5082 25.8518 45.6672C25.812 45.9132 25.7752 46.1599 25.7415 46.4073C25.7163 46.5516 25.6994 46.6973 25.6908 46.8436C25.6301 47.1382 25.6149 47.4404 25.539 47.7325C25.5304 47.7756 25.5304 47.82 25.539 47.8631C25.5663 48.0221 25.5982 48.1805 25.6271 48.3395C25.6498 48.462 25.6741 48.584 25.6908 48.7075C25.7 48.7744 25.7267 48.8376 25.7683 48.8908C25.7906 48.9206 25.8123 48.95 25.8331 48.9804C25.8593 49.0161 25.8729 49.0595 25.8721 49.1039C25.8728 49.1845 25.8689 49.2651 25.8604 49.3453C25.8404 49.4909 25.8304 49.6378 25.8306 49.7847C25.8306 49.9366 25.8306 50.093 25.8306 50.2469C25.83 50.291 25.8316 50.3351 25.8356 50.379C25.8378 50.4399 25.8785 50.4926 25.9369 50.5101C26.1287 50.5582 26.311 50.6362 26.5079 50.6706C26.6887 50.7008 26.8718 50.7147 27.0551 50.7121C27.334 50.7121 27.6119 50.7121 27.8919 50.7121C27.9794 50.7121 28.067 50.7268 28.1546 50.7349C28.2644 50.745 28.3743 50.7536 28.4836 50.7663C28.6441 50.784 28.8041 50.8068 28.9645 50.8245C29.0956 50.843 29.2288 50.8389 29.3584 50.8123C29.5153 50.7754 29.6732 50.742 29.8302 50.704C29.9115 50.6867 29.9759 50.6247 29.9962 50.5441C30.0798 50.2698 30.1131 49.9827 30.0944 49.6967C30.0857 49.616 30.0568 49.5389 30.0104 49.4724C29.9525 49.3872 29.878 49.3147 29.7912 49.2593C29.6289 49.1462 29.4672 49.0317 29.3062 48.9156C29.181 48.8257 29.0506 48.7431 28.916 48.668C28.8676 48.6434 28.8412 48.5898 28.8512 48.5364C28.8513 48.5071 28.8558 48.4779 28.8643 48.4498C28.9063 48.338 28.9028 48.2185 28.9281 48.1041C28.9408 48.039 28.9422 47.9722 28.9321 47.9067C28.9013 47.6819 28.877 47.4561 28.8036 47.239C28.7661 47.1276 28.7367 47.0142 28.7069 46.9003C28.6788 46.8018 28.6556 46.702 28.6375 46.6011C28.6011 46.3602 28.6325 46.1314 28.7894 45.9339C28.8843 45.8123 28.9533 45.6723 28.9919 45.5229C29.0091 45.4591 29.0314 45.3968 29.0506 45.3336C29.0944 45.2225 29.0825 45.0973 29.0187 44.9964C28.9574 44.9012 28.956 44.7792 29.0152 44.6826C29.1114 44.4927 29.202 44.2999 29.3073 44.1151C29.4251 43.9038 29.5266 43.6838 29.611 43.457C29.6657 43.3133 29.7229 43.17 29.7846 43.0293C29.8566 42.8845 29.9034 42.7286 29.9228 42.5681C29.9293 42.5018 29.9566 42.4393 30.0008 42.3894C30.0296 42.3555 30.059 42.3231 30.0853 42.2882C30.2047 42.1374 30.2701 41.951 30.2711 41.7587C30.2711 41.4853 30.3247 41.219 30.3678 40.9512C30.3875 40.8282 30.4184 40.7067 30.4336 40.5837C30.4511 40.4671 30.4479 40.3484 30.424 40.2329C30.4132 40.1979 30.4057 40.162 30.4017 40.1256C30.3844 39.8838 30.3871 39.641 30.4098 39.3997C30.4296 39.2471 30.44 39.0934 30.4412 38.9395V38.8099C30.4629 38.8034 30.4746 38.8099 30.4807 38.8266C30.5768 39.0649 30.698 39.2923 30.8421 39.505C30.9823 39.7287 31.1149 39.9575 31.2471 40.1848C31.2904 40.2533 31.3195 40.3297 31.3326 40.4096C31.3675 40.6627 31.4703 40.8875 31.5898 41.1077C31.6105 41.1461 31.6338 41.1836 31.6566 41.2216C31.7492 41.3734 31.853 41.5142 32.0196 41.5951C32.0348 41.6057 32.0448 41.6222 32.047 41.6406C32.0492 41.659 32.0435 41.6775 32.0312 41.6913C31.994 41.7264 31.9546 41.759 31.9133 41.789C31.8454 41.8324 31.7871 41.8891 31.7416 41.9556C31.6626 42.0803 31.6221 42.2256 31.6252 42.3732C31.6252 42.4097 31.6338 42.4461 31.6379 42.4825C31.6656 42.7457 31.6639 43.011 31.6328 43.2738C31.598 43.5802 31.5887 43.8891 31.605 44.1971C31.605 44.2042 31.605 44.2118 31.605 44.2189C31.6321 44.4103 31.5818 44.6047 31.4653 44.759C31.4392 44.7946 31.4174 44.8332 31.4005 44.8739C31.3076 45.0811 31.2353 45.297 31.1848 45.5183C31.1738 45.5759 31.1679 45.6344 31.1671 45.693C31.1671 45.7882 31.1671 45.8838 31.1671 45.979C31.1691 46.2585 31.1154 46.5355 31.0092 46.794C30.974 46.8826 30.9454 46.9736 30.9236 47.0663C30.8788 47.2374 30.8788 47.4172 30.9236 47.5883C30.9863 47.8452 31.0132 48.1096 31.0036 48.3739C30.9985 48.7556 30.9995 49.1373 30.996 49.519C30.997 49.6512 31.0076 49.7831 31.0279 49.9138C31.041 50.0653 31.1505 50.1909 31.2987 50.2246C31.3762 50.2479 31.4563 50.2612 31.5371 50.2641C31.7131 50.2644 31.889 50.2756 32.0636 50.2975C32.1803 50.3117 32.2983 50.3138 32.4154 50.3036C32.6437 50.2915 32.871 50.3092 33.0978 50.3168C33.1489 50.3208 33.1997 50.3286 33.2497 50.3401C33.5462 50.3932 33.8491 50.4018 34.1482 50.3654C34.2651 50.3512 34.3821 50.3431 34.4995 50.3375C34.6904 50.3284 34.8807 50.3218 35.0715 50.3178C35.1451 50.3143 35.2174 50.2971 35.2847 50.2672C35.4467 50.2053 35.5596 50.0567 35.5757 49.884C35.5894 49.7818 35.5874 49.6782 35.5697 49.5767C35.5344 49.367 35.4814 49.1608 35.4112 48.9601C35.4036 48.9394 35.3955 48.9191 35.3859 48.8988C35.3637 48.8436 35.3201 48.7997 35.2649 48.7774C35.148 48.7348 35.031 48.6918 34.9106 48.6533C34.7714 48.6083 34.6301 48.5693 34.4904 48.5243C34.377 48.4908 34.275 48.4267 34.1958 48.339C34.0826 48.2201 34.03 48.056 34.053 47.8935C34.0534 47.8862 34.0542 47.8789 34.0556 47.8717C34.1062 47.7234 34.0637 47.5802 34.0222 47.4399C33.9572 47.2067 33.8764 46.9782 33.7802 46.756C33.7559 46.7024 33.7356 46.6477 33.7149 46.5925C33.6909 46.5293 33.7029 46.4581 33.7463 46.4062C33.7727 46.3707 33.8015 46.3368 33.8323 46.305C33.9143 46.2199 33.9674 46.1111 33.9842 45.9942C33.9994 45.9077 34.0232 45.8229 34.0551 45.7411C34.1511 45.4778 34.1701 45.1926 34.1097 44.919C34.0993 44.8764 34.0969 44.8323 34.1026 44.7889C34.1366 44.594 34.1776 44.4001 34.2115 44.2052C34.2342 44.0671 34.2981 43.939 34.3947 43.8377C34.6651 43.5517 34.8093 43.2044 34.8913 42.8253C34.942 42.5878 34.9602 42.3464 35.0027 42.108C35.009 42.0644 35.0121 42.0204 35.0118 41.9763C35.0111 41.8881 35.0216 41.8002 35.0432 41.7146C35.0498 41.6936 35.0538 41.6718 35.0548 41.6498C35.0579 41.4651 35.1095 41.2879 35.1338 41.1067C35.1557 40.9244 35.1651 40.7409 35.1622 40.5574C35.1622 40.4764 35.1566 40.3959 35.1561 40.3154C35.1569 39.9922 35.1107 39.6706 35.0189 39.3607C34.9852 39.2559 34.9653 39.1472 34.9597 39.0372C34.9546 38.8671 34.8939 38.7072 34.8635 38.5417C34.822 38.3179 34.745 38.1033 34.6919 37.8836C34.6425 37.7147 34.6156 37.5401 34.6119 37.3642C34.6102 37.291 34.6013 37.2181 34.5856 37.1465C34.5358 36.8717 34.524 36.5913 34.5506 36.3133C34.5588 36.1815 34.5588 36.0493 34.5506 35.9174C34.5506 35.8587 34.541 35.8 34.5395 35.7413C34.5295 35.424 34.4183 35.1182 34.2221 34.8685C34.1467 34.7673 34.0728 34.6661 34.0034 34.5648C33.9422 34.4732 33.8915 34.375 33.8313 34.2829C33.7366 34.1381 33.7301 33.9791 33.7478 33.8156C33.7539 33.7722 33.7658 33.7298 33.7832 33.6896C33.902 33.3668 33.986 33.0324 34.0338 32.6918C34.0418 32.6338 34.043 32.575 34.0373 32.5167C34.0316 32.449 33.9903 32.3895 33.929 32.3602C33.8784 32.3334 33.8217 32.3142 33.7685 32.2894C33.7263 32.2714 33.7031 32.2257 33.7134 32.181C33.764 31.9517 33.8146 31.7224 33.8607 31.4931C33.8713 31.4425 33.8759 31.3918 33.884 31.3412C33.8937 31.3129 33.9208 31.2942 33.9508 31.2952C34.0925 31.3306 34.2348 31.366 34.3765 31.4025L34.5891 31.4587C34.8179 31.514 35.056 31.5197 35.2872 31.4754C35.3454 31.4658 35.4031 31.4571 35.4618 31.4531C35.5298 31.4482 35.5939 31.4848 35.6243 31.5457C35.6793 31.6414 35.7173 31.7459 35.7367 31.8545C35.774 32.0117 35.791 32.1729 35.7873 32.3344C35.7832 32.3851 35.7852 32.4361 35.7934 32.4863C35.841 32.7318 35.8395 32.9829 35.8881 33.2279C35.9022 33.2998 35.9058 33.3737 35.9154 33.4461C35.923 33.5043 35.9321 33.5625 35.9402 33.6202C35.9483 33.6779 35.9569 33.7215 35.9594 33.7721C35.9592 33.8602 35.9704 33.948 35.9929 34.0333C35.9979 34.0471 36.0008 34.0616 36.0015 34.0763C36.0015 34.2611 36.046 34.4403 36.0647 34.6225C36.0789 34.7612 36.1022 34.8989 36.1209 35.0366C36.1273 35.0728 36.1317 35.1093 36.1341 35.1459C36.1313 35.2709 36.145 35.3956 36.1746 35.517C36.1786 35.5311 36.1803 35.5458 36.1796 35.5605C36.1741 35.8546 36.2455 36.1432 36.2429 36.4378C36.2463 36.614 36.2609 36.7899 36.2865 36.9643C36.3016 37.0955 36.3098 37.2275 36.3113 37.3596C36.308 37.5212 36.3197 37.6827 36.3462 37.8421C36.3553 37.9074 36.3589 37.9735 36.3568 38.0395C36.3599 38.1716 36.3502 38.3052 36.3659 38.4353C36.3934 38.6463 36.4103 38.8585 36.4166 39.0712C36.4672 39.3086 36.4672 39.5531 36.5213 39.79C36.5365 39.8533 36.5294 39.9216 36.5411 39.9864C36.5968 40.2901 36.6347 40.5938 36.693 40.8976C36.702 40.9406 36.7077 40.9843 36.7102 41.0282C36.7107 41.1164 36.7224 41.2042 36.7451 41.2894C36.751 41.3105 36.7544 41.3323 36.7552 41.3542C36.7658 41.6114 36.816 41.864 36.8479 42.1181C36.8713 42.2555 36.8857 42.3943 36.8909 42.5337C36.8901 42.5558 36.8922 42.5779 36.897 42.5995C36.938 42.7514 36.9309 42.9032 36.9364 43.0586C36.9395 43.1391 36.9501 43.2196 36.9577 43.2996C36.9694 43.3795 36.9768 43.4599 36.98 43.5405C36.9842 43.7753 37.0025 44.0096 37.0346 44.2422C37.0589 44.4684 37.0822 44.6942 37.1161 44.919C37.1577 45.1944 37.2113 45.4677 37.2564 45.7426C37.2847 45.9157 37.3191 46.0883 37.3328 46.264C37.3335 46.2859 37.3357 46.3077 37.3394 46.3293C37.39 46.5667 37.3981 46.8102 37.4482 47.0471C37.4508 47.2309 37.5059 47.4085 37.511 47.5928C37.511 47.6581 37.5394 47.7219 37.5454 47.7872C37.5552 47.9262 37.5735 48.0645 37.6001 48.2013C37.616 48.2893 37.5912 48.3797 37.5328 48.4473C37.3158 48.7345 37.0811 49.0079 36.8301 49.2659C36.3913 49.7101 35.9115 50.1118 35.397 50.4656C34.6761 50.9594 33.9127 51.3883 33.116 51.7473C32.4552 52.0511 31.7813 52.32 31.0942 52.5542C30.6297 52.7133 30.1543 52.8386 29.6717 52.9294C29.4627 52.9683 29.2551 53.0174 29.045 53.0422C28.878 53.0625 28.7119 53.0929 28.5439 53.1065C28.3758 53.1202 28.1946 53.148 28.0179 53.1506C27.7714 53.2012 27.5208 53.1825 27.2717 53.1931C27.1472 53.1981 27.0232 53.2068 26.8987 53.2159C26.7302 53.2288 26.5609 53.2288 26.3925 53.2159C26.2462 53.2042 26.0999 53.1951 25.9531 53.1916L25.5987 53.1855C25.4887 53.1899 25.3786 53.1811 25.2707 53.1592C25.2491 53.1544 25.227 53.1518 25.2049 53.1516C24.9918 53.1475 24.7807 53.1273 24.5691 53.101C24.4526 53.0878 24.3342 53.0949 24.2203 53.062C24.0431 53.062 23.8715 53.0164 23.6958 53.0048C23.5718 52.9972 23.4493 52.9698 23.3258 52.9542C23.0646 52.9197 22.8049 52.8752 22.5452 52.8276C22.2357 52.7709 21.9268 52.7101 21.6183 52.6454C21.0235 52.5198 20.4328 52.375 19.8466 52.2161C18.9971 51.9856 18.1585 51.7213 17.3307 51.4233C16.7713 51.2209 16.217 51.0083 15.6708 50.7764C14.8525 50.4315 14.0523 50.0451 13.2733 49.6187C11.5153 48.6507 9.88309 47.4699 8.41365 46.103C7.78957 45.5238 7.19534 44.9132 6.63329 44.2736C5.51021 42.9921 4.51546 41.6037 3.66331 40.1281C3.22493 39.3724 2.82654 38.5953 2.46155 37.7995C1.96081 36.7055 1.53149 35.5802 1.17627 34.4307C0.940033 33.6673 0.737547 32.8945 0.568808 32.1122C0.483764 31.7178 0.405806 31.3225 0.343036 30.9241C0.306082 30.6928 0.263559 30.4619 0.229137 30.2301C0.205344 30.0706 0.19117 29.9096 0.17244 29.7497C0.149661 29.5528 0.125868 29.3563 0.103595 29.1599C0.0970139 29.1017 0.0924582 29.043 0.0873958 28.9848C0.0782839 28.8835 0.0686658 28.7823 0.06006 28.678C0.0539855 28.6046 0.0474048 28.5317 0.0443673 28.4583C0.0362679 28.268 0.0357617 28.0766 0.00893202 27.8873C0.00217178 27.8288 -0.000534513 27.77 0.000832579 27.7111C0.000832698 27.1239 0.000832698 26.5367 0.000832698 25.9495C-0.00120077 25.8988 0.000491402 25.8481 0.00589492 25.7976C0.0289924 25.6007 0.0420023 25.4027 0.0448731 25.2044C0.0479108 25.1385 0.0560103 25.0727 0.0625912 25.0074C0.0656284 24.9781 0.0742342 24.9492 0.0747404 24.9199C0.0777776 24.7067 0.118275 24.4972 0.133968 24.2851C0.144092 24.1534 0.163835 24.0228 0.18459 23.8922C0.226099 23.6169 0.265078 23.341 0.315193 23.0671C0.377964 22.7209 0.450353 22.3766 0.51768 22.0319C0.637148 21.427 0.786481 20.8296 0.946446 20.2348C1.17256 19.3911 1.43427 18.5589 1.73159 17.7382C2.02688 16.9238 2.35373 16.1225 2.71213 15.3341C3.18168 14.3053 3.71352 13.306 4.30469 12.3419C4.90591 11.3579 5.58471 10.4235 6.33462 9.54757C6.59785 9.24182 6.87188 8.94534 7.15672 8.65815C8.46662 7.34038 9.8876 6.13789 11.4039 5.06401C12.3875 4.36944 13.4126 3.73566 14.4736 3.1662C15.657 2.52863 16.8861 1.97974 18.1507 1.52404C19.069 1.19229 20.0055 0.913583 20.9557 0.689281C21.5201 0.55716 22.0866 0.436174 22.6596 0.346574C23.014 0.29089 23.3683 0.229637 23.7262 0.188128C24.0841 0.146618 24.4405 0.106627 24.7994 0.0813161C25.1072 0.0595488 25.4149 0.0468933 25.7227 0.0266445C26.3757 -0.0163839 27.0288 0.00538343 27.6818 0.00639588C28.0326 0.0418311 28.3859 0.0337318 28.7367 0.0706854C28.9483 0.092959 29.1615 0.0985273 29.3731 0.125357C29.6712 0.163323 29.9714 0.18914 30.2691 0.230144C30.6032 0.276716 30.9368 0.331387 31.2688 0.389602C31.5867 0.445623 31.9035 0.507382 32.219 0.574878C32.9517 0.731467 33.6752 0.921636 34.3897 1.14538C35.3367 1.43964 36.2663 1.78747 37.1739 2.18718C37.8451 2.4845 38.5032 2.80864 39.1481 3.15962C39.9415 3.59193 40.7111 4.06305 41.457 4.57298C42.366 5.1948 43.2366 5.87098 44.064 6.59785C44.6883 7.14557 45.2865 7.71929 45.8585 8.31898C46.7295 9.23396 47.5387 10.2059 48.2808 11.2282C48.8158 11.9653 49.32 12.7226 49.7827 13.5062C51.0266 15.6159 51.9404 17.9034 52.4925 20.2895C52.5937 20.7183 52.6818 21.1501 52.7557 21.5824C52.8028 21.8567 52.8433 22.1321 52.8863 22.4075C52.9314 22.6976 52.9521 22.9902 53.0007 23.2797C53.0093 23.3303 53.0063 23.381 53.0109 23.4316C53.0184 23.5197 53.0276 23.6067 53.0367 23.6943C53.0367 23.709 53.0433 23.7232 53.0443 23.7378C53.0615 23.9869 53.0822 24.2355 53.0949 24.4845C53.1075 24.7336 53.1035 24.9831 53.1313 25.2322C53.1413 25.35 53.1449 25.4683 53.142 25.5866C53.142 25.8289 53.142 26.0712 53.142 26.3135C53.142 26.5114 53.1364 26.7093 53.1202 26.9073C53.1025 27.1194 53.105 27.3325 53.0969 27.5456C53.0969 27.6185 53.0888 27.6919 53.0832 27.7648C53.0741 27.8822 53.0648 27.9993 53.0554 28.1161C53.0478 28.2037 53.0397 28.2913 53.0316 28.3788C53.0316 28.4006 53.0235 28.4224 53.0235 28.4441C53.0235 28.6578 52.9785 28.8668 52.9643 29.0794C52.9547 29.2257 52.9349 29.371 52.9137 29.5163C52.8868 29.7188 52.8595 29.9213 52.8276 30.1238C52.7841 30.3986 52.74 30.6735 52.6899 30.9479C52.6393 31.2142 52.5851 31.4799 52.532 31.7457C52.4155 32.3278 52.2789 32.9059 52.127 33.4795C51.9198 34.252 51.6868 35.0164 51.4279 35.7726C51.4183 35.7995 51.4066 35.8233 51.395 35.8562C51.3859 35.845 51.3783 35.8395 51.3788 35.8359C51.393 35.7711 51.4077 35.7073 51.4234 35.6431C51.5222 35.2296 51.6083 34.8134 51.6815 34.3942C51.7165 34.1917 51.763 33.9892 51.7914 33.7868C51.8268 33.5337 51.8784 33.2805 51.9017 33.0274C51.9154 32.8756 51.9443 32.7237 51.965 32.5718C51.9731 32.5136 51.9782 32.4549 51.9848 32.3967C51.9934 32.3238 52.0015 32.2514 52.0101 32.1785C52.0146 32.1421 52.0222 32.1056 52.0232 32.0692C52.0278 31.9294 52.0551 31.7918 52.0612 31.6531C52.0749 31.3524 52.1255 31.0542 52.1199 30.7525C52.1183 30.7018 52.1207 30.651 52.127 30.6006C52.1526 30.3745 52.1636 30.1469 52.1599 29.9193C52.1619 29.464 52.1619 29.0084 52.1599 28.5525C52.1634 28.3102 52.1523 28.068 52.1265 27.8271C52.1164 27.7471 52.1204 27.6656 52.1174 27.5851C52.1181 27.4309 52.107 27.2769 52.084 27.1244C52.0774 27.0809 52.0743 27.0369 52.0749 26.9928C52.0737 26.8753 52.0634 26.758 52.044 26.642C52.0349 26.5914 52.0339 26.5408 52.0298 26.4901C52.0257 26.4395 52.0298 26.4021 52.0222 26.3585C51.9999 26.1763 51.9761 25.9951 51.9529 25.8128C51.9336 25.661 51.9169 25.5091 51.8951 25.3572C51.8627 25.132 51.8309 24.9072 51.7939 24.6835C51.7463 24.4091 51.6886 24.1362 51.642 23.8624C51.5762 23.4939 51.4902 23.1299 51.4036 22.7664C51.181 21.8467 50.9106 20.9392 50.5937 20.0475C50.3385 19.3277 50.0542 18.6198 49.7407 17.9239C49.3735 17.1073 48.9653 16.3096 48.5177 15.5341C48.4777 15.4647 48.4347 15.3959 48.3891 15.3316C48.3672 15.2906 48.3203 15.2697 48.2752 15.281C48.168 15.3066 48.0578 15.3171 47.9477 15.3124C47.8818 15.3143 47.8163 15.3221 47.7518 15.3357C47.638 15.3642 47.5205 15.3746 47.4035 15.3665C47.3596 15.3636 47.3155 15.3677 47.2729 15.3787C47.2084 15.394 47.1414 15.3952 47.0765 15.3822C47.0482 15.375 47.0187 15.3738 46.9899 15.3787C46.8679 15.406 46.7424 15.3989 46.6194 15.4258C46.4963 15.4526 46.3733 15.4597 46.2508 15.4814C46.0924 15.5093 45.9324 15.5321 45.774 15.5574C45.5644 15.5913 45.3548 15.6252 45.1458 15.6612C44.9579 15.6936 44.7706 15.7265 44.5839 15.7624C44.3252 15.813 44.067 15.8677 43.8093 15.9224C43.1857 16.0545 42.5666 16.2038 41.9531 16.3754L41.7339 16.4367C41.6922 16.433 41.653 16.4152 41.623 16.3861C41.1622 16.0459 40.6783 15.7384 40.1747 15.4658L40.1509 15.4526C40.037 15.3893 39.9231 15.3255 39.8102 15.2607C39.7996 15.2516 39.7915 15.2399 39.7864 15.2268C39.7799 15.2147 39.8011 15.1904 39.8264 15.1818C39.8609 15.1696 39.8958 15.1575 39.9307 15.1473C40.2344 15.0623 40.5382 14.9747 40.8419 14.8942C41.4235 14.7373 42.0133 14.6178 42.6061 14.512C43.0323 14.4361 43.4601 14.3693 43.8903 14.3161C44.2032 14.2772 44.516 14.2351 44.8294 14.1982C45.0319 14.1744 45.2384 14.1577 45.4434 14.139C45.6039 14.1243 45.7649 14.1126 45.9253 14.0959C45.9685 14.0886 46.0108 14.0772 46.0519 14.062C46.0713 14.051 46.0822 14.0295 46.0797 14.0073C46.0736 13.9865 46.0653 13.9663 46.0549 13.9471C45.8882 13.6879 45.7208 13.4292 45.5528 13.1711C45.5406 13.1529 45.5267 13.136 45.5112 13.1205C45.4824 13.0855 45.4369 13.0689 45.3923 13.0769C45.2278 13.1174 45.0551 13.0921 44.8911 13.1402C44.8294 13.1579 44.757 13.1402 44.6942 13.1559C44.5297 13.1979 44.3596 13.1898 44.1941 13.2263C44.0518 13.2576 43.904 13.2632 43.7587 13.2819C43.6352 13.2981 43.5127 13.3199 43.3897 13.3381C43.2161 13.3639 43.0424 13.3887 42.8688 13.4171C42.6451 13.4525 42.4218 13.4956 42.1986 13.5345C41.9961 13.5695 41.7936 13.5998 41.5911 13.6383C41.2874 13.696 40.9872 13.7552 40.687 13.8211C40.2147 13.9223 39.7434 14.0316 39.2772 14.1592C38.9876 14.2389 38.6977 14.3178 38.4075 14.3961C38.3868 14.4017 38.366 14.4108 38.3447 14.4159C38.2735 14.4365 38.197 14.4285 38.1316 14.3936C38.0349 14.343 37.9357 14.2923 37.838 14.2417C37.6335 14.1374 37.4295 14.0323 37.226 13.9263C36.9025 13.7568 36.5811 13.5841 36.2642 13.4044C36.1366 13.3326 36.0111 13.2581 35.884 13.1832C35.8729 13.1771 35.8673 13.1604 35.8617 13.1473C35.8562 13.1341 35.8774 13.1073 35.8987 13.0992C35.9124 13.0941 35.926 13.0886 35.9402 13.0845C35.9959 13.0668 36.0521 13.0491 36.1083 13.0339C37.1011 12.7405 38.1082 12.4982 39.1258 12.308C39.8978 12.1637 40.6733 12.0371 41.4519 11.9344C41.976 11.8669 42.5001 11.7994 43.0242 11.7319C43.2358 11.7056 43.4479 11.6899 43.6595 11.6666C43.7542 11.656 43.8483 11.6403 43.9425 11.6246C43.9597 11.6188 43.9737 11.6059 43.9809 11.5892C43.988 11.5725 43.9877 11.5535 43.9799 11.537C43.9639 11.5126 43.9458 11.4895 43.9258 11.4682C43.7233 11.2657 43.5208 11.0632 43.3183 10.8607C43.3031 10.845 43.2859 10.8313 43.2677 10.8167C43.2332 10.7886 43.1896 10.7744 43.1452 10.7767C43.1378 10.7756 43.1303 10.7756 43.1229 10.7767C42.9154 10.8298 42.6972 10.7898 42.4902 10.8486C42.4613 10.8539 42.4319 10.856 42.4026 10.8546C42.3732 10.8528 42.3438 10.8528 42.3145 10.8546C42.1044 10.887 41.8913 10.8906 41.6817 10.9245C41.6311 10.9331 41.5805 10.9361 41.5299 10.9407C41.4858 10.9413 41.4419 10.9445 41.3982 10.9503C41.2902 10.9705 41.181 10.9837 41.0712 10.9898C40.9037 11.006 40.7376 11.0343 40.5706 11.0576C40.5346 11.0627 40.4982 11.0693 40.4617 11.0713C40.3814 11.0766 40.3014 11.0867 40.2223 11.1017C40.0704 11.1275 39.9186 11.1427 39.7667 11.1624C39.6285 11.1801 39.4913 11.2014 39.3536 11.2206C39.1871 11.2444 39.021 11.2712 38.8545 11.2966C38.7455 11.3124 38.637 11.3293 38.529 11.3472C38.4065 11.3689 38.285 11.3978 38.1625 11.417C37.8446 11.4677 37.5287 11.5304 37.2128 11.5927C36.9091 11.6519 36.6115 11.7197 36.3103 11.7815C36.2677 11.7901 36.2262 11.8073 36.1832 11.8144C36.1619 11.8167 36.1404 11.8115 36.1224 11.7997C36.1048 11.7855 36.1003 11.7605 36.1118 11.741C36.129 11.7005 36.1467 11.66 36.165 11.62C36.1948 11.5557 36.2257 11.492 36.2546 11.4272C36.2622 11.412 36.2693 11.3963 36.2763 11.3806C36.2946 11.3406 36.3092 11.2991 36.327 11.2576C36.3382 11.2215 36.3239 11.1823 36.292 11.1619C36.2611 11.1425 36.2217 11.1425 36.1908 11.1619C36.1619 11.1837 36.1326 11.2059 36.1057 11.2307L35.4512 11.8306C35.3813 11.8954 35.3103 11.9592 35.2381 12.022C35.221 12.0356 35.2014 12.0458 35.1804 12.0518C35.1666 12.0565 35.1515 12.055 35.1389 12.0478C35.1115 12.0241 35.0862 11.998 35.0634 11.9698C34.9298 11.8038 34.8007 11.6342 34.6635 11.4717C34.5623 11.3543 34.455 11.2449 34.3487 11.1335C34.2979 11.08 34.2372 11.0368 34.17 11.0065C34.1331 10.9887 34.0904 10.9875 34.0526 11.003C34.0147 11.0186 33.9853 11.0495 33.9715 11.088C33.9581 11.1219 33.9464 11.1566 33.9366 11.1918C33.9174 11.255 33.8997 11.3183 33.8799 11.3816C33.8742 11.3992 33.8613 11.4135 33.8444 11.421C33.8274 11.4284 33.8081 11.4283 33.7913 11.4206C33.764 11.4094 33.7372 11.3973 33.7108 11.3846C33.5567 11.3157 33.3921 11.2734 33.2239 11.2596C33.1435 11.2504 33.0624 11.2516 32.9824 11.2631C32.7643 11.2912 32.5495 11.3405 32.341 11.4105C32.1815 11.4656 32.0211 11.5157 31.8606 11.5684C31.8328 11.577 31.8049 11.5866 31.7766 11.5932C31.755 11.5984 31.7322 11.5943 31.7138 11.5819C31.6954 11.5695 31.6831 11.5499 31.6799 11.5279C31.6763 11.3811 31.6738 11.2348 31.6738 11.088C31.6749 11.05 31.6983 11.0162 31.7336 11.0019C31.7801 10.9802 31.828 10.9613 31.8768 10.9452C32.9176 10.6081 33.9685 10.3054 35.0366 10.0664C35.6395 9.93179 36.247 9.82042 36.8544 9.72475C37.2969 9.6554 37.7403 9.59111 38.1848 9.53694C38.5418 9.49374 38.899 9.45375 39.2564 9.41697C39.5632 9.38525 39.8701 9.3574 40.1772 9.33344C40.4628 9.31117 40.7478 9.27978 41.0343 9.27877C41.0933 9.27998 41.152 9.26877 41.2064 9.24587C41.2305 9.22781 41.2365 9.19417 41.2201 9.16892C41.1948 9.14286 41.1674 9.11898 41.138 9.09755C40.8991 8.93961 40.6632 8.77711 40.4202 8.62676C39.6957 8.18049 38.9468 7.77489 38.1772 7.41185C37.1099 6.9063 36.0081 6.47697 34.8802 6.12706C34.3203 5.9536 33.7547 5.80055 33.1833 5.66793C32.829 5.58541 32.4686 5.51049 32.1081 5.4462C31.8925 5.40773 31.6768 5.3647 31.4587 5.3404C31.3068 5.32319 31.1549 5.28978 31.0031 5.26852C30.96 5.26143 30.9155 5.26143 30.872 5.25637C30.8137 5.24979 30.756 5.24169 30.6978 5.2346C30.6396 5.22752 30.5814 5.21638 30.5232 5.21385C30.4424 5.21505 30.3618 5.20604 30.2832 5.18702C30.2622 5.18062 30.2404 5.17721 30.2184 5.1769C29.9466 5.1769 29.6793 5.10957 29.4085 5.12324C29.3577 5.12606 29.3068 5.12317 29.2566 5.11463C29.0971 5.08934 28.9356 5.07867 28.7742 5.08274C28.2892 5.08274 27.8046 5.08274 27.3203 5.08274C27.2028 5.08216 27.0854 5.09046 26.969 5.10754C26.8963 5.11702 26.8231 5.12192 26.7498 5.12222C26.6177 5.11949 26.4857 5.13103 26.356 5.15665C26.3273 5.16323 26.2979 5.16629 26.2684 5.16576C26.1435 5.16243 26.0188 5.17571 25.8974 5.20524C25.8611 5.21027 25.8246 5.21247 25.788 5.21182C25.7151 5.21942 25.6422 5.22904 25.5698 5.23865C25.541 5.2422 25.5121 5.2503 25.4833 5.25283C25.213 5.27611 24.9472 5.32825 24.6799 5.37331C24.4344 5.41482 24.1914 5.46595 23.9469 5.51454C23.5951 5.5844 23.2468 5.67046 22.899 5.76056C22.0839 5.97434 21.2816 6.23428 20.496 6.53913C20.0237 6.72086 19.5585 6.9198 19.0989 7.13241C18.6635 7.33186 18.2358 7.54515 17.8156 7.77227C17.0968 8.15562 16.4012 8.58108 15.7325 9.04642C15.6905 9.07578 15.6495 9.10716 15.6095 9.13906C15.5842 9.15534 15.5695 9.18391 15.5711 9.21397C15.5741 9.24131 15.6095 9.2646 15.6546 9.2727C15.6834 9.27624 15.7128 9.27978 15.7422 9.2813C16.0722 9.29548 16.4002 9.33192 16.7293 9.36685C17.0431 9.39875 17.3575 9.42811 17.6708 9.46253C18.2327 9.52429 18.7931 9.59617 19.353 9.67362C19.8693 9.74483 20.3843 9.82447 20.898 9.91255C22.1635 10.1287 23.4194 10.4031 24.6475 10.7893C25.5081 11.0607 26.3595 11.3639 27.1918 11.7162C27.5228 11.8564 27.8499 12.0058 28.1779 12.1536C28.3976 12.2548 28.3707 12.2624 28.5894 12.1667C28.6224 12.1523 28.6562 12.1398 28.6907 12.1293C28.7196 12.1195 28.7516 12.1274 28.7727 12.1495C28.9463 12.348 29.1184 12.5484 29.29 12.7484C29.2931 12.755 29.2931 12.7626 29.29 12.7691C29.2873 12.7753 29.2819 12.78 29.2754 12.7818C29.2541 12.7863 29.2322 12.7873 29.2106 12.7848C29.0161 12.7448 28.8157 12.7438 28.6208 12.7818C28.4691 12.8065 28.3196 12.8434 28.1738 12.8921C28.1049 12.9173 28.0381 12.9478 27.9739 12.9833C27.9558 12.9957 27.9405 13.0117 27.9288 13.0303C27.9106 13.0635 27.9223 13.1052 27.9551 13.124C27.9887 13.138 28.0239 13.1475 28.0599 13.1523C28.148 13.1564 28.2361 13.1523 28.3242 13.1554C28.4929 13.1584 28.6616 13.1621 28.8304 13.1665C28.926 13.1708 29.0199 13.1937 29.1068 13.2338C29.1255 13.2441 29.1425 13.257 29.1574 13.2723C29.1615 13.2778 29.1633 13.2847 29.1625 13.2915C29.1625 13.2976 29.1574 13.3083 29.1528 13.3093C29.1247 13.317 29.0959 13.3217 29.0668 13.3234C28.8248 13.3214 28.5827 13.3185 28.3404 13.3148C28.3109 13.3135 28.2817 13.31 28.2528 13.3042C28.2245 13.2971 28.1957 13.2917 28.1667 13.288C27.9465 13.2809 27.7289 13.2414 27.5087 13.2343C27.2885 13.2273 27.0824 13.2247 26.8703 13.2343C26.6499 13.2441 26.4331 13.2931 26.23 13.3791C25.9786 13.4877 25.7658 13.6696 25.6195 13.901C25.5163 14.0621 25.4398 14.2389 25.3932 14.4245C25.3751 14.4805 25.3701 14.5399 25.3785 14.5981C25.3871 14.6396 25.4448 14.6745 25.4797 14.6528C25.5238 14.6271 25.566 14.5981 25.6058 14.5662C25.7136 14.4776 25.8164 14.383 25.9262 14.2969C26.0117 14.2276 26.1022 14.1649 26.197 14.1091C26.4573 13.9514 26.7662 13.894 27.0657 13.9476C27.1234 13.9582 27.1821 13.9623 27.2399 13.9729C27.2852 13.9754 27.3287 13.9923 27.3639 14.021C27.3239 14.021 27.2879 14.021 27.252 14.021C27.0242 14.0144 26.8207 14.0919 26.6263 14.2017L26.6076 14.2134C26.5689 14.2366 26.5504 14.2827 26.562 14.3263C26.5794 14.3599 26.6154 14.3799 26.6531 14.3769C26.7119 14.3769 26.7706 14.3693 26.8288 14.3683C26.9533 14.3582 27.0786 14.3631 27.2019 14.383C27.2191 14.387 27.2429 14.39 27.2388 14.4204C26.9989 14.4462 26.7574 14.4665 26.521 14.5151C26.3277 14.5551 26.1373 14.6108 25.947 14.6644C25.8341 14.6963 25.7237 14.7368 25.6134 14.7773C25.5799 14.7915 25.5488 14.8108 25.5212 14.8345C25.5064 14.851 25.4999 14.8733 25.5036 14.8952C25.5072 14.9171 25.5206 14.9361 25.54 14.9469C25.5662 14.9592 25.5942 14.9672 25.623 14.9707C25.6888 14.9737 25.7551 14.9707 25.8209 14.9707C26.0191 14.9632 26.2175 14.967 26.4152 14.9818C26.4795 14.9875 26.5425 15.0038 26.6015 15.0299C26.5364 15.0553 26.4684 15.0723 26.399 15.0805C26.1778 15.0912 25.9657 15.1524 25.7526 15.2051C25.3623 15.3068 24.9802 15.4378 24.6095 15.5969C24.3929 15.687 24.1782 15.7826 23.9631 15.8763C23.9297 15.891 23.8968 15.9072 23.8644 15.9244C23.8016 15.9573 23.7707 16.0013 23.7849 16.0413C23.8057 16.1005 23.8608 16.1031 23.911 16.1107C23.9327 16.1139 23.9548 16.1151 23.9768 16.1142H24.0481C24.1565 16.1142 24.2653 16.1142 24.3726 16.1026C24.636 16.0777 24.9014 16.0854 25.1628 16.1254C25.2868 16.1417 25.4061 16.1836 25.5131 16.2484C25.5319 16.26 25.5557 16.2752 25.5465 16.299C25.5374 16.3228 25.5152 16.3253 25.4959 16.3329C25.4693 16.3454 25.441 16.3537 25.4119 16.3577C25.2509 16.3709 25.095 16.4174 24.9355 16.4382C24.7255 16.465 24.5164 16.5075 24.3013 16.4969C24.1476 16.4896 23.9957 16.4614 23.8497 16.4129C23.732 16.3712 23.6217 16.3109 23.5232 16.2342C23.4827 16.2028 23.4399 16.1746 23.3951 16.1497C23.368 16.1366 23.3357 16.1409 23.3131 16.1608C23.2887 16.1786 23.277 16.2091 23.2833 16.2387C23.3079 16.362 23.3666 16.4758 23.4528 16.5673C23.532 16.6543 23.6238 16.7289 23.7252 16.7885C23.7758 16.8189 23.8264 16.8482 23.877 16.8761C23.9277 16.9039 23.9808 16.9267 24.0314 16.9515C24.0314 16.9636 24.0314 16.9748 24.0274 16.9753C23.955 16.986 23.8811 16.9812 23.8107 16.9611C23.6396 16.9149 23.4845 16.8222 23.3627 16.6933C23.2926 16.6183 23.2278 16.5385 23.1688 16.4544C23.101 16.3587 23.0438 16.256 22.9795 16.1577C22.9581 16.1285 22.9337 16.1015 22.9066 16.0773C22.881 16.0619 22.8484 16.0641 22.8251 16.0828C22.8099 16.0983 22.7994 16.1178 22.7948 16.139C22.7935 16.161 22.7973 16.183 22.8059 16.2033C22.8565 16.3552 22.9107 16.507 22.9659 16.6589C22.9912 16.728 23.0204 16.7956 23.0534 16.8614C23.1714 17.1107 23.3893 17.2984 23.6533 17.3782C23.7085 17.396 23.7657 17.4096 23.8209 17.4289C23.8291 17.4391 23.8317 17.4527 23.8279 17.4653C23.8042 17.4928 23.7776 17.5175 23.7485 17.5392C23.6776 17.5898 23.6037 17.6405 23.5323 17.6911C23.4609 17.7417 23.4817 17.7837 23.5212 17.8192C23.5432 17.8381 23.5637 17.8587 23.5824 17.8809C23.5878 17.8941 23.5861 17.9092 23.5779 17.9209C23.5514 17.9458 23.5233 17.969 23.4938 17.9903C23.3055 18.131 23.1152 18.2682 22.9299 18.4124C22.6828 18.6093 22.4494 18.8227 22.2313 19.0513C22.1964 19.0885 22.1588 19.1231 22.119 19.1551C22.1007 19.1662 22.0782 19.1683 22.0582 19.1606C22.0254 19.1446 21.9953 19.1234 21.9691 19.0979C21.8891 19.0219 21.8132 18.9424 21.7337 18.8665C21.6325 18.7698 21.5338 18.6711 21.43 18.5805C21.4118 18.5653 21.3935 18.5506 21.3743 18.5365C21.3176 18.4934 21.2569 18.4545 21.1966 18.416C21.1708 18.4029 21.1421 18.3965 21.1131 18.3972C21.0913 18.4003 21.0719 18.4125 21.0597 18.4308C21.0475 18.4491 21.0438 18.4717 21.0493 18.4929C21.0611 18.5198 21.0766 18.5448 21.0954 18.5673C21.2726 18.7557 21.3991 18.9794 21.5454 19.1915C21.5546 19.2032 21.5602 19.2172 21.5616 19.232C21.5609 19.2533 21.5562 19.2742 21.5479 19.2938C21.5403 19.3061 21.5301 19.3166 21.5181 19.3246C21.1364 19.6577 20.7652 20.0016 20.4044 20.3563C20.1057 20.6494 19.8045 20.9405 19.5109 21.2381C18.866 21.8912 18.2408 22.5627 17.6354 23.2529C17.0549 23.916 16.4945 24.5955 15.9542 25.2914C15.2562 26.1899 14.6068 27.1253 14.0089 28.0933C13.5396 28.8572 13.1118 29.6434 12.718 30.4477C12.2047 31.4961 11.7501 32.5698 11.3381 33.6617C11.092 34.3137 10.8631 34.9718 10.6511 35.636C10.6354 35.6866 10.6212 35.7342 10.603 35.7818C10.566 35.8647 10.584 35.9619 10.6481 36.0263C10.8045 36.2014 10.9564 36.3806 11.1138 36.5553C11.3993 36.8711 11.7025 37.1698 12.0139 37.4609C12.0594 37.4948 12.106 37.5307 12.1511 37.5667ZM10.8399 14.0387C11.2221 14.0443 11.5993 14.0843 11.9805 14.1238C12.4841 14.1744 12.9843 14.2534 13.4824 14.3414C14.2923 14.4837 15.0932 14.6659 15.889 14.8709C17.0117 15.1605 18.1202 15.498 19.2143 15.8834C19.6922 16.0504 20.1675 16.2241 20.6317 16.4286C20.6651 16.4433 20.699 16.4569 20.733 16.4691C20.7679 16.4815 20.8066 16.4774 20.8382 16.4579C20.87 16.4395 20.9008 16.4194 20.9304 16.3977C21.2341 16.177 21.536 15.9559 21.836 15.7346C21.8649 15.7121 21.8924 15.6879 21.9185 15.6622C21.9297 15.6479 21.9343 15.6295 21.9313 15.6116C21.9284 15.5937 21.918 15.5779 21.9028 15.568C21.8057 15.5159 21.704 15.4727 21.5991 15.4389C21.2042 15.282 20.8084 15.1276 20.413 14.9722C20.2566 14.9104 20.0987 14.8527 19.9362 14.8067C19.4573 14.6715 18.9809 14.5272 18.5026 14.39C17.9822 14.2382 17.4608 14.0929 16.9333 13.9663C16.6346 13.8945 16.3351 13.8258 16.0347 13.7603C15.8059 13.7097 15.5756 13.6692 15.3463 13.6231C15.1524 13.5846 14.9595 13.5416 14.7657 13.5067C14.5632 13.4697 14.3607 13.4394 14.1582 13.4054C14.0357 13.3862 13.9127 13.3675 13.7902 13.3477C13.696 13.3331 13.6004 13.3275 13.5077 13.3088C13.4148 13.2881 13.3203 13.2749 13.2252 13.2693C13.1962 13.2659 13.1673 13.261 13.1387 13.2546C13.0734 13.2455 13.0081 13.2369 12.9428 13.2298C12.8988 13.2288 12.855 13.2248 12.8117 13.2176C12.7119 13.1955 12.6101 13.1838 12.5079 13.1827C12.4643 13.1784 12.4208 13.1718 12.3778 13.163C12.3349 13.1542 12.2914 13.148 12.2477 13.1442C12.1597 13.1407 12.0736 13.126 11.9865 13.1144C11.82 13.0916 11.6509 13.086 11.454 13.0713C11.3674 13.0766 11.2871 13.1181 11.2328 13.1858C11.214 13.2085 11.1933 13.2293 11.1751 13.2521C11.0455 13.4115 10.9159 13.5705 10.7873 13.7309C10.7417 13.7881 10.6987 13.8479 10.6567 13.9076C10.6405 13.9285 10.637 13.9566 10.6475 13.9808C10.6581 14.0051 10.681 14.0216 10.7073 14.024C10.7511 14.0321 10.7954 14.037 10.8399 14.0387ZM6.9927 26.6339C7.02156 26.8673 7.00738 27.1042 7.0575 27.335C7.07686 27.6276 7.11201 27.9189 7.16279 28.2077C7.2043 28.4902 7.25948 28.7706 7.31465 29.0511C7.4427 29.6834 7.60836 30.3075 7.81075 30.9201C7.94574 31.3314 8.0976 31.7364 8.26634 32.135C8.28659 32.1815 8.3119 32.2261 8.33671 32.2706C8.34733 32.2857 8.3646 32.2946 8.38302 32.2946C8.40145 32.2946 8.41872 32.2857 8.42934 32.2706C8.46529 32.1988 8.50173 32.1269 8.53059 32.0525C8.76091 31.4956 9.00491 30.9469 9.25853 30.4012C9.66046 29.5361 10.0933 28.6861 10.5504 27.8483C10.9249 27.1578 11.346 26.4936 11.8109 25.8604C12.146 25.4048 12.4887 24.9558 12.8263 24.5022C13.1419 24.0784 13.4562 23.6536 13.7694 23.2281C13.9431 22.9912 14.1056 22.7467 14.2812 22.5113C14.7322 21.9133 15.2169 21.3415 15.733 20.7987C16.4179 20.0722 17.1408 19.3825 17.8986 18.7324C18.1771 18.4929 18.4626 18.2626 18.744 18.0267C18.7886 17.9892 18.8291 17.9467 18.8706 17.9057C18.8859 17.8801 18.8845 17.8479 18.867 17.8237C18.8023 17.7637 18.7276 17.7154 18.6463 17.681C18.4869 17.606 18.3269 17.5326 18.1644 17.4653C17.683 17.2674 17.1899 17.1018 16.6964 16.9419C15.8253 16.6604 14.9471 16.4026 14.0615 16.1684C13.0714 15.9041 12.0782 15.6536 11.0703 15.4622C10.847 15.4202 10.6218 15.3954 10.399 15.3508C10.3553 15.3461 10.3114 15.3439 10.2674 15.3443C10.2015 15.3422 10.1357 15.3363 10.0705 15.3265C9.96641 15.3074 9.85895 15.3214 9.76323 15.3665C9.74247 15.3984 9.71767 15.4344 9.69539 15.4718C9.60225 15.6298 9.51113 15.7892 9.41647 15.9461C9.31522 16.1157 9.20791 16.2828 9.10514 16.4524C8.86421 16.847 8.64454 17.2543 8.44706 17.6723C8.39274 17.7846 8.34408 17.8995 8.30127 18.0166C8.18231 18.3557 8.06386 18.6954 7.95553 19.0376C7.71518 19.7998 7.51761 20.5749 7.36376 21.3591C7.27568 21.8051 7.19823 22.2526 7.14052 22.7036C7.12297 22.842 7.10609 22.9802 7.0899 23.1182C7.07825 23.2195 7.06813 23.3207 7.05699 23.422C7.05193 23.4726 7.04636 23.5232 7.0413 23.5738C7.03269 23.6685 7.02257 23.7632 7.01548 23.8583C7.01042 23.9241 7.01548 23.991 7.00435 24.0563C6.98183 24.231 6.97067 24.407 6.97094 24.5832C6.96385 24.8546 6.95828 25.1259 6.95271 25.3977C6.95271 25.4195 6.95271 25.4418 6.95271 25.4635C6.95828 25.6984 6.96334 25.9333 6.96992 26.1677C6.9765 26.3266 6.97346 26.4815 6.9927 26.6339V26.6339Z"/>
</svg>
