<svg width="296" height="150" viewBox="0 0 296 150" fill="none" xmlns="http://www.w3.org/2000/svg">
<path d="M293.125 61.9784H291.96L290.841 61.0825H290.034C289.721 61.3512 288.287 62.6056 287.929 62.6952L287.257 62.3816C286.988 62.6504 285.958 63.5463 285.555 63.5015L285.017 63.2327L284.882 62.74L284.614 61.7992C284.65 61.2422 284.725 60.6883 284.837 60.1417L285.151 57.7225C285.151 57.6777 285.151 57.6329 285.107 57.6329L285.017 57.185C284.707 56.7412 284.346 56.3353 283.942 55.9753C283.942 55.9306 282.956 53.2875 282.911 53.1082L281.971 52.3915C281.209 52.0779 280.447 52.0779 279.641 51.8539L278.969 51.5403L276.415 49.2107C276.18 48.8683 275.97 48.509 275.788 48.1356C275.878 47.7773 275.475 46.5229 275.296 46.1644C275.116 45.8061 274.758 45.1789 274.445 44.7309C274.056 44.4545 273.635 44.2287 273.19 44.0589C272.697 44.0589 272.204 44.1933 271.711 44.1933C271.219 44.1933 270.457 44.0589 269.92 44.0141L269.471 44.3726L269.292 45.2237C269.06 45.4279 268.744 45.5109 268.441 45.4477L268.083 45.1789C267.903 44.9549 267.948 44.0141 267.993 43.7453C268.038 43.4765 266.784 43.6557 266.291 43.5661L265.709 43.3421L265.439 43.2077C265.033 43.3412 264.593 43.3412 264.185 43.2077L263.693 42.715H263.245C262.886 42.8045 262.483 43.0734 262.169 42.9838C261.856 42.8942 261.363 41.9086 261.273 41.6398C260.995 41.5443 260.711 41.4694 260.422 41.4159L256.166 40.8782C255.763 40.8334 254.419 42.0878 254.105 42.4014C253.031 43.2974 252.359 42.9838 251.059 42.6701L250.387 42.491C249.058 42.4542 247.727 42.484 246.4 42.5806C246.114 42.3439 245.897 42.0343 245.773 41.6846C245.638 41.3262 245.19 40.251 244.787 39.9823L243.981 39.6239L239.949 35.9952L239.053 35.592C238.714 35.1315 238.4 34.653 238.112 34.1584C237.988 33.8215 237.883 33.4775 237.799 33.128L237.53 32.3216C235.828 30.7089 235.021 30.3953 233.14 29.2306L233.005 28.8722L232.468 28.6034L231.706 28.7377L230.9 28.5585C229.992 28.1634 229.248 27.4673 228.794 26.5874L227.898 26.229C227.54 25.7362 226.958 25.109 226.958 24.4819L226.33 24.0787C225.345 23.2275 224.807 19.554 224.583 18.4341C224.569 18.1916 224.599 17.9486 224.673 17.7173C224.897 16.8661 224.807 16.9557 225.389 16.2389L225.659 15.8805L225.255 15.5221C224.655 15.4331 224.043 15.479 223.463 15.6565L220.327 16.6421C219.611 17.1797 219.655 18.5236 218.983 19.106C218.312 19.6884 217.147 17.0901 216.699 16.7317L216.116 16.4181C215.947 16.2972 215.767 16.1922 215.579 16.1045C214.503 16.0149 214.548 15.9701 213.518 16.2837L213.07 16.3733C210.292 14.6709 211.099 17.0453 208.635 15.9701C207.784 14.8053 207.963 15.2981 206.888 14.9845L205.992 14.5365C205.46 14.4323 204.915 14.4172 204.379 14.4917L202.766 13.6406L201.109 13.8198C200.597 13.1551 199.937 12.6183 199.182 12.2518C198.561 12.4685 197.887 12.4842 197.256 12.2966L196.315 11.6694H195.912L194.478 12.5206H193.986C193.045 12.0278 193 10.7735 192.194 10.1911C191.388 9.60869 191.163 10.1463 190.805 10.1015C189.588 9.84533 188.412 9.42327 187.311 8.8471L185.653 8.75752L184.891 8.08554C184.757 7.59275 184.354 6.51757 183.861 6.2936L183.189 6.38317L181.756 5.6664C181.456 5.93056 181.125 6.15631 180.77 6.33838C180.322 6.51757 179.829 6.56237 179.381 6.69676C178.933 6.83116 177.052 7.86152 176.245 7.90631C175.439 7.95113 174.946 7.05517 174.185 7.14476L173.916 7.32395L173.423 8.89191C173.334 9.1159 172.886 9.2951 172.796 9.33987C171.363 9.87748 170.78 9.60869 169.302 9.20551L167.375 8.71272L166.39 8.3095C165.453 8.07166 164.481 8.01086 163.523 8.13034C163.164 7.86152 162.313 7.45834 161.865 7.54794C161.417 7.63755 160.969 8.89191 160.88 9.25031C160.79 9.60869 157.968 9.16071 157.385 8.9367L155.817 9.42949C155.548 9.74309 154.652 10.9526 154.294 11.087L153.443 9.92228C152.905 9.16071 152.413 8.66791 151.427 8.71272H150.89C150.71 8.75752 150.531 8.98151 150.352 9.07111V9.20551C149.814 9.51909 149.142 10.0119 148.515 10.1015C147.888 10.1911 147.171 8.71272 147.037 8.26472L146.454 7.99594C145.917 7.95113 144.931 8.80231 144.483 8.57833C144.035 8.35433 142.87 7.72716 142.154 7.50314H141.213C141.078 7.50314 140.003 7.59277 139.958 7.54794L138.794 7.09997C138.209 6.57228 137.737 5.93239 137.405 5.21841C136.928 5.00399 136.396 4.94147 135.882 5.0392L134.896 5.30801C134.524 5.3453 134.15 5.36026 133.776 5.35281L133.194 5.48722L131.715 5.35281H131.581C130.359 4.95168 129.097 4.68139 127.818 4.54645C126.788 4.45684 124.906 4.63602 124.01 4.50163C123.92 4.50163 122.8 3.78484 122.621 3.74006C122.11 3.57335 121.586 3.45339 121.053 3.38166C120.381 3.24728 120.023 3.56086 119.396 3.60569H117.604C116.932 3.47125 116.26 3.06808 115.633 2.93366C115.005 2.79928 113.841 3.15767 113.393 3.33687L112.497 3.65045L111.332 3.82964C110.884 3.96406 110.481 4.32243 110.033 4.41204C108.599 4.77043 106.09 4.72562 104.567 4.81521L102.507 4.59124L101.208 4.05367L100.67 3.38166C100.401 3.06808 100.088 2.75449 99.8189 2.39611C99.5501 2.03771 99.5501 1.81373 99.3707 1.58971L98.7437 1.18652H98.7884L100.58 5.08401L100.67 5.44243L100.894 5.8008L101.028 6.204L101.208 6.56238L101.432 7.32395V7.81675L101.208 8.26472L100.894 8.53353L100.491 8.62312H99.9977L99.1022 8.17514H98.6988L98.3854 8.44392L97.7579 9.0263L96.459 10.0567L96.1454 10.3703L96.0111 10.6391L96.1454 11.9382V12.3862L95.9215 12.879L95.6527 13.1926L94.8906 13.551L92.875 14.1334L92.0239 14.3125H90.1425L87.32 14.223H86.8722L84.9456 14.1334H84.4978L83.0195 14.0438H81.6303L81.0933 13.9542H79.7044L79.1665 13.8646L76.7474 13.775H75.807L75.6276 14.8053L75.4485 15.2981L74.8213 16.7317L74.597 17.1349H73.6568L71.5955 16.8661L71.0583 16.6869L68.2357 15.3877H67.8324L65.0551 17.2245L64.3384 17.6277L63.5318 17.8517H63.0391L61.1128 17.0453L60.6648 16.7765L59.8133 16.9557L58.9621 17.0453L57.3944 16.7765L54.5719 15.9701L54.0347 15.8805L53.7211 16.1493L53.3176 17.0901L53.1384 17.6277L52.9144 18.0308L52.6907 18.4788L52.3771 19.4644L50.2712 19.9124L48.5243 20.1364L47.6733 20.2708L46.8668 20.5396L45.7915 21.122L43.8205 21.8388L41.6254 23.0035L41.3116 23.2723L40.2813 23.8995L39.6093 24.437L39.0268 25.1091L38.7134 25.4227L37.9071 26.4979L35.8909 28.7826L34.5918 29.8577L33.875 30.2609L33.4719 30.3505H32.5758L31.5006 30.1713L30.56 29.3202L30.1119 29.1858L29.216 29.2753L28.4097 29.5442H28.0063L27.2 29.7681L26.7969 29.9474L25.632 30.3505H25.1841L23.9743 30.7089H23.5267L21.5106 31.3361L20.6146 31.4257H18.7332L17.7476 31.3361L17.165 31.1569L16.1347 31.0225H13.7604L13.178 30.8433L12.8198 31.0673L12.5956 31.4705L11.9684 32.8593L11.834 33.4417L11.5653 33.8448L10.8485 34.248L9.63891 34.6064H9.19092L8.6984 34.5168L8.33988 34.696L8.25022 35.2336L8.07098 35.7264L7.80213 36.0848L6.99585 36.3536L5.69673 36.5775L4.21823 36.4432L4.03885 36.8463V38.6383L3.81514 39.7134L3.54643 40.0271L3.18791 40.2958L1.84398 41.1918L0.5 41.9086L0.589665 42.6254L1.7097 46.1197H2.20231L3.09829 46.0301H3.59129L4.53189 46.4333L4.89022 46.7021L5.69659 47.15L6.77172 47.5085L7.17504 47.7773L7.53351 48.0012L7.93655 48.718L8.20541 49.5244L8.38478 49.838L8.51893 50.2411L8.92221 50.958H9.32548L9.72867 50.8236H11.1174L12.4166 50.6444H14.2531L14.6565 50.4204L15.0148 50.286L16.0004 49.7036L16.4931 48.8972L16.986 47.4637L19.1362 47.9116L20.2562 48.2252L20.6593 48.494L20.8834 48.8076L21.1073 49.614V50.9131L21.197 52.2123V52.705L21.3315 53.0635L22.3171 53.4667L22.6305 53.7355L23.7058 54.9898L24.109 55.7066L24.2434 56.065V56.5578L23.7506 58.1705L22.8993 60.0521L22.765 60.6344L22.4067 62.6504V63.5464L22.6305 63.9048L23.0339 64.1287H23.4817L23.9299 64.0392L24.4674 64.1287L24.7809 64.4423L24.8706 64.8455V65.3384L24.5572 66.4135L24.8257 67.1751L25.2738 67.847L27.2897 68.6086L28.4994 69.3254L29.0816 69.9078L29.44 70.6246L29.5743 71.0278V71.4758L29.3953 72.5061L29.2161 73.0437L29.1263 73.5365L28.6338 74.3429L28.3201 74.6117L28.0512 74.97L26.7522 76.0452L25.6769 76.6276L25.0049 77.1652L24.7362 77.4788L24.5571 77.9715L24.4673 78.4643V78.9124L24.6018 79.2707L24.8705 79.5843L25.4081 79.7187H26.304L29.8881 78.5987L30.7839 78.5092L32.0384 78.1507L33.4719 77.3892L33.8751 77.2548L34.2783 77.3444L34.7262 77.5235L35.8463 78.3299L37.0558 79.4947L37.4589 79.7187L38.5344 79.9875L39.3854 79.8979L40.5501 79.4499L40.9085 79.2259H41.4013L42.4766 79.4499L43.4173 79.8979L43.8653 79.8083H44.3581L44.7612 80.0323L45.7915 80.8835L47.7181 81.6451L48.2107 81.7346H48.6587L52.9145 81.869L53.9003 82.0482L56.8568 83.661L57.8425 84.0642L59.0521 84.7809L60.4855 85.3634L61.6056 85.7217L62.591 85.8113H63.0391L63.3973 85.6321L63.7109 85.3634L64.4276 85.0049L65.2788 84.8258L65.7715 84.9154V85.1841L64.9205 86.1697L64.6966 86.5729L64.0693 87.9617L63.4421 90.0224V90.4256L63.3526 91.8144L63.2631 92.3072L63.1285 92.7551L62.2774 92.9344L59.9478 92.7999L58.4248 92.6207L56.5432 92.5311L54.7961 92.7103L53.9449 92.8896L53.0039 93.6959L52.5112 94.5023L52.3322 94.9951L52.2426 95.5327V95.9359L52.6009 96.0255H53.049L53.6314 96.2046L53.4522 96.7423V98.0862L55.6473 97.8174H58.3799L60.3512 98.0414L62.0084 98.5342L62.5462 98.6238L62.9047 98.4446L63.2181 98.1758L64.2934 97.6382L64.607 97.3694L65.0102 97.2351L66.0407 97.4142L67.3846 98.0414L68.4152 98.4446L69.1764 98.9374L69.8483 99.5197L70.1171 99.7885L70.2967 100.192V100.595L69.9379 102.611L69.714 103.104L68.6835 104.537L68.4596 105.03L68.1462 106.105L68.0566 107.494L67.9667 107.987L67.6536 109.107L66.6679 110.675L65.8616 111.75L65.6373 112.153L65.4134 112.601V113.183L65.6823 113.497H67.0261L68.2357 112.287H69.1317L69.6245 112.467L69.9379 112.735L70.3412 113.452L70.4755 113.855L70.655 114.214L70.9237 114.527L71.3715 114.662L71.7746 114.572L73.2087 114.662L73.7459 114.841L74.7766 115.02H75.7171L76.5684 114.93L77.7781 114.572L78.1363 114.393L78.4498 114.124L79.525 113.542L80.3315 113.318L81.1826 113.228L84.0499 113.452L87.5439 114.169L89.6495 114.796H90.0975L92.2926 114.527L95.1148 113.855L96.4591 113.721H97.3997L97.8928 113.811L100.043 114.438H100.984L101.342 114.348L102.103 113.945L103.044 113.183L103.358 112.87L103.671 112.646L104.074 112.556L105.418 112.422L106.583 112.063L107.3 111.705L107.569 111.391L108.599 110.675L109.003 110.54L109.316 110.854L109.45 111.257V111.66L109.181 113.139L109.092 115.02L108.779 116.991L108.599 117.484L108.51 118.022L108.33 118.559L107.883 119.41L106.852 119.231L104.657 118.559L103.716 118.425H103.268L102.865 118.559L102.552 118.828L102.238 119.634L102.103 120.217L102.193 121.068L102.507 121.337L104.03 121.919L105.06 122.188L105.598 122.815L105.956 123.98V124.428L106.091 124.831V125.234L106.225 125.637V126.533L106.359 126.937L106.539 127.295L107.21 127.833L107.659 128.057L110.391 128.863L111.377 129.311L112.452 129.983L113.124 130.565L113.572 131.237L113.438 131.551L113.214 131.954L112.945 132.268L112.452 133.074L112.139 133.388L111.959 133.836L111.87 134.373V135.269L110.929 138.45L110.347 139.122L109.361 139.794L108.958 140.734L108.823 141.183L109.226 141.317L119.262 138.629L119.531 138.45L119.799 138.136L120.74 137.375L121.053 137.24L121.68 136.703L121.994 136.389L123.249 135.359L123.741 135.583L124.727 136.434L125.488 137.375L125.757 137.509L126.385 137.016L127.101 136.613L127.504 136.524H127.997L128.445 136.703L128.624 137.061L128.848 137.823V138.315L128.445 139.256L127.997 140.107L127.594 141.138L127.504 141.63V142.526L127.639 142.93V143.333L127.818 143.691L128.624 144.184L129.7 144.542H130.147L131.76 144.139L132.612 144.05H133.552L134.403 143.96L136.285 144.094L137.271 144.274H137.763L139.824 144.766L140.899 145.08L142.647 146.021L143.677 146.289H144.17L144.662 146.424L145.513 146.334H146.902L147.753 146.245L148.963 146.021L151.561 145.752L152.771 145.438L154.921 144.318L155.594 143.915L155.862 143.557L156.848 142.84L157.564 142.437L157.878 142.213L158.595 141.81H159.491L159.984 141.944L160.969 142.347L161.596 142.93L162.089 143.557L162.313 143.915L162.537 144.677V145.528L162.671 145.931L163.388 147.365L164.598 148.126L165.046 148.305L165.673 148.753L166.927 146.782V146.513L167.196 146.021L167.734 145.035C168.205 144.436 168.713 143.868 169.257 143.333C169.873 142.747 170.532 142.208 171.228 141.72L171.586 141.63L172.169 141.093L173.468 141.227C174.006 141.003 174.632 140.779 174.902 140.242C175.17 139.704 174.677 139.032 175.081 138.36C175.484 137.688 175.842 137.643 176.111 137.285C176.166 137.084 176.241 136.889 176.335 136.702V135.986C176.2 135.672 175.842 135.448 175.753 135.135C175.592 134.729 175.472 134.309 175.394 133.88L174.588 133.253C174.588 133.208 174.498 132.85 174.498 132.805L174.857 129.445C174.946 128.863 175.618 128.549 176.156 128.504L176.335 128.594C176.917 128.325 176.783 128.504 177.186 128.504L178.217 128.415C179.047 128.278 179.869 128.099 180.681 127.877L182.159 127.16C182.945 126.529 183.639 125.79 184.22 124.965L187.042 123.89C187.596 123.875 188.15 123.905 188.7 123.98C189.351 123.401 190.315 123.345 191.029 123.845C191.137 123.796 191.23 123.718 191.298 123.621L191.522 123.218L191.746 122.86C191.88 122.681 191.88 122.591 192.015 122.457C192.149 122.322 193.09 120.978 193.583 120.217C194.076 119.455 194.747 117.215 195.419 117.17C196.153 117.173 196.886 117.128 197.614 117.036C198.555 116.812 200.123 116.185 201.109 115.826C202.094 115.468 201.96 115.782 202.273 115.513H202.587C202.811 115.378 203.349 115.199 203.528 115.065L205.454 113.542C205.799 113.455 206.112 113.268 206.35 113.004C206.709 112.556 206.933 111.839 207.425 111.526C207.918 111.212 208.501 111.167 208.769 110.809L209.173 110.047C209.621 109.241 210.113 109.241 210.965 108.972H211.144L212.443 108.614C212.667 108.524 212.891 108.3 213.115 108.211C213.339 108.121 214.011 108.479 214.548 108.345C215.086 108.211 215.489 107.091 215.758 106.508C216.026 105.926 216.385 106.016 216.475 105.971C217.639 105.747 219.566 105.478 220.596 104.806C221.173 104.357 221.699 103.846 222.164 103.283L222.567 102.835C223.418 102.118 225.703 102.342 226.689 102.342L227.719 101.984L227.853 101.849L228.212 101.715C228.696 101.24 229.145 100.731 229.556 100.192C229.731 99.9857 229.881 99.7602 230.004 99.5196C230.183 99.2061 230.183 98.7581 230.362 98.3997C230.541 98.0413 231.572 97.5485 232.333 97.4589L233.454 96.2045L233.722 96.1149C234.797 95.6222 235.559 97.2797 236.948 96.3838L238.65 94.099C239.061 93.7153 239.53 93.3979 240.039 93.1582C240.893 92.9019 241.76 92.6925 242.637 92.5311L243.847 92.6655L244.205 92.979V93.2478L244.026 93.5166L244.16 94.0542L245.325 94.5022V94.8158L244.877 94.995L244.653 95.2638L244.877 95.5326V95.8014L244.474 96.0253H244.205L244.071 96.2045C244.166 96.3457 244.288 96.4673 244.429 96.563V96.7422L244.25 96.8317H243.444L243.264 96.9213V97.1453C243.533 97.4141 244.384 98.3549 244.743 98.3101C245.83 97.7349 247.094 97.5909 248.282 97.9069L249.088 98.2206C250.177 98.303 251.269 98.3179 252.359 98.2654C252.627 98.2206 252.941 97.9965 253.21 97.9965C253.478 97.9965 256.077 97.8173 256.57 97.5038C257.303 96.9285 258.006 96.3154 258.675 95.667L260.154 94.4126C260.436 93.9255 260.547 93.3574 260.467 92.7999C261.005 91.7247 261.632 92.1279 262.439 91.5455C263.245 90.9631 262.304 89.8432 262.752 89.0816C263.2 88.32 263.648 88.1856 263.872 87.648C264.096 87.1104 264.141 86.1249 264.588 85.4977C265.036 84.8705 266.604 83.5713 267.097 82.4514C267.463 81.7049 267.413 80.8213 266.963 80.1218C267.245 79.767 267.443 79.3538 267.545 78.9123C267.59 78.8675 267.59 78.7779 267.635 78.7331C269.785 76.0004 273.324 76.7171 276.415 76.8963L277.087 76.8067C277.58 76.5827 279.059 75.8659 279.506 75.9107C280.942 76.1233 282.363 76.4225 283.763 76.8067L285.555 77.2995C286.226 77.3891 287.839 76.8515 288.556 76.8067H290.034C290.437 76.4931 290.885 76.09 291.289 75.8212C291.692 75.5523 294.469 75.4179 295.186 75.4628L295.455 75.2836C295.455 75.2388 295.5 74.746 295.5 74.7012C295.247 73.7455 294.49 73.0056 293.529 72.7748L293.349 72.506C293.215 72.0581 293.529 71.6997 293.573 71.2965V70.8037C293.529 70.3557 294.514 69.7733 294.693 69.1462L294.604 68.519C294.522 68.0797 294.371 67.6563 294.156 67.2646C293.529 65.9655 293.976 65.2486 294.425 63.9943L294.245 63.3671C293.887 63.1431 293.125 62.4711 293.125 61.9783" stroke="white" stroke-linejoin="round"/>
<path fill-rule="evenodd" clip-rule="evenodd" d="M150.846 21.1671C151.921 21.1671 152.593 20.8984 153.578 20.7191L155.684 20.4056C156.21 20.4073 156.734 20.3623 157.252 20.2712L158.283 19.868L161.06 19.2856L161.956 19.42C162.673 19.3304 163.166 18.7928 163.748 18.5688C163.985 18.7112 164.241 18.817 164.51 18.8824L164.823 18.5688H165.137C166.212 19.868 168.497 18.3449 169.975 19.42V19.7784C168.9 20.0472 167.556 19.3752 166.615 20.0472C166.349 20.3916 166.221 20.823 166.256 21.2568L166.077 21.5255C165.182 21.3911 164.375 20.6296 163.479 21.0327C163.163 21.3194 162.891 21.6516 162.673 22.0183C162.543 22.3991 162.394 22.7729 162.225 23.1383C162.134 23.2471 162.059 23.3677 162.001 23.4966C161.866 23.7207 161.866 24.0343 161.687 24.2583L161.419 24.5271C160.739 24.8268 160.01 24.9941 159.268 25.0198H158.82L158.327 25.199C158.154 25.3572 158.004 25.538 157.879 25.7366C157.608 26.1313 157.309 26.5056 156.983 26.8566C156.714 27.1702 156.535 27.5285 156.266 27.8421L155.998 28.1558C155.758 28.5282 155.648 28.969 155.684 29.4101C155.774 29.8582 156.177 30.2613 156.401 30.7093C156.91 30.9874 157.478 31.141 158.058 31.1573L158.641 31.0228L159.671 30.9333C160.766 30.9542 161.858 31.044 162.942 31.2021C163.691 31.3976 164.455 31.5324 165.227 31.6052C166.884 31.5605 170.154 28.6485 170.96 31.426C171.098 32.0186 170.967 32.6417 170.602 33.1284C169.693 33.4389 168.765 33.6932 167.825 33.89C166.902 33.9663 165.973 33.8598 165.092 33.5764L164.196 33.4868C163.748 33.3972 163.3 33.218 162.897 33.1732C162.718 33.1507 162.538 33.1507 162.359 33.1732L161.015 32.9492C160.119 33.3972 158.775 33.442 157.924 34.0244C157.073 34.6067 157.028 35.6819 156.625 36.5779C156.222 37.4739 155.684 37.2499 155.325 37.6979L154.743 38.7731C154.743 38.8627 154.654 39.1314 154.654 39.1762C154.365 39.5199 154.015 39.8083 153.623 40.0274C153.442 40.2474 153.247 40.4569 153.041 40.6546C152.402 41.1214 151.71 41.5122 150.98 41.8194C150.64 41.8861 150.296 41.931 149.95 41.9538C149.102 42.1758 148.226 42.2665 147.351 42.2226C146.696 42.1555 146.035 42.1555 145.38 42.2226C144.574 42.4018 143.947 43.0289 143.185 43.3425C142.423 43.6561 141.169 43.8801 140.542 44.2385C140.141 44.501 139.766 44.801 139.422 45.1345C139.059 45.3215 138.726 45.5633 138.437 45.8513C138.326 46.3313 138.424 46.8357 138.705 47.24C139.444 47.3121 140.178 47.4318 140.9 47.5984C141.886 47.7328 143.454 47.8224 144.26 48.4944L144.529 48.8528C144.735 49.0513 144.929 49.2607 145.111 49.48V49.8383L144.574 49.9279C144.178 49.7412 143.754 49.6201 143.32 49.5695C142.827 49.7039 142.647 50.2415 142.155 50.3311C141.662 50.4207 140.856 50.1967 140.318 50.6895L140.184 50.9583L140.094 51.0479C140.094 51.0927 140.094 51.0927 140.05 51.1823C139.919 51.519 139.769 51.848 139.601 52.1679C139.577 52.3082 139.531 52.4441 139.467 52.5711C139.422 52.7054 139.333 52.7951 139.287 52.9294C139.243 53.0639 139.243 53.1982 139.199 53.3326L139.019 53.691C138.616 54.4078 138.526 55.3038 138.034 55.9758L137.72 56.2445L137.541 56.6029C137.151 57.037 136.716 57.4276 136.242 57.7677L135.704 58.3949C135.452 58.5851 135.182 58.7501 134.897 58.8877L134.629 59.2013C134.315 59.4701 133.912 59.6941 133.598 60.0077C133.483 60.1006 133.377 60.2057 133.285 60.3212C132.971 60.6349 132.523 60.814 132.209 61.1276C131.896 61.4412 131.269 62.5164 130.597 63.0092C130.33 63.2057 130.025 63.3432 129.701 63.4124L128.715 63.8155C128.312 63.9499 127.954 63.9499 127.595 64.0395L127.013 64.2187L125.938 64.3532H125.445C125.247 64.3986 125.052 64.4584 124.863 64.5323C123.967 64.7115 123.071 64.7115 122.175 64.9802C121.279 65.2491 121.413 65.4731 120.696 66.0107L120.293 66.2347C118.994 67.0411 118.501 67.1307 116.978 67.0858L116.754 66.8171V66.3691C116.624 66.1135 116.399 65.92 116.127 65.8315C115.5 65.9211 114.962 66.1451 114.38 66.2346C113.797 66.3243 113.081 66.1003 112.408 66.1899C111.736 66.2795 110.885 66.7274 110.169 66.8171C109.452 66.9066 108.421 66.0107 107.794 65.8763C107.332 65.8313 106.867 65.8313 106.406 65.8763L105.465 65.7867C104.479 65.8763 103.628 66.3242 102.687 66.5035C101.701 66.7112 100.692 66.7865 99.6858 66.7274L99.2379 66.7274L98.6997 66.8618C97.7147 67.1307 96.774 67.4442 95.8333 67.6234C94.8923 67.8026 94.5336 67.4442 93.5036 67.4442C92.473 67.4442 92.1146 67.7578 91.3977 67.7578C91.0931 67.7867 90.7851 67.7405 90.5021 67.6234C90.3677 67.5786 90.278 67.4442 90.1435 67.3546C89.6958 67.0355 89.215 66.7651 88.71 66.5483C88.3068 66.3691 87.814 66.4586 87.4109 66.3242L87.0525 66.1003C86.9181 66.0554 86.7389 66.0554 86.6492 65.9659C86.5598 65.8763 86.0219 65.3834 85.6188 65.2491C84.9821 65.0954 84.3122 65.3015 83.8715 65.7867L83.6477 66.1002C83.5134 66.3242 83.3341 66.5035 83.1996 66.7722L82.7966 66.593C82.6323 65.9112 82.3917 65.25 82.0794 64.6219C81.6763 64.3532 81.1391 64.5323 80.6907 64.3979C80.2429 64.2635 79.7056 63.8155 79.168 63.7707L79.4814 63.8603C79.0334 63.9051 78.4957 63.3227 78.0925 63.2331C77.6894 63.1436 77.5105 63.1883 77.1967 63.0987C76.389 62.8311 75.6086 62.486 74.8669 62.0683C73.5678 61.262 72.896 59.6492 71.3278 59.0221C69.76 58.3949 69.2672 60.2316 68.2369 59.8284C67.9778 59.5559 67.675 59.3287 67.3408 59.1565C67.1678 59.0908 66.9871 59.0457 66.8035 59.0221L65.549 58.7085C64.6528 58.5293 63.7121 58.574 62.861 58.3949C62.2923 58.2155 61.7073 58.0954 61.1137 58.0364C60.4824 58.0436 59.8517 57.9835 59.2325 57.8573L58.4706 57.5437L57.6644 57.1853C57.5749 57.0957 57.3958 57.0957 57.261 57.0509C56.5173 56.6721 55.8125 56.222 55.1556 55.707L54.7975 55.5277L53.8118 54.8109C53.6694 54.7458 53.5184 54.7006 53.3637 54.6766C52.7429 54.3925 52.1444 54.063 51.5719 53.691C50.7655 53.1534 50.0938 52.3022 49.0631 52.1678H48.0778C47.5833 52.1305 47.0856 52.1606 46.5992 52.2575C44.9415 52.7502 44.1802 54.9902 42.2087 54.7214L41.7609 54.587C41.3332 54.525 40.913 54.4199 40.5064 54.2734C40.1134 54.1096 39.7505 53.8826 39.4311 53.6014C37.6392 52.0783 38.804 50.6895 37.9976 49.6591C37.4599 49.3904 36.8775 49.3456 36.6536 48.7183C36.705 48.289 36.9532 47.9081 37.3257 47.688L37.4599 47.2848L36.788 46.7472L36.967 46.8368L36.743 46.7472C36.6536 46.5232 36.4295 46.3888 36.3398 46.1648L36.2055 45.8064C36.1315 45.438 36.1013 45.062 36.1159 44.6864C36.0265 44.1489 35.7128 43.7457 35.623 43.2081C35.8256 42.8429 36.0822 42.5106 36.3847 42.2225C36.9163 42.0704 37.4395 41.891 37.9525 41.6849H38.4455L40.1033 41.2818C40.999 41.0578 41.9399 40.6546 42.8809 40.6546H43.3286L45.2102 40.7442C45.5019 40.7557 45.7899 40.8162 46.0615 40.9234C46.644 41.0129 47.2711 41.0129 47.8533 41.1474C47.9937 41.1719 48.1297 41.2172 48.2566 41.2818L48.7044 41.2818L49.9589 41.6402L50.4071 41.7298L51.2131 41.9538C51.7958 42.0433 52.5575 41.6849 53.0502 41.4161C53.5428 41.1474 54.1253 40.6098 53.9014 39.8482C54.0655 39.4097 54.3633 39.0336 54.7528 38.773C55.3798 38.4594 57.3506 38.2355 58.1126 38.2802L58.5603 38.3698C59.0869 38.3543 59.6116 38.2944 60.1283 38.1906C60.6417 38.1973 61.1539 38.137 61.6516 38.0114C62.2336 37.8323 62.9951 37.5635 63.3091 37.0259C63.6229 36.4883 63.533 36.2195 63.7121 35.8611C63.8914 35.5027 65.3697 33.9796 66.3104 33.5316L66.8035 33.3972L67.2962 33.1732C68.1229 33.0159 68.9663 32.9707 69.8052 33.0388C70.2097 33.1903 70.6307 33.2954 71.0594 33.3525C71.3727 33.1284 71.6863 32.6804 72.0449 32.5012C73.1646 32.0084 74.5535 32.2772 75.7181 32.0084C76.1006 31.883 76.4895 31.7783 76.8832 31.6949C78.1374 31.426 79.4364 31.2469 80.7358 30.8885C81.2734 30.754 81.8109 30.4404 82.3036 30.3509C82.7966 30.2613 83.9167 30.5301 84.6781 30.4404C85.4393 30.3509 85.5743 29.7237 86.4251 29.7237C87.2765 29.7237 87.4109 30.2165 87.9482 30.4853L88.3517 30.3957C89.0683 29.7237 89.9643 28.3349 90.905 28.0661C91.8458 27.7973 91.7116 28.4693 92.1596 28.3797C92.6075 28.2901 93.4136 27.7526 94.0409 27.5285C95.3157 27.1109 96.6183 26.7816 97.9383 26.543C98.8794 26.4534 100.626 27.215 101.612 26.8566C102.597 26.4982 102.553 25.8262 103.314 25.4678C104.927 24.751 105.465 25.4678 106.316 25.1542C107.167 24.8406 107.66 24.2582 108.69 24.1238C109.721 23.9895 111.154 24.527 112.05 25.0198L113.125 25.647L113.528 25.7366C113.792 25.8691 114.046 26.0188 114.29 26.1846C115.186 26.543 116.261 26.1846 117.067 26.2742C117.874 26.3638 117.874 26.767 118.187 26.9014C118.501 27.0357 120.248 26.9909 120.651 26.8566C121.861 26.543 122.175 25.3782 123.115 24.975C123.648 24.7495 124.204 24.5842 124.773 24.4822C125.445 24.3478 126.207 24.4374 126.878 24.2134C127.393 24.1014 127.89 23.9206 128.357 23.6759C128.939 23.3623 129.387 22.9143 130.014 22.6903C130.717 22.4341 131.435 22.2246 132.165 22.063L133.24 21.8839C133.963 21.7127 134.668 21.4726 135.346 21.1671C136.062 20.8535 137.003 20.2263 137.809 20.316L138.213 20.4503C139.287 20.7639 139.333 21.2119 140.586 21.3911C141.841 21.5703 142.02 21.0776 142.737 20.988C143.767 20.9135 144.801 20.9286 145.828 21.0327L146.993 21.212H147.979L150.353 21.3463L151.294 21.4359C151.786 21.4407 152.269 21.3005 152.683 21.0327L150.846 21.1671Z" stroke="#0978AB" stroke-linejoin="round"/>
</svg>
