<svg viewBox="0 0 12 11" fill="none" xmlns="http://www.w3.org/2000/svg">
    <path d="M11.8914 5.2747V5.33479C11.8114 5.40508 11.7266 5.46978 11.6377 5.52842C11.3773 5.69534 11.1036 5.83555 10.7898 5.87561C10.5113 5.91235 10.2281 5.88494 9.96184 5.79549C9.84746 5.74894 9.72898 5.71317 9.60796 5.68866C9.58125 5.68866 9.54787 5.67531 9.52783 5.70869C9.50781 5.74207 9.52783 5.76878 9.54119 5.79549L9.67473 5.98244C9.88171 6.26287 9.9418 6.57 9.80826 6.89716C9.75616 7.05175 9.66122 7.18836 9.53452 7.2911C9.44104 7.35119 9.36759 7.31781 9.35424 7.21098C9.34088 7.10415 9.34088 7.05074 9.34088 6.97061C9.33774 6.85258 9.31749 6.73563 9.28079 6.62342C9.08049 6.01582 8.39945 5.61521 7.73177 5.72204C7.42464 5.76878 7.15756 5.91567 6.90384 6.0826C6.73313 6.19267 6.61677 6.36964 6.58335 6.57C6.54607 6.8223 6.59802 7.07969 6.73024 7.29778C6.91719 7.63161 7.21098 7.79854 7.56485 7.85863C7.81137 7.91149 8.06468 7.80483 8.19915 7.59156C8.3047 7.44191 8.35432 7.25995 8.33936 7.07744C8.33269 6.8304 8.23253 6.69686 8.02554 6.63677C7.81857 6.57668 7.77184 6.62342 7.73177 6.70354C7.65263 6.82868 7.66342 6.99062 7.75848 7.10415C7.80911 7.16254 7.86499 7.21617 7.9254 7.26439C8.01888 7.35119 8.00552 7.41796 7.88533 7.45802C7.7404 7.49224 7.58789 7.47079 7.45802 7.39793C7.22597 7.29476 7.0767 7.06432 7.07744 6.81037C7.06847 6.54613 7.20752 6.29893 7.43799 6.16939C7.68503 6.01582 7.95879 6.0225 8.23921 6.04921C8.49245 6.07233 8.72003 6.21333 8.85348 6.42979C9.07381 6.76363 9.10719 7.1175 9.00037 7.49808C8.84012 8.07896 8.22585 8.70658 7.47137 8.65985C7.13753 8.63982 6.8571 8.53299 6.64345 8.27927C6.56226 8.1747 6.49074 8.06296 6.42979 7.94543C6.41644 7.91872 6.3964 7.87866 6.35634 7.87866C6.31628 7.87866 6.29625 7.91872 6.2829 7.95878C6.22948 8.16576 6.22948 8.36607 6.36302 8.54634C6.49655 8.72662 6.71021 8.83345 6.93055 8.88686C7.15089 8.94028 7.25771 8.90022 7.41795 8.90689C7.55441 8.90315 7.66804 9.0108 7.67168 9.14726C7.69016 9.31049 7.61194 9.46954 7.47137 9.55454C7.2265 9.73205 6.91238 9.78399 6.62341 9.69476C6.41643 9.63467 6.37637 9.66137 6.36969 9.86835C6.36969 10.1645 6.23138 10.4435 5.99577 10.6229L5.88229 10.6228C5.83672 10.584 5.7943 10.5415 5.75543 10.496C5.6106 10.299 5.53544 10.0594 5.54176 9.81494C5.54176 9.65469 5.48836 9.61464 5.34146 9.66137C5.13545 9.72694 4.91452 9.72926 4.70717 9.66805C4.54425 9.6257 4.40061 9.52915 4.29988 9.3943C4.21465 9.28205 4.20416 9.12993 4.27316 9.00704C4.33326 8.88686 4.44009 8.88686 4.5536 8.88686C4.72417 8.90486 4.89662 8.88898 5.06104 8.84012C5.32811 8.74665 5.5618 8.61979 5.63524 8.31933C5.6752 8.18751 5.66812 8.0459 5.61522 7.91872C5.60186 7.89201 5.5885 7.86531 5.55512 7.85863C5.52194 7.8595 5.49273 7.88074 5.48167 7.91204C5.45554 7.94746 5.43317 7.9855 5.41491 8.02555C5.24277 8.38905 4.88212 8.62605 4.48015 8.63982C4.09239 8.67214 3.70909 8.53871 3.42522 8.27259C3.01125 7.89869 2.78424 7.45134 2.86436 6.87714C2.91777 6.50991 3.16482 6.12265 3.58546 6.03585C3.87256 5.98244 4.15967 5.98912 4.42006 6.11597C4.78061 6.28957 5.02098 6.83707 4.6404 7.23101C4.4835 7.40727 4.24171 7.48186 4.01277 7.42464C3.96961 7.42135 3.93269 7.39235 3.9193 7.35119C3.90594 7.30445 3.93933 7.27775 3.97272 7.25104C4.0061 7.22433 4.07954 7.16424 4.12628 7.11082C4.22035 7.01894 4.25172 6.88039 4.20641 6.75695C4.18637 6.69019 4.15967 6.63009 4.08622 6.61006C3.88071 6.55651 3.66854 6.66986 3.59881 6.87046C3.52817 7.09796 3.56242 7.34511 3.69228 7.54482C3.78144 7.70259 3.93984 7.80901 4.11961 7.83192C4.37892 7.86121 4.63956 7.78947 4.84738 7.63161C5.11066 7.45374 5.28554 7.17198 5.32811 6.8571C5.38153 6.50991 5.26802 6.22281 4.96088 6.02918L4.74055 5.90232C4.28653 5.6486 3.81915 5.59518 3.33841 5.8222C2.85768 6.04921 2.69743 6.28957 2.59729 6.70354C2.57057 6.83707 2.57726 6.97729 2.55722 7.11082C2.53719 7.24436 2.5639 7.26439 2.48378 7.2911C2.40366 7.31781 2.33688 7.25104 2.29015 7.19762C2.02307 6.89049 1.91625 6.44314 2.16997 6.05589C2.23006 5.95573 2.29683 5.86226 2.3636 5.76878C2.38676 5.74599 2.3922 5.71069 2.37695 5.68198C2.35692 5.65527 2.33022 5.66195 2.3035 5.66195L2.23006 5.67531L1.85616 5.79549C1.58409 5.88235 1.29397 5.89617 1.01488 5.83555C0.627625 5.74875 0.300453 5.54845 0 5.30808V5.28805C0.143677 5.15155 0.308212 5.03885 0.487411 4.95421C0.781189 4.80732 1.08165 4.70716 1.41549 4.72052C1.62749 4.73721 1.83631 4.78212 2.03644 4.85406L2.29015 4.9275C2.32353 4.93418 2.35692 4.94086 2.37695 4.90747C2.3922 4.87877 2.38676 4.84346 2.3636 4.82067C2.33022 4.77393 2.29683 4.72052 2.25677 4.67378C2.00973 4.35329 1.94963 4.01278 2.12991 3.63887C2.18144 3.50767 2.27243 3.39569 2.3903 3.31838C2.47043 3.27164 2.52384 3.29836 2.54387 3.37848C2.55974 3.45542 2.56866 3.53363 2.57057 3.61217C2.56898 3.77211 2.59845 3.93084 2.65738 4.07954C2.92445 4.70049 3.67894 5.06104 4.35997 4.85406C4.58075 4.78535 4.79004 4.68409 4.98091 4.5536C5.30808 4.33326 5.38153 4.05283 5.32143 3.72567C5.23463 3.25829 4.96756 2.92445 4.49351 2.79092C4.31991 2.74417 4.13963 2.72414 3.96603 2.80427C3.66558 2.94448 3.49198 3.35177 3.58546 3.67226C3.62911 3.88715 3.83742 4.027 4.05283 3.98607C4.0954 3.98847 4.13605 3.96814 4.15967 3.93266C4.23775 3.82281 4.24805 3.67858 4.18637 3.55875C4.1273 3.47633 4.05513 3.40416 3.97272 3.34509C3.94601 3.31838 3.90594 3.29168 3.9193 3.24494C3.93201 3.20219 3.96858 3.17084 4.01277 3.16482C4.1853 3.12019 4.36873 3.15443 4.51353 3.25829C4.99426 3.57878 4.88076 4.17302 4.48683 4.44009C4.32658 4.54692 4.14631 4.56695 3.95936 4.58031C3.49198 4.62704 3.13811 4.42674 2.95116 4.0061C2.82355 3.70731 2.81165 3.37174 2.91777 3.06467C3.09137 2.51717 3.68561 1.89622 4.47348 1.95631C4.7868 1.9642 5.08039 2.11099 5.27469 2.35692C5.34781 2.45364 5.41258 2.55639 5.46832 2.66405C5.48836 2.69744 5.50838 2.7375 5.55512 2.73082C5.60186 2.72414 5.60854 2.68409 5.62189 2.6507C5.70688 2.41402 5.64401 2.14949 5.46165 1.97634C5.27757 1.81041 5.04153 1.71363 4.79396 1.70259C4.68713 1.70259 4.57362 1.70927 4.4668 1.70259C4.37352 1.70993 4.2876 1.65172 4.25982 1.56238C4.19145 1.39442 4.24657 1.20148 4.39336 1.095C4.62074 0.903549 4.92564 0.831661 5.2146 0.901371C5.27394 0.917904 5.33412 0.931274 5.39488 0.941433C5.49503 0.954784 5.5351 0.914726 5.54176 0.814571C5.53844 0.770123 5.53844 0.725487 5.54176 0.681038C5.56848 0.40728 5.66862 0.166924 5.90231 0H6.00915C6.1739 0.130013 6.29124 0.310707 6.34299 0.514114C6.3658 0.624054 6.3792 0.735741 6.38305 0.847958C6.38972 0.934753 6.42979 0.96814 6.51659 0.954784L6.59671 0.934753C6.78843 0.86594 6.99773 0.86359 7.19095 0.928078C7.37122 0.988171 7.53814 1.06829 7.63829 1.24189C7.69168 1.3382 7.69904 1.45338 7.65833 1.5557C7.62494 1.66253 7.53146 1.71595 7.3779 1.70927C7.14552 1.68736 6.91136 1.72409 6.69686 1.81609C6.35634 1.96967 6.20277 2.25009 6.27621 2.60397C6.28032 2.6372 6.29172 2.66912 6.3096 2.69744C6.34966 2.75753 6.38305 2.75753 6.41643 2.70412C6.4537 2.6509 6.48717 2.59512 6.51659 2.53719C6.63133 2.31507 6.82036 2.14023 7.05074 2.04311C7.48053 1.87453 7.9667 1.9375 8.33936 2.21003C8.86684 2.5639 9.20067 3.25162 9.01372 3.86588C8.92024 4.1797 8.73997 4.42674 8.41948 4.53357C8.099 4.6404 7.93207 4.59366 7.68503 4.5536C7.30696 4.47074 7.05127 4.11736 7.09079 3.73235C7.13753 3.36512 7.54482 3.07134 7.90536 3.17149C7.94478 3.17988 7.97737 3.20745 7.99216 3.24494C8.00552 3.29168 7.97214 3.31838 7.94543 3.34509L7.79186 3.47863C7.67612 3.58712 7.64864 3.76027 7.72509 3.89927C7.74278 3.94247 7.77996 3.97469 7.82524 3.98607C8.00502 4.03439 8.19467 3.95468 8.28595 3.79244C8.39945 3.55875 8.35939 3.32506 8.24588 3.10472C8.14439 2.88166 7.91637 2.74379 7.67168 2.75753C6.95726 2.78424 6.53661 3.41186 6.57668 3.98607C6.59306 4.20139 6.70597 4.39773 6.88381 4.52021C6.97752 4.59044 7.0782 4.65085 7.18427 4.70049C7.4914 4.86741 7.81189 4.96088 8.15909 4.90079C8.62646 4.82067 8.98701 4.58698 9.21402 4.16634C9.33421 3.93933 9.34756 3.69896 9.35424 3.4586C9.36092 3.39851 9.36092 3.33842 9.42101 3.31171C9.48109 3.285 9.52783 3.32506 9.57457 3.35844C9.84164 3.57878 9.95515 4.05283 9.82829 4.37332C9.75995 4.52622 9.67245 4.66981 9.5679 4.80064C9.54119 4.83403 9.50781 4.86741 9.53452 4.90747C9.56122 4.94753 9.60796 4.9275 9.64134 4.9275H9.6814L10.0486 4.814C10.4262 4.68595 10.8378 4.70261 11.2037 4.86073C11.4552 4.9579 11.6879 5.09797 11.8914 5.2747ZM6.81036 5.30808C6.81036 5.29472 6.80369 5.29472 6.73692 5.24799C6.46317 5.07439 6.1961 4.88076 5.98911 4.61369C5.96241 4.58031 5.94238 4.57363 5.91566 4.61369C5.71536 4.87408 5.44829 5.06104 5.18121 5.24131C5.09442 5.3014 5.09442 5.29472 5.17455 5.34814C5.42291 5.50235 5.6516 5.6862 5.85558 5.89564C5.88896 5.9357 5.91566 6.00915 5.95573 6.01582C5.99579 6.0225 6.02917 5.94238 6.06924 5.90232C6.27159 5.693 6.50056 5.51118 6.75027 5.3615C6.77469 5.34934 6.79544 5.33091 6.81036 5.30808Z" fill="#0083E6"/>
</svg>
