<svg viewBox="0 0 13 11" fill="none" xmlns="http://www.w3.org/2000/svg">
    <path d="M12.828 5.616V5.67609C12.7479 5.74639 12.6632 5.81109 12.5742 5.86972C12.3138 6.03664 12.0401 6.17686 11.7263 6.21692C11.4478 6.25366 11.1646 6.22625 10.8984 6.1368C10.784 6.09025 10.6655 6.05448 10.5445 6.02997C10.5178 6.02997 10.4844 6.01662 10.4644 6.05C10.4443 6.08338 10.4644 6.11009 10.4777 6.1368L10.6113 6.32375C10.8182 6.60418 10.8783 6.91131 10.7448 7.23847C10.6927 7.39306 10.5977 7.52967 10.471 7.63241C10.3776 7.6925 10.3041 7.65911 10.2908 7.55228C10.2774 7.44546 10.2774 7.39204 10.2774 7.31192C10.2743 7.19389 10.254 7.07694 10.2173 6.96473C10.017 6.35713 9.33598 5.95652 8.66829 6.06335C8.36116 6.11009 8.09409 6.25698 7.84036 6.4239C7.66965 6.53398 7.55329 6.71095 7.51987 6.91131C7.48259 7.1636 7.53455 7.421 7.66676 7.63908C7.85371 7.97292 8.1475 8.13985 8.50137 8.19994C8.74789 8.2528 9.00121 8.14614 9.13567 7.93287C9.24122 7.78322 9.29085 7.60126 9.27588 7.41875C9.26921 7.17171 9.16905 7.03817 8.96207 6.97808C8.7551 6.91799 8.70836 6.96473 8.66829 7.04485C8.58915 7.16999 8.59995 7.33193 8.695 7.44546C8.74564 7.50385 8.80151 7.55748 8.86192 7.6057C8.9554 7.6925 8.94205 7.75927 8.82185 7.79933C8.67693 7.83355 8.52441 7.8121 8.39455 7.73923C8.16249 7.63607 8.01322 7.40563 8.01396 7.15168C8.00499 6.88744 8.14404 6.64024 8.37451 6.5107C8.62155 6.35713 8.89531 6.36381 9.17574 6.39052C9.42897 6.41364 9.65656 6.55463 9.79 6.7711C10.0103 7.10493 10.0437 7.45881 9.93689 7.83939C9.77664 8.42027 9.16238 9.04789 8.4079 9.00116C8.07405 8.98112 7.79362 8.8743 7.57997 8.62057C7.49878 8.51601 7.42726 8.40427 7.36631 8.28674C7.35296 8.26003 7.33292 8.21997 7.29286 8.21997C7.25281 8.21997 7.23277 8.26003 7.21942 8.30009C7.166 8.50707 7.166 8.70737 7.29955 8.88765C7.43307 9.06792 7.64674 9.17476 7.86707 9.22817C8.08741 9.28159 8.19424 9.24152 8.35448 9.2482C8.49094 9.24446 8.60456 9.35211 8.6082 9.48857C8.62669 9.65179 8.54846 9.81085 8.4079 9.89585C8.16302 10.0734 7.84891 10.1253 7.55994 10.0361C7.35295 9.97598 7.3129 10.0027 7.30621 10.2097C7.30621 10.5058 7.16791 10.7849 6.9323 10.9642L6.81881 10.9641C6.77324 10.9253 6.73082 10.8829 6.69196 10.8373C6.54713 10.6403 6.47196 10.4007 6.47829 10.1562C6.47829 9.996 6.42488 9.95594 6.27798 10.0027C6.07198 10.0682 5.85104 10.0706 5.64369 10.0094C5.48077 9.96701 5.33714 9.87046 5.2364 9.73561C5.15118 9.62336 5.14069 9.47124 5.20969 9.34835C5.26978 9.22817 5.37662 9.22817 5.49012 9.22817C5.66069 9.24617 5.83315 9.23029 5.99756 9.18143C6.26463 9.08796 6.49832 8.9611 6.57176 8.66064C6.61172 8.52882 6.60464 8.38721 6.55174 8.26003C6.53838 8.23332 6.52502 8.20662 6.49165 8.19994C6.45847 8.20081 6.42925 8.22205 6.4182 8.25335C6.39207 8.28877 6.36969 8.32681 6.35143 8.36686C6.1793 8.73036 5.81864 8.96736 5.41667 8.98112C5.02892 9.01345 4.64561 8.88002 4.36174 8.6139C3.94777 8.24 3.72076 7.79265 3.80089 7.21844C3.85429 6.85122 4.10134 6.46396 4.52198 6.37716C4.80908 6.32375 5.09619 6.33043 5.35658 6.45728C5.71713 6.63088 5.9575 7.17838 5.57692 7.57232C5.42002 7.74858 5.17824 7.82317 4.9493 7.76595C4.90614 7.76266 4.86922 7.73366 4.85582 7.6925C4.84247 7.64576 4.87585 7.61906 4.90924 7.59235C4.94262 7.56564 5.01607 7.50555 5.06281 7.45213C5.15688 7.36025 5.18825 7.2217 5.14293 7.09826C5.12289 7.03149 5.09619 6.9714 5.02274 6.95137C4.81723 6.89782 4.60506 7.01117 4.53533 7.21177C4.46469 7.43927 4.49895 7.68642 4.62881 7.88613C4.71796 8.0439 4.87637 8.15032 5.05613 8.17323C5.31544 8.20252 5.57609 8.13078 5.78391 7.97292C6.04718 7.79504 6.22206 7.51329 6.26463 7.19841C6.31805 6.85122 6.20454 6.56411 5.89741 6.37049L5.67707 6.24363C5.22305 5.98991 4.75567 5.93649 4.27493 6.16351C3.7942 6.39052 3.63396 6.63088 3.53381 7.04485C3.5071 7.17838 3.51378 7.3186 3.49374 7.45213C3.47372 7.58567 3.50043 7.6057 3.4203 7.63241C3.34018 7.65911 3.27341 7.59235 3.22667 7.53893C2.95959 7.2318 2.85278 6.78445 3.10649 6.39719C3.16658 6.29704 3.23335 6.20356 3.30013 6.11009C3.32329 6.0873 3.32872 6.05199 3.31348 6.02329C3.29344 5.99658 3.26674 6.00326 3.24003 6.00326L3.16658 6.01662L2.79268 6.1368C2.52061 6.22366 2.23049 6.23748 1.9514 6.17686C1.56415 6.09006 1.23698 5.88976 0.936523 5.64939V5.62936C1.0802 5.49286 1.24474 5.38016 1.42393 5.29552C1.71771 5.14863 2.01817 5.04847 2.35201 5.06183C2.56401 5.07852 2.77283 5.12343 2.97296 5.19537L3.22667 5.26881C3.26006 5.27549 3.29344 5.28217 3.31348 5.24878C3.32872 5.22008 3.32329 5.18477 3.30013 5.16198C3.26674 5.11524 3.23335 5.06183 3.19329 5.01509C2.94625 4.6946 2.88615 4.35408 3.06644 3.98018C3.11797 3.84898 3.20895 3.737 3.32683 3.65969C3.40695 3.61295 3.46037 3.63966 3.48039 3.71978C3.49626 3.79673 3.50519 3.87494 3.5071 3.95348C3.5055 4.11342 3.53497 4.27215 3.5939 4.42085C3.86098 5.0418 4.61546 5.40234 5.29649 5.19537C5.51727 5.12666 5.72656 5.0254 5.91743 4.89491C6.24461 4.67457 6.31805 4.39414 6.25796 4.06698C6.17116 3.5996 5.90408 3.26576 5.43003 3.13223C5.25643 3.08548 5.07616 3.06545 4.90256 3.14558C4.6021 3.28579 4.4285 3.69308 4.52198 4.01357C4.56564 4.22845 4.77394 4.36831 4.98936 4.32738C5.03192 4.32978 5.07257 4.30945 5.09619 4.27396C5.17427 4.16412 5.18457 4.01989 5.12289 3.90006C5.06383 3.81764 4.99165 3.74547 4.90924 3.6864C4.88253 3.65969 4.84247 3.63299 4.85582 3.58625C4.86853 3.5435 4.90511 3.51215 4.9493 3.50613C5.12182 3.46149 5.30525 3.49574 5.45006 3.5996C5.93079 3.92009 5.81728 4.51433 5.42336 4.7814C5.26311 4.88823 5.08283 4.90826 4.89588 4.92162C4.4285 4.96835 4.07463 4.76805 3.88768 4.3474C3.76008 4.04862 3.74818 3.71305 3.85429 3.40598C4.02789 2.85847 4.62213 2.23753 5.41 2.29762C5.72333 2.3055 6.01691 2.4523 6.21121 2.69823C6.28433 2.79494 6.34911 2.89769 6.40485 3.00536C6.42488 3.03875 6.44491 3.07881 6.49165 3.07213C6.53838 3.06545 6.54506 3.02539 6.55841 2.99201C6.6434 2.75533 6.58054 2.4908 6.39817 2.31765C6.2141 2.15172 5.97806 2.05494 5.73048 2.0439C5.62366 2.0439 5.51015 2.05058 5.40332 2.0439C5.31004 2.05124 5.22412 1.99303 5.19634 1.90369C5.12798 1.73573 5.18309 1.54279 5.32988 1.43631C5.55727 1.24486 5.86217 1.17297 6.15112 1.24268C6.21046 1.25921 6.27065 1.27258 6.33141 1.28274C6.43155 1.29609 6.47162 1.25603 6.47829 1.15588C6.47497 1.11143 6.47497 1.0668 6.47829 1.02235C6.505 0.748589 6.60515 0.508232 6.83884 0.341309H6.94567C7.11043 0.471321 7.22777 0.652016 7.27951 0.855423C7.30232 0.965363 7.31573 1.07705 7.31957 1.18927C7.32625 1.27606 7.36631 1.30945 7.45311 1.29609L7.53323 1.27606C7.72495 1.20725 7.93425 1.2049 8.12747 1.26939C8.30774 1.32948 8.47466 1.4096 8.57481 1.5832C8.6282 1.67951 8.63556 1.79469 8.59485 1.89701C8.56146 2.00384 8.46799 2.05725 8.31442 2.05058C8.08205 2.02867 7.84789 2.0654 7.63338 2.1574C7.29286 2.31097 7.1393 2.5914 7.21274 2.94527C7.21684 2.97851 7.22824 3.01043 7.24612 3.03875C7.28619 3.09884 7.31957 3.09884 7.35295 3.04543C7.39022 2.99221 7.42369 2.93643 7.45311 2.8785C7.56786 2.65638 7.75688 2.48154 7.98726 2.38441C8.41705 2.21584 8.90322 2.27881 9.27588 2.55134C9.80336 2.90521 10.1372 3.59293 9.95024 4.20719C9.85677 4.521 9.6765 4.76805 9.356 4.87488C9.03552 4.9817 8.86859 4.93497 8.62155 4.89491C8.24348 4.81205 7.98779 4.45867 8.02731 4.07365C8.07405 3.70643 8.48134 3.41265 8.84189 3.5128C8.8813 3.52119 8.91389 3.54876 8.92869 3.58625C8.94205 3.63298 8.90866 3.65969 8.88195 3.6864L8.72839 3.81994C8.61264 3.92843 8.58516 4.10158 8.66161 4.24058C8.67931 4.28378 8.71648 4.316 8.76176 4.32738C8.94154 4.3757 9.1312 4.29599 9.22247 4.13375C9.33598 3.90006 9.29591 3.66637 9.1824 3.44603C9.08091 3.22297 8.85289 3.08509 8.6082 3.09884C7.89378 3.12555 7.47314 3.75317 7.5132 4.32738C7.52959 4.54269 7.64249 4.73904 7.82034 4.86152C7.91405 4.93175 8.01472 4.99216 8.12079 5.0418C8.42793 5.20872 8.74841 5.30219 9.09561 5.2421C9.56299 5.16198 9.92354 4.92829 10.1505 4.50765C10.2707 4.28064 10.2841 4.04027 10.2908 3.7999C10.2974 3.73981 10.2974 3.67973 10.3575 3.65302C10.4176 3.62631 10.4644 3.66637 10.5111 3.69975C10.7782 3.92009 10.8917 4.39414 10.7648 4.71463C10.6965 4.86753 10.609 5.01112 10.5044 5.14195C10.4777 5.17533 10.4443 5.20872 10.471 5.24878C10.4977 5.28884 10.5445 5.26881 10.5779 5.26881H10.6179L10.9852 5.1553C11.3627 5.02726 11.7743 5.04391 12.1402 5.20204C12.3917 5.29921 12.6244 5.43928 12.828 5.616ZM7.74689 5.64939C7.74689 5.63603 7.74021 5.63603 7.67345 5.58929C7.39969 5.4157 7.13262 5.22207 6.92564 4.955C6.89893 4.92162 6.8789 4.91494 6.85219 4.955C6.65189 5.21539 6.38481 5.40234 6.11774 5.58262C6.03094 5.64271 6.03094 5.63603 6.11107 5.68945C6.35944 5.84366 6.58813 6.02751 6.7921 6.23695C6.82549 6.27701 6.85219 6.35046 6.89226 6.35713C6.93231 6.36381 6.9657 6.28369 7.00577 6.24363C7.20811 6.03431 7.43709 5.85249 7.6868 5.7028C7.71121 5.69065 7.73196 5.67221 7.74689 5.64939Z" fill="#0083E6"/>
</svg>
