<svg viewBox="0 0 15 23" fill="white" xmlns="http://www.w3.org/2000/svg">
<path d="M11.2695 7.60579C11.2695 6.59725 10.9017 5.734 10.1662 5.01605C9.43063 4.2981 8.54623 3.93913 7.51298 3.93913C6.47973 3.93913 5.59533 4.2981 4.8598 5.01605C4.12426 5.734 3.75649 6.59725 3.75649 7.60579C3.75649 8.61434 4.12426 9.47759 4.8598 10.1955C5.59533 10.9135 6.47973 11.2725 7.51298 11.2725C8.54623 11.2725 9.43063 10.9135 10.1662 10.1955C10.9017 9.47759 11.2695 8.61434 11.2695 7.60579ZM14.9997 7.60579C14.9997 8.64853 14.8421 9.50323 14.5268 10.1699L9.19421 21.2468C9.03659 21.5545 8.80017 21.8024 8.48494 21.9904C8.16971 22.1784 7.84572 22.2725 7.51298 22.2725C7.18024 22.2725 6.8475 22.1784 6.51475 21.9904C6.18201 21.8024 5.95434 21.5545 5.83175 21.2468L0.472845 10.1699C0.157615 9.50323 0 8.64853 0 7.60579C0 5.5887 0.735537 3.8622 2.20661 2.42631C3.67768 0.99041 5.44647 0.272461 7.51298 0.272461C9.57949 0.272461 11.3483 0.99041 12.8194 2.42631C14.2904 3.8622 15.0172 5.5887 14.9997 7.60579Z"/>
</svg>
