<svg viewBox="0 0 20 21" fill="white" xmlns="http://www.w3.org/2000/svg">
    <path d="M20 16.074C20 16.3284 19.9491 16.6592 19.8474 17.0664C19.7456 17.4735 19.6439 17.7958 19.5421 18.0333C19.3556 18.5083 18.779 19.0172 17.8124 19.56C16.9306 20.035 16.0572 20.2725 15.1924 20.2725C14.938 20.2725 14.6836 20.2555 14.4293 20.2216C14.1749 20.1876 13.9036 20.1283 13.6153 20.0435C13.327 19.9586 13.1065 19.8908 12.9539 19.8399C12.8013 19.789 12.5384 19.6957 12.1653 19.56C11.7923 19.4243 11.5548 19.3395 11.4531 19.3055C10.5374 18.9663 9.71489 18.5676 8.98569 18.1096C7.78166 17.3632 6.52676 16.3454 5.22099 15.0562C3.91521 13.7669 2.89772 12.5116 2.16852 11.2903C1.71065 10.5608 1.32061 9.73811 0.99841 8.82208C0.964494 8.73726 0.879703 8.49977 0.744038 8.10961C0.608373 7.71945 0.506624 7.45651 0.438792 7.32081C0.370959 7.1851 0.303127 6.96457 0.235294 6.65923C0.167462 6.35389 0.108108 6.08247 0.0572337 5.84498C0.0063593 5.60749 -0.0105988 5.36152 0.0063593 5.10707C0.0063593 4.22496 0.252252 3.34286 0.744038 2.46076C1.26974 1.49384 1.77001 0.917075 2.24483 0.730476C2.48225 0.628695 2.80445 0.526914 3.21145 0.425133C3.61844 0.323351 3.94913 0.272461 4.2035 0.272461C4.33916 0.272461 4.44091 0.289424 4.50874 0.323351C4.67833 0.374242 4.9327 0.730476 5.27186 1.39205C5.37361 1.57865 5.50927 1.84159 5.67886 2.18086C5.84844 2.52013 6.01802 2.81699 6.1876 3.07144C6.35718 3.3259 6.50133 3.58035 6.62003 3.8348C6.65395 3.86873 6.73874 3.98747 6.8744 4.19104C7.01007 4.3946 7.11182 4.56423 7.17965 4.69994C7.24748 4.83565 7.2814 4.97136 7.2814 5.10707C7.2814 5.29367 7.14573 5.52267 6.8744 5.79409C6.60307 6.06551 6.30631 6.32844 5.9841 6.58289C5.6619 6.83735 5.37361 7.0918 5.11924 7.34625C4.86487 7.6007 4.7292 7.81275 4.71224 7.98238C4.71224 8.0672 4.73768 8.17746 4.78855 8.31317C4.83943 8.44888 4.87334 8.54218 4.8903 8.59307C4.90726 8.64396 4.97509 8.76271 5.0938 8.94931C5.21251 9.1359 5.27186 9.22072 5.27186 9.20376C5.9841 10.5099 6.80657 11.6295 7.73927 12.5625C8.67197 13.4955 9.78272 14.3183 11.0715 15.0307C11.0885 15.0307 11.1733 15.0816 11.3259 15.1834C11.4785 15.2852 11.5972 15.353 11.682 15.387C11.7668 15.4209 11.8601 15.4633 11.9618 15.5142C12.0636 15.5651 12.1738 15.582 12.2925 15.5651C12.4621 15.5651 12.6741 15.4294 12.9285 15.158C13.1828 14.8865 13.4372 14.5982 13.6916 14.2928C13.9459 13.9875 14.2088 13.6906 14.4801 13.4022C14.7515 13.1139 14.9889 12.9781 15.1924 12.9951C15.3111 12.9951 15.4383 13.029 15.5739 13.0969C15.7096 13.1647 15.8792 13.2665 16.0827 13.4022C16.2862 13.5379 16.4049 13.6228 16.4388 13.6567C16.6762 13.7924 16.9306 13.9366 17.2019 14.0893C17.4732 14.2419 17.7785 14.4116 18.1176 14.5982C18.4568 14.7848 18.7112 14.9289 18.8808 15.0307C19.5421 15.353 19.8983 15.599 19.9491 15.7686C19.983 15.8365 20 15.9383 20 16.074Z"/>
</svg>