<svg viewBox="0 0 25 22" fill="white" xmlns="http://www.w3.org/2000/svg">
<path d="M25 3.01979C24.2984 4.07004 23.4452 4.97442 22.4403 5.73293V6.40392C22.4403 7.8237 22.2412 9.23375 21.843 10.6341C21.4448 12.0344 20.8381 13.3861 20.0228 14.6892C19.2074 15.9923 18.2309 17.1301 17.0933 18.1025C15.9556 19.075 14.5904 19.8724 12.9977 20.4947C11.405 21.1171 9.68904 21.4088 7.84983 21.3699C4.98673 21.3699 2.37012 20.5823 0 19.0069C0.360258 19.0458 0.767918 19.0652 1.22298 19.0652C3.61206 19.0652 5.73568 18.3164 7.59386 16.8189C6.47516 16.7994 5.47971 16.4493 4.60751 15.7686C3.73531 15.0879 3.12856 14.2224 2.78726 13.1722C3.14752 13.2305 3.46985 13.2597 3.75427 13.2597C4.20933 13.2597 4.66439 13.2014 5.11945 13.0847C3.92491 12.8318 2.93895 12.2289 2.16155 11.2759C1.38415 10.3229 0.995449 9.20458 0.995449 7.92094V7.8626C1.71596 8.27102 2.49336 8.49469 3.32765 8.53359C2.62609 8.04736 2.06674 7.42499 1.6496 6.66648C1.23246 5.90797 1.02389 5.07166 1.02389 4.15756C1.02389 3.20455 1.2609 2.31962 1.73493 1.50277C3.02427 3.11703 4.57907 4.41039 6.39932 5.38284C8.21957 6.3553 10.1915 6.89014 12.3151 6.98739C12.2203 6.57896 12.1729 6.18026 12.1729 5.79128C12.1729 4.3326 12.6754 3.09759 13.6803 2.08624C14.6852 1.07489 15.8893 0.559488 17.2924 0.540039C18.7903 0.540039 20.0417 1.09434 21.0466 2.20293C22.2033 1.96954 23.2935 1.54166 24.3174 0.919295C23.9192 2.16403 23.1608 3.13648 22.0421 3.83665C23.0281 3.71995 24.014 3.44767 25 3.01979Z"/>
</svg>
