<svg viewBox="0 0 25 24" fill="white" xmlns="http://www.w3.org/2000/svg">
<path d="M15.488 13.308C15.6194 13.308 16.1263 13.532 17.0086 13.98C17.891 14.428 18.3603 14.6968 18.4166 14.7864C18.4354 14.8223 18.4448 14.894 18.4448 15.0015C18.4448 15.324 18.3603 15.7004 18.1914 16.1304C18.0224 16.5247 17.6469 16.8562 17.065 17.125C16.483 17.3938 15.9479 17.5282 15.4598 17.5282C14.8591 17.5282 13.8641 17.2146 12.4749 16.5874C11.4423 16.1394 10.5506 15.548 9.79968 14.8133C9.04875 14.0786 8.27904 13.1557 7.49056 12.0447C6.72085 10.9695 6.34539 10.0018 6.36416 9.14164V9.00724C6.40171 8.11124 6.78656 7.32276 7.51872 6.6418C7.78155 6.42676 8.05376 6.31924 8.33536 6.31924C8.41045 6.31924 8.50432 6.3282 8.61696 6.34612C8.7296 6.36404 8.83285 6.373 8.92672 6.373C9.13323 6.373 9.27403 6.39988 9.34912 6.45364C9.42421 6.5074 9.49931 6.65076 9.5744 6.88372C9.66827 7.08084 9.84661 7.51988 10.1094 8.20084C10.3723 8.8818 10.5037 9.24916 10.5037 9.30292C10.5037 9.51796 10.3253 9.81364 9.96864 10.19C9.61195 10.5663 9.42421 10.7992 9.40544 10.8888C9.40544 10.9426 9.4336 11.0143 9.48992 11.1039C9.84661 11.8386 10.3817 12.5196 11.095 13.1468C11.677 13.6844 12.4655 14.1951 13.4605 14.6789C13.5919 14.7506 13.7139 14.7864 13.8266 14.7864C13.9767 14.7864 14.2583 14.5445 14.6714 14.0607C15.0844 13.5768 15.3566 13.326 15.488 13.308ZM12.2778 21.2645C13.6107 21.2645 14.8873 21.0136 16.1075 20.5119C17.3278 20.0101 18.3791 19.3471 19.2614 18.5228C20.1438 17.6984 20.8478 16.6949 21.3734 15.5122C21.8991 14.3295 22.1619 13.1109 22.1619 11.8565C22.1619 10.6021 21.8991 9.38356 21.3734 8.20084C20.8478 7.01812 20.1438 6.0146 19.2614 5.19028C18.3791 4.36596 17.3278 3.69396 16.1075 3.17428C14.8873 2.6546 13.6107 2.40372 12.2778 2.42164C10.9449 2.43956 9.67765 2.69044 8.47616 3.17428C7.27467 3.65812 6.22336 4.33012 5.32224 5.19028C4.42112 6.05044 3.71712 7.05396 3.21024 8.20084C2.70336 9.34772 2.44053 10.5663 2.42176 11.8565C2.42176 13.8815 3.05067 15.7183 4.30848 17.3669L3.06944 20.8613L6.87104 19.7055C8.52309 20.7448 10.3253 21.2645 12.2778 21.2645ZM12.2778 0.540039C13.8923 0.540039 15.4317 0.844679 16.896 1.45396C18.3603 2.06324 19.6181 2.86068 20.6694 3.84628C21.7207 4.83188 22.5655 6.04148 23.2038 7.47508C23.8421 8.90868 24.1519 10.3692 24.1331 11.8565C24.1143 13.3439 23.8046 14.8044 23.2038 16.238C22.6031 17.6716 21.7583 18.8722 20.6694 19.8399C19.5806 20.8076 18.3228 21.614 16.896 22.2591C15.4692 22.9042 13.9298 23.2088 12.2778 23.173C10.2502 23.173 8.34475 22.6981 6.56128 21.7484L0 23.7644L2.14016 17.6895C1.01376 15.9154 0.45056 13.9711 0.45056 11.8565C0.45056 10.3154 0.76032 8.85492 1.37984 7.47508C1.99936 6.09524 2.84416 4.88564 3.91424 3.84628C4.98432 2.80692 6.24213 2.00948 7.68768 1.45396C9.13323 0.898439 10.6633 0.593799 12.2778 0.540039Z"/>
</svg>
