<svg xmlns="http://www.w3.org/2000/svg" width="14" height="16" viewBox="0 0 14 16" fill="none">
    <path d="M1.07212 14.4844H3.48438V12.0721H1.07212V14.4844ZM4.02043 14.4844H6.70072V12.0721H4.02043V14.4844ZM1.07212 11.5361H3.48438V8.8558H1.07212V11.5361ZM4.02043 11.5361H6.70072V8.8558H4.02043V11.5361ZM1.07212 8.31974H3.48438V5.90748H1.07212V8.31974ZM7.23678 14.4844H9.91707V12.0721H7.23678V14.4844ZM4.02043 8.31974H6.70072V5.90748H4.02043V8.31974ZM10.4531 14.4844H12.8654V12.0721H10.4531V14.4844ZM7.23678 11.5361H9.91707V8.8558H7.23678V11.5361ZM4.28846 4.29931V1.88705C4.28846 1.81446 4.26194 1.75164 4.20889 1.69859C4.15584 1.64554 4.09302 1.61902 4.02043 1.61902H3.48438C3.41178 1.61902 3.34896 1.64554 3.29592 1.69859C3.24287 1.75164 3.21635 1.81446 3.21635 1.88705V4.29931C3.21635 4.3719 3.24287 4.43472 3.29592 4.48776C3.34896 4.54081 3.41178 4.56734 3.48438 4.56734H4.02043C4.09302 4.56734 4.15584 4.54081 4.20889 4.48776C4.26194 4.43472 4.28846 4.3719 4.28846 4.29931ZM10.4531 11.5361H12.8654V8.8558H10.4531V11.5361ZM7.23678 8.31974H9.91707V5.90748H7.23678V8.31974ZM10.4531 8.31974H12.8654V5.90748H10.4531V8.31974ZM10.7212 4.29931V1.88705C10.7212 1.81446 10.6946 1.75164 10.6416 1.69859C10.5885 1.64554 10.5257 1.61902 10.4531 1.61902H9.91707C9.84448 1.61902 9.78166 1.64554 9.72861 1.69859C9.67556 1.75164 9.64904 1.81446 9.64904 1.88705V4.29931C9.64904 4.3719 9.67556 4.43472 9.72861 4.48776C9.78166 4.54081 9.84448 4.56734 9.91707 4.56734H10.4531C10.5257 4.56734 10.5885 4.54081 10.6416 4.48776C10.6946 4.43472 10.7212 4.3719 10.7212 4.29931ZM13.9375 3.76325V14.4844C13.9375 14.7748 13.8314 15.026 13.6192 15.2382C13.407 15.4504 13.1557 15.5565 12.8654 15.5565H1.07212C0.781751 15.5565 0.530474 15.4504 0.318284 15.2382C0.106095 15.026 0 14.7748 0 14.4844V3.76325C0 3.47288 0.106095 3.22161 0.318284 3.00942C0.530474 2.79723 0.781751 2.69113 1.07212 2.69113H2.14423V1.88705C2.14423 1.51851 2.27545 1.20302 2.5379 0.94057C2.80034 0.678125 3.11584 0.546903 3.48438 0.546903H4.02043C4.38897 0.546903 4.70446 0.678125 4.96691 0.94057C5.22935 1.20302 5.36058 1.51851 5.36058 1.88705V2.69113H8.57692V1.88705C8.57692 1.51851 8.70815 1.20302 8.97059 0.94057C9.23304 0.678125 9.54853 0.546903 9.91707 0.546903H10.4531C10.8217 0.546903 11.1372 0.678125 11.3996 0.94057C11.662 1.20302 11.7933 1.51851 11.7933 1.88705V2.69113H12.8654C13.1557 2.69113 13.407 2.79723 13.6192 3.00942C13.8314 3.22161 13.9375 3.47288 13.9375 3.76325Z" fill="#0083E6"/>
</svg>