<svg xmlns="http://www.w3.org/2000/svg" xmlns:xlink="http://www.w3.org/1999/xlink" x="0px" y="0px"
	 viewBox="0 0 54 40" style="enable-background:new 0 0 54 40;" xml:space="preserve">
<style type="text/css">
	.st0{fill:#FFFFFF;fill-opacity:0.5;}
</style>
<g>
	<path class="st0" d="M52.2,34.8c0.3,0.1,0.4,0.4,0.3,0.6c-0.4,1.3-1,2.5-1.6,3.7c-0.1,0.2-0.4,0.3-0.7,0.2l-1.7-1
		c-0.2-0.1-0.3-0.4-0.2-0.7c0.5-1,0.9-2,1.3-3c0.1-0.2,0.4-0.4,0.6-0.3L52.2,34.8z M53.4,28c0.3,0,0.5,0.2,0.5,0.5
		c-0.1,1.4-0.3,2.7-0.6,4c-0.1,0.3-0.3,0.4-0.6,0.4l-1.9-0.5c-0.3-0.1-0.4-0.3-0.4-0.6c0.2-1.1,0.4-2.2,0.5-3.3
		c0-0.3,0.2-0.5,0.5-0.5H53.4z M1.2,32.9c-0.3,0.1-0.5-0.1-0.6-0.4c-0.3-1.3-0.5-2.6-0.6-4C0,28.2,0.3,28,0.6,28h2
		c0.3,0,0.5,0.2,0.5,0.5c0.1,1.1,0.2,2.2,0.5,3.3c0.1,0.3-0.1,0.5-0.4,0.6L1.2,32.9z M3.7,39.3c-0.2,0.1-0.6,0.1-0.7-0.2
		c-0.6-1.2-1.2-2.4-1.6-3.7c-0.1-0.3,0.1-0.6,0.3-0.6l1.9-0.5c0.3-0.1,0.5,0.1,0.6,0.3c0.4,1,0.8,2,1.3,3c0.1,0.2,0,0.5-0.2,0.7
		L3.7,39.3z M3.1,21.6c0.3,0.1,0.4,0.3,0.4,0.6c-0.2,1.1-0.3,2.2-0.4,3.3C3,25.8,2.8,26,2.5,26h-2C0.3,26,0,25.8,0,25.5
		c0.1-1.4,0.3-2.7,0.5-4c0.1-0.3,0.3-0.4,0.6-0.4L3.1,21.6z M5.3,15.6c0.2,0.1,0.3,0.4,0.2,0.7c-0.5,1-0.9,2-1.3,3.1
		c-0.1,0.3-0.4,0.4-0.6,0.3l-1.9-0.5c-0.3-0.1-0.4-0.4-0.3-0.6c0.4-1.3,0.9-2.5,1.5-3.7c0.1-0.3,0.4-0.3,0.7-0.2L5.3,15.6z M9,10.4
		c0.2,0.2,0.2,0.5,0,0.7c-0.7,0.8-1.4,1.7-2,2.6c-0.1,0.2-0.4,0.3-0.7,0.2l-1.7-1c-0.2-0.1-0.3-0.5-0.2-0.7C5.1,11.1,6,10,6.9,9
		c0.2-0.2,0.5-0.2,0.7,0L9,10.4z M13.9,6.3C14,6.5,13.9,6.8,13.7,7c-0.9,0.6-1.8,1.3-2.7,2c-0.2,0.2-0.5,0.2-0.7,0L9,7.6
		C8.8,7.4,8.8,7.1,9,6.9c1-0.9,2.1-1.7,3.2-2.5c0.2-0.2,0.6-0.1,0.7,0.2L13.9,6.3z M19.7,3.6c0.1,0.3-0.1,0.5-0.3,0.6
		c-1.1,0.4-2.1,0.8-3.1,1.3c-0.2,0.1-0.5,0-0.7-0.2l-1-1.7c-0.1-0.2-0.1-0.6,0.2-0.7c1.2-0.6,2.4-1.1,3.7-1.5
		c0.3-0.1,0.6,0.1,0.6,0.3L19.7,3.6z M26,2.5C26,2.8,25.8,3,25.5,3c-1.1,0.1-2.2,0.2-3.3,0.4c-0.3,0.1-0.5-0.1-0.6-0.4l-0.5-1.9
		c-0.1-0.3,0.1-0.6,0.4-0.6c1.3-0.3,2.6-0.4,4-0.5C25.8,0,26,0.3,26,0.5V2.5z M32.4,3.1c-0.1,0.3-0.3,0.4-0.6,0.4
		c-1.1-0.2-2.2-0.4-3.3-0.4C28.2,3,28,2.8,28,2.5v-2C28,0.3,28.2,0,28.5,0c1.4,0.1,2.7,0.3,4,0.5c0.3,0.1,0.4,0.3,0.4,0.6L32.4,3.1z
		 M38.4,5.3c-0.1,0.2-0.4,0.3-0.7,0.2c-1-0.5-2-0.9-3.1-1.3c-0.3-0.1-0.4-0.4-0.3-0.6l0.5-1.9c0.1-0.3,0.4-0.4,0.6-0.3
		c1.3,0.4,2.5,0.9,3.7,1.5c0.3,0.1,0.3,0.4,0.2,0.7L38.4,5.3z M43.6,9c-0.2,0.2-0.5,0.2-0.7,0c-0.8-0.7-1.7-1.4-2.7-2
		c-0.2-0.1-0.3-0.4-0.2-0.7l1-1.7c0.1-0.2,0.5-0.3,0.7-0.2C42.9,5.1,44,6,45,6.9c0.2,0.2,0.2,0.5,0,0.7L43.6,9z M47.7,13.9
		c-0.2,0.1-0.5,0.1-0.7-0.2c-0.6-0.9-1.3-1.8-2-2.6c-0.2-0.2-0.2-0.5,0-0.7L46.4,9c0.2-0.2,0.5-0.2,0.7,0c0.9,1,1.7,2.1,2.5,3.2
		c0.2,0.2,0.1,0.6-0.2,0.7L47.7,13.9z M50.4,19.7c-0.3,0.1-0.5-0.1-0.6-0.3c-0.4-1.1-0.8-2.1-1.3-3.1c-0.1-0.2,0-0.5,0.2-0.7l1.7-1
		c0.2-0.1,0.6-0.1,0.7,0.2c0.6,1.2,1.1,2.4,1.5,3.7c0.1,0.3-0.1,0.6-0.3,0.6L50.4,19.7z M51.5,26c-0.3,0-0.5-0.2-0.5-0.5
		c-0.1-1.1-0.2-2.2-0.4-3.3c-0.1-0.3,0.1-0.5,0.4-0.6l1.9-0.5c0.3-0.1,0.6,0.1,0.6,0.4c0.3,1.3,0.4,2.6,0.5,4c0,0.3-0.2,0.5-0.5,0.5
		H51.5z"/>
</g>
</svg>
