<svg width="25" height="17" viewBox="0 0 25 17" fill="none" xmlns="http://www.w3.org/2000/svg">
<path d="M0 0H25V17H0V0Z" fill="#D9D9D9"/>
<path d="M25 0.000244141H0V17.0001H25V0.000244141Z" fill="#F0F0F0"/>
<path d="M14.0625 0H10.9375V6.90608H0V10.0935H10.9375V16.9996H14.0625V10.0935H25V6.90608H14.0625V0Z" fill="#D80027"/>
<path d="M19.2278 11.4563L25 14.7272V11.4563H19.2278Z" fill="#0052B4"/>
<path d="M15.2173 11.4563L24.9999 16.9997V15.4321L17.9836 11.4563H15.2173Z" fill="#0052B4"/>
<path d="M22.3941 16.9995L15.2173 12.9324V16.9995H22.3941Z" fill="#0052B4"/>
<path d="M15.2173 11.4563L24.9999 16.9997V15.4321L17.9836 11.4563H15.2173Z" fill="#F0F0F0"/>
<path d="M15.2173 11.4563L24.9999 16.9997V15.4321L17.9836 11.4563H15.2173Z" fill="#D80027"/>
<path d="M4.41118 11.4561L0 13.9557V11.4561H4.41118Z" fill="#0052B4"/>
<path d="M9.78257 12.1609V16.9994H1.24463L9.78257 12.1609Z" fill="#0052B4"/>
<path d="M7.01626 11.4563L0 15.4321V16.9997L9.78262 11.4563H7.01626Z" fill="#D80027"/>
<path d="M5.77222 5.54337L0 2.27246V5.54337H5.77222Z" fill="#0052B4"/>
<path d="M9.78262 5.54335L0 0V1.56752L7.01626 5.54335H9.78262Z" fill="#0052B4"/>
<path d="M2.60571 0L9.78257 4.06717V0H2.60571Z" fill="#0052B4"/>
<path d="M9.78262 5.54335L0 0V1.56752L7.01626 5.54335H9.78262Z" fill="#F0F0F0"/>
<path d="M9.78262 5.54335L0 0V1.56752L7.01626 5.54335H9.78262Z" fill="#D80027"/>
<path d="M20.5886 5.54335L24.9998 3.0437V5.54335H20.5886Z" fill="#0052B4"/>
<path d="M15.2173 4.83848V0H23.7552L15.2173 4.83848Z" fill="#0052B4"/>
<path d="M17.9836 5.54335L24.9999 1.56752V0L15.2173 5.54335H17.9836Z" fill="#D80027"/>
</svg>
