<svg width="25" height="17" viewBox="0 0 25 17" fill="none" xmlns="http://www.w3.org/2000/svg">
<rect width="25" height="17" fill="#D9D9D9"/>
<path d="M25 0H0V17H25V0Z" fill="#E30A17"/>
<path d="M12 6.09355C11.5309 5.55184 10.9144 5.17055 10.2321 5.00004C9.54981 4.82953 8.83371 4.87782 8.1784 5.13853C7.52309 5.39924 6.95938 5.86011 6.56174 6.46027C6.1641 7.06043 5.95122 7.77165 5.95122 8.5C5.95122 9.22835 6.1641 9.93957 6.56174 10.5397C6.95938 11.1399 7.52309 11.6008 8.1784 11.8615C8.83371 12.1222 9.54981 12.1705 10.2321 12C10.9144 11.8294 11.5309 11.4482 12 10.9064C11.4976 11.7303 10.751 12.3625 9.87254 12.708C8.99407 13.0535 8.03124 13.0935 7.12894 12.8221C6.22664 12.5507 5.43369 11.9825 4.86939 11.203C4.3051 10.4235 4 9.47496 4 8.5C4 7.52504 4.3051 6.57646 4.86939 5.79698C5.43369 5.01751 6.22664 4.44931 7.12894 4.17789C8.03124 3.90647 8.99407 3.94652 9.87254 4.292C10.751 4.63748 11.4976 5.26971 12 6.09355Z" fill="white"/>
<path d="M12 8.5L13.1459 8.1459V7L13.8541 7.92705L15 7.57295L14.2918 8.5L15 9.42705L13.8541 9.07295L13.1459 10V8.8541L12 8.5Z" fill="white"/>
</svg>
