<svg viewBox="0 0 16 16" fill="none" xmlns="http://www.w3.org/2000/svg">
<path d="M8.30671 0C10.1966 0.0346273 12.0979 0.792114 13.653 2.35012C15.2075 3.90756 15.9694 5.80733 16 8.00403C15.9676 10.2032 15.1876 12.0914 13.6455 13.6625C12.0733 15.1981 10.1857 15.9708 7.99077 16C5.7898 15.966 3.89514 15.1911 2.3313 13.6377C0.831614 12.1481 -0.00433417 10.117 1.69005e-05 7.98802C0.00904386 3.5711 3.58316 0.00269755 8.30671 0ZM5.24563 13.2665C5.24563 13.3775 5.24642 13.4736 5.24522 13.5697C5.24479 13.6042 5.25647 13.6247 5.28962 13.6393C5.62586 13.7875 5.97121 13.9094 6.32703 14.0011C6.6844 14.0932 7.04689 14.1547 7.41476 14.1869C7.59392 14.2025 7.7734 14.2059 7.95274 14.2145C8.03267 14.2183 8.11275 14.2099 8.19265 14.2083C8.39567 14.2043 8.59743 14.1877 8.79897 14.1644C9.0716 14.1329 9.34085 14.0831 9.60708 14.0172C9.96547 13.9285 10.314 13.8104 10.6524 13.6625C10.751 13.6194 10.7529 13.6191 10.754 13.5137C10.7568 13.2646 10.7513 13.0157 10.736 12.7669C10.7258 12.6 10.7108 12.4337 10.6934 12.2675C10.6666 12.0124 10.6264 11.7595 10.5773 11.5081C10.4861 11.0409 10.3603 10.5831 10.1984 10.1354C10.0578 9.7466 9.89347 9.36843 9.70348 9.00107C9.51838 8.64317 9.31066 8.29921 9.08154 7.96808C8.89816 7.70303 8.70065 7.44882 8.49138 7.20358C8.37005 7.06139 8.24138 6.92604 8.1151 6.78843C8.08624 6.75698 8.05486 6.72785 8.02509 6.69722C8.00838 6.68003 7.99235 6.67755 7.97504 6.69601C7.96653 6.70509 7.95737 6.71356 7.94854 6.72235C7.80092 6.86931 7.66102 7.02352 7.52488 7.18096C7.3094 7.43013 7.10766 7.69021 6.92002 7.96105C6.58463 8.44516 6.2962 8.95567 6.05643 9.4938C5.84295 9.97293 5.67104 10.4664 5.54058 10.9743C5.43375 11.3902 5.35589 11.8114 5.30654 12.2381C5.28568 12.4184 5.26825 12.599 5.25858 12.78C5.24967 12.9468 5.23784 13.1139 5.24563 13.2665ZM1.73055 9.78968C1.74402 9.78616 1.74423 9.77393 1.7475 9.76463C1.77823 9.67733 1.8076 9.58954 1.83906 9.50251C1.96746 9.14734 2.11462 8.80003 2.27949 8.46028C2.36576 8.28251 2.45696 8.10729 2.55204 7.93402C2.7003 7.66386 2.86049 7.40094 3.03144 7.14473C3.26571 6.7936 3.518 6.45591 3.79033 6.13303C3.94872 5.94523 4.11274 5.76261 4.28153 5.58439C4.4382 5.41898 4.60225 5.26075 4.76959 5.10607C4.82183 5.05778 4.87551 5.01103 4.92912 4.96425C5.00553 4.89758 5.08256 4.83163 5.15915 4.76518C5.18682 4.74118 5.18612 4.73467 5.15157 4.71769C5.12285 4.70357 5.09314 4.69144 5.06377 4.67867C4.61882 4.48525 4.16101 4.32944 3.69139 4.20778C3.34469 4.11796 2.99362 4.05046 2.63931 3.99928C2.57068 3.98937 2.50159 3.98267 2.43274 3.97415C2.40114 3.97024 2.377 3.9801 2.36182 4.00924C2.3569 4.01868 2.35075 4.02749 2.34511 4.03656C2.19166 4.28323 2.05476 4.53868 1.9342 4.80308C1.7921 5.11476 1.67649 5.43591 1.5839 5.76548C1.51016 6.02796 1.45437 6.29426 1.4136 6.56384C1.38086 6.78037 1.35609 6.99808 1.34897 7.21656C1.34068 7.47075 1.33803 7.72532 1.35478 7.97974C1.36472 8.13073 1.37895 8.28104 1.39823 8.43099C1.45608 8.88097 1.56098 9.31987 1.70997 9.74828C1.715 9.76274 1.71568 9.77997 1.73055 9.78968ZM14.2613 9.79816C14.28 9.77671 14.2835 9.75896 14.2889 9.7425C14.3181 9.65282 14.348 9.56333 14.3755 9.4731C14.5374 8.94086 14.6282 8.39592 14.6513 7.84075C14.6645 7.52435 14.6572 7.20763 14.6241 6.89183C14.6017 6.6775 14.5713 6.46456 14.5297 6.25329C14.4593 5.89633 14.3594 5.54767 14.231 5.20717C14.0754 4.79448 13.8795 4.40184 13.6477 4.02669C13.6198 3.98155 13.5876 3.96931 13.5376 3.97579C13.2464 4.01355 12.9567 4.05972 12.6694 4.12186C12.0901 4.2472 11.5278 4.42565 10.9823 4.65711C10.9347 4.67727 10.8871 4.69726 10.8403 4.71881C10.8151 4.73035 10.8141 4.73897 10.8317 4.7582C10.8377 4.76472 10.8448 4.77029 10.8516 4.77597C11.0613 4.94981 11.261 5.13475 11.4577 5.32294C11.6146 5.47307 11.7629 5.63167 11.9096 5.7918C12.0972 5.99658 12.2762 6.20844 12.4482 6.42648C12.7163 6.76653 12.9625 7.12178 13.1886 7.49101C13.4184 7.8663 13.6253 8.25381 13.8084 8.65411C13.9448 8.95212 14.0689 9.25495 14.1782 9.56389C14.2048 9.63909 14.2316 9.71424 14.2613 9.79816ZM11.8707 2.15365C11.8723 2.14987 11.8739 2.14608 11.8754 2.14229C11.4108 1.80603 10.9093 1.53691 10.3734 1.33279C9.41989 0.969644 8.43304 0.834057 7.41734 0.921342C6.49004 1.00103 5.61683 1.26596 4.80008 1.71348C4.56536 1.84209 4.33848 1.98332 4.12372 2.14222C4.13176 2.15619 4.13909 2.1562 4.14603 2.15667C4.33581 2.16945 4.52572 2.17982 4.71517 2.19787C4.88517 2.21408 5.05475 2.2334 5.22379 2.25709C5.51111 2.29736 5.79623 2.35006 6.0796 2.4124C6.45887 2.49585 6.83227 2.60067 7.20065 2.72305C7.45402 2.80724 7.7039 2.90133 7.94997 3.00507C7.98945 3.02172 8.0228 3.02 8.06182 3.00339C8.27803 2.91137 8.49799 2.82878 8.72024 2.75261C9.22944 2.57808 9.74855 2.44079 10.2775 2.34057C10.5346 2.29186 10.793 2.25217 11.0528 2.22247C11.2807 2.19643 11.509 2.17381 11.7384 2.16545C11.7826 2.16384 11.8266 2.1577 11.8707 2.15365ZM12.2424 12.6111C12.2315 12.4997 12.2203 12.3883 12.2096 12.2768C12.1842 12.0128 12.1459 11.7506 12.0973 11.49C11.9997 10.9678 11.8631 10.456 11.6842 9.95549C11.5144 9.48031 11.3105 9.02058 11.0715 8.57618C10.8892 8.23724 10.6882 7.90996 10.4678 7.59455C10.1254 7.10481 9.74528 6.64689 9.32003 6.22671C9.2061 6.11414 9.0927 6.00108 8.97373 5.89378C8.93654 5.86025 8.92827 5.85825 8.89632 5.88257C8.78586 5.96663 8.68006 6.05645 8.57315 6.14491C8.5532 6.16141 8.5513 6.175 8.57065 6.19229C8.60115 6.21954 8.63197 6.24651 8.66127 6.27503C8.90751 6.51467 9.14248 6.76478 9.36385 7.02772C9.57835 7.2825 9.78038 7.54669 9.96768 7.82201C10.2716 8.2688 10.5371 8.7374 10.7625 9.22865C10.9282 9.58973 11.0723 9.95906 11.1932 10.3376C11.3468 10.8183 11.4629 11.3076 11.5406 11.8061C11.5932 12.1438 11.6296 12.4829 11.6458 12.8244C11.6497 12.9061 11.6531 12.9878 11.6552 13.0695C11.6562 13.1104 11.662 13.1126 11.6986 13.09C11.7061 13.0853 11.7134 13.0802 11.7208 13.0752C11.8805 12.9681 12.034 12.8527 12.1846 12.7331C12.2267 12.6997 12.252 12.6659 12.2424 12.6111ZM3.76072 12.5822C3.75929 12.5999 3.75983 12.6181 3.75599 12.6353C3.7494 12.6648 3.75756 12.6876 3.7809 12.706C3.79066 12.7137 3.79922 12.7229 3.80891 12.7308C3.96146 12.8536 4.1192 12.9695 4.28136 13.0793C4.33336 13.1145 4.33944 13.1112 4.34398 13.0481C4.34436 13.0427 4.3446 13.0374 4.34459 13.0321C4.34419 12.8878 4.35582 12.7443 4.3653 12.6005C4.37807 12.4069 4.39888 12.2143 4.42423 12.0221C4.46008 11.7504 4.50879 11.4808 4.56758 11.213C4.67501 10.7235 4.81922 10.2452 5.00105 9.77833C5.1381 9.42646 5.29394 9.08312 5.47167 8.7497C5.59732 8.51398 5.73044 8.28272 5.87496 8.05811C6.10635 7.6985 6.35806 7.35389 6.63458 7.0274C6.77147 6.86579 6.91147 6.70708 7.05862 6.55483C7.17859 6.43069 7.30062 6.30852 7.42615 6.18992C7.45073 6.16669 7.45096 6.16357 7.42512 6.14002C7.40673 6.12326 7.38717 6.10776 7.3678 6.09211C7.27923 6.02055 7.19023 5.94951 7.10212 5.8774C7.08083 5.85998 7.06416 5.85682 7.04246 5.87762C6.91271 6.00193 6.77815 6.1215 6.65296 6.25021C6.55381 6.35214 6.45328 6.45295 6.3579 6.55881C6.22804 6.70293 6.10013 6.84863 5.97785 6.99909C5.7307 7.30321 5.50052 7.61973 5.29139 7.95135C5.07663 8.2919 4.88068 8.64267 4.70799 9.00661C4.51619 9.41083 4.35136 9.82541 4.2141 10.2512C4.10915 10.5767 4.02167 10.9068 3.95062 11.2413C3.88996 11.5269 3.84207 11.8147 3.80605 12.1044C3.7863 12.2632 3.77049 12.4224 3.76072 12.5822ZM2.8876 11.8221C2.89438 11.7911 2.89886 11.774 2.90178 11.7567C2.91628 11.6707 2.92984 11.5846 2.94469 11.4987C3.02546 11.0315 3.14035 10.5727 3.28549 10.1214C3.39291 9.78745 3.51722 9.45985 3.65792 9.13836C3.81077 8.78907 3.98221 8.44921 4.1724 8.11894C4.34568 7.81803 4.53361 7.52639 4.73629 7.2443C4.9743 6.91304 5.23095 6.59689 5.50394 6.29394C5.64219 6.14052 5.78837 5.99472 5.93542 5.84984C5.99624 5.78992 6.0558 5.72876 6.12028 5.67247C6.21003 5.59409 6.29773 5.51333 6.38545 5.43266C6.41918 5.40165 6.41799 5.39877 6.38122 5.37486C6.25884 5.29527 6.13342 5.2207 6.00668 5.14832C5.96724 5.1258 5.96219 5.12641 5.92668 5.15631C5.71153 5.33746 5.50624 5.52952 5.30571 5.72645C5.18647 5.84356 5.07242 5.96602 4.95907 6.08904C4.82398 6.23565 4.69335 6.38605 4.56739 6.54039C4.30274 6.86467 4.05656 7.20242 3.83166 7.55567C3.66907 7.81104 3.51676 8.0723 3.37663 8.34056C3.14809 8.7781 2.94892 9.22856 2.7829 9.69368C2.62473 10.1368 2.49549 10.588 2.39374 11.0473C2.38099 11.1049 2.39105 11.1494 2.42264 11.1968C2.52539 11.3509 2.63329 11.5012 2.74662 11.6476C2.78987 11.7034 2.83536 11.7576 2.8876 11.8221ZM13.1092 11.8094C13.126 11.8048 13.1324 11.7933 13.1401 11.784C13.2971 11.5948 13.4415 11.3964 13.5776 11.1916C13.6101 11.1427 13.6152 11.0975 13.6028 11.0418C13.5086 10.6192 13.3929 10.2029 13.2506 9.79385C13.1018 9.36618 12.9251 8.95045 12.7248 8.54466C12.6334 8.35952 12.5348 8.1781 12.432 7.99899C12.2733 7.72248 12.1025 7.45364 11.9199 7.1923C11.7251 6.91345 11.5174 6.64463 11.2971 6.38534C11.1658 6.23068 11.0314 6.07873 10.8912 5.93227C10.7176 5.75101 10.5396 5.57393 10.3538 5.40507C10.2617 5.32132 10.1676 5.23974 10.0734 5.15821C10.0354 5.12527 10.03 5.1253 9.9886 5.14942C9.86861 5.21924 9.74856 5.289 9.63192 5.36438C9.57797 5.39925 9.57788 5.39994 9.62415 5.44202C9.73601 5.54377 9.85091 5.64235 9.95962 5.74735C10.1222 5.90436 10.2822 6.06394 10.4362 6.22969C10.5973 6.40321 10.7521 6.58217 10.9008 6.76616C11.1495 7.07369 11.3799 7.3945 11.5911 7.72905C11.8165 8.08616 12.0208 8.45466 12.2017 8.83645C12.4361 9.33136 12.6313 9.84097 12.7862 10.3661C12.9199 10.8192 13.021 11.2795 13.094 11.746C13.0972 11.7666 13.0927 11.7891 13.1092 11.8094ZM3.27007 2.88112C3.30874 2.88517 3.34385 2.89122 3.37909 2.89215C3.53742 2.89631 3.6949 2.91239 3.85216 2.92851C4.09447 2.95334 4.33553 2.98806 4.57568 3.02963C5.06743 3.11476 5.54973 3.23708 6.02413 3.39121C6.24924 3.46435 6.47138 3.54577 6.69038 3.63552C6.7229 3.64885 6.74977 3.64986 6.78065 3.63141C6.90588 3.55658 7.03454 3.48781 7.1632 3.41906C7.17159 3.41458 7.18503 3.41302 7.18162 3.39424C7.16727 3.38797 7.15139 3.3805 7.13511 3.37401C6.86073 3.2645 6.58299 3.16459 6.30062 3.07738C5.99104 2.98176 5.67808 2.89927 5.36113 2.83236C4.99551 2.75518 4.62696 2.69666 4.25513 2.65758C4.04819 2.63582 3.84062 2.62471 3.63342 2.60773C3.57316 2.60279 3.52082 2.61122 3.48208 2.66312C3.47273 2.67565 3.45741 2.68354 3.4464 2.69506C3.38895 2.75512 3.332 2.81566 3.27007 2.88112ZM8.81806 3.40244C8.82029 3.41369 8.82984 3.41589 8.83733 3.42005C8.96339 3.48998 9.08993 3.55907 9.21535 3.63013C9.24775 3.64849 9.2759 3.64949 9.31071 3.63548C9.56507 3.5331 9.82267 3.43979 10.0843 3.35726C10.4259 3.24952 10.7718 3.15895 11.1225 3.08701C11.4469 3.02048 11.7736 2.96857 12.1031 2.93424C12.2747 2.91636 12.4463 2.89931 12.6188 2.89208C12.6552 2.89055 12.6914 2.88425 12.7312 2.87977C12.7228 2.85673 12.7084 2.84585 12.696 2.83398C12.6305 2.77122 12.5637 2.70974 12.4991 2.64601C12.4703 2.61765 12.4389 2.60294 12.3987 2.60787C12.3068 2.61912 12.2141 2.61879 12.1219 2.62579C11.9356 2.63992 11.7498 2.65756 11.5643 2.67953C11.1981 2.72291 10.8356 2.78744 10.4763 2.86984C9.92531 2.99623 9.3873 3.16481 8.86358 3.37821C8.84767 3.38469 8.82918 3.38736 8.81806 3.40244ZM2.92693 3.30972C2.88943 3.29966 2.85276 3.32208 2.82173 3.36631C2.78501 3.41864 2.74291 3.46718 2.70329 3.51747C2.6967 3.52583 2.69003 3.5343 2.68479 3.54351C2.67684 3.55749 2.68182 3.56765 2.69685 3.57196C2.7053 3.57438 2.71429 3.57536 2.72311 3.57602C2.93242 3.59165 3.14037 3.61848 3.34791 3.64946C3.87879 3.7287 4.39864 3.8541 4.90899 4.01966C5.16975 4.10426 5.42621 4.20045 5.67828 4.30812C5.70813 4.32087 5.73012 4.31899 5.75646 4.29975C5.85413 4.22842 5.95349 4.1594 6.05206 4.0893C6.08964 4.06258 6.08905 4.05782 6.04746 4.03898C6.04422 4.03751 6.04093 4.03614 6.03764 4.0348C5.88263 3.97202 5.72669 3.91163 5.56884 3.85634C5.18729 3.72269 4.79941 3.611 4.40452 3.52424C4.19605 3.47844 3.98636 3.43894 3.77535 3.40612C3.59432 3.37797 3.41263 3.35564 3.23058 3.33609C3.13518 3.32585 3.03938 3.31935 2.92693 3.30972ZM13.0754 3.30933C12.8848 3.32646 12.7114 3.34184 12.5383 3.36272C12.1757 3.40645 11.8172 3.47188 11.4618 3.55508C10.9548 3.67379 10.4606 3.83294 9.97822 4.02882C9.9634 4.03483 9.9486 4.04117 9.93461 4.04885C9.9202 4.05677 9.91922 4.06756 9.9326 4.078C9.94101 4.08456 9.95002 4.09035 9.95873 4.09651C10.0503 4.16124 10.1434 4.22387 10.2325 4.29176C10.268 4.31882 10.2968 4.31803 10.3348 4.30162C10.5146 4.22398 10.6974 4.15406 10.8823 4.08947C11.3653 3.92069 11.8579 3.78779 12.3617 3.69713C12.5613 3.66121 12.7615 3.62914 12.9633 3.6075C13.0693 3.59612 13.175 3.58116 13.2817 3.57533C13.3223 3.57311 13.3266 3.56332 13.3026 3.53123C13.2599 3.4743 13.2149 3.41908 13.1722 3.36212C13.1433 3.32342 13.1094 3.29926 13.0754 3.30933ZM8.66259 4.68807C8.67003 4.70644 8.68203 4.71152 8.69199 4.71865C8.79317 4.79108 8.89564 4.86181 8.99499 4.93667C9.02644 4.96038 9.04867 4.95857 9.08008 4.93941C9.17264 4.88296 9.26691 4.82927 9.36084 4.7751C9.39471 4.75556 9.43006 4.73859 9.46378 4.71881C9.49036 4.70322 9.49004 4.69689 9.46644 4.67606C9.46244 4.67253 9.45823 4.66921 9.45389 4.66614C9.35516 4.59637 9.25594 4.5273 9.15795 4.45651C9.12992 4.43626 9.10546 4.43356 9.0749 4.45096C8.99459 4.4967 8.91229 4.53898 8.83218 4.58505C8.77552 4.61764 8.71621 4.64628 8.66259 4.68807ZM7.56358 4.00702C7.56697 4.02262 7.57322 4.02621 7.57945 4.02945C7.71494 4.09982 7.85023 4.17061 7.98247 4.24697C8.01097 4.26344 8.03463 4.25785 8.0618 4.24264C8.17952 4.17674 8.29824 4.11265 8.41658 4.04788C8.42436 4.04362 8.43249 4.03979 8.4396 4.03458C8.44824 4.02824 8.44934 4.01985 8.44073 4.01255C8.43401 4.00685 8.42659 4.00174 8.41885 3.99751C8.29262 3.92865 8.16594 3.86061 8.04024 3.7908C8.01017 3.77411 7.98489 3.77598 7.95561 3.7921C7.87318 3.83745 7.7893 3.88014 7.7066 3.92502C7.65848 3.95113 7.61153 3.97943 7.56358 4.00702ZM7.3274 4.69648C7.32595 4.68574 7.31847 4.6809 7.31076 4.67643C7.27537 4.6559 7.24028 4.63483 7.20443 4.61514C7.10779 4.56203 7.01083 4.50949 6.91397 4.45679C6.89335 4.44557 6.87384 4.43551 6.84974 4.4521C6.74276 4.52571 6.63558 4.59905 6.53228 4.67779C6.507 4.69706 6.5079 4.70424 6.53564 4.71951C6.66966 4.79329 6.8033 4.86771 6.93312 4.94874C6.95389 4.9617 6.97161 4.96321 6.99107 4.94638C7.00852 4.9313 7.02762 4.91805 7.04645 4.90463C7.13046 4.84476 7.21469 4.78519 7.2987 4.72531C7.30996 4.71729 7.32441 4.71198 7.3274 4.69648ZM8.00691 5.68415C8.01193 5.68121 8.01998 5.67751 8.02689 5.67229C8.13757 5.58884 8.24832 5.50547 8.3585 5.42136C8.38157 5.40374 8.3814 5.39539 8.35614 5.37659C8.24777 5.29597 8.13855 5.21651 8.02999 5.13615C8.01017 5.12148 7.99289 5.12035 7.97216 5.13516C7.86082 5.21474 7.74975 5.29464 7.64223 5.37939C7.62219 5.39518 7.62435 5.4058 7.64341 5.42015C7.75415 5.50353 7.86439 5.58756 7.97484 5.67133C7.98336 5.67779 7.99209 5.68402 8.00691 5.68415Z"/>
</svg>
