<svg viewBox="0 0 19 16" fill="none" xmlns="http://www.w3.org/2000/svg">
<path d="M11.9159 3.04483C12.6943 3.50275 13.6968 3.2421 14.1537 2.46392C14.6116 1.68551 14.3522 0.683385 13.5738 0.225763C12.7941 -0.231934 11.7927 0.0284247 11.3353 0.806605C10.8779 1.58538 11.1367 2.58714 11.9159 3.04483Z"/>
<path d="M14.589 8.67626C14.4994 8.67626 14.4109 8.68346 14.3229 8.6897L13.7873 6.03211L13.9619 5.9669C14.3577 5.81892 14.5591 5.37797 14.4109 4.98188C14.2626 4.58546 13.819 4.38493 13.4262 4.53316L11.5028 5.25244L11.4167 4.55232C11.6505 4.06266 11.6223 3.44704 11.2397 3.01273C10.452 2.11857 9.49089 2.5485 9.19134 2.79093L5.22439 6.00338L5.22499 6.00427C5.1018 6.11165 4.999 6.24496 4.93327 6.40667C4.85195 6.60694 4.83692 6.81742 4.87522 7.01475C4.55963 7.03958 4.30904 7.29575 4.30904 7.61772C4.30904 7.9549 4.58168 8.22788 4.9189 8.22936L4.66663 8.81971C4.34671 8.72822 4.01067 8.67622 3.66209 8.67622C1.64306 8.67626 0 10.3187 0 12.3377C0 14.3568 1.64306 15.9995 3.66202 15.9995C5.68116 15.9995 7.32344 14.3568 7.32344 12.3377C7.32344 10.9931 6.59292 9.81883 5.5101 9.18206L5.91676 8.23H6.57618L8.81348 9.13789L7.61835 11.0965C7.31042 11.6017 7.47012 12.2613 7.97521 12.5694C8.14931 12.6756 8.34183 12.7264 8.53193 12.7264C8.89302 12.7264 9.24579 12.5434 9.4478 12.2128L10.5367 10.4278L11.2446 10.855C11.0424 11.3088 10.9276 11.8098 10.9276 12.3377C10.9276 14.3569 12.5701 15.9996 14.589 15.9996C16.6081 15.9996 18.2506 14.3569 18.2506 12.3377C18.2506 10.3187 16.6081 8.67626 14.589 8.67626ZM3.66202 15.0811C2.14938 15.0811 0.918399 13.8503 0.918399 12.3377C0.918399 10.825 2.14938 9.59459 3.66202 9.59459C3.88263 9.59459 4.09437 9.62784 4.29994 9.67713L3.53999 11.4547C3.10359 11.5147 2.76641 11.8851 2.76641 12.3377C2.76641 12.8322 3.16754 13.2333 3.66198 13.2333C3.98736 13.2333 4.26943 13.0572 4.42613 12.7969H6.3585C6.13856 14.0908 5.01744 15.0811 3.66202 15.0811ZM6.35854 11.8785H4.42617C4.41299 11.8567 4.39989 11.8349 4.3849 11.8143L5.14486 10.0364C5.77796 10.4457 6.22756 11.107 6.35854 11.8785ZM11.0149 9.64395L11.2994 9.17764C11.4633 8.90919 11.501 8.5824 11.4024 8.28377C11.3036 7.98515 11.0788 7.74506 10.7877 7.6267L8.83081 6.83263L10.0349 5.85723L10.1019 6.40248C10.1299 6.63507 10.2639 6.84195 10.4641 6.96365C10.5856 7.03717 10.7232 7.07455 10.8612 7.07455C10.9516 7.07455 11.0423 7.0584 11.1291 7.02607L12.9162 6.35798L13.4219 8.87029C12.7439 9.09899 12.1557 9.52017 11.7203 10.0696L11.0149 9.64395ZM13.9327 11.4053L12.5222 10.5539C12.8145 10.2155 13.1823 9.94825 13.6061 9.78439L13.9327 11.4053ZM14.589 15.0811C13.0763 15.0811 11.846 13.8503 11.846 12.3377C11.846 11.9835 11.9189 11.6475 12.0415 11.3362L13.6946 12.3342C13.6946 12.3353 13.694 12.3365 13.694 12.3377C13.694 12.8322 14.0952 13.2333 14.589 13.2333C15.0835 13.2333 15.4842 12.8321 15.4842 12.3377C15.4842 11.9488 15.2347 11.6211 14.8881 11.4974L14.5067 9.60297C14.5347 9.60208 14.561 9.59459 14.5891 9.59459C16.1017 9.59459 17.3322 10.825 17.3322 12.3377C17.3322 13.8503 16.1017 15.0811 14.589 15.0811Z"/>
</svg>
