<svg width="20" height="16" viewBox="0 0 20 16" fill="none" xmlns="http://www.w3.org/2000/svg">
<path d="M18.6038 4.84261C18.5998 4.05571 17.9564 3.41553 17.1695 3.41553C16.89 3.41553 14.429 3.41553 14.1353 3.41553C13.5264 3.41553 12.9677 3.74816 12.6775 4.28355L12.4668 4.67247C12.5478 4.86479 12.5927 5.07594 12.5927 5.29741C12.5927 5.65061 12.4784 5.97745 12.2852 6.2435C12.5043 6.26203 12.7112 6.3247 12.8969 6.42274L13.7432 4.86105C13.7647 4.82159 13.8101 4.80167 13.8536 4.8127C13.8971 4.82372 13.9276 4.86287 13.9276 4.90776L13.9278 14.9975C13.9278 15.3992 14.2535 15.7248 14.6551 15.7248C15.0568 15.7248 15.3824 15.3992 15.3824 14.9975V9.18425H15.6964V14.9977C15.6964 15.3993 16.022 15.7249 16.4237 15.7249C16.8254 15.7249 17.151 15.3993 17.151 14.9977C17.151 5.60563 17.1381 10.581 17.1378 4.85203C17.1378 4.78265 17.1936 4.72612 17.263 4.72519C17.3324 4.72425 17.3896 4.77927 17.3915 4.84865L17.4138 9.30132C17.4156 9.63505 17.6865 9.90439 18.0198 9.90439C18.0208 9.90439 18.0219 9.90439 18.023 9.90439C18.3576 9.9027 18.6277 9.62999 18.626 9.29523L18.6038 4.84261Z" fill="#0083E6"/>
<path d="M13.1829 7.84242C13.1801 7.27451 12.7157 6.81246 12.1478 6.81246H9.79953C9.23162 6.81246 8.76726 7.27451 8.76442 7.84238C8.76358 8.01913 8.76438 7.86864 8.75944 8.7014L8.27713 8.60229C8.27713 8.60229 7.19789 5.6318 6.81158 4.50784C6.5278 3.68193 6.05189 3.26318 5.39713 3.26318C4.48926 3.26318 4.20508 3.26318 3.27757 3.26318C2.62285 3.26318 2.14694 3.68193 1.86309 4.50784C1.42325 5.78784 0.424345 8.52069 0.414331 8.54815C0.298286 8.86544 0.461483 9.21673 0.778794 9.33277C1.09618 9.44877 1.44745 9.28549 1.56339 8.96829C1.57187 8.94504 2.28921 6.98251 2.7791 5.59553C2.7462 5.86429 2.85002 5.29864 1.91017 10.151C1.86943 10.3614 2.03164 10.5558 2.24381 10.5558C2.37542 10.5558 2.53389 10.5558 2.71059 10.5558V14.9933C2.71059 15.3987 3.03923 15.7274 3.44468 15.7274C3.85013 15.7274 4.17878 15.3987 4.17878 14.9933V10.5558C4.28431 10.5558 4.3902 10.5558 4.49575 10.5558V14.9933C4.49575 15.3987 4.82442 15.7274 5.22984 15.7274C5.63531 15.7274 5.96393 15.3987 5.96393 14.9933V10.5558C6.14069 10.5558 6.29918 10.5558 6.43073 10.5558C6.64406 10.5558 6.80509 10.3611 6.76438 10.151C5.82446 5.29811 5.92833 5.86433 5.89544 5.59553C6.3854 6.98255 7.10269 8.94504 7.11118 8.96829C7.19913 9.20877 7.4222 9.36029 7.66318 9.36926C8.15331 9.46997 8.51295 9.54384 9.10553 9.66566C9.37571 9.72113 9.62935 9.51544 9.63095 9.2398C9.63095 9.2398 9.63824 8.01126 9.63909 7.86549C9.63931 7.81891 9.67718 7.78131 9.72371 7.7814C9.77029 7.78149 9.80793 7.81926 9.80793 7.86584C9.80798 9.04477 9.80815 14.7094 9.80815 15.1998C9.80815 15.4898 10.0432 15.7247 10.3331 15.7247C10.623 15.7247 10.858 15.4897 10.858 15.1998C10.858 14.6805 10.858 11.5321 10.858 11.0043H11.0846C11.0846 11.5321 11.0846 14.6805 11.0846 15.1998C11.0846 15.4898 11.3197 15.7247 11.6095 15.7247C11.8994 15.7247 12.1345 15.4897 12.1345 15.1998C12.1345 12.1829 12.127 8.63526 12.1253 7.84749C12.1252 7.79709 12.1659 7.75611 12.2163 7.75593C12.2667 7.75575 12.3078 7.79637 12.308 7.84677L12.3242 11.0602C12.3254 11.3011 12.5209 11.4954 12.7615 11.4954L12.7638 11.4954C13.0047 11.4942 13.1991 11.2983 13.1989 11.0575L13.199 11.0558C13.1957 10.3879 13.1859 8.44286 13.1829 7.84242Z" fill="#0083E6"/>
<path d="M15.5471 2.86771C16.2409 2.86771 16.8033 2.30532 16.8033 1.61159C16.8033 0.917853 16.2409 0.355469 15.5471 0.355469C14.8534 0.355469 14.291 0.917853 14.291 1.61159C14.291 2.30532 14.8534 2.86771 15.5471 2.86771Z" fill="#0083E6"/>
<path d="M10.9784 6.43816C11.6082 6.43816 12.1188 5.92756 12.1188 5.29769C12.1188 4.66783 11.6082 4.15723 10.9784 4.15723C10.3485 4.15723 9.83789 4.66783 9.83789 5.29769C9.83789 5.92756 10.3485 6.43816 10.9784 6.43816Z" fill="#0083E6"/>
<path d="M4.33816 0.32373C3.63793 0.32373 3.07031 0.891237 3.07031 1.59158C3.07031 2.28903 3.63539 2.85942 4.33816 2.85942C5.04062 2.85942 5.606 2.28835 5.606 1.59158C5.606 0.893446 5.03915 0.32373 4.33816 0.32373Z" fill="#0083E6"/>
</svg>
