<svg width="17" height="16" viewBox="0 0 17 16" fill="none" xmlns="http://www.w3.org/2000/svg">
<path d="M11.8318 9.61145L12.5538 7.96907C12.4228 7.96091 12.2922 7.94458 12.1627 7.91217C11.409 7.72312 10.8456 7.13038 10.4545 6.49063H9.71018C9.80503 6.8206 9.751 7.17403 9.56232 7.45957L8.08704 9.70938C7.86813 10.0423 7.50004 10.241 7.10115 10.241C6.87108 10.241 6.64827 10.1742 6.45549 10.048C5.91239 9.69149 5.76101 8.95963 6.11744 8.41707L6.84257 7.31069L6.00724 6.92542C5.79978 6.82975 5.62993 6.67857 5.51009 6.49059H5.02201C4.51104 6.49059 4.04901 6.68394 3.68892 6.99266C3.18713 6.64718 1.3415 5.54614 0.744232 7.5774C0.119084 9.70146 1.5577 10.0628 0.464823 11.0256C0.407216 11.0766 0.393402 11.161 0.431691 11.2278C0.470489 11.2944 0.550468 11.3247 0.623416 11.2999C1.14207 11.1245 1.83661 10.5811 2.08556 8.96452C2.25322 7.87266 2.79082 7.48915 3.24782 7.52308C3.0723 7.82601 2.96415 8.17301 2.96415 8.54835C2.96415 9.1152 3.19365 9.62847 3.56447 10.0005L2.77805 11.2025L2.7363 11.2658C2.67704 11.3563 2.64543 11.4659 2.65154 11.582L2.84072 15.0218C2.85046 15.1931 2.97589 15.3426 3.1519 15.3747C3.35836 15.4127 3.55677 15.2757 3.59452 15.0692L3.97288 13.0046L4.57922 15.1068C4.62726 15.2717 4.78275 15.3893 4.96183 15.381C5.17188 15.3717 5.33401 15.1941 5.32478 14.9843L5.18669 11.9045L6.08322 10.6061H8.97779L9.5766 11.8038L9.09208 14.941C9.06345 15.126 9.16593 15.3132 9.34813 15.3836C9.55818 15.4647 9.79432 15.3602 9.87535 15.1501L10.8708 12.5736L11.364 15.094C11.4007 15.2822 11.5716 15.4191 11.7679 15.4081C11.9831 15.3959 12.1473 15.212 12.135 14.9971L11.8318 9.61145Z" fill="#0083E6"/>
<path d="M8.67839 2.37208C9.21944 2.37208 9.65862 1.93296 9.65862 1.39113C9.65862 0.849245 9.21944 0.410156 8.67839 0.410156C8.13579 0.410156 7.69727 0.849245 7.69727 1.39113C7.69727 1.93296 8.13579 2.37208 8.67839 2.37208Z" fill="#0083E6"/>
<path d="M15.6765 4.53517L13.8885 3.03584L14.0409 1.6196C14.0471 1.55894 14.0149 1.50056 13.9604 1.47348C13.9053 1.44646 13.8395 1.45664 13.7957 1.49875L12.9752 2.28361L12.3906 3.59222L11.464 4.98218C11.7303 5.65377 12.1169 6.28565 12.5458 6.39252C12.7645 6.44704 13.0393 6.36187 13.35 6.16048L13.6998 5.36413L14.5851 5.7599C13.7584 6.66862 13.0287 7.05398 12.4187 6.89894C11.4905 6.6669 10.9271 5.19075 10.7123 4.3615C10.7374 4.27535 10.7439 4.1828 10.7107 4.09174C10.646 3.91402 10.4783 3.80438 10.2997 3.80438C10.2498 3.80438 10.1993 3.813 10.1498 3.83085L8.99782 4.2511L8.6082 3.39158L8.60861 3.3905C8.67848 3.20666 8.67163 3.00249 8.58966 2.82371C8.50769 2.64494 8.35741 2.50637 8.17251 2.4394L8.09165 2.41012C7.72882 2.27874 7.32751 2.44978 7.17017 2.80214C6.88829 3.43318 6.42113 4.47092 5.90626 5.58111C5.75434 5.90977 5.89817 6.2991 6.22699 6.4511L7.61259 7.09012L6.55495 8.70317C6.35606 9.00618 6.44078 9.41258 6.7431 9.61123C6.85387 9.68364 6.97875 9.71855 7.10215 9.71855C7.3154 9.71855 7.52492 9.61504 7.6514 9.42255L9.12685 7.17299C9.23179 7.01365 9.3927 6.46522 8.88681 6.23498C8.55783 6.08528 7.74166 5.70476 7.74166 5.70476L8.17313 4.55149C8.38884 5.02727 8.46027 5.2351 8.71988 5.2351C8.96714 5.2351 9.39196 5.04413 10.2707 4.71847C10.5191 5.5679 11.1224 7.11235 12.2907 7.40532C12.4202 7.43773 12.5513 7.45402 12.6849 7.45402C13.4321 7.45402 14.248 6.94271 15.1176 5.94144C15.2145 5.946 15.3119 5.93299 15.4042 5.89779C15.5802 5.83051 15.7219 5.69615 15.7984 5.52425L15.8683 5.36823C15.9973 5.07875 15.9192 4.73861 15.6765 4.53517Z" fill="#0083E6"/>
</svg>
