<svg fill="none" xmlns="http://www.w3.org/2000/svg">
<path d="M19.7661 10.4795C21.288 10.4795 22.5263 11.7179 22.5263 13.2397C22.5263 14.7616 21.288 16 19.7661 16C18.2442 16 17.0059 14.7616 17.0059 13.2397C17.0059 11.7179 18.2442 10.4795 19.7661 10.4795ZM19.7661 14.4888C20.4562 14.4888 21.0152 13.9271 21.0152 13.2371C21.0152 12.547 20.4535 11.9853 19.7661 11.9853C19.076 11.9853 18.5144 12.547 18.5144 13.2371C18.5144 13.9271 19.076 14.4888 19.7661 14.4888Z"/>
<path d="M5.61961 10.4795C7.14145 10.4795 8.37984 11.7179 8.37984 13.2397C8.37984 14.7616 7.14148 16 5.61961 16C4.09773 16 2.85938 14.7616 2.85938 13.2397C2.85938 11.7179 4.09773 10.4795 5.61961 10.4795ZM4.3679 13.2397C4.3679 13.9298 4.92958 14.4915 5.61963 14.4915C6.30969 14.4915 6.87137 13.9298 6.87137 13.2397C6.87137 12.5497 6.30969 11.988 5.61963 11.988C4.92958 11.988 4.3679 12.5497 4.3679 13.2397Z"/>
<path d="M0.738203 10.4238H1.07788L1.08323 3.4323C1.08323 3.02576 1.41224 2.69678 1.81876 2.69678H15.3658C15.6012 2.69678 15.8259 2.81179 15.965 3.00436L18.6851 6.80235L23.2106 6.79165C23.6171 6.79165 23.9461 7.12064 23.9461 7.52718V10.4211L24.4837 10.4158H24.4917C24.8983 10.4158 25.2273 10.7448 25.2273 11.1513V11.9537C25.2273 12.3549 24.901 12.6865 24.4998 12.6892H23.2801C23.2801 12.6892 23.2213 12.3977 23.1785 12.2532C23.1384 12.1115 23.0875 11.9724 23.0287 11.836C22.9699 11.6996 22.903 11.5685 22.8281 11.4428C22.7532 11.3144 22.6703 11.1941 22.582 11.0764C22.4911 10.9587 22.3948 10.8464 22.2905 10.7421C22.221 10.6699 22.1461 10.603 22.0712 10.5388C21.4293 9.9905 20.6108 9.68827 19.7683 9.68827C18.9231 9.68827 18.1047 9.9905 17.4628 10.5388C16.8289 11.0818 16.4036 11.8307 16.2645 12.6491L16.2565 12.7053H9.12857L9.11787 12.6491C8.98146 11.8306 8.55619 11.0817 7.91963 10.5388C7.27771 9.9905 6.45924 9.68827 5.61408 9.68827C4.76892 9.68827 3.95045 9.9905 3.30854 10.5388C2.67465 11.0818 2.24938 11.8307 2.11297 12.6491L2.10495 12.7053H0.735528C0.329009 12.7053 0 12.3763 0 11.9697V11.162C0.00267496 10.7528 0.331657 10.4238 0.738203 10.4238ZM13.2128 6.86922H16.4705C16.7968 6.86922 16.9867 6.50012 16.7968 6.23533L15.291 4.12236C15.1652 3.94583 14.962 3.84152 14.7454 3.84152H13.2074C12.8383 3.84152 12.5388 4.14108 12.5388 4.51018V6.20056C12.5441 6.56966 12.8436 6.86922 13.2128 6.86922ZM10.6478 4.51286C10.6478 4.35238 10.5862 4.19993 10.4712 4.08759C10.3589 3.97526 10.2064 3.91106 10.046 3.91106H3.19888C3.0384 3.91106 2.88594 3.97258 2.77361 4.08759C2.66127 4.2026 2.59708 4.35238 2.59708 4.51286V6.20323C2.59708 6.53486 2.86722 6.80503 3.19888 6.80503H10.046C10.3776 6.80503 10.6478 6.53486 10.6478 6.20323V4.51286Z"/>
<path d="M13.8716 0C14.3878 0 14.8077 0.419919 14.8077 0.936125C14.8077 1.45233 14.3878 1.87225 13.8716 1.87225H2.58456C2.06836 1.87225 1.64844 1.45233 1.64844 0.936125C1.64844 0.419919 2.06836 0 2.58456 0H13.8716Z"/>
</svg>
