<svg width="17" height="17" viewBox="0 0 17 17" fill="none" xmlns="http://www.w3.org/2000/svg">
<path d="M10.344 15.092H9.17109V2.8556C9.59842 2.62745 9.88805 2.21216 9.88805 1.73165C9.88805 1.00773 9.23744 0.420898 8.43414 0.420898C7.63093 0.420898 6.98027 1.00773 6.98027 1.73165C6.98027 2.21213 7.26932 2.62771 7.6971 2.8556V15.092H6.52415C6.11649 15.092 5.78711 15.3894 5.78711 15.7564C5.78711 16.1234 6.11649 16.4209 6.52415 16.4209H10.344C10.7505 16.4209 11.081 16.1234 11.081 15.7564C11.0811 15.3894 10.7506 15.092 10.344 15.092Z" fill="#0083E6"/>
<path d="M7.62861 3.82275H2.18038C2.07271 3.82275 1.96967 3.86597 1.89422 3.94258L0.538172 5.31756C0.461133 5.39526 0.41965 5.50091 0.421967 5.61005C0.425437 5.71914 0.472565 5.82255 0.553181 5.89655L1.89708 7.12584C1.97079 7.19348 2.06746 7.23117 2.16833 7.23117H7.62861V3.82275Z" fill="#0083E6"/>
<path d="M16.3325 8.80017L14.9759 7.42544C14.9004 7.34881 14.7974 7.30566 14.6897 7.30566H9.24219V10.7138H14.7019C14.802 10.7138 14.8987 10.6761 14.973 10.6084L16.3174 9.37912C16.3981 9.30508 16.4454 9.2018 16.4477 9.09271C16.4505 8.98357 16.4085 8.87788 16.3325 8.80017Z" fill="#0083E6"/>
</svg>
