<svg viewBox="0 0 16 17" fill="none" xmlns="http://www.w3.org/2000/svg">
<path d="M14.1462 12.6224C12.7164 12.6136 11.3148 12.2248 10.0848 11.4958C8.85493 10.7667 7.84103 9.72369 7.1471 8.47363C6.45318 7.22356 6.1042 5.81142 6.13595 4.38203C6.16768 2.95262 6.57901 1.55738 7.32774 0.339355C5.35505 0.685661 3.58192 1.75391 2.35374 3.33602C1.12557 4.91811 0.530309 6.90075 0.683913 8.8977C0.837532 10.8947 1.72902 12.7629 3.18471 14.1385C4.6404 15.5143 6.55606 16.2988 8.55852 16.3393C9.92851 16.3428 11.2762 15.9922 12.4708 15.3216C13.6653 14.6509 14.6664 13.683 15.377 12.5116C14.97 12.5788 14.5587 12.6158 14.1462 12.6224Z"/>
</svg>
