<svg width="15" height="16" viewBox="0 0 15 16" fill="none" xmlns="http://www.w3.org/2000/svg">
<g clip-path="url(#clip0_3233_12117)">
<path d="M7.51913 6.84208C7.03397 6.67964 6.50889 6.94176 6.34685 7.42684C6.18473 7.91212 6.44634 8.4368 6.93162 8.59888C7.41686 8.76136 7.94169 8.4994 8.10405 8.01428C8.26621 7.52896 8.00433 7.00436 7.51913 6.84208Z" fill="#0083E6"/>
<path d="M14.0133 1.62654C13.9325 1.31717 13.7252 1.07766 13.4631 0.990688C11.4816 0.33334 9.38295 0 7.22527 0C5.06755 0 2.96847 0.33334 0.98675 0.990688C0.72465 1.07759 0.517338 1.31709 0.436582 1.62647C0.355711 1.93581 0.412318 2.2729 0.58691 2.52139L0.917102 2.99167C1.25742 3.4764 1.59773 3.961 1.93809 4.44556C2.12314 4.709 2.41106 4.83132 2.69121 4.773L4.57307 7.31276C4.52807 7.39812 4.51235 7.4992 4.53619 7.60052L4.93963 9.312C4.97035 9.43948 5.05775 9.55444 5.18623 9.6132L5.21679 9.6272L6.07523 10.021V11.9571L5.67383 12.4336L5.64243 12.4707C5.56251 12.5658 5.51679 12.69 5.52243 12.8241L5.60615 14.7474C5.61803 15.003 5.82375 15.213 6.08415 15.2232C6.35891 15.2339 6.59011 15.0198 6.60079 14.7451L6.66579 13.0695L7.18339 12.5488L7.70111 13.0695L7.76611 14.7451C7.77671 15.0007 7.98159 15.2118 8.24191 15.2232C8.51659 15.2351 8.74903 15.0221 8.76095 14.7474L8.84439 12.8241C8.84955 12.6999 8.81027 12.5723 8.72375 12.4696L8.69311 12.4335L8.37503 12.056V10.021L9.23339 9.62712L9.26603 9.61212C9.38487 9.55696 9.47815 9.44936 9.51055 9.31192L9.91395 7.60044C9.93711 7.50048 9.92167 7.39916 9.87667 7.31296L11.7586 4.77296C11.8045 4.7826 11.8507 4.78784 11.8966 4.78784C12.1306 4.78784 12.3572 4.66552 12.5118 4.44552L13.8629 2.5215C14.0375 2.2729 14.0941 1.93584 14.0133 1.62654ZM11.4771 4.68788L9.77607 6.98368L10.4756 4.41636C10.8132 4.49468 11.1472 4.585 11.4771 4.68788ZM3.97436 4.41636L4.67379 6.98368L2.97275 4.68788C3.30272 4.585 3.63663 4.49468 3.97436 4.41636ZM9.11471 7.3804L8.65979 8.81844L7.92135 9.10036H6.52879L5.79035 8.81844L5.33547 7.3804C5.28519 7.22332 5.14787 7.11404 4.99083 7.09416L4.24499 4.35652C5.21403 4.15236 6.21119 4.04872 7.22507 4.04872C8.23871 4.04872 9.23591 4.15236 10.2048 4.35652L9.45903 7.09404C9.30331 7.11376 9.16515 7.22068 9.11471 7.3804Z" fill="#0083E6"/>
</g>
<defs>
<clipPath id="clip0_3233_12117">
<rect width="14.6667" height="16" fill="white"/>
</clipPath>
</defs>
</svg>
