<svg viewBox="0 0 16 16" fill="none" xmlns="http://www.w3.org/2000/svg">
<path d="M14.1295 3.75217H13.639L13.1414 1.72803C13.0688 1.43184 12.8032 1.22363 12.4984 1.22363H6.49742C6.19268 1.22363 5.9272 1.43184 5.85447 1.72803L5.35692 3.75217H4.48447V3.13682C4.48447 2.77103 4.18791 2.47437 3.82203 2.47437H2.51716C2.15141 2.47437 1.85471 2.771 1.85471 3.13682V3.75214H1.78758C0.944796 3.75217 0.261719 4.43541 0.261719 5.27801V13.4275C0.261719 14.2701 0.944796 14.9533 1.78758 14.9533H14.1295C14.9724 14.9533 15.6554 14.2701 15.6554 13.4275V5.27801C15.6554 4.43541 14.9723 3.75217 14.1295 3.75217ZM7.95859 12.8908C6.00476 12.8908 4.42029 11.3066 4.42029 9.35266C4.42029 7.39838 6.0048 5.8144 7.95859 5.8144C9.91234 5.8144 11.4968 7.39838 11.4968 9.35266C11.4968 11.3066 9.91234 12.8908 7.95859 12.8908Z" fill="#0083E6"/>
<path d="M7.75036 6.6084C6.3523 6.6084 5.21484 7.74612 5.21484 9.14472C5.21484 9.42802 5.44435 9.6578 5.72796 9.6578C6.01158 9.6578 6.24113 9.42807 6.24113 9.14472C6.24113 8.31205 6.918 7.63464 7.75032 7.63464C8.03393 7.63464 8.26348 7.40495 8.26348 7.12152C8.26348 6.83813 8.03398 6.6084 7.75036 6.6084Z" fill="#0083E6"/>
</svg>
