<svg width="25" height="16" viewBox="0 0 25 16" fill="none" xmlns="http://www.w3.org/2000/svg">
<path d="M10.3602 3.87572C11.3108 3.87572 12.0822 3.10497 12.0822 2.15398C12.0822 1.20338 11.3108 0.432617 10.3602 0.432617C9.40957 0.432617 8.63867 1.20338 8.63867 2.15398C8.63872 3.10497 9.40957 3.87572 10.3602 3.87572Z" fill="#0083E6"/>
<path d="M11.0801 12.5539C12.1446 12.0808 13.4728 12.2404 14.3431 13.0528L14.3634 13.0363C15.5013 11.9932 17.2602 11.9993 18.389 13.0547C19.1501 12.3454 20.2543 12.1371 21.2288 12.4033C22.8529 11.3093 23.8281 9.91158 23.8281 8.38752C23.8281 7.91937 23.7315 7.46423 23.554 7.02561C23.4694 6.81813 23.2978 6.65826 23.0844 6.58894C22.8715 6.51967 22.6385 6.54812 22.4483 6.66648C19.903 8.24819 16.4361 9.23621 12.5978 9.28226L11.0801 12.5539Z" fill="#0083E6"/>
<path d="M23.9862 13.6674C23.6865 13.3686 23.2011 13.3682 22.9016 13.6678C22.6521 13.9177 22.2138 13.918 21.9645 13.6682C21.1344 12.8374 19.6895 12.8356 18.8564 13.6686C18.6062 13.9188 18.1718 13.9202 17.9186 13.6671C17.0781 12.8251 15.7139 12.8105 14.8563 13.6252L14.8112 13.6682C14.5612 13.9184 14.1259 13.9191 13.8741 13.6667C13.0443 12.8374 11.5977 12.8374 10.7678 13.6682C10.5175 13.9184 10.0815 13.9184 9.82996 13.6674C9.80448 13.642 9.77849 13.6173 9.7519 13.5935L13.0185 6.5493L13.8352 6.117C14.2098 5.91882 14.3529 5.45482 14.1543 5.08016C14.0813 4.94251 13.9723 4.83622 13.8453 4.76643L14.9999 2.27639C15.0892 2.08425 15.006 1.85611 14.8134 1.76699C14.6224 1.6771 14.3932 1.76136 14.3049 1.95349L12.9655 4.84158L11.1683 5.79259L9.71008 4.65456C9.57197 4.26395 8.9004 3.67951 8.05024 3.85371C7.54736 3.95679 7.1042 4.30222 6.91086 4.81815L5.62732 8.24344C4.36124 7.82602 3.20553 7.29391 2.19585 6.66675C2.00557 6.54878 1.77258 6.52076 1.55982 6.58965C1.34642 6.65897 1.17402 6.81849 1.09015 7.02597C0.911879 7.4642 0.815269 7.91895 0.815269 8.3871C0.815269 9.90593 1.78674 11.298 3.40032 12.3902C4.37651 12.1059 5.46714 12.3194 6.25443 13.0543C6.89927 12.4508 7.79821 12.2112 8.65443 12.3149L10.1116 9.17248C9.60838 9.12336 9.11406 9.05776 8.62935 8.97715L9.56293 6.48591L10.6164 7.30796C10.7542 7.41512 10.9205 7.47021 11.0883 7.47021C11.2111 7.47021 11.334 7.44094 11.447 7.381L11.8988 7.14191L9.09253 13.1932C8.30079 12.8916 7.34165 13.049 6.72185 13.6692C6.4716 13.9187 6.03878 13.9205 5.78554 13.6674C4.92855 12.8119 3.53519 12.8115 2.67816 13.6677C2.42885 13.9176 1.9921 13.9183 1.74108 13.6677C1.4416 13.3682 0.956164 13.3685 0.656393 13.6674C0.356723 13.967 0.356723 14.4528 0.656393 14.7524C1.48574 15.5832 2.93516 15.5816 3.76299 14.7528C4.02205 14.4932 4.44306 14.4951 4.7023 14.7539C5.11653 15.1685 5.66775 15.397 6.25443 15.397C6.84102 15.397 7.39229 15.1686 7.80877 14.7521C8.05897 14.5019 8.49421 14.5011 8.7458 14.7528C9.57815 15.5839 11.023 15.5824 11.8524 14.7528C12.1042 14.5019 12.54 14.5026 12.7887 14.7512C13.6068 15.5685 15.0195 15.5854 15.8532 14.7948L15.8975 14.7517C16.1476 14.5015 16.5821 14.5 16.8354 14.7532C17.6653 15.5832 19.1097 15.5843 19.9425 14.7521C20.1928 14.5019 20.6288 14.5011 20.8788 14.7528C21.7097 15.5828 23.1583 15.582 23.9862 14.7524C24.2859 14.4529 24.2859 13.967 23.9862 13.6674Z" fill="#0083E6"/>
</svg>
