<svg width="17" height="16" viewBox="0 0 17 16" fill="none" xmlns="http://www.w3.org/2000/svg">
<mask id="path-1-inside-1_3233_12180" fill="white">
<path d="M7.99929 3.34151C7.9726 2.62254 8.02058 1.86038 7.80445 1.16359C7.37297 -0.22746 5.80304 -0.149966 4.68185 0.264287C3.40314 0.736757 2.27168 1.60866 1.44285 2.68154C0.61568 3.75228 0.194276 5.02917 0.0580765 6.36441C-0.0961957 7.87657 0.058499 9.42918 0.502885 10.8862C0.715667 11.5839 0.964726 12.2894 1.29859 12.9393C1.59914 13.5244 1.94003 14.1525 2.39985 14.6293C3.29389 15.5565 5.06006 16.5587 6.25624 15.63C6.83396 15.1815 6.94338 14.4638 7.05045 13.7851C7.11198 13.3951 7.16357 13.0045 7.2121 12.6126C7.23037 12.4651 7.24275 12.315 7.25514 12.1645C7.36865 11.4963 7.48167 10.8282 7.58296 10.158C7.80575 8.68411 7.91543 7.1815 7.96451 5.6916C7.99032 4.90864 8.02842 4.1248 7.99929 3.34151ZM7.57984 5.75405C7.55117 7.25669 7.45466 8.76167 7.24724 10.2497C7.14689 10.9694 7.01274 11.6844 6.91386 12.4044C6.87609 12.6319 6.84075 12.8587 6.79642 13.0777C6.67823 13.6614 6.62443 14.4025 6.31676 14.9217C5.51894 16.2681 3.72085 15.2158 2.87876 14.4854C2.41256 14.0811 2.11497 13.5182 1.81199 12.9901C1.46265 12.3812 1.2199 11.7224 0.995509 11.0594C0.575438 9.81801 0.33405 8.43684 0.378226 7.12511C0.422953 5.79618 0.648803 4.47446 1.3677 3.33267C2.0654 2.22451 3.09837 1.35242 4.29205 0.817113C4.84955 0.567079 5.50971 0.361286 6.12703 0.402503C6.84745 0.450611 7.30172 0.8425 7.45547 1.54709C7.60519 2.23319 7.58439 2.96883 7.60405 3.668C7.62362 4.36297 7.5931 5.05917 7.57984 5.75405Z"/>
</mask>
<path d="M7.99929 3.34151L6.99998 3.3786L6.99998 3.37866L7.99929 3.34151ZM7.80445 1.16359L8.75956 0.867334L8.75956 0.867331L7.80445 1.16359ZM4.68185 0.264287L4.33528 -0.673735L4.33527 -0.673731L4.68185 0.264287ZM1.44285 2.68154L0.651491 2.07019H0.651491L1.44285 2.68154ZM0.0580765 6.36441L1.05291 6.4659L1.05291 6.46589L0.0580765 6.36441ZM0.502885 10.8862L1.45939 10.5945L1.45939 10.5945L0.502885 10.8862ZM1.29859 12.9393L2.1881 12.4824L2.18808 12.4824L1.29859 12.9393ZM2.39985 14.6293L1.68001 15.3235L1.68002 15.3235L2.39985 14.6293ZM6.25624 15.63L6.86949 16.4199L6.8695 16.4199L6.25624 15.63ZM7.05045 13.7851L6.06267 13.6293L6.06267 13.6293L7.05045 13.7851ZM7.2121 12.6126L6.21968 12.4897L6.21968 12.4897L7.2121 12.6126ZM7.25514 12.1645L6.26926 11.997L6.26204 12.0395L6.2585 12.0825L7.25514 12.1645ZM7.58296 10.158L6.59419 10.0086L6.59419 10.0086L7.58296 10.158ZM7.96451 5.6916L6.96505 5.65866L6.96505 5.65868L7.96451 5.6916ZM7.57984 5.75405L6.58002 5.73497V5.73497L7.57984 5.75405ZM7.24724 10.2497L8.23766 10.3877L8.23766 10.3877L7.24724 10.2497ZM6.91386 12.4044L7.90035 12.5682L7.90265 12.5544L7.90456 12.5405L6.91386 12.4044ZM6.79642 13.0777L7.77653 13.2761L7.77653 13.2761L6.79642 13.0777ZM6.31676 14.9217L7.17706 15.4315L7.17706 15.4315L6.31676 14.9217ZM2.87876 14.4854L3.53396 13.73L3.53394 13.7299L2.87876 14.4854ZM1.81199 12.9901L2.67938 12.4925L2.67936 12.4924L1.81199 12.9901ZM0.995509 11.0594L0.0482744 11.3799L0.04828 11.3799L0.995509 11.0594ZM0.378226 7.12511L1.37766 7.15877L1.37766 7.15875L0.378226 7.12511ZM1.3677 3.33267L2.21394 3.86547L2.21394 3.86547L1.3677 3.33267ZM4.29205 0.817113L4.70123 1.72956L4.70126 1.72955L4.29205 0.817113ZM6.12703 0.402503L6.19366 -0.595275L6.19365 -0.595276L6.12703 0.402503ZM7.45547 1.54709L6.47846 1.76029L6.47846 1.7603L7.45547 1.54709ZM7.60405 3.668L6.60445 3.69611L6.60445 3.69614L7.60405 3.668ZM8.9986 3.30441C8.97724 2.72881 9.02782 1.73219 8.75956 0.867334L6.84934 1.45985C7.01334 1.98857 6.96797 2.51628 6.99998 3.3786L8.9986 3.30441ZM8.75956 0.867331C8.41365 -0.24783 7.56224 -0.792552 6.6743 -0.948059C5.85264 -1.09196 4.99198 -0.916373 4.33528 -0.673735L5.02843 1.20231C5.49291 1.03069 5.97781 0.960403 6.32929 1.02196C6.49329 1.05068 6.59749 1.10236 6.66417 1.15618C6.72407 1.20451 6.79592 1.28762 6.84934 1.45985L8.75956 0.867331ZM4.33527 -0.673731C2.86571 -0.130745 1.5849 0.861933 0.651491 2.07019L2.23422 3.29289C2.95846 2.35538 3.94057 1.60426 5.02844 1.2023L4.33527 -0.673731ZM0.651491 2.07019C-0.314189 3.32022 -0.786144 4.78635 -0.936761 6.26293L1.05291 6.46589C1.1747 5.27199 1.54555 4.18434 2.23422 3.29289L0.651491 2.07019ZM-0.93676 6.26292C-1.1047 7.90901 -0.936328 9.59524 -0.453619 11.178L1.45939 10.5945C1.05333 9.26311 0.912304 7.84414 1.05291 6.4659L-0.93676 6.26292ZM-0.453621 11.178C-0.233722 11.899 0.0356488 12.6693 0.409104 13.3963L2.18808 12.4824C1.8938 11.9095 1.66506 11.2689 1.45939 10.5945L-0.453621 11.178ZM0.409081 13.3962C0.706048 13.9744 1.10532 14.7275 1.68001 15.3235L3.1197 13.9352C2.77474 13.5775 2.49223 13.0745 2.1881 12.4824L0.409081 13.3962ZM1.68002 15.3235C2.21222 15.8754 3.00362 16.4557 3.87918 16.7676C4.75525 17.0797 5.89742 17.1746 6.86949 16.4199L5.64299 14.8401C5.41888 15.0141 5.07987 15.0722 4.55031 14.8836C4.02023 14.6948 3.48153 14.3104 3.11969 13.9352L1.68002 15.3235ZM6.8695 16.4199C7.81318 15.6872 7.94536 14.5296 8.03823 13.941L6.06267 13.6293C6.00595 13.9888 5.96368 14.2432 5.88675 14.4613C5.81746 14.6578 5.73868 14.7658 5.64297 14.8401L6.8695 16.4199ZM8.03823 13.941C8.10227 13.5351 8.15541 13.132 8.20452 12.7355L6.21968 12.4897C6.17172 12.877 6.1217 13.2551 6.06267 13.6293L8.03823 13.941ZM8.20452 12.7355C8.22573 12.5642 8.23966 12.3936 8.25177 12.2465L6.2585 12.0825C6.24584 12.2364 6.235 12.366 6.21968 12.4897L8.20452 12.7355ZM8.24101 12.3319C8.35438 11.6646 8.46888 10.988 8.57173 10.3075L6.59419 10.0086C6.49446 10.6685 6.38291 11.328 6.26926 11.997L8.24101 12.3319ZM8.57173 10.3075C8.80208 8.78359 8.91404 7.23995 8.96397 5.72453L6.96505 5.65868C6.91681 7.12306 6.80943 8.58464 6.59419 10.0086L8.57173 10.3075ZM8.96397 5.72455C8.98903 4.96425 9.0294 4.13258 8.9986 3.30435L6.99998 3.37866C7.02744 4.11701 6.99161 4.85303 6.96505 5.65866L8.96397 5.72455ZM6.58002 5.73497C6.55191 7.2083 6.45746 8.67224 6.25681 10.1116L8.23766 10.3877C8.45186 8.85111 8.55043 7.30509 8.57966 5.77313L6.58002 5.73497ZM6.25682 10.1116C6.20852 10.458 6.15185 10.805 6.09301 11.1661C6.03483 11.5233 5.97456 11.8941 5.92316 12.2684L7.90456 12.5405C7.95204 12.1948 8.00829 11.848 8.06699 11.4877C8.12504 11.1314 8.18561 10.7611 8.23766 10.3877L6.25682 10.1116ZM5.92737 12.2406C5.88724 12.4823 5.85608 12.6828 5.8163 12.8792L7.77653 13.2761C7.82543 13.0346 7.86493 12.7815 7.90035 12.5682L5.92737 12.2406ZM5.81631 12.8792C5.78248 13.0463 5.75386 13.2215 5.72834 13.3755C5.70163 13.5366 5.67712 13.682 5.64828 13.8218C5.58837 14.1121 5.52468 14.2968 5.45646 14.4119L7.17706 15.4315C7.41651 15.0274 7.53355 14.5819 7.60701 14.226C7.64484 14.0426 7.67518 13.8608 7.70141 13.7026C7.72883 13.5372 7.75126 13.4009 7.77653 13.2761L5.81631 12.8792ZM5.45646 14.4119C5.38238 14.5369 5.32929 14.5511 5.30103 14.5587C5.24085 14.575 5.11044 14.5837 4.88782 14.5204C4.4286 14.3899 3.89713 14.0449 3.53396 13.73L2.22356 15.2409C2.70249 15.6562 3.4911 16.2026 4.3409 16.4442C4.7728 16.567 5.29413 16.632 5.82179 16.4897C6.38138 16.3388 6.85223 15.9797 7.17706 15.4315L5.45646 14.4119ZM3.53394 13.7299C3.2256 13.4625 3.01709 13.0811 2.67938 12.4925L0.944597 13.4877C1.21286 13.9553 1.59953 14.6997 2.22358 15.2409L3.53394 13.7299ZM2.67936 12.4924C2.38161 11.9735 2.16423 11.3933 1.94274 10.7388L0.04828 11.3799C0.275563 12.0515 0.543688 12.789 0.944616 13.4877L2.67936 12.4924ZM1.94274 10.7388C1.555 9.59299 1.33814 8.33222 1.37766 7.15877L-0.621208 7.09145C-0.67004 8.54146 -0.404121 10.043 0.0482744 11.3799L1.94274 10.7388ZM1.37766 7.15875C1.41978 5.9073 1.63117 4.79106 2.21394 3.86547L0.521463 2.79986C-0.333563 4.15787 -0.573873 5.68506 -0.621209 7.09147L1.37766 7.15875ZM2.21394 3.86547C2.80128 2.93261 3.67819 2.18835 4.70123 1.72956L3.88286 -0.0953366C2.51855 0.516486 1.32953 1.51642 0.521459 2.79987L2.21394 3.86547ZM4.70126 1.72955C5.20355 1.50428 5.68497 1.37521 6.06041 1.40028L6.19365 -0.595276C5.33444 -0.652643 4.49555 -0.370123 3.88283 -0.0953242L4.70126 1.72955ZM6.0604 1.40028C6.25186 1.41307 6.32501 1.46379 6.35089 1.4861C6.37679 1.50842 6.43763 1.5732 6.47846 1.76029L8.43248 1.3339C8.31955 0.816396 8.07639 0.332937 7.65661 -0.028865C7.23681 -0.390676 6.72262 -0.559952 6.19366 -0.595275L6.0604 1.40028ZM6.47846 1.7603C6.60199 2.32635 6.58246 2.9144 6.60445 3.69611L8.60366 3.63988C8.58631 3.02326 8.6084 2.14004 8.43248 1.33389L6.47846 1.7603ZM6.60445 3.69614C6.62313 4.35964 6.59391 5.00702 6.58002 5.73497L8.57965 5.77313C8.59229 5.11133 8.62411 4.36629 8.60366 3.63985L6.60445 3.69614Z" fill="#0083E6" mask="url(#path-1-inside-1_3233_12180)"/>
<mask id="path-3-inside-2_3233_12180" fill="white">
<path d="M7.26726 3.1826C7.24122 2.60549 7.17738 1.85653 6.8074 1.38701C6.5118 1.0119 5.96073 0.701402 5.47265 0.771062C5.25558 0.80204 5.03379 0.925919 4.8332 1.03254C4.70487 1.07996 4.57829 1.13535 4.45431 1.19471C4.42971 1.18821 4.40721 1.20241 4.39525 1.22367C4.20389 1.31781 4.01896 1.41991 3.84438 1.51619C3.57289 1.66588 3.3052 1.84482 3.05673 2.04633C3.02546 2.04119 3.00264 2.06622 2.99812 2.09528C2.79366 2.26629 2.60292 2.45209 2.43723 2.65135C1.58175 3.68019 1.03035 4.78077 0.857781 6.11725C0.769528 6.80055 0.732374 7.49871 0.836848 8.18227C0.938168 8.84539 1.08149 9.50395 1.23644 10.1562C1.52009 11.3502 1.94165 12.5886 2.60051 13.6317C2.88676 14.0849 3.28768 14.5594 3.77081 14.8056C4.1654 15.0066 4.69264 15.2727 5.14899 15.1758C5.6346 15.0726 5.9029 14.6205 6.08061 14.1967C6.30477 13.6622 6.37888 13.0765 6.48469 12.5098C6.70657 11.3212 6.74915 10.1242 6.81738 8.92243C6.88662 7.70278 7.01596 6.48599 7.15339 5.27021C7.19198 4.92897 7.19422 4.58788 7.21834 4.24596C7.24298 3.89707 7.28296 3.53122 7.26726 3.1826ZM6.47045 1.40954C6.54209 1.47952 6.60538 1.5578 6.65703 1.64348C6.81101 1.89891 6.85515 2.17398 6.90242 2.4624C6.94978 2.75144 6.82934 2.86709 6.64192 2.93588C6.34676 2.64586 5.99024 2.414 5.66609 2.15659C5.77869 2.05117 5.89276 1.94728 6.00662 1.84395C6.15745 1.70706 6.34189 1.57509 6.47045 1.40954ZM6.41568 2.99858C6.33974 3.01591 6.26036 3.0331 6.18108 3.05504C5.92962 3.12464 5.67663 3.1889 5.42679 3.26393C5.1775 3.33882 4.9248 3.40633 4.67327 3.47726C4.63105 3.3984 4.5674 3.33687 4.49706 3.28086C4.7885 3.02273 5.06685 2.74864 5.3399 2.47264C5.40169 2.4102 5.46466 2.34869 5.52811 2.28768C5.55899 2.31196 5.58987 2.33641 5.62068 2.36036C5.836 2.52754 6.047 2.69979 6.26248 2.86771C6.31744 2.91052 6.36584 2.95733 6.41568 2.99858ZM5.24342 1.10782C5.59822 0.976107 6.01091 1.06238 6.32365 1.28699C6.15007 1.43093 5.98813 1.62248 5.83993 1.76148C5.73757 1.8575 5.63508 1.95294 5.53315 2.04899C5.23965 1.80705 4.95396 1.55653 4.64922 1.33006C4.84412 1.24799 5.04452 1.18164 5.24342 1.10782ZM4.52687 1.41812C4.79894 1.68613 5.09507 1.94114 5.39425 2.18126C5.30733 2.26457 5.22099 2.34853 5.13628 2.43464C4.88514 2.69004 4.61775 2.9285 4.36167 3.17886C4.35163 3.17135 4.34152 3.16391 4.33164 3.15627C4.18855 3.04565 4.05722 2.92421 3.92359 2.80257C3.77891 2.67086 3.62672 2.55494 3.48168 2.42544C3.72001 2.19966 3.95333 1.96178 4.18182 1.72611C4.26997 1.63523 4.41774 1.53329 4.52687 1.41812ZM4.34207 3.4155C4.3882 3.45431 4.434 3.49364 4.47983 3.53288C4.32387 3.57861 4.16875 3.62656 4.01584 3.6799C4.12682 3.59477 4.23532 3.50626 4.34207 3.4155ZM3.82529 3.7456C3.48012 3.86609 3.12928 3.9746 2.78066 4.08762C2.77841 4.07559 2.77598 4.06373 2.7711 4.05518C2.75404 4.02527 2.71994 3.99888 2.69442 3.97759C2.60727 3.90494 2.50465 3.85446 2.41903 3.77995C2.35252 3.72206 2.28514 3.65975 2.22179 3.59591C2.32522 3.49819 2.42654 3.39915 2.52858 3.30856C2.80578 3.06249 3.07779 2.80602 3.34827 2.55153C3.49023 2.69026 3.63728 2.80423 3.78658 2.93955C3.92668 3.06652 4.07078 3.18789 4.21523 3.30898C4.06398 3.435 3.88208 3.5805 3.82529 3.7456ZM3.57403 1.92115C3.71965 1.81339 3.87584 1.72302 4.0345 1.63796C4.00479 1.66799 3.97498 1.69816 3.94453 1.72829C3.74965 1.92105 3.56002 2.12151 3.3602 2.30936C3.321 2.26649 3.28173 2.21955 3.24016 2.17619C3.34938 2.08871 3.46136 2.00449 3.57403 1.92115ZM2.19143 3.3711C2.41822 3.07214 2.61628 2.76171 2.88188 2.49387C2.95768 2.41741 3.03791 2.34613 3.11966 2.27663C3.15704 2.32669 3.19377 2.37759 3.23337 2.42713C2.95443 2.67729 2.68782 2.93828 2.41234 3.19228C2.33006 3.26812 2.24119 3.34408 2.15349 3.42288C2.1662 3.40565 2.17842 3.38823 2.19143 3.3711ZM1.82187 3.93306C1.92722 3.86008 2.02724 3.77495 2.12469 3.68608C2.19656 3.77709 2.27025 3.86639 2.36296 3.94365C2.44101 4.00873 2.52708 4.06168 2.6024 4.1304C2.60708 4.13466 2.61124 4.13843 2.61553 4.14233C2.54662 4.16508 2.47757 4.18751 2.40899 4.21098C2.15203 4.29894 1.89458 4.39564 1.63545 4.47405C1.60528 4.48318 1.57457 4.4918 1.54398 4.50087C1.62475 4.30752 1.71704 4.11811 1.82187 3.93306ZM1.28572 5.27008C1.47624 5.47935 1.67111 5.68212 1.87111 5.87882C1.58793 6.15902 1.30002 6.44783 1.05106 6.75459C1.08626 6.24717 1.15895 5.7499 1.28572 5.27008ZM5.16632 8.74514C5.13082 8.29968 5.065 7.90106 5.10355 7.45151C5.11012 7.37489 5.11958 7.29636 5.15585 7.22858C5.26592 7.02285 5.3504 7.12596 5.38385 7.2778C5.41996 7.44176 5.42568 7.61049 5.44606 7.7765C5.47863 8.04162 5.51901 8.30612 5.53302 8.57218C5.56546 9.18826 5.38242 9.82667 4.86743 10.2168C4.58619 10.4299 4.17993 10.4154 3.8747 10.2489C3.56505 10.08 3.38504 9.74726 3.28346 9.42155C3.19221 9.12893 3.1207 8.82526 3.08881 8.51942C3.07383 8.37597 3.05783 8.21942 3.04925 8.06171C3.0606 7.90386 2.96922 7.40093 3.20684 7.40499C3.45785 7.40928 3.37574 7.82188 3.38572 7.96825C3.40444 8.24276 3.3997 8.51783 3.42034 8.79224C3.44719 9.14928 3.50518 9.61229 3.80683 9.85154C4.05716 10.05 4.5228 9.99843 4.78392 9.83301C5.13079 9.61324 5.19613 9.11921 5.16632 8.74514ZM3.55907 7.36501C3.64297 7.43343 3.72696 7.5015 3.81106 7.56963C3.78781 7.60003 3.76461 7.63019 3.74136 7.6612C3.69995 7.71649 3.64817 7.77643 3.60871 7.84099C3.60295 7.70791 3.5932 7.52764 3.55907 7.36501ZM4.52917 9.70065C4.23532 9.78597 4.03892 9.726 3.90636 9.58401C4.13221 9.4223 4.31408 9.14213 4.49049 8.9445C4.59685 8.82536 4.70353 8.70672 4.80459 8.58375C4.83928 8.54155 4.87646 8.50268 4.91219 8.46305C4.9325 8.46328 4.94846 8.45441 4.95861 8.44062C5.01787 8.9756 5.02762 9.5559 4.52917 9.70065ZM4.20629 8.99101C4.09002 9.12347 3.98425 9.26383 3.87415 9.40088C3.85552 9.42405 3.83599 9.44385 3.81795 9.463C3.60055 9.08138 3.63722 8.39687 3.61671 8.00414C3.70109 7.88065 3.81532 7.7701 3.92018 7.65805C3.97271 7.70053 4.02517 7.74321 4.07764 7.78567C4.26068 7.93363 4.43192 8.08267 4.6066 8.2399C4.65734 8.28554 4.70675 8.34275 4.76182 8.38858C4.58066 8.59217 4.38582 8.78642 4.20629 8.99101ZM3.10328 6.75348C3.05777 6.71359 3.01181 6.6742 2.96601 6.63467C3.13429 6.45745 3.30257 6.28026 3.46952 6.10187C3.66056 5.89773 3.85068 5.69275 4.04087 5.48784C4.2925 5.66925 4.54949 5.84423 4.7836 6.04563C4.86151 6.11269 4.94255 6.17549 5.02469 6.23674C4.75437 6.53683 4.4784 6.8365 4.19527 7.12024C4.10059 7.21513 4.01506 7.31355 3.9326 7.4151C3.65106 7.19614 3.36492 6.98284 3.10328 6.75348ZM3.10337 6.98931C3.10464 6.99038 3.10597 6.99145 3.10728 6.99253C3.09977 6.99555 3.09245 6.99818 3.08472 7.00173C2.7373 7.16045 2.83101 7.63276 2.85955 7.92775C2.87974 8.13653 2.86108 8.35149 2.88078 8.56506C2.80192 8.61258 2.73599 8.67272 2.67449 8.73779C2.47003 8.56987 2.26177 8.40763 2.05819 8.2386C1.94425 8.14398 1.83087 8.05189 1.71889 7.95824C1.90746 7.75371 2.09872 7.55166 2.28937 7.34902C2.4726 7.15424 2.65691 6.96054 2.84105 6.76677C2.92778 6.84137 3.01515 6.91552 3.10337 6.98931ZM2.9373 8.95448C2.90129 8.92298 2.86426 8.89245 2.82714 8.86226C2.85363 8.8251 2.87892 8.78749 2.90242 8.7493C2.91224 8.81915 2.9243 8.88732 2.9373 8.95448ZM2.69985 9.0257C2.80351 9.11346 2.9085 9.19911 3.01564 9.28122C3.02091 9.29933 3.02582 9.31831 3.03124 9.33586C3.09983 9.55759 3.17954 9.77671 3.29171 9.9693C3.03619 10.1893 2.81238 10.4595 2.59505 10.7249C2.57272 10.7091 2.55035 10.6932 2.52809 10.6776C2.26567 10.4929 2.0236 10.2824 1.78286 10.0708C1.77818 10.0667 1.77337 10.062 1.76866 10.0577C1.92416 9.89763 2.07288 9.73022 2.2172 9.56292C2.36666 9.38966 2.54405 9.21332 2.69985 9.0257ZM3.20476 10.2814C3.25891 10.2177 3.32009 10.1521 3.36014 10.0773C3.50586 10.2878 3.70122 10.4561 3.98109 10.5437C4.29019 10.6405 4.59006 10.6229 4.85001 10.4962C4.88706 10.5315 4.9194 10.5721 4.95877 10.6048C5.00597 10.644 5.05752 10.6773 5.10833 10.7118C5.06747 10.7538 5.02658 10.7958 4.98581 10.8379C4.89607 10.9304 4.79748 11.0206 4.73259 11.1322C4.4941 11.2098 4.2557 11.2882 4.01906 11.3684C3.88901 11.4125 3.75973 11.4591 3.63068 11.5064C3.51851 11.3705 3.3379 11.281 3.20219 11.1728C3.05471 11.0553 2.90099 10.9427 2.7462 10.8321C2.89885 10.6483 3.04964 10.4637 3.20476 10.2814ZM5.08457 10.9366C5.13176 10.8917 5.17841 10.846 5.22509 10.8004C5.27466 10.8427 5.32361 10.8858 5.37351 10.9277C5.31981 10.9432 5.26686 10.9591 5.21527 10.9757C5.13573 11.0014 5.05573 11.0275 4.976 11.0533C5.01253 11.0129 5.0479 10.9715 5.08457 10.9366ZM5.04715 10.4537C5.02882 10.4402 5.01169 10.4257 4.99475 10.4117C5.09022 10.3457 5.1787 10.2631 5.25818 10.164C5.51849 9.83951 5.6672 9.51679 5.73478 9.16332C5.87052 9.3176 6.02743 9.45549 6.17793 9.59442C5.98458 9.81679 5.76884 10.0265 5.57501 10.2294C5.46326 10.3464 5.35056 10.4626 5.23773 10.5787C5.17425 10.5369 5.10862 10.4988 5.04715 10.4537ZM5.65573 7.44026C5.62452 7.21467 5.59952 6.9254 5.40107 6.77718C5.14256 6.58406 4.87367 6.73261 4.86574 7.04857C4.86021 7.26993 4.90078 7.48037 4.89083 7.70265C4.88488 7.8354 4.90608 8.01057 4.93007 8.20236C4.92178 8.20587 4.91394 8.21087 4.90738 8.21897C4.89571 8.23333 4.88297 8.24699 4.87107 8.26122C4.63046 7.98389 4.34643 7.74149 4.05238 7.50904C4.18513 7.35587 4.33336 7.22078 4.46767 7.06895C4.69021 6.81732 4.92493 6.5771 5.15621 6.33328C5.32803 6.45771 5.50106 6.58013 5.65963 6.72127C5.80148 6.84755 5.95312 6.95453 6.10138 7.07333C5.95045 7.24639 5.80376 7.4517 5.68478 7.65041C5.67513 7.58004 5.66535 7.50982 5.65573 7.44026ZM5.13268 6.11643C5.11951 6.1058 5.10576 6.09573 5.09269 6.085C4.78616 5.8337 4.4759 5.59696 4.15971 5.36032C4.30456 5.20442 4.44934 5.04842 4.595 4.89327C4.75259 4.72541 4.90071 4.52437 5.07075 4.37071C5.15501 4.29458 5.25031 4.2375 5.32985 4.16297C5.42477 4.2718 5.51202 4.38739 5.61961 4.48825C5.7744 4.63339 5.93371 4.77651 6.09735 4.91151C6.11825 4.92877 6.1387 4.94704 6.15927 4.96498C5.8598 5.31881 5.54361 5.65687 5.2337 6.0038C5.20029 6.04128 5.16632 6.07889 5.13268 6.11643ZM4.87276 4.29813C4.69794 4.47434 4.53776 4.66798 4.37048 4.85147C4.25024 4.98335 4.12945 5.11535 4.0083 5.24716C3.99949 5.2406 3.99081 5.23406 3.98197 5.2275C3.74923 5.05434 3.54607 4.85274 3.32393 4.67097C3.67418 4.57436 4.02387 4.47356 4.36895 4.36714C4.57839 4.30258 4.79052 4.24388 5.00288 4.18559C4.95753 4.22073 4.91333 4.25727 4.87276 4.29813ZM3.70717 5.23618C3.76669 5.28416 3.8276 5.33051 3.88897 5.37637C3.64895 5.63597 3.40649 5.89361 3.15873 6.14387C3.04194 6.26183 2.92736 6.3821 2.81378 6.50331C2.58874 6.31046 2.36315 6.11838 2.14631 5.91714C2.13454 5.90618 2.12281 5.89484 2.11107 5.88356C2.1507 5.84244 2.19039 5.80152 2.23076 5.76183C2.54717 5.45058 2.9308 5.13248 3.22816 4.78139C3.35854 4.95611 3.56905 5.12485 3.70717 5.23618ZM2.87772 4.86799C2.63659 5.11399 2.39332 5.35866 2.14998 5.60222C2.09716 5.65511 2.04353 5.70826 1.9896 5.7616C1.80061 5.56452 1.61152 5.3425 1.40118 5.17737C1.46476 5.16873 1.52961 5.16408 1.58389 5.14984C1.72474 5.11292 1.85808 5.05382 1.99915 5.01637C2.22627 4.95608 2.45443 4.90238 2.682 4.84331C2.77773 4.81845 2.87372 4.79273 2.96965 4.76715C2.9375 4.80353 2.90678 4.83831 2.87772 4.86799ZM1.02879 7.19761C1.03146 7.10688 1.0353 7.01645 1.04007 6.92628C1.40011 6.67267 1.69545 6.32694 1.99873 6.00204C2.22374 6.2187 2.45446 6.4294 2.69084 6.63604C2.44234 6.90489 2.19799 7.17787 1.95124 7.44809C1.83016 7.58072 1.7107 7.71497 1.59244 7.85026C1.50796 7.77734 1.42419 7.7032 1.34244 7.62457C1.25458 7.54009 1.14588 7.39979 1.02691 7.32077C1.0272 7.27971 1.02759 7.23863 1.02879 7.19761ZM1.03104 7.56466C1.15787 7.72147 1.30919 7.86316 1.46697 7.99634C1.42595 8.04425 1.38408 8.09148 1.34361 8.13988C1.27548 8.22131 1.18534 8.30989 1.11493 8.40539C1.07121 8.12483 1.04144 7.84408 1.03104 7.56466ZM1.14045 8.56083C1.26154 8.39733 1.43512 8.24344 1.58627 8.09496C1.70517 8.19121 1.82509 8.28369 1.93847 8.375C2.1427 8.53944 2.34069 8.71592 2.54086 8.88946C2.5094 8.92646 2.47761 8.96348 2.44426 8.99949C2.28052 9.17613 2.11335 9.35634 1.96317 9.54455C1.87463 9.65553 1.73456 9.77801 1.61451 9.90979C1.54746 9.84474 1.47724 9.78132 1.40297 9.73234C1.30158 9.34558 1.20855 8.95376 1.14045 8.56083ZM1.71779 10.8795C1.66314 10.6801 1.60626 10.4777 1.5496 10.2735C1.58019 10.2451 1.60961 10.2154 1.63958 10.1862C1.85002 10.3919 2.08799 10.5773 2.30994 10.742C2.36614 10.7836 2.42179 10.8258 2.47767 10.8679C2.45063 10.9007 2.42361 10.9334 2.3966 10.9657C2.2892 11.0938 2.04655 11.3458 1.93158 11.5729C1.85255 11.3415 1.78078 11.1094 1.71779 10.8795ZM1.99486 11.7558C2.04951 11.6985 2.08968 11.6241 2.14003 11.5619C2.29902 11.3654 2.46262 11.1714 2.62466 10.9782C2.89323 11.1813 3.1615 11.384 3.43698 11.5777C3.22371 11.6569 3.0107 11.7368 2.79623 11.8114C2.57769 11.8875 2.30497 11.9264 2.10802 12.0547C2.06865 11.9555 2.03104 11.8558 1.99486 11.7558ZM2.46662 12.8447C2.58631 12.9922 2.75062 13.1222 2.89163 13.2376C2.84752 13.2837 2.80712 13.3308 2.77955 13.3884C2.66806 13.2129 2.56368 13.0313 2.46662 12.8447ZM4.83229 12.7921C4.92643 12.8726 5.02359 12.9513 5.12114 13.0295C5.10339 13.0503 5.08609 13.0715 5.06818 13.092C4.85703 13.3341 4.6473 13.5819 4.45685 13.8407C4.40061 13.9171 4.34038 13.9946 4.27956 14.073C4.11284 13.9482 3.94677 13.8232 3.78099 13.7002C3.55696 13.5341 3.3276 13.3743 3.10705 13.2037C3.23837 13.0781 3.37499 12.9557 3.49884 12.8291C3.61976 12.7054 3.73369 12.5716 3.85071 12.4438C3.89996 12.3901 3.97622 12.3352 4.00642 12.2659C4.06353 12.2501 4.12022 12.2333 4.1773 12.2174C4.27625 12.4343 4.67912 12.6612 4.83229 12.7921ZM4.33967 12.1715C4.4851 12.1305 4.63088 12.0903 4.77566 12.0479C5.14041 11.941 5.51715 11.8312 5.87026 11.6905C5.95416 11.6571 6.06299 11.622 6.17244 11.5796C5.88395 12.023 5.58346 12.4657 5.24947 12.8759C5.21355 12.8479 5.17802 12.8196 5.14181 12.7919C4.98406 12.6713 4.83759 12.5395 4.67629 12.4262C4.56571 12.3487 4.45903 12.2434 4.33967 12.1715ZM3.65295 12.4534C3.5292 12.5731 3.41371 12.6987 3.2869 12.8151C3.18519 12.9086 3.09736 13.0188 3.00296 13.1212C2.83868 12.9829 2.68145 12.7894 2.50026 12.6697C2.61774 12.645 2.7516 12.6353 2.83897 12.6066C3.04243 12.5397 3.23772 12.4712 3.44579 12.417C3.56746 12.3853 3.6889 12.3516 3.81047 12.3187C3.75466 12.367 3.69452 12.4132 3.65295 12.4534ZM3.0486 13.7807C2.97576 13.6842 2.90658 13.5841 2.83933 13.4822C2.88682 13.4262 2.93763 13.3718 2.99025 13.3184C3.21714 13.5053 3.45775 13.6745 3.69189 13.8527C3.85081 13.9737 4.01454 14.0894 4.17691 14.2067C4.08674 14.3256 3.99933 14.4469 3.92583 14.5712C3.5856 14.374 3.29818 14.1114 3.0486 13.7807ZM4.43504 14.804C4.29269 14.7553 4.15864 14.6977 4.03174 14.6315C4.12744 14.5249 4.21891 14.4151 4.30875 14.3036C4.42145 14.3866 4.53314 14.4708 4.64073 14.5597C4.75866 14.6572 4.89909 14.8008 5.04813 14.9112C4.84383 14.936 4.62789 14.8699 4.43504 14.804ZM5.7394 14.294C5.6265 14.4969 5.51283 14.6929 5.31474 14.8155C5.00964 14.6123 4.70987 14.394 4.4129 14.1726C4.47704 14.0913 4.54084 14.0094 4.60485 13.9272C4.81415 13.6581 5.05037 13.4099 5.2653 13.1448C5.30141 13.1737 5.33749 13.2026 5.37322 13.2315C5.55571 13.3794 5.82927 13.5185 5.96651 13.7211C5.91054 13.9205 5.83945 14.1142 5.7394 14.294ZM6.1556 12.8345C6.11311 13.0483 6.07537 13.2691 6.02587 13.4868C5.92871 13.3854 5.79602 13.304 5.69382 13.2245C5.59214 13.1453 5.49121 13.0654 5.39009 12.9856C5.39142 12.9838 5.39285 12.9821 5.39418 12.9803C5.61409 12.6855 5.86051 12.4056 6.05187 12.0908C6.11893 11.9805 6.25734 11.823 6.34787 11.666C6.29631 12.0574 6.2326 12.4469 6.1556 12.8345ZM6.4041 11.2056C6.21437 11.2363 6.01335 11.357 5.85138 11.4252C5.41359 11.6094 4.94037 11.7427 4.48425 11.8746C4.00287 12.0138 3.49916 12.1234 3.02913 12.2967C2.83634 12.3678 2.65021 12.4544 2.45693 12.5263C2.41149 12.5432 2.3678 12.553 2.33006 12.5702C2.27019 12.4428 2.21369 12.3136 2.15983 12.1834C2.93964 12.0559 3.69335 11.6992 4.45031 11.4797C4.84685 11.3647 5.2353 11.2231 5.6279 11.0949C5.63242 11.0939 5.63655 11.0926 5.64074 11.0907C5.67399 11.0799 5.70712 11.0685 5.74047 11.0579C5.90472 11.0057 6.25224 10.9448 6.43989 10.8105C6.42952 10.9423 6.41779 11.074 6.4041 11.2056ZM6.45771 10.55C6.44158 10.5498 6.42539 10.5527 6.41061 10.5613C6.17042 10.7015 5.88034 10.7855 5.59708 10.8645C5.59065 10.8591 5.58415 10.8538 5.57739 10.8482C5.50415 10.7888 5.43228 10.7275 5.35869 10.6684C5.52372 10.5037 5.68634 10.3362 5.84757 10.1686C5.99658 10.0136 6.14373 9.85853 6.28484 9.69726C6.35554 9.76978 6.42188 9.84643 6.49193 9.92074C6.48212 10.1306 6.47139 10.3403 6.45771 10.55ZM6.50364 9.66108C6.46996 9.62533 6.4369 9.59113 6.40332 9.55772C6.41607 9.54237 6.42923 9.52752 6.44184 9.51205C6.46629 9.48201 6.49122 9.45389 6.51427 9.42594C6.51079 9.50431 6.50711 9.58268 6.50364 9.66108ZM6.59956 8.05901C6.56562 8.41898 6.54485 8.77982 6.52753 9.14096C6.51761 9.14522 6.5089 9.15208 6.50308 9.1615C6.44136 9.26204 6.37062 9.35963 6.2945 9.45487C6.11701 9.29689 5.94811 9.12487 5.76309 8.97541C5.78328 8.79065 5.78422 8.59668 5.76891 8.38884C5.7551 8.20109 5.73244 8.01031 5.70747 7.82038C5.70985 7.81859 5.71238 7.81772 5.71463 7.81544C5.91203 7.61703 6.06666 7.3888 6.24596 7.17878C6.38018 7.2751 6.5548 7.40587 6.57853 7.48557C6.59039 7.52539 6.6204 7.54418 6.65196 7.54649C6.63353 7.71734 6.61565 7.88816 6.59956 8.05901ZM6.67712 7.31485C6.64799 7.28687 6.61162 7.26356 6.56722 7.22982C6.49457 7.17459 6.4237 7.11693 6.35314 7.05881C6.49857 6.90444 6.63658 6.74282 6.76199 6.57181C6.73371 6.81953 6.70481 7.06722 6.67712 7.31485ZM6.79677 6.26089C6.5874 6.47 6.40921 6.72192 6.21525 6.94504C6.1632 6.902 6.111 6.85916 6.05811 6.81726C5.79901 6.61192 5.52515 6.4213 5.26348 6.21928C5.33502 6.14286 5.40637 6.06621 5.47626 5.9881C5.74616 5.68641 6.03403 5.39783 6.29521 5.08802C6.4803 5.26225 6.66129 5.44759 6.86634 5.58821C6.84517 5.8125 6.82158 6.03673 6.79677 6.26089ZM6.9228 4.88112C6.91318 5.0336 6.90118 5.18599 6.88824 5.33831C6.7654 5.18908 6.57473 5.0469 6.42208 4.93267C6.42917 4.92367 6.43661 4.91492 6.44363 4.90589C6.60346 4.70084 6.77847 4.50613 6.93421 4.29689C6.94266 4.28558 6.95335 4.26764 6.96512 4.2467C6.95137 4.45936 6.93603 4.67155 6.9228 4.88112ZM6.97881 4.01585C6.91162 4.0754 6.84592 4.17795 6.83146 4.19408C6.68866 4.35329 6.53283 4.5048 6.40011 4.67272C6.36025 4.72314 6.31845 4.77164 6.27775 4.82124C6.27493 4.8189 6.27161 4.81633 6.26888 4.81406C5.9855 4.57599 5.70835 4.29338 5.38693 4.10147C5.39457 4.09204 5.40241 4.08284 5.40949 4.07273C5.59091 4.02128 5.77144 3.96771 5.94932 3.90822C6.16138 3.83733 6.3717 3.76087 6.58357 3.68884C6.71073 3.64561 6.87664 3.61713 6.99974 3.54234C6.99571 3.69947 6.98781 3.85761 6.97881 4.01585ZM7.00331 3.31099C7.00065 3.31171 6.99828 3.31132 6.99551 3.31229C5.98602 3.67376 4.92961 3.96953 3.89456 4.25961C3.34106 4.41469 2.78817 4.56831 2.23716 4.73016C1.95634 4.81266 1.70046 4.89097 1.43086 5.01098C1.40375 5.02304 1.37608 5.03321 1.34937 5.04355C1.38564 4.92448 1.4251 4.80645 1.46889 4.68985C1.86211 4.5505 2.28946 4.48006 2.68516 4.34858C3.20066 4.1773 3.72102 4.0178 4.2389 3.85537C4.75762 3.69271 5.28825 3.5426 5.81413 3.40442C6.06387 3.33879 6.31279 3.27046 6.56068 3.19804C6.69711 3.15818 6.88285 3.14161 6.98885 3.03856C6.99772 3.12649 7.00357 3.21439 7.00344 3.30167C7.00344 3.30482 7.00335 3.30791 7.00331 3.31099Z"/>
</mask>
<path d="M7.26726 3.1826C7.24122 2.60549 7.17738 1.85653 6.8074 1.38701C6.5118 1.0119 5.96073 0.701402 5.47265 0.771062C5.25558 0.80204 5.03379 0.925919 4.8332 1.03254C4.70487 1.07996 4.57829 1.13535 4.45431 1.19471C4.42971 1.18821 4.40721 1.20241 4.39525 1.22367C4.20389 1.31781 4.01896 1.41991 3.84438 1.51619C3.57289 1.66588 3.3052 1.84482 3.05673 2.04633C3.02546 2.04119 3.00264 2.06622 2.99812 2.09528C2.79366 2.26629 2.60292 2.45209 2.43723 2.65135C1.58175 3.68019 1.03035 4.78077 0.857781 6.11725C0.769528 6.80055 0.732374 7.49871 0.836848 8.18227C0.938168 8.84539 1.08149 9.50395 1.23644 10.1562C1.52009 11.3502 1.94165 12.5886 2.60051 13.6317C2.88676 14.0849 3.28768 14.5594 3.77081 14.8056C4.1654 15.0066 4.69264 15.2727 5.14899 15.1758C5.6346 15.0726 5.9029 14.6205 6.08061 14.1967C6.30477 13.6622 6.37888 13.0765 6.48469 12.5098C6.70657 11.3212 6.74915 10.1242 6.81738 8.92243C6.88662 7.70278 7.01596 6.48599 7.15339 5.27021C7.19198 4.92897 7.19422 4.58788 7.21834 4.24596C7.24298 3.89707 7.28296 3.53122 7.26726 3.1826ZM6.47045 1.40954C6.54209 1.47952 6.60538 1.5578 6.65703 1.64348C6.81101 1.89891 6.85515 2.17398 6.90242 2.4624C6.94978 2.75144 6.82934 2.86709 6.64192 2.93588C6.34676 2.64586 5.99024 2.414 5.66609 2.15659C5.77869 2.05117 5.89276 1.94728 6.00662 1.84395C6.15745 1.70706 6.34189 1.57509 6.47045 1.40954ZM6.41568 2.99858C6.33974 3.01591 6.26036 3.0331 6.18108 3.05504C5.92962 3.12464 5.67663 3.1889 5.42679 3.26393C5.1775 3.33882 4.9248 3.40633 4.67327 3.47726C4.63105 3.3984 4.5674 3.33687 4.49706 3.28086C4.7885 3.02273 5.06685 2.74864 5.3399 2.47264C5.40169 2.4102 5.46466 2.34869 5.52811 2.28768C5.55899 2.31196 5.58987 2.33641 5.62068 2.36036C5.836 2.52754 6.047 2.69979 6.26248 2.86771C6.31744 2.91052 6.36584 2.95733 6.41568 2.99858ZM5.24342 1.10782C5.59822 0.976107 6.01091 1.06238 6.32365 1.28699C6.15007 1.43093 5.98813 1.62248 5.83993 1.76148C5.73757 1.8575 5.63508 1.95294 5.53315 2.04899C5.23965 1.80705 4.95396 1.55653 4.64922 1.33006C4.84412 1.24799 5.04452 1.18164 5.24342 1.10782ZM4.52687 1.41812C4.79894 1.68613 5.09507 1.94114 5.39425 2.18126C5.30733 2.26457 5.22099 2.34853 5.13628 2.43464C4.88514 2.69004 4.61775 2.9285 4.36167 3.17886C4.35163 3.17135 4.34152 3.16391 4.33164 3.15627C4.18855 3.04565 4.05722 2.92421 3.92359 2.80257C3.77891 2.67086 3.62672 2.55494 3.48168 2.42544C3.72001 2.19966 3.95333 1.96178 4.18182 1.72611C4.26997 1.63523 4.41774 1.53329 4.52687 1.41812ZM4.34207 3.4155C4.3882 3.45431 4.434 3.49364 4.47983 3.53288C4.32387 3.57861 4.16875 3.62656 4.01584 3.6799C4.12682 3.59477 4.23532 3.50626 4.34207 3.4155ZM3.82529 3.7456C3.48012 3.86609 3.12928 3.9746 2.78066 4.08762C2.77841 4.07559 2.77598 4.06373 2.7711 4.05518C2.75404 4.02527 2.71994 3.99888 2.69442 3.97759C2.60727 3.90494 2.50465 3.85446 2.41903 3.77995C2.35252 3.72206 2.28514 3.65975 2.22179 3.59591C2.32522 3.49819 2.42654 3.39915 2.52858 3.30856C2.80578 3.06249 3.07779 2.80602 3.34827 2.55153C3.49023 2.69026 3.63728 2.80423 3.78658 2.93955C3.92668 3.06652 4.07078 3.18789 4.21523 3.30898C4.06398 3.435 3.88208 3.5805 3.82529 3.7456ZM3.57403 1.92115C3.71965 1.81339 3.87584 1.72302 4.0345 1.63796C4.00479 1.66799 3.97498 1.69816 3.94453 1.72829C3.74965 1.92105 3.56002 2.12151 3.3602 2.30936C3.321 2.26649 3.28173 2.21955 3.24016 2.17619C3.34938 2.08871 3.46136 2.00449 3.57403 1.92115ZM2.19143 3.3711C2.41822 3.07214 2.61628 2.76171 2.88188 2.49387C2.95768 2.41741 3.03791 2.34613 3.11966 2.27663C3.15704 2.32669 3.19377 2.37759 3.23337 2.42713C2.95443 2.67729 2.68782 2.93828 2.41234 3.19228C2.33006 3.26812 2.24119 3.34408 2.15349 3.42288C2.1662 3.40565 2.17842 3.38823 2.19143 3.3711ZM1.82187 3.93306C1.92722 3.86008 2.02724 3.77495 2.12469 3.68608C2.19656 3.77709 2.27025 3.86639 2.36296 3.94365C2.44101 4.00873 2.52708 4.06168 2.6024 4.1304C2.60708 4.13466 2.61124 4.13843 2.61553 4.14233C2.54662 4.16508 2.47757 4.18751 2.40899 4.21098C2.15203 4.29894 1.89458 4.39564 1.63545 4.47405C1.60528 4.48318 1.57457 4.4918 1.54398 4.50087C1.62475 4.30752 1.71704 4.11811 1.82187 3.93306ZM1.28572 5.27008C1.47624 5.47935 1.67111 5.68212 1.87111 5.87882C1.58793 6.15902 1.30002 6.44783 1.05106 6.75459C1.08626 6.24717 1.15895 5.7499 1.28572 5.27008ZM5.16632 8.74514C5.13082 8.29968 5.065 7.90106 5.10355 7.45151C5.11012 7.37489 5.11958 7.29636 5.15585 7.22858C5.26592 7.02285 5.3504 7.12596 5.38385 7.2778C5.41996 7.44176 5.42568 7.61049 5.44606 7.7765C5.47863 8.04162 5.51901 8.30612 5.53302 8.57218C5.56546 9.18826 5.38242 9.82667 4.86743 10.2168C4.58619 10.4299 4.17993 10.4154 3.8747 10.2489C3.56505 10.08 3.38504 9.74726 3.28346 9.42155C3.19221 9.12893 3.1207 8.82526 3.08881 8.51942C3.07383 8.37597 3.05783 8.21942 3.04925 8.06171C3.0606 7.90386 2.96922 7.40093 3.20684 7.40499C3.45785 7.40928 3.37574 7.82188 3.38572 7.96825C3.40444 8.24276 3.3997 8.51783 3.42034 8.79224C3.44719 9.14928 3.50518 9.61229 3.80683 9.85154C4.05716 10.05 4.5228 9.99843 4.78392 9.83301C5.13079 9.61324 5.19613 9.11921 5.16632 8.74514ZM3.55907 7.36501C3.64297 7.43343 3.72696 7.5015 3.81106 7.56963C3.78781 7.60003 3.76461 7.63019 3.74136 7.6612C3.69995 7.71649 3.64817 7.77643 3.60871 7.84099C3.60295 7.70791 3.5932 7.52764 3.55907 7.36501ZM4.52917 9.70065C4.23532 9.78597 4.03892 9.726 3.90636 9.58401C4.13221 9.4223 4.31408 9.14213 4.49049 8.9445C4.59685 8.82536 4.70353 8.70672 4.80459 8.58375C4.83928 8.54155 4.87646 8.50268 4.91219 8.46305C4.9325 8.46328 4.94846 8.45441 4.95861 8.44062C5.01787 8.9756 5.02762 9.5559 4.52917 9.70065ZM4.20629 8.99101C4.09002 9.12347 3.98425 9.26383 3.87415 9.40088C3.85552 9.42405 3.83599 9.44385 3.81795 9.463C3.60055 9.08138 3.63722 8.39687 3.61671 8.00414C3.70109 7.88065 3.81532 7.7701 3.92018 7.65805C3.97271 7.70053 4.02517 7.74321 4.07764 7.78567C4.26068 7.93363 4.43192 8.08267 4.6066 8.2399C4.65734 8.28554 4.70675 8.34275 4.76182 8.38858C4.58066 8.59217 4.38582 8.78642 4.20629 8.99101ZM3.10328 6.75348C3.05777 6.71359 3.01181 6.6742 2.96601 6.63467C3.13429 6.45745 3.30257 6.28026 3.46952 6.10187C3.66056 5.89773 3.85068 5.69275 4.04087 5.48784C4.2925 5.66925 4.54949 5.84423 4.7836 6.04563C4.86151 6.11269 4.94255 6.17549 5.02469 6.23674C4.75437 6.53683 4.4784 6.8365 4.19527 7.12024C4.10059 7.21513 4.01506 7.31355 3.9326 7.4151C3.65106 7.19614 3.36492 6.98284 3.10328 6.75348ZM3.10337 6.98931C3.10464 6.99038 3.10597 6.99145 3.10728 6.99253C3.09977 6.99555 3.09245 6.99818 3.08472 7.00173C2.7373 7.16045 2.83101 7.63276 2.85955 7.92775C2.87974 8.13653 2.86108 8.35149 2.88078 8.56506C2.80192 8.61258 2.73599 8.67272 2.67449 8.73779C2.47003 8.56987 2.26177 8.40763 2.05819 8.2386C1.94425 8.14398 1.83087 8.05189 1.71889 7.95824C1.90746 7.75371 2.09872 7.55166 2.28937 7.34902C2.4726 7.15424 2.65691 6.96054 2.84105 6.76677C2.92778 6.84137 3.01515 6.91552 3.10337 6.98931ZM2.9373 8.95448C2.90129 8.92298 2.86426 8.89245 2.82714 8.86226C2.85363 8.8251 2.87892 8.78749 2.90242 8.7493C2.91224 8.81915 2.9243 8.88732 2.9373 8.95448ZM2.69985 9.0257C2.80351 9.11346 2.9085 9.19911 3.01564 9.28122C3.02091 9.29933 3.02582 9.31831 3.03124 9.33586C3.09983 9.55759 3.17954 9.77671 3.29171 9.9693C3.03619 10.1893 2.81238 10.4595 2.59505 10.7249C2.57272 10.7091 2.55035 10.6932 2.52809 10.6776C2.26567 10.4929 2.0236 10.2824 1.78286 10.0708C1.77818 10.0667 1.77337 10.062 1.76866 10.0577C1.92416 9.89763 2.07288 9.73022 2.2172 9.56292C2.36666 9.38966 2.54405 9.21332 2.69985 9.0257ZM3.20476 10.2814C3.25891 10.2177 3.32009 10.1521 3.36014 10.0773C3.50586 10.2878 3.70122 10.4561 3.98109 10.5437C4.29019 10.6405 4.59006 10.6229 4.85001 10.4962C4.88706 10.5315 4.9194 10.5721 4.95877 10.6048C5.00597 10.644 5.05752 10.6773 5.10833 10.7118C5.06747 10.7538 5.02658 10.7958 4.98581 10.8379C4.89607 10.9304 4.79748 11.0206 4.73259 11.1322C4.4941 11.2098 4.2557 11.2882 4.01906 11.3684C3.88901 11.4125 3.75973 11.4591 3.63068 11.5064C3.51851 11.3705 3.3379 11.281 3.20219 11.1728C3.05471 11.0553 2.90099 10.9427 2.7462 10.8321C2.89885 10.6483 3.04964 10.4637 3.20476 10.2814ZM5.08457 10.9366C5.13176 10.8917 5.17841 10.846 5.22509 10.8004C5.27466 10.8427 5.32361 10.8858 5.37351 10.9277C5.31981 10.9432 5.26686 10.9591 5.21527 10.9757C5.13573 11.0014 5.05573 11.0275 4.976 11.0533C5.01253 11.0129 5.0479 10.9715 5.08457 10.9366ZM5.04715 10.4537C5.02882 10.4402 5.01169 10.4257 4.99475 10.4117C5.09022 10.3457 5.1787 10.2631 5.25818 10.164C5.51849 9.83951 5.6672 9.51679 5.73478 9.16332C5.87052 9.3176 6.02743 9.45549 6.17793 9.59442C5.98458 9.81679 5.76884 10.0265 5.57501 10.2294C5.46326 10.3464 5.35056 10.4626 5.23773 10.5787C5.17425 10.5369 5.10862 10.4988 5.04715 10.4537ZM5.65573 7.44026C5.62452 7.21467 5.59952 6.9254 5.40107 6.77718C5.14256 6.58406 4.87367 6.73261 4.86574 7.04857C4.86021 7.26993 4.90078 7.48037 4.89083 7.70265C4.88488 7.8354 4.90608 8.01057 4.93007 8.20236C4.92178 8.20587 4.91394 8.21087 4.90738 8.21897C4.89571 8.23333 4.88297 8.24699 4.87107 8.26122C4.63046 7.98389 4.34643 7.74149 4.05238 7.50904C4.18513 7.35587 4.33336 7.22078 4.46767 7.06895C4.69021 6.81732 4.92493 6.5771 5.15621 6.33328C5.32803 6.45771 5.50106 6.58013 5.65963 6.72127C5.80148 6.84755 5.95312 6.95453 6.10138 7.07333C5.95045 7.24639 5.80376 7.4517 5.68478 7.65041C5.67513 7.58004 5.66535 7.50982 5.65573 7.44026ZM5.13268 6.11643C5.11951 6.1058 5.10576 6.09573 5.09269 6.085C4.78616 5.8337 4.4759 5.59696 4.15971 5.36032C4.30456 5.20442 4.44934 5.04842 4.595 4.89327C4.75259 4.72541 4.90071 4.52437 5.07075 4.37071C5.15501 4.29458 5.25031 4.2375 5.32985 4.16297C5.42477 4.2718 5.51202 4.38739 5.61961 4.48825C5.7744 4.63339 5.93371 4.77651 6.09735 4.91151C6.11825 4.92877 6.1387 4.94704 6.15927 4.96498C5.8598 5.31881 5.54361 5.65687 5.2337 6.0038C5.20029 6.04128 5.16632 6.07889 5.13268 6.11643ZM4.87276 4.29813C4.69794 4.47434 4.53776 4.66798 4.37048 4.85147C4.25024 4.98335 4.12945 5.11535 4.0083 5.24716C3.99949 5.2406 3.99081 5.23406 3.98197 5.2275C3.74923 5.05434 3.54607 4.85274 3.32393 4.67097C3.67418 4.57436 4.02387 4.47356 4.36895 4.36714C4.57839 4.30258 4.79052 4.24388 5.00288 4.18559C4.95753 4.22073 4.91333 4.25727 4.87276 4.29813ZM3.70717 5.23618C3.76669 5.28416 3.8276 5.33051 3.88897 5.37637C3.64895 5.63597 3.40649 5.89361 3.15873 6.14387C3.04194 6.26183 2.92736 6.3821 2.81378 6.50331C2.58874 6.31046 2.36315 6.11838 2.14631 5.91714C2.13454 5.90618 2.12281 5.89484 2.11107 5.88356C2.1507 5.84244 2.19039 5.80152 2.23076 5.76183C2.54717 5.45058 2.9308 5.13248 3.22816 4.78139C3.35854 4.95611 3.56905 5.12485 3.70717 5.23618ZM2.87772 4.86799C2.63659 5.11399 2.39332 5.35866 2.14998 5.60222C2.09716 5.65511 2.04353 5.70826 1.9896 5.7616C1.80061 5.56452 1.61152 5.3425 1.40118 5.17737C1.46476 5.16873 1.52961 5.16408 1.58389 5.14984C1.72474 5.11292 1.85808 5.05382 1.99915 5.01637C2.22627 4.95608 2.45443 4.90238 2.682 4.84331C2.77773 4.81845 2.87372 4.79273 2.96965 4.76715C2.9375 4.80353 2.90678 4.83831 2.87772 4.86799ZM1.02879 7.19761C1.03146 7.10688 1.0353 7.01645 1.04007 6.92628C1.40011 6.67267 1.69545 6.32694 1.99873 6.00204C2.22374 6.2187 2.45446 6.4294 2.69084 6.63604C2.44234 6.90489 2.19799 7.17787 1.95124 7.44809C1.83016 7.58072 1.7107 7.71497 1.59244 7.85026C1.50796 7.77734 1.42419 7.7032 1.34244 7.62457C1.25458 7.54009 1.14588 7.39979 1.02691 7.32077C1.0272 7.27971 1.02759 7.23863 1.02879 7.19761ZM1.03104 7.56466C1.15787 7.72147 1.30919 7.86316 1.46697 7.99634C1.42595 8.04425 1.38408 8.09148 1.34361 8.13988C1.27548 8.22131 1.18534 8.30989 1.11493 8.40539C1.07121 8.12483 1.04144 7.84408 1.03104 7.56466ZM1.14045 8.56083C1.26154 8.39733 1.43512 8.24344 1.58627 8.09496C1.70517 8.19121 1.82509 8.28369 1.93847 8.375C2.1427 8.53944 2.34069 8.71592 2.54086 8.88946C2.5094 8.92646 2.47761 8.96348 2.44426 8.99949C2.28052 9.17613 2.11335 9.35634 1.96317 9.54455C1.87463 9.65553 1.73456 9.77801 1.61451 9.90979C1.54746 9.84474 1.47724 9.78132 1.40297 9.73234C1.30158 9.34558 1.20855 8.95376 1.14045 8.56083ZM1.71779 10.8795C1.66314 10.6801 1.60626 10.4777 1.5496 10.2735C1.58019 10.2451 1.60961 10.2154 1.63958 10.1862C1.85002 10.3919 2.08799 10.5773 2.30994 10.742C2.36614 10.7836 2.42179 10.8258 2.47767 10.8679C2.45063 10.9007 2.42361 10.9334 2.3966 10.9657C2.2892 11.0938 2.04655 11.3458 1.93158 11.5729C1.85255 11.3415 1.78078 11.1094 1.71779 10.8795ZM1.99486 11.7558C2.04951 11.6985 2.08968 11.6241 2.14003 11.5619C2.29902 11.3654 2.46262 11.1714 2.62466 10.9782C2.89323 11.1813 3.1615 11.384 3.43698 11.5777C3.22371 11.6569 3.0107 11.7368 2.79623 11.8114C2.57769 11.8875 2.30497 11.9264 2.10802 12.0547C2.06865 11.9555 2.03104 11.8558 1.99486 11.7558ZM2.46662 12.8447C2.58631 12.9922 2.75062 13.1222 2.89163 13.2376C2.84752 13.2837 2.80712 13.3308 2.77955 13.3884C2.66806 13.2129 2.56368 13.0313 2.46662 12.8447ZM4.83229 12.7921C4.92643 12.8726 5.02359 12.9513 5.12114 13.0295C5.10339 13.0503 5.08609 13.0715 5.06818 13.092C4.85703 13.3341 4.6473 13.5819 4.45685 13.8407C4.40061 13.9171 4.34038 13.9946 4.27956 14.073C4.11284 13.9482 3.94677 13.8232 3.78099 13.7002C3.55696 13.5341 3.3276 13.3743 3.10705 13.2037C3.23837 13.0781 3.37499 12.9557 3.49884 12.8291C3.61976 12.7054 3.73369 12.5716 3.85071 12.4438C3.89996 12.3901 3.97622 12.3352 4.00642 12.2659C4.06353 12.2501 4.12022 12.2333 4.1773 12.2174C4.27625 12.4343 4.67912 12.6612 4.83229 12.7921ZM4.33967 12.1715C4.4851 12.1305 4.63088 12.0903 4.77566 12.0479C5.14041 11.941 5.51715 11.8312 5.87026 11.6905C5.95416 11.6571 6.06299 11.622 6.17244 11.5796C5.88395 12.023 5.58346 12.4657 5.24947 12.8759C5.21355 12.8479 5.17802 12.8196 5.14181 12.7919C4.98406 12.6713 4.83759 12.5395 4.67629 12.4262C4.56571 12.3487 4.45903 12.2434 4.33967 12.1715ZM3.65295 12.4534C3.5292 12.5731 3.41371 12.6987 3.2869 12.8151C3.18519 12.9086 3.09736 13.0188 3.00296 13.1212C2.83868 12.9829 2.68145 12.7894 2.50026 12.6697C2.61774 12.645 2.7516 12.6353 2.83897 12.6066C3.04243 12.5397 3.23772 12.4712 3.44579 12.417C3.56746 12.3853 3.6889 12.3516 3.81047 12.3187C3.75466 12.367 3.69452 12.4132 3.65295 12.4534ZM3.0486 13.7807C2.97576 13.6842 2.90658 13.5841 2.83933 13.4822C2.88682 13.4262 2.93763 13.3718 2.99025 13.3184C3.21714 13.5053 3.45775 13.6745 3.69189 13.8527C3.85081 13.9737 4.01454 14.0894 4.17691 14.2067C4.08674 14.3256 3.99933 14.4469 3.92583 14.5712C3.5856 14.374 3.29818 14.1114 3.0486 13.7807ZM4.43504 14.804C4.29269 14.7553 4.15864 14.6977 4.03174 14.6315C4.12744 14.5249 4.21891 14.4151 4.30875 14.3036C4.42145 14.3866 4.53314 14.4708 4.64073 14.5597C4.75866 14.6572 4.89909 14.8008 5.04813 14.9112C4.84383 14.936 4.62789 14.8699 4.43504 14.804ZM5.7394 14.294C5.6265 14.4969 5.51283 14.6929 5.31474 14.8155C5.00964 14.6123 4.70987 14.394 4.4129 14.1726C4.47704 14.0913 4.54084 14.0094 4.60485 13.9272C4.81415 13.6581 5.05037 13.4099 5.2653 13.1448C5.30141 13.1737 5.33749 13.2026 5.37322 13.2315C5.55571 13.3794 5.82927 13.5185 5.96651 13.7211C5.91054 13.9205 5.83945 14.1142 5.7394 14.294ZM6.1556 12.8345C6.11311 13.0483 6.07537 13.2691 6.02587 13.4868C5.92871 13.3854 5.79602 13.304 5.69382 13.2245C5.59214 13.1453 5.49121 13.0654 5.39009 12.9856C5.39142 12.9838 5.39285 12.9821 5.39418 12.9803C5.61409 12.6855 5.86051 12.4056 6.05187 12.0908C6.11893 11.9805 6.25734 11.823 6.34787 11.666C6.29631 12.0574 6.2326 12.4469 6.1556 12.8345ZM6.4041 11.2056C6.21437 11.2363 6.01335 11.357 5.85138 11.4252C5.41359 11.6094 4.94037 11.7427 4.48425 11.8746C4.00287 12.0138 3.49916 12.1234 3.02913 12.2967C2.83634 12.3678 2.65021 12.4544 2.45693 12.5263C2.41149 12.5432 2.3678 12.553 2.33006 12.5702C2.27019 12.4428 2.21369 12.3136 2.15983 12.1834C2.93964 12.0559 3.69335 11.6992 4.45031 11.4797C4.84685 11.3647 5.2353 11.2231 5.6279 11.0949C5.63242 11.0939 5.63655 11.0926 5.64074 11.0907C5.67399 11.0799 5.70712 11.0685 5.74047 11.0579C5.90472 11.0057 6.25224 10.9448 6.43989 10.8105C6.42952 10.9423 6.41779 11.074 6.4041 11.2056ZM6.45771 10.55C6.44158 10.5498 6.42539 10.5527 6.41061 10.5613C6.17042 10.7015 5.88034 10.7855 5.59708 10.8645C5.59065 10.8591 5.58415 10.8538 5.57739 10.8482C5.50415 10.7888 5.43228 10.7275 5.35869 10.6684C5.52372 10.5037 5.68634 10.3362 5.84757 10.1686C5.99658 10.0136 6.14373 9.85853 6.28484 9.69726C6.35554 9.76978 6.42188 9.84643 6.49193 9.92074C6.48212 10.1306 6.47139 10.3403 6.45771 10.55ZM6.50364 9.66108C6.46996 9.62533 6.4369 9.59113 6.40332 9.55772C6.41607 9.54237 6.42923 9.52752 6.44184 9.51205C6.46629 9.48201 6.49122 9.45389 6.51427 9.42594C6.51079 9.50431 6.50711 9.58268 6.50364 9.66108ZM6.59956 8.05901C6.56562 8.41898 6.54485 8.77982 6.52753 9.14096C6.51761 9.14522 6.5089 9.15208 6.50308 9.1615C6.44136 9.26204 6.37062 9.35963 6.2945 9.45487C6.11701 9.29689 5.94811 9.12487 5.76309 8.97541C5.78328 8.79065 5.78422 8.59668 5.76891 8.38884C5.7551 8.20109 5.73244 8.01031 5.70747 7.82038C5.70985 7.81859 5.71238 7.81772 5.71463 7.81544C5.91203 7.61703 6.06666 7.3888 6.24596 7.17878C6.38018 7.2751 6.5548 7.40587 6.57853 7.48557C6.59039 7.52539 6.6204 7.54418 6.65196 7.54649C6.63353 7.71734 6.61565 7.88816 6.59956 8.05901ZM6.67712 7.31485C6.64799 7.28687 6.61162 7.26356 6.56722 7.22982C6.49457 7.17459 6.4237 7.11693 6.35314 7.05881C6.49857 6.90444 6.63658 6.74282 6.76199 6.57181C6.73371 6.81953 6.70481 7.06722 6.67712 7.31485ZM6.79677 6.26089C6.5874 6.47 6.40921 6.72192 6.21525 6.94504C6.1632 6.902 6.111 6.85916 6.05811 6.81726C5.79901 6.61192 5.52515 6.4213 5.26348 6.21928C5.33502 6.14286 5.40637 6.06621 5.47626 5.9881C5.74616 5.68641 6.03403 5.39783 6.29521 5.08802C6.4803 5.26225 6.66129 5.44759 6.86634 5.58821C6.84517 5.8125 6.82158 6.03673 6.79677 6.26089ZM6.9228 4.88112C6.91318 5.0336 6.90118 5.18599 6.88824 5.33831C6.7654 5.18908 6.57473 5.0469 6.42208 4.93267C6.42917 4.92367 6.43661 4.91492 6.44363 4.90589C6.60346 4.70084 6.77847 4.50613 6.93421 4.29689C6.94266 4.28558 6.95335 4.26764 6.96512 4.2467C6.95137 4.45936 6.93603 4.67155 6.9228 4.88112ZM6.97881 4.01585C6.91162 4.0754 6.84592 4.17795 6.83146 4.19408C6.68866 4.35329 6.53283 4.5048 6.40011 4.67272C6.36025 4.72314 6.31845 4.77164 6.27775 4.82124C6.27493 4.8189 6.27161 4.81633 6.26888 4.81406C5.9855 4.57599 5.70835 4.29338 5.38693 4.10147C5.39457 4.09204 5.40241 4.08284 5.40949 4.07273C5.59091 4.02128 5.77144 3.96771 5.94932 3.90822C6.16138 3.83733 6.3717 3.76087 6.58357 3.68884C6.71073 3.64561 6.87664 3.61713 6.99974 3.54234C6.99571 3.69947 6.98781 3.85761 6.97881 4.01585ZM7.00331 3.31099C7.00065 3.31171 6.99828 3.31132 6.99551 3.31229C5.98602 3.67376 4.92961 3.96953 3.89456 4.25961C3.34106 4.41469 2.78817 4.56831 2.23716 4.73016C1.95634 4.81266 1.70046 4.89097 1.43086 5.01098C1.40375 5.02304 1.37608 5.03321 1.34937 5.04355C1.38564 4.92448 1.4251 4.80645 1.46889 4.68985C1.86211 4.5505 2.28946 4.48006 2.68516 4.34858C3.20066 4.1773 3.72102 4.0178 4.2389 3.85537C4.75762 3.69271 5.28825 3.5426 5.81413 3.40442C6.06387 3.33879 6.31279 3.27046 6.56068 3.19804C6.69711 3.15818 6.88285 3.14161 6.98885 3.03856C6.99772 3.12649 7.00357 3.21439 7.00344 3.30167C7.00344 3.30482 7.00335 3.30791 7.00331 3.31099Z" stroke="#0083E6" stroke-width="2" mask="url(#path-3-inside-2_3233_12180)"/>
<mask id="path-4-inside-3_3233_12180" fill="white">
<path d="M16.5865 6.36438C16.4503 5.02918 16.0289 3.75229 15.2017 2.68152C14.3729 1.60863 13.2415 0.736733 11.9628 0.264262C10.8415 -0.149959 9.27164 -0.227452 8.84016 1.1636C8.62403 1.86039 8.672 2.62255 8.64525 3.34148C8.61613 4.12477 8.65422 4.90865 8.68003 5.69158C8.72915 7.18148 8.83879 8.68412 9.06159 10.158C9.16287 10.8282 9.27589 11.4963 9.3894 12.1644C9.40179 12.315 9.41417 12.4651 9.43244 12.6126C9.48097 13.0045 9.53256 13.3951 9.59409 13.7851C9.70117 14.4638 9.81058 15.1814 10.3883 15.63C11.5845 16.5587 13.3507 15.5565 14.2447 14.6293C14.7045 14.1525 15.0454 13.5244 15.346 12.9393C15.6798 12.2894 15.9289 11.5839 16.1417 10.8862C16.5861 9.42915 16.7408 7.87658 16.5865 6.36438ZM15.649 11.0594C15.4246 11.7224 15.1819 12.3812 14.8326 12.9901C14.5296 13.5182 14.232 14.0811 13.7658 14.4854C12.9237 15.2157 11.1256 16.2681 10.3278 14.9217C10.0201 14.4025 9.96632 13.6613 9.84813 13.0777C9.80379 12.8586 9.76845 12.6319 9.73071 12.4044C9.63183 11.6844 9.49768 10.9695 9.39734 10.2497C9.18992 8.76168 9.09344 7.2567 9.06474 5.75406C9.05148 5.05918 9.02098 4.36297 9.04052 3.668C9.06019 2.96887 9.03938 2.23323 9.18911 1.5471C9.34286 0.842505 9.79712 0.450616 10.5175 0.402508C11.1349 0.36129 11.795 0.567084 12.3525 0.817118C13.5462 1.35242 14.5791 2.22452 15.2769 3.33267C15.9958 4.47447 16.2216 5.79618 16.2663 7.12511C16.3105 8.43685 16.0691 9.81802 15.649 11.0594Z"/>
</mask>
<path d="M16.5865 6.36438L15.5917 6.46589L15.5917 6.4659L16.5865 6.36438ZM15.2017 2.68152L15.9931 2.0702L15.9931 2.07018L15.2017 2.68152ZM11.9628 0.264262L12.3093 -0.673755L12.3093 -0.673772L11.9628 0.264262ZM8.84016 1.1636L7.88505 0.867339L7.88505 0.867344L8.84016 1.1636ZM8.64525 3.34148L7.64594 3.3043L7.64594 3.30432L8.64525 3.34148ZM8.68003 5.69158L9.67949 5.65863L8.68003 5.69158ZM9.06159 10.158L10.0504 10.0086L10.0504 10.0085L9.06159 10.158ZM9.3894 12.1644L10.386 12.0824L10.3825 12.0395L10.3753 11.997L9.3894 12.1644ZM9.43244 12.6126L10.4249 12.4897L10.4249 12.4897L9.43244 12.6126ZM9.59409 13.7851L10.5819 13.6293L10.5819 13.6293L9.59409 13.7851ZM10.3883 15.63L11.0016 14.8401L11.0016 14.8401L10.3883 15.63ZM14.2447 14.6293L13.5248 13.9352L13.5248 13.9352L14.2447 14.6293ZM15.346 12.9393L16.2354 13.3962L16.2355 13.3962L15.346 12.9393ZM16.1417 10.8862L15.1852 10.5945L15.1852 10.5945L16.1417 10.8862ZM15.649 11.0594L16.5962 11.3799L16.5962 11.3799L15.649 11.0594ZM14.8326 12.9901L15.6999 13.4877L15.6999 13.4877L14.8326 12.9901ZM13.7658 14.4854L13.1106 13.7299L13.1106 13.7299L13.7658 14.4854ZM10.3278 14.9217L9.46747 15.4315L9.46748 15.4315L10.3278 14.9217ZM9.84813 13.0777L8.86801 13.2761L8.86802 13.2761L9.84813 13.0777ZM9.73071 12.4044L8.74001 12.5405L8.74192 12.5543L8.7442 12.5681L9.73071 12.4044ZM9.39734 10.2497L8.40691 10.3877L8.40691 10.3877L9.39734 10.2497ZM9.06474 5.75406L8.06492 5.77314L8.06492 5.77315L9.06474 5.75406ZM9.04052 3.668L8.04092 3.63988L8.04092 3.6399L9.04052 3.668ZM9.18911 1.5471L10.1661 1.7603L10.1661 1.7603L9.18911 1.5471ZM10.5175 0.402508L10.4509 -0.595271L10.4509 -0.59527L10.5175 0.402508ZM12.3525 0.817118L11.9433 1.72956L11.9433 1.72957L12.3525 0.817118ZM15.2769 3.33267L16.1231 2.79986L16.1231 2.79985L15.2769 3.33267ZM16.2663 7.12511L17.2658 7.0915L17.2658 7.09148L16.2663 7.12511ZM17.5813 6.26288C17.4307 4.78634 16.9587 3.32024 15.9931 2.0702L14.4103 3.29284C15.099 4.18433 15.4699 5.27201 15.5917 6.46589L17.5813 6.26288ZM15.9931 2.07018C15.0597 0.861909 13.7789 -0.130771 12.3093 -0.673755L11.6162 1.20228C12.704 1.60424 13.6861 2.35536 14.4103 3.29285L15.9931 2.07018ZM12.3093 -0.673772C11.6526 -0.916383 10.7919 -1.09196 9.97029 -0.948054C9.08235 -0.79254 8.23095 -0.247816 7.88505 0.867339L9.79526 1.45986C9.84869 1.28762 9.92054 1.20452 9.98044 1.15618C10.0471 1.10237 10.1513 1.05068 10.3153 1.02196C10.6668 0.960403 11.1517 1.03069 11.6162 1.2023L12.3093 -0.673772ZM7.88505 0.867344C7.6168 1.73215 7.66736 2.72884 7.64594 3.3043L9.64456 3.37867C9.67665 2.51626 9.63125 1.98863 9.79526 1.45985L7.88505 0.867344ZM7.64594 3.30432C7.61515 4.13256 7.65551 4.96426 7.68058 5.72453L9.67949 5.65863C9.65293 4.85303 9.61711 4.11699 9.64456 3.37864L7.64594 3.30432ZM7.68058 5.72453C7.73053 7.23991 7.84246 8.78359 8.07282 10.3075L10.0504 10.0085C9.83511 8.58466 9.72777 7.12305 9.67949 5.65863L7.68058 5.72453ZM8.07281 10.3074C8.17566 10.9879 8.29016 11.6646 8.40353 12.3319L10.3753 11.997C10.2616 11.3279 10.1501 10.6685 10.0504 10.0086L8.07281 10.3074ZM8.39277 12.2464C8.40488 12.3936 8.41881 12.5642 8.44002 12.7355L10.4249 12.4897C10.4095 12.366 10.3987 12.2364 10.386 12.0824L8.39277 12.2464ZM8.44002 12.7355C8.48913 13.132 8.54228 13.5351 8.60631 13.941L10.5819 13.6293C10.5228 13.2551 10.4728 12.877 10.4249 12.4897L8.44002 12.7355ZM8.60631 13.941C8.69919 14.5297 8.83136 15.6872 9.77505 16.4199L11.0016 14.8401C10.9059 14.7658 10.8271 14.6578 10.7578 14.4613C10.6809 14.2432 10.6386 13.9888 10.5819 13.6293L8.60631 13.941ZM9.77504 16.4199C10.7471 17.1746 11.8893 17.0797 12.7654 16.7676C13.6409 16.4557 14.4323 15.8754 14.9645 15.3235L13.5248 13.9352C13.163 14.3104 12.6243 14.6948 12.0942 14.8836C11.5647 15.0722 11.2257 15.0141 11.0016 14.8401L9.77504 16.4199ZM14.9645 15.3235C15.5392 14.7275 15.9385 13.9743 16.2354 13.3962L14.4565 12.4823C14.1523 13.0745 13.8698 13.5774 13.5248 13.9352L14.9645 15.3235ZM16.2355 13.3962C16.6089 12.6693 16.8783 11.899 17.0982 11.1779L15.1852 10.5945C14.9795 11.2689 14.7507 11.9095 14.4565 12.4823L16.2355 13.3962ZM17.0982 11.178C17.5809 9.59524 17.7493 7.90903 17.5813 6.26287L15.5917 6.4659C15.7323 7.84414 15.5913 9.26307 15.1852 10.5945L17.0982 11.178ZM14.7018 10.7388C14.4803 11.3933 14.2629 11.9735 13.9652 12.4925L15.6999 13.4877C16.1008 12.789 16.3689 12.0515 16.5962 11.3799L14.7018 10.7388ZM13.9652 12.4925C13.6274 13.0812 13.419 13.4625 13.1106 13.7299L14.4209 15.2409C15.045 14.6997 15.4317 13.9553 15.6999 13.4877L13.9652 12.4925ZM13.1106 13.7299C12.7474 14.0449 12.2159 14.3899 11.7567 14.5204C11.5341 14.5837 11.4037 14.575 11.3435 14.5587C11.3153 14.5511 11.2622 14.5369 11.1881 14.4119L9.46748 15.4315C9.79232 15.9797 10.2632 16.3388 10.8228 16.4897C11.3504 16.632 11.8717 16.567 12.3036 16.4442C13.1534 16.2026 13.942 15.6562 14.421 15.2409L13.1106 13.7299ZM11.1881 14.4119C11.1199 14.2968 11.0562 14.1121 10.9963 13.8218C10.9674 13.682 10.9429 13.5366 10.9162 13.3755C10.8907 13.2215 10.8621 13.0462 10.8282 12.8792L8.86802 13.2761C8.89329 13.4009 8.91571 13.5372 8.94313 13.7026C8.96937 13.8608 8.9997 14.0426 9.03753 14.2259C9.11099 14.5819 9.22803 15.0274 9.46747 15.4315L11.1881 14.4119ZM10.8282 12.8792C10.7885 12.6828 10.7573 12.4822 10.7172 12.2407L8.7442 12.5681C8.77961 12.7815 8.8191 13.0345 8.86801 13.2761L10.8282 12.8792ZM10.7214 12.2684C10.67 11.8941 10.6097 11.5233 10.5516 11.1662C10.4927 10.8051 10.4361 10.458 10.3878 10.1116L8.40691 10.3877C8.45896 10.7611 8.51954 11.1314 8.57759 11.4878C8.63628 11.848 8.69253 12.1948 8.74001 12.5405L10.7214 12.2684ZM10.3878 10.1116C10.1871 8.67225 10.0927 7.20831 10.0646 5.73496L8.06492 5.77315C8.09418 7.30508 8.19271 8.85111 8.40691 10.3877L10.3878 10.1116ZM10.0646 5.73497C10.0507 5.00709 10.0215 4.35963 10.0401 3.6961L8.04092 3.6399C8.0205 4.36631 8.05229 5.11127 8.06492 5.77314L10.0646 5.73497ZM10.0401 3.69612C10.0621 2.91444 10.0426 2.32638 10.1661 1.7603L8.2121 1.3339C8.03618 2.14008 8.05826 3.02329 8.04092 3.63988L10.0401 3.69612ZM10.1661 1.7603C10.2069 1.5732 10.2678 1.50842 10.2937 1.4861C10.3196 1.46379 10.3927 1.41307 10.5842 1.40029L10.4509 -0.59527C9.92196 -0.559947 9.40776 -0.390672 8.98797 -0.0288599C8.56818 0.332943 8.32502 0.816402 8.2121 1.3339L10.1661 1.7603ZM10.5842 1.40029C10.9596 1.37522 11.441 1.50428 11.9433 1.72956L12.7617 -0.0953277C12.149 -0.370113 11.3101 -0.652639 10.4509 -0.595271L10.5842 1.40029ZM11.9433 1.72957C12.9664 2.18835 13.8433 2.93261 14.4306 3.86549L16.1231 2.79985C15.315 1.51643 14.126 0.516496 12.7617 -0.0953315L11.9433 1.72957ZM14.4306 3.86548C15.0134 4.79106 15.2248 5.9073 15.2669 7.15875L17.2658 7.09148C17.2184 5.68506 16.9781 4.15787 16.1231 2.79986L14.4306 3.86548ZM15.2669 7.15872C15.3064 8.33221 15.0895 9.593 14.7018 10.7388L16.5962 11.3799C17.0486 10.043 17.3145 8.54149 17.2658 7.0915L15.2669 7.15872Z" fill="#0083E6" mask="url(#path-4-inside-3_3233_12180)"/>
<mask id="path-6-inside-4_3233_12180" fill="white">
<path d="M15.7861 6.11773C15.6134 4.78126 15.0621 3.68068 14.2066 2.65184C14.0409 2.45258 13.8502 2.26678 13.6457 2.09577C13.6412 2.06671 13.6184 2.04168 13.5871 2.04681C13.3386 1.84534 13.0709 1.6664 12.7995 1.51668C12.6249 1.42043 12.4399 1.3183 12.2486 1.22416C12.2366 1.2029 12.2141 1.1887 12.1895 1.1952C12.0655 1.13584 11.939 1.08045 11.8106 1.03303C11.61 0.926407 11.3882 0.802528 11.1712 0.77155C10.6831 0.70189 10.132 1.01238 9.83643 1.3875C9.46641 1.85701 9.40257 2.60598 9.3766 3.18308C9.3609 3.53168 9.40088 3.89753 9.42549 4.24644C9.44964 4.58837 9.45188 4.92949 9.49047 5.2707C9.6279 6.48648 9.75724 7.70327 9.82648 8.92291C9.89471 10.1247 9.93729 11.3217 10.1592 12.5102C10.265 13.077 10.3391 13.6626 10.5633 14.1972C10.741 14.621 11.0093 15.0731 11.4949 15.1763C11.9512 15.2732 12.4784 15.0071 12.873 14.8061C13.3562 14.5599 13.7571 14.0854 14.0433 13.6322C14.7022 12.5891 15.1238 11.3507 15.4074 10.1567C15.5623 9.50444 15.7057 8.84588 15.807 8.18276C15.9115 7.49919 15.8743 6.80104 15.7861 6.11773ZM15.5927 6.75507C15.3438 6.44832 15.0559 6.1595 14.7727 5.8793C14.9727 5.68261 15.1676 5.47981 15.3581 5.27057C15.4848 5.75039 15.5575 6.24766 15.5927 6.75507ZM13.5945 8.06219C13.586 8.21991 13.57 8.37646 13.555 8.51991C13.5231 8.82579 13.4516 9.12942 13.3603 9.42204C13.2588 9.74774 13.0787 10.0805 12.7691 10.2494C12.4639 10.4159 12.0576 10.4304 11.7764 10.2173C11.2613 9.82716 11.0783 9.18875 11.1108 8.57266C11.1248 8.3066 11.1652 8.0421 11.1977 7.77699C11.2181 7.61098 11.2238 7.44221 11.2599 7.27828C11.2934 7.12645 11.3778 7.02334 11.4879 7.22907C11.5242 7.29685 11.5337 7.37538 11.5402 7.452C11.5788 7.90158 11.513 8.30017 11.4775 8.74563C11.4476 9.1197 11.513 9.61372 11.8599 9.83346C12.121 9.99888 12.5866 10.0505 12.837 9.85199C13.1386 9.61275 13.1966 9.14974 13.2235 8.7927C13.2441 8.51828 13.2394 8.24322 13.2581 7.96871C13.2681 7.82233 13.1859 7.40974 13.437 7.40545C13.6746 7.40142 13.5832 7.90438 13.5945 8.06219ZM13.0271 8.00459C13.0066 8.39729 13.0432 9.08183 12.8259 9.46345C12.8079 9.4443 12.7883 9.42451 12.7697 9.40133C12.6596 9.26429 12.5538 9.12393 12.4375 8.99147C12.258 8.78691 12.0632 8.59262 11.882 8.38901C11.9371 8.34317 11.9865 8.28596 12.0372 8.24032C12.2119 8.08309 12.3832 7.93406 12.5662 7.78609C12.6187 7.74367 12.6712 7.70096 12.7236 7.65847C12.8285 7.77055 12.9427 7.8811 13.0271 8.00459ZM12.8327 7.57009C12.9168 7.50196 13.0008 7.43392 13.0847 7.36547C13.0506 7.52812 13.0408 7.70837 13.0351 7.84142C12.9956 7.77686 12.9438 7.71692 12.9024 7.66163C12.8792 7.63068 12.8559 7.60048 12.8327 7.57009ZM12.1533 8.94498C12.3297 9.14262 12.5116 9.42279 12.7374 9.5845C12.6049 9.72645 12.4085 9.78646 12.1146 9.70113C11.6162 9.55639 11.6259 8.97606 11.6852 8.44111C11.6953 8.4549 11.7113 8.46377 11.7316 8.46354C11.7673 8.50317 11.8045 8.54204 11.8392 8.58424C11.9403 8.7072 12.0469 8.82582 12.1533 8.94498ZM12.7112 7.41562C12.6287 7.31404 12.5432 7.21561 12.4485 7.12076C12.1654 6.83702 11.8894 6.53735 11.6191 6.23726C11.7012 6.17602 11.7823 6.11318 11.8602 6.04616C12.0943 5.84475 12.3513 5.66977 12.6029 5.48836C12.7931 5.69327 12.9832 5.89825 13.1743 6.10239C13.3412 6.28081 13.5095 6.45797 13.6778 6.63519C13.632 6.67472 13.586 6.71412 13.5405 6.754C13.2789 6.98333 12.9927 7.19663 12.7112 7.41562ZM12.6355 5.24765C12.5143 5.11584 12.3936 4.98384 12.2733 4.85196C12.106 4.6685 11.9459 4.47483 11.771 4.29862C11.7305 4.25776 11.6863 4.22122 11.6409 4.18605C11.8533 4.24433 12.0654 4.30304 12.2748 4.36759C12.62 4.47402 12.9697 4.57485 13.3199 4.67142C13.0978 4.8532 12.8946 5.0548 12.6619 5.22795C12.653 5.23452 12.6443 5.24109 12.6355 5.24765ZM12.0488 4.89376C12.1945 5.04894 12.3392 5.20491 12.4841 5.36081C12.1679 5.59745 11.8576 5.83419 11.5511 6.08549C11.538 6.09621 11.5243 6.10629 11.5111 6.11692C11.4775 6.07938 11.4435 6.04177 11.4101 6.00432C11.1001 5.65739 10.784 5.31933 10.4845 4.9655C10.5051 4.94756 10.5255 4.92929 10.5464 4.91203C10.7101 4.77703 10.8694 4.63391 11.0242 4.48877C11.1318 4.38788 11.2191 4.27229 11.3139 4.16349C11.3935 4.23803 11.4888 4.2951 11.5731 4.37123C11.7431 4.52486 11.8912 4.7259 12.0488 4.89376ZM11.4876 6.33377C11.7188 6.57759 11.9535 6.81781 12.1761 7.06944C12.3104 7.22127 12.4586 7.3564 12.5914 7.50953C12.2973 7.74198 12.0133 7.98438 11.7727 8.26171C11.7608 8.24748 11.7481 8.23382 11.7364 8.21946C11.7298 8.2114 11.722 8.20636 11.7137 8.20285C11.7377 8.01106 11.7589 7.83589 11.7529 7.70314C11.743 7.48086 11.7835 7.27042 11.778 7.04906C11.7701 6.7331 11.5012 6.58455 11.2427 6.77767C11.0443 6.92589 11.0193 7.21516 10.9881 7.44075C10.9784 7.51031 10.9687 7.58052 10.959 7.65093C10.84 7.45222 10.6933 7.24692 10.5424 7.07386C10.6906 6.95502 10.8423 6.84804 10.9841 6.72179C11.1427 6.58065 11.3157 6.45823 11.4876 6.33377ZM11.3856 10.1645C11.4651 10.2636 11.5536 10.3462 11.6491 10.4122C11.6321 10.4262 11.615 10.4407 11.5967 10.4542C11.5352 10.4992 11.4696 10.5374 11.4061 10.5792C11.2932 10.4631 11.1806 10.3469 11.0688 10.2299C10.875 10.027 10.6592 9.81727 10.4659 9.59494C10.6164 9.45601 10.7733 9.31808 10.909 9.16384C10.9766 9.51728 11.1253 9.84 11.3856 10.1645ZM11.4187 10.8009C11.4654 10.8465 11.512 10.8922 11.5592 10.9371C11.5959 10.972 11.6313 11.0134 11.6678 11.0538C11.588 11.028 11.508 11.0019 11.4285 10.9762C11.3769 10.9596 11.324 10.9437 11.2703 10.9282C11.3202 10.8862 11.3691 10.8432 11.4187 10.8009ZM11.658 10.8384C11.6172 10.7963 11.5763 10.7543 11.5355 10.7124C11.5863 10.6778 11.6378 10.6445 11.685 10.6053C11.7244 10.5726 11.7568 10.532 11.7938 10.4967C12.0537 10.6234 12.3536 10.641 12.6627 10.5442C12.9426 10.4566 13.1379 10.2883 13.2837 10.0778C13.3237 10.1525 13.3849 10.2182 13.4391 10.2819C13.5942 10.4642 13.745 10.6488 13.8977 10.8327C13.7429 10.9432 13.5891 11.0558 13.4417 11.1733C13.306 11.2815 13.1253 11.371 13.0131 11.5069C12.8841 11.4597 12.7548 11.413 12.6248 11.3689C12.3881 11.2887 12.1497 11.2103 11.9112 11.1327C11.8463 11.0211 11.7477 10.9309 11.658 10.8384ZM13.352 9.96983C13.4642 9.77723 13.5439 9.55811 13.6125 9.33638C13.6179 9.31883 13.6229 9.29985 13.6281 9.28174C13.7353 9.19963 13.8403 9.11398 13.9439 9.02622C14.0997 9.21381 14.2771 9.39018 14.4265 9.56344C14.5709 9.73075 14.7196 9.89815 14.8751 10.0582C14.8704 10.0625 14.8655 10.0672 14.8609 10.0713C14.6201 10.283 14.378 10.4935 14.1156 10.6781C14.0933 10.6938 14.071 10.7097 14.0486 10.7254C13.8314 10.46 13.6076 10.1898 13.352 9.96983ZM13.7065 8.95496C13.7195 8.88781 13.7316 8.81964 13.7414 8.74979C13.7649 8.78801 13.7902 8.82562 13.8166 8.86275C13.7795 8.89294 13.7425 8.92346 13.7065 8.95496ZM13.7631 8.56558C13.7828 8.35198 13.7641 8.13705 13.7843 7.92827C13.8128 7.63325 13.9065 7.16094 13.5591 7.00225C13.5514 6.9987 13.5441 6.99607 13.5366 6.99305C13.5378 6.99197 13.5392 6.9909 13.5405 6.98983C13.6287 6.91604 13.716 6.84186 13.8028 6.76733C13.987 6.96109 14.1713 7.1548 14.3545 7.34957C14.5451 7.55221 14.7364 7.7543 14.925 7.95879C14.813 8.05244 14.6996 8.14456 14.5857 8.23916C14.3821 8.40822 14.1739 8.57042 13.9694 8.73835C13.9078 8.67324 13.8419 8.61313 13.7631 8.56558ZM13.4851 6.14436C13.2373 5.89409 12.9948 5.63642 12.7548 5.37686C12.8162 5.33103 12.8771 5.28464 12.9366 5.23667C13.0748 5.12537 13.2853 4.9566 13.4157 4.78185C13.713 5.13294 14.0967 5.45104 14.4131 5.76228C14.4534 5.80197 14.4931 5.8429 14.5327 5.88402C14.521 5.8953 14.5093 5.90667 14.4975 5.9176C14.2806 6.11884 14.055 6.31095 13.83 6.50377C13.7164 6.38259 13.6019 6.26232 13.4851 6.14436ZM14.4938 5.60271C14.2505 5.35915 14.0072 5.11444 13.7661 4.86847C13.737 4.83883 13.7063 4.80405 13.6741 4.76767C13.7701 4.79326 13.8661 4.81897 13.9618 4.84383C14.1894 4.9029 14.4175 4.95663 14.6446 5.0169C14.7857 5.05434 14.919 5.11344 15.0599 5.15036C15.1142 5.1646 15.179 5.16925 15.2426 5.1779C15.0323 5.34302 14.8432 5.56504 14.6542 5.76212C14.6002 5.70875 14.5466 5.6556 14.4938 5.60271ZM14.8219 3.93354C14.9268 4.1186 15.019 4.30804 15.0998 4.50139C15.0692 4.49232 15.0385 4.48367 15.0083 4.47457C14.7492 4.39616 14.4918 4.29946 14.2348 4.2115C14.1663 4.18803 14.0972 4.1656 14.0283 4.14285C14.0326 4.13895 14.0367 4.13518 14.0414 4.13092C14.1168 4.0622 14.2028 4.00925 14.2809 3.94417C14.3735 3.86691 14.4473 3.77761 14.5191 3.6866C14.6166 3.77544 14.7166 3.86057 14.8219 3.93354ZM12.4286 3.3095C12.573 3.18842 12.7171 3.06704 12.8572 2.94007C13.0065 2.80475 13.1535 2.69079 13.2955 2.55205C13.566 2.80654 13.838 3.06301 14.1152 3.30908C14.2172 3.39964 14.3186 3.49872 14.422 3.59643C14.3586 3.66027 14.2912 3.72258 14.2247 3.78047C14.1391 3.85498 14.0365 3.90546 13.9493 3.97811C13.9238 3.9994 13.8898 4.0258 13.8727 4.0557C13.8678 4.06425 13.8654 4.07611 13.8631 4.08814C13.5145 3.97512 13.1637 3.86661 12.8185 3.74612C12.7617 3.58099 12.5798 3.43549 12.4286 3.3095ZM12.628 3.68042C12.475 3.62708 12.3199 3.57913 12.164 3.5334C12.2098 3.49416 12.2556 3.45483 12.3017 3.41602C12.4085 3.50674 12.517 3.59526 12.628 3.68042ZM13.5242 2.27712C13.6059 2.34661 13.6861 2.4179 13.7619 2.49435C14.0275 2.76217 14.2256 3.07263 14.4524 3.37159C14.4654 3.38872 14.4776 3.40614 14.4903 3.42337C14.4027 3.34457 14.3138 3.26861 14.2315 3.19277C13.956 2.9388 13.6894 2.67778 13.4105 2.42762C13.4501 2.37811 13.4868 2.32721 13.5242 2.27712ZM13.0698 1.92163C13.1824 2.00498 13.2944 2.0892 13.4036 2.17667C13.3621 2.22007 13.3228 2.26698 13.2836 2.30985C13.0838 2.12197 12.8941 1.9215 12.6993 1.72878C12.6688 1.69861 12.639 1.66848 12.6093 1.63844C12.768 1.72351 12.9241 1.81388 13.0698 1.92163ZM12.4619 1.7266C12.6904 1.96227 12.9238 2.20011 13.1621 2.42593C13.0171 2.55546 12.8649 2.67135 12.7202 2.80306C12.5866 2.9247 12.4553 3.04614 12.3122 3.15675C12.3023 3.16439 12.2921 3.17184 12.2821 3.17935C12.026 2.92899 11.7587 2.69049 11.5075 2.43513C11.4228 2.34902 11.3365 2.26506 11.2495 2.18175C11.5487 1.94163 11.8449 1.68662 12.1169 1.41861C12.2261 1.53378 12.3738 1.63571 12.4619 1.7266ZM12.1467 3.28132C12.0764 3.33732 12.0128 3.39886 11.9705 3.47772C11.719 3.40679 11.4663 3.33927 11.217 3.26438C10.9671 3.18933 10.7141 3.12506 10.4627 3.0555C10.3834 3.03359 10.3041 3.0164 10.2281 2.99904C10.2779 2.95779 10.3263 2.91098 10.3813 2.86814C10.5967 2.70021 10.8078 2.52796 11.0231 2.36079C11.0539 2.33683 11.0848 2.31239 11.1157 2.2881C11.1791 2.34912 11.2421 2.41062 11.3039 2.47306C11.5769 2.7491 11.8553 3.02322 12.1467 3.28132ZM11.4004 1.10831C11.5993 1.18216 11.7997 1.24851 11.9946 1.33052C11.6898 1.55702 11.4041 1.80751 11.1106 2.04945C11.0087 1.95343 10.9062 1.85796 10.8039 1.76193C10.6556 1.62294 10.4937 1.43138 10.3201 1.28745C10.6328 1.06283 11.0455 0.976563 11.4004 1.10831ZM9.74138 2.46289C9.78864 2.17446 9.83278 1.8994 9.98676 1.64397C10.0384 1.55829 10.1017 1.48001 10.1733 1.41003C10.3019 1.57558 10.4863 1.70755 10.6372 1.84443C10.7511 1.94774 10.8651 2.05166 10.9777 2.15707C10.6536 2.41449 10.297 2.64635 10.0019 2.93637C9.81445 2.86758 9.69402 2.75193 9.74138 2.46289ZM9.64035 3.30222C9.64022 3.21491 9.64607 3.12704 9.65495 3.03912C9.76095 3.14216 9.94668 3.15877 10.0831 3.19859C10.331 3.27098 10.5799 3.33934 10.8296 3.40497C11.3555 3.54318 11.8861 3.69326 12.4049 3.85592C12.9227 4.01832 13.4431 4.17786 13.9586 4.34913C14.3543 4.48058 14.7816 4.55105 15.1749 4.69041C15.2187 4.807 15.2581 4.92503 15.2944 5.0441C15.2676 5.03373 15.24 5.02359 15.2129 5.01153C14.9433 4.89152 14.6874 4.81321 14.4066 4.73071C13.8556 4.56884 13.3027 4.41525 12.7492 4.26016C11.7142 3.97011 10.6578 3.67431 9.64825 3.31285C9.64549 3.31187 9.64315 3.31226 9.64048 3.31155C9.64048 3.30839 9.64035 3.30531 9.64035 3.30222ZM9.64406 3.54279C9.76715 3.61762 9.9331 3.64606 10.0602 3.6893C10.2721 3.76133 10.4824 3.83778 10.6945 3.90868C10.8724 3.96816 11.0529 4.02173 11.2343 4.07319C11.2414 4.0833 11.2492 4.0925 11.2569 4.10192C10.9354 4.29384 10.6583 4.57644 10.3749 4.81451C10.3722 4.81682 10.3689 4.81939 10.366 4.8217C10.3253 4.77213 10.2835 4.72359 10.2437 4.67318C10.111 4.50522 9.95513 4.35371 9.81234 4.19453C9.79787 4.17844 9.73218 4.07585 9.66499 4.0163C9.65599 3.8581 9.64809 3.69996 9.64406 3.54279ZM9.72096 4.88161C9.70777 4.67204 9.69242 4.45984 9.67861 4.24716C9.69038 4.26813 9.70107 4.28604 9.70952 4.29735C9.86526 4.50659 10.0403 4.70133 10.2001 4.90634C10.2072 4.91538 10.2146 4.92412 10.2217 4.93313C10.0691 5.04735 9.87839 5.18953 9.75552 5.33877C9.74261 5.18648 9.73062 5.03409 9.72096 4.88161ZM9.77749 5.58864C9.98251 5.44802 10.1635 5.26267 10.3486 5.08844C10.6098 5.39825 10.8976 5.68684 11.1676 5.98852C11.2375 6.06663 11.3088 6.14328 11.3803 6.2197C11.1187 6.42173 10.8448 6.61237 10.5857 6.81768C10.5328 6.85958 10.4807 6.90242 10.4286 6.94546C10.2346 6.72234 10.0564 6.47045 9.84705 6.26131C9.82225 6.03722 9.79862 5.81299 9.77749 5.58864ZM9.8818 6.57229C10.0072 6.74331 10.1452 6.90496 10.2907 7.05929C10.2201 7.11741 10.1492 7.17511 10.0766 7.23031C10.0322 7.26405 9.9958 7.28735 9.96664 7.31534C9.93898 7.06771 9.91012 6.82002 9.8818 6.57229ZM10.0442 8.0595C10.0281 7.88865 10.0103 7.71783 9.9918 7.54701C10.0234 7.54467 10.0534 7.52591 10.0652 7.48609C10.089 7.40639 10.2636 7.27562 10.3978 7.1793C10.5771 7.38932 10.7317 7.61755 10.9291 7.81596C10.9314 7.81824 10.9339 7.81911 10.9363 7.8209C10.9113 8.0108 10.8887 8.20161 10.8749 8.38936C10.8595 8.59721 10.8605 8.7912 10.8807 8.97593C10.6956 9.12539 10.5267 9.29741 10.3493 9.45539C10.2732 9.36018 10.2024 9.26257 10.1407 9.16202C10.1349 9.15257 10.1262 9.14574 10.1163 9.14148C10.0989 8.78028 10.0782 8.41946 10.0442 8.0595ZM10.1295 9.42643C10.1526 9.45438 10.1775 9.4825 10.202 9.51253C10.2145 9.52801 10.2277 9.54289 10.2405 9.5582C10.2069 9.59159 10.1738 9.62578 10.1402 9.66157C10.1367 9.58317 10.133 9.5048 10.1295 9.42643ZM10.1519 9.92129C10.2219 9.84698 10.2882 9.77034 10.3589 9.69782C10.5001 9.85908 10.6472 10.0142 10.7962 10.1691C10.9574 10.3367 11.1201 10.5042 11.2851 10.6689C11.2115 10.728 11.1396 10.7893 11.0664 10.8488C11.0596 10.8543 11.0531 10.8597 11.0467 10.8651C10.7635 10.786 10.4734 10.702 10.2332 10.5619C10.2184 10.5532 10.2022 10.5504 10.1861 10.5505C10.1724 10.3408 10.1617 10.1311 10.1519 9.92129ZM10.4882 12.835C10.4112 12.4474 10.3475 12.0578 10.2959 11.6666C10.3865 11.8235 10.5249 11.981 10.5919 12.0913C10.7833 12.4061 11.0297 12.686 11.2496 12.9808C11.251 12.9826 11.2524 12.9843 11.2537 12.9861C11.1526 13.0659 11.0517 13.1459 10.95 13.225C10.8478 13.3046 10.7151 13.3859 10.618 13.4873C10.5684 13.2696 10.5307 13.0488 10.4882 12.835ZM13.145 12.8296C13.2688 12.9563 13.4054 13.0786 13.5367 13.2042C13.3162 13.3748 13.0868 13.5347 12.8628 13.7008C12.697 13.8237 12.5309 13.9487 12.3642 14.0735C12.3034 13.9951 12.2432 13.9176 12.1869 13.8412C11.9965 13.5824 11.7868 13.3347 11.5756 13.0926C11.5577 13.072 11.5404 13.0508 11.5227 13.03C11.6202 12.9518 11.7174 12.8731 11.8115 12.7927C11.9647 12.6617 12.3675 12.4349 12.4665 12.218C12.5236 12.2339 12.5803 12.2507 12.6374 12.2664C12.6676 12.3357 12.7439 12.3907 12.7931 12.4444C12.9101 12.5722 13.0241 12.7059 13.145 12.8296ZM12.8333 12.3192C12.9549 12.352 13.0763 12.3857 13.198 12.4174C13.406 12.4717 13.6014 12.5402 13.8048 12.607C13.8922 12.6358 14.0261 12.6455 14.1435 12.6702C13.9624 12.7899 13.8051 12.9834 13.6408 13.1216C13.5465 13.0193 13.4586 12.909 13.3569 12.8156C13.2301 12.6991 13.1146 12.5736 12.9908 12.4538C12.9493 12.4137 12.8891 12.3675 12.8333 12.3192ZM11.9675 12.4268C11.8062 12.54 11.6597 12.6718 11.502 12.7925C11.4658 12.8201 11.4302 12.8485 11.3943 12.8765C11.0604 12.4662 10.7599 12.0235 10.4714 11.5801C10.5808 11.6226 10.6896 11.6577 10.7735 11.6911C11.1267 11.8318 11.5034 11.9416 11.8681 12.0485C12.0129 12.0909 12.1587 12.131 12.3041 12.172C12.1848 12.2439 12.0781 12.3491 11.9675 12.4268ZM11.3291 14.816C11.131 14.6934 11.0173 14.4974 10.9044 14.2945C10.8043 14.1147 10.7333 13.921 10.6773 13.7216C10.8146 13.5191 11.0881 13.3799 11.2706 13.2321C11.3063 13.2031 11.3424 13.1742 11.3785 13.1454C11.5934 13.4104 11.8296 13.6586 12.0389 13.9277C12.103 14.01 12.1668 14.0918 12.2309 14.1732C11.9339 14.3945 11.6342 14.6128 11.3291 14.816ZM12.2088 14.8045C12.0159 14.8704 11.7999 14.9364 11.5957 14.9117C11.7447 14.8012 11.8851 14.6577 12.0031 14.5602C12.1107 14.4713 12.2223 14.3871 12.335 14.3041C12.4249 14.4156 12.5164 14.5254 12.6121 14.632C12.4852 14.6982 12.3511 14.7558 12.2088 14.8045ZM13.5952 13.7812C13.3456 14.1119 13.0582 14.3745 12.718 14.5717C12.6445 14.4474 12.5571 14.326 12.4669 14.2071C12.6293 14.0898 12.793 13.9742 12.9519 13.8532C13.186 13.675 13.4266 13.5058 13.6535 13.3189C13.7062 13.3723 13.757 13.4267 13.8045 13.4827C13.7372 13.5846 13.668 13.6847 13.5952 13.7812ZM13.8642 13.3889C13.8367 13.3313 13.7963 13.2842 13.7522 13.2381C13.8931 13.1228 14.0575 12.9927 14.1772 12.8452C14.0801 13.0318 13.9757 13.2134 13.8642 13.3889ZM14.3138 12.5707C14.276 12.5534 14.2323 12.5437 14.1869 12.5268C13.9936 12.4549 13.8075 12.3683 13.6147 12.2972C13.1447 12.1238 12.641 12.0143 12.1596 11.8751C11.7035 11.7432 11.2302 11.6099 10.7925 11.4257C10.6305 11.3575 10.4294 11.2368 10.2397 11.2061C10.226 11.0745 10.2143 10.9428 10.204 10.811C10.3917 10.9453 10.7392 11.0062 10.9034 11.0584C10.9368 11.069 10.9699 11.0804 11.0032 11.0912C11.0073 11.0931 11.0115 11.0944 11.016 11.0954C11.4086 11.2236 11.7971 11.3652 12.1936 11.4802C12.9505 11.6997 13.7043 12.0564 14.4841 12.1839C14.4301 12.3141 14.3736 12.4433 14.3138 12.5707ZM14.5358 12.0552C14.3388 11.9269 14.0661 11.888 13.8476 11.8119C13.6331 11.7373 13.4201 11.6574 13.2068 11.5782C13.4823 11.3845 13.7506 11.1818 14.0191 10.9787C14.1811 11.1719 14.3448 11.3658 14.5037 11.5624C14.5541 11.6246 14.5943 11.699 14.6489 11.7562C14.6128 11.8563 14.5751 11.956 14.5358 12.0552ZM14.926 10.88C14.863 11.1099 14.7912 11.342 14.7122 11.5734C14.5972 11.3463 14.3546 11.0943 14.2472 10.9662C14.2202 10.9339 14.1932 10.9011 14.1661 10.8683C14.222 10.8263 14.2776 10.7841 14.3339 10.7425C14.5558 10.5778 14.7938 10.3924 15.0042 10.1867C15.0342 10.2159 15.0636 10.2456 15.0942 10.274C15.0375 10.4782 14.9807 10.6806 14.926 10.88ZM15.2408 9.73282C15.1666 9.78181 15.0963 9.8452 15.0293 9.91027C14.9092 9.7785 14.7692 9.65602 14.6806 9.54504C14.5304 9.35683 14.3633 9.17662 14.1995 8.99998C14.1662 8.96397 14.1344 8.92694 14.103 8.88995C14.3031 8.7164 14.5011 8.53993 14.7054 8.37548C14.8188 8.28418 14.9387 8.19166 15.0576 8.09545C15.2087 8.24393 15.3823 8.39785 15.5034 8.56132C15.4352 8.95425 15.3422 9.34607 15.2408 9.73282ZM15.5289 8.40588C15.4585 8.31037 15.3683 8.2218 15.3002 8.14037C15.2597 8.092 15.2178 8.04477 15.1768 7.99683C15.3346 7.86365 15.4859 7.72196 15.6127 7.56515C15.6024 7.84457 15.5726 8.12532 15.5289 8.40588ZM15.3013 7.62512C15.2196 7.70375 15.1358 7.7779 15.0514 7.85081C14.9331 7.71552 14.8136 7.58127 14.6926 7.44865C14.4458 7.17839 14.2015 6.90544 13.953 6.63659C14.1893 6.42995 14.4201 6.21925 14.6451 6.0026C14.9483 6.32746 15.2437 6.67319 15.6037 6.92683C15.6085 7.017 15.6123 7.10744 15.615 7.19816C15.6162 7.23918 15.6166 7.28027 15.6169 7.32136C15.4979 7.40034 15.3892 7.54064 15.3013 7.62512Z"/>
</mask>
<path d="M15.7861 6.11773C15.6134 4.78126 15.0621 3.68068 14.2066 2.65184C14.0409 2.45258 13.8502 2.26678 13.6457 2.09577C13.6412 2.06671 13.6184 2.04168 13.5871 2.04681C13.3386 1.84534 13.0709 1.6664 12.7995 1.51668C12.6249 1.42043 12.4399 1.3183 12.2486 1.22416C12.2366 1.2029 12.2141 1.1887 12.1895 1.1952C12.0655 1.13584 11.939 1.08045 11.8106 1.03303C11.61 0.926407 11.3882 0.802528 11.1712 0.77155C10.6831 0.70189 10.132 1.01238 9.83643 1.3875C9.46641 1.85701 9.40257 2.60598 9.3766 3.18308C9.3609 3.53168 9.40088 3.89753 9.42549 4.24644C9.44964 4.58837 9.45188 4.92949 9.49047 5.2707C9.6279 6.48648 9.75724 7.70327 9.82648 8.92291C9.89471 10.1247 9.93729 11.3217 10.1592 12.5102C10.265 13.077 10.3391 13.6626 10.5633 14.1972C10.741 14.621 11.0093 15.0731 11.4949 15.1763C11.9512 15.2732 12.4784 15.0071 12.873 14.8061C13.3562 14.5599 13.7571 14.0854 14.0433 13.6322C14.7022 12.5891 15.1238 11.3507 15.4074 10.1567C15.5623 9.50444 15.7057 8.84588 15.807 8.18276C15.9115 7.49919 15.8743 6.80104 15.7861 6.11773ZM15.5927 6.75507C15.3438 6.44832 15.0559 6.1595 14.7727 5.8793C14.9727 5.68261 15.1676 5.47981 15.3581 5.27057C15.4848 5.75039 15.5575 6.24766 15.5927 6.75507ZM13.5945 8.06219C13.586 8.21991 13.57 8.37646 13.555 8.51991C13.5231 8.82579 13.4516 9.12942 13.3603 9.42204C13.2588 9.74774 13.0787 10.0805 12.7691 10.2494C12.4639 10.4159 12.0576 10.4304 11.7764 10.2173C11.2613 9.82716 11.0783 9.18875 11.1108 8.57266C11.1248 8.3066 11.1652 8.0421 11.1977 7.77699C11.2181 7.61098 11.2238 7.44221 11.2599 7.27828C11.2934 7.12645 11.3778 7.02334 11.4879 7.22907C11.5242 7.29685 11.5337 7.37538 11.5402 7.452C11.5788 7.90158 11.513 8.30017 11.4775 8.74563C11.4476 9.1197 11.513 9.61372 11.8599 9.83346C12.121 9.99888 12.5866 10.0505 12.837 9.85199C13.1386 9.61275 13.1966 9.14974 13.2235 8.7927C13.2441 8.51828 13.2394 8.24322 13.2581 7.96871C13.2681 7.82233 13.1859 7.40974 13.437 7.40545C13.6746 7.40142 13.5832 7.90438 13.5945 8.06219ZM13.0271 8.00459C13.0066 8.39729 13.0432 9.08183 12.8259 9.46345C12.8079 9.4443 12.7883 9.42451 12.7697 9.40133C12.6596 9.26429 12.5538 9.12393 12.4375 8.99147C12.258 8.78691 12.0632 8.59262 11.882 8.38901C11.9371 8.34317 11.9865 8.28596 12.0372 8.24032C12.2119 8.08309 12.3832 7.93406 12.5662 7.78609C12.6187 7.74367 12.6712 7.70096 12.7236 7.65847C12.8285 7.77055 12.9427 7.8811 13.0271 8.00459ZM12.8327 7.57009C12.9168 7.50196 13.0008 7.43392 13.0847 7.36547C13.0506 7.52812 13.0408 7.70837 13.0351 7.84142C12.9956 7.77686 12.9438 7.71692 12.9024 7.66163C12.8792 7.63068 12.8559 7.60048 12.8327 7.57009ZM12.1533 8.94498C12.3297 9.14262 12.5116 9.42279 12.7374 9.5845C12.6049 9.72645 12.4085 9.78646 12.1146 9.70113C11.6162 9.55639 11.6259 8.97606 11.6852 8.44111C11.6953 8.4549 11.7113 8.46377 11.7316 8.46354C11.7673 8.50317 11.8045 8.54204 11.8392 8.58424C11.9403 8.7072 12.0469 8.82582 12.1533 8.94498ZM12.7112 7.41562C12.6287 7.31404 12.5432 7.21561 12.4485 7.12076C12.1654 6.83702 11.8894 6.53735 11.6191 6.23726C11.7012 6.17602 11.7823 6.11318 11.8602 6.04616C12.0943 5.84475 12.3513 5.66977 12.6029 5.48836C12.7931 5.69327 12.9832 5.89825 13.1743 6.10239C13.3412 6.28081 13.5095 6.45797 13.6778 6.63519C13.632 6.67472 13.586 6.71412 13.5405 6.754C13.2789 6.98333 12.9927 7.19663 12.7112 7.41562ZM12.6355 5.24765C12.5143 5.11584 12.3936 4.98384 12.2733 4.85196C12.106 4.6685 11.9459 4.47483 11.771 4.29862C11.7305 4.25776 11.6863 4.22122 11.6409 4.18605C11.8533 4.24433 12.0654 4.30304 12.2748 4.36759C12.62 4.47402 12.9697 4.57485 13.3199 4.67142C13.0978 4.8532 12.8946 5.0548 12.6619 5.22795C12.653 5.23452 12.6443 5.24109 12.6355 5.24765ZM12.0488 4.89376C12.1945 5.04894 12.3392 5.20491 12.4841 5.36081C12.1679 5.59745 11.8576 5.83419 11.5511 6.08549C11.538 6.09621 11.5243 6.10629 11.5111 6.11692C11.4775 6.07938 11.4435 6.04177 11.4101 6.00432C11.1001 5.65739 10.784 5.31933 10.4845 4.9655C10.5051 4.94756 10.5255 4.92929 10.5464 4.91203C10.7101 4.77703 10.8694 4.63391 11.0242 4.48877C11.1318 4.38788 11.2191 4.27229 11.3139 4.16349C11.3935 4.23803 11.4888 4.2951 11.5731 4.37123C11.7431 4.52486 11.8912 4.7259 12.0488 4.89376ZM11.4876 6.33377C11.7188 6.57759 11.9535 6.81781 12.1761 7.06944C12.3104 7.22127 12.4586 7.3564 12.5914 7.50953C12.2973 7.74198 12.0133 7.98438 11.7727 8.26171C11.7608 8.24748 11.7481 8.23382 11.7364 8.21946C11.7298 8.2114 11.722 8.20636 11.7137 8.20285C11.7377 8.01106 11.7589 7.83589 11.7529 7.70314C11.743 7.48086 11.7835 7.27042 11.778 7.04906C11.7701 6.7331 11.5012 6.58455 11.2427 6.77767C11.0443 6.92589 11.0193 7.21516 10.9881 7.44075C10.9784 7.51031 10.9687 7.58052 10.959 7.65093C10.84 7.45222 10.6933 7.24692 10.5424 7.07386C10.6906 6.95502 10.8423 6.84804 10.9841 6.72179C11.1427 6.58065 11.3157 6.45823 11.4876 6.33377ZM11.3856 10.1645C11.4651 10.2636 11.5536 10.3462 11.6491 10.4122C11.6321 10.4262 11.615 10.4407 11.5967 10.4542C11.5352 10.4992 11.4696 10.5374 11.4061 10.5792C11.2932 10.4631 11.1806 10.3469 11.0688 10.2299C10.875 10.027 10.6592 9.81727 10.4659 9.59494C10.6164 9.45601 10.7733 9.31808 10.909 9.16384C10.9766 9.51728 11.1253 9.84 11.3856 10.1645ZM11.4187 10.8009C11.4654 10.8465 11.512 10.8922 11.5592 10.9371C11.5959 10.972 11.6313 11.0134 11.6678 11.0538C11.588 11.028 11.508 11.0019 11.4285 10.9762C11.3769 10.9596 11.324 10.9437 11.2703 10.9282C11.3202 10.8862 11.3691 10.8432 11.4187 10.8009ZM11.658 10.8384C11.6172 10.7963 11.5763 10.7543 11.5355 10.7124C11.5863 10.6778 11.6378 10.6445 11.685 10.6053C11.7244 10.5726 11.7568 10.532 11.7938 10.4967C12.0537 10.6234 12.3536 10.641 12.6627 10.5442C12.9426 10.4566 13.1379 10.2883 13.2837 10.0778C13.3237 10.1525 13.3849 10.2182 13.4391 10.2819C13.5942 10.4642 13.745 10.6488 13.8977 10.8327C13.7429 10.9432 13.5891 11.0558 13.4417 11.1733C13.306 11.2815 13.1253 11.371 13.0131 11.5069C12.8841 11.4597 12.7548 11.413 12.6248 11.3689C12.3881 11.2887 12.1497 11.2103 11.9112 11.1327C11.8463 11.0211 11.7477 10.9309 11.658 10.8384ZM13.352 9.96983C13.4642 9.77723 13.5439 9.55811 13.6125 9.33638C13.6179 9.31883 13.6229 9.29985 13.6281 9.28174C13.7353 9.19963 13.8403 9.11398 13.9439 9.02622C14.0997 9.21381 14.2771 9.39018 14.4265 9.56344C14.5709 9.73075 14.7196 9.89815 14.8751 10.0582C14.8704 10.0625 14.8655 10.0672 14.8609 10.0713C14.6201 10.283 14.378 10.4935 14.1156 10.6781C14.0933 10.6938 14.071 10.7097 14.0486 10.7254C13.8314 10.46 13.6076 10.1898 13.352 9.96983ZM13.7065 8.95496C13.7195 8.88781 13.7316 8.81964 13.7414 8.74979C13.7649 8.78801 13.7902 8.82562 13.8166 8.86275C13.7795 8.89294 13.7425 8.92346 13.7065 8.95496ZM13.7631 8.56558C13.7828 8.35198 13.7641 8.13705 13.7843 7.92827C13.8128 7.63325 13.9065 7.16094 13.5591 7.00225C13.5514 6.9987 13.5441 6.99607 13.5366 6.99305C13.5378 6.99197 13.5392 6.9909 13.5405 6.98983C13.6287 6.91604 13.716 6.84186 13.8028 6.76733C13.987 6.96109 14.1713 7.1548 14.3545 7.34957C14.5451 7.55221 14.7364 7.7543 14.925 7.95879C14.813 8.05244 14.6996 8.14456 14.5857 8.23916C14.3821 8.40822 14.1739 8.57042 13.9694 8.73835C13.9078 8.67324 13.8419 8.61313 13.7631 8.56558ZM13.4851 6.14436C13.2373 5.89409 12.9948 5.63642 12.7548 5.37686C12.8162 5.33103 12.8771 5.28464 12.9366 5.23667C13.0748 5.12537 13.2853 4.9566 13.4157 4.78185C13.713 5.13294 14.0967 5.45104 14.4131 5.76228C14.4534 5.80197 14.4931 5.8429 14.5327 5.88402C14.521 5.8953 14.5093 5.90667 14.4975 5.9176C14.2806 6.11884 14.055 6.31095 13.83 6.50377C13.7164 6.38259 13.6019 6.26232 13.4851 6.14436ZM14.4938 5.60271C14.2505 5.35915 14.0072 5.11444 13.7661 4.86847C13.737 4.83883 13.7063 4.80405 13.6741 4.76767C13.7701 4.79326 13.8661 4.81897 13.9618 4.84383C14.1894 4.9029 14.4175 4.95663 14.6446 5.0169C14.7857 5.05434 14.919 5.11344 15.0599 5.15036C15.1142 5.1646 15.179 5.16925 15.2426 5.1779C15.0323 5.34302 14.8432 5.56504 14.6542 5.76212C14.6002 5.70875 14.5466 5.6556 14.4938 5.60271ZM14.8219 3.93354C14.9268 4.1186 15.019 4.30804 15.0998 4.50139C15.0692 4.49232 15.0385 4.48367 15.0083 4.47457C14.7492 4.39616 14.4918 4.29946 14.2348 4.2115C14.1663 4.18803 14.0972 4.1656 14.0283 4.14285C14.0326 4.13895 14.0367 4.13518 14.0414 4.13092C14.1168 4.0622 14.2028 4.00925 14.2809 3.94417C14.3735 3.86691 14.4473 3.77761 14.5191 3.6866C14.6166 3.77544 14.7166 3.86057 14.8219 3.93354ZM12.4286 3.3095C12.573 3.18842 12.7171 3.06704 12.8572 2.94007C13.0065 2.80475 13.1535 2.69079 13.2955 2.55205C13.566 2.80654 13.838 3.06301 14.1152 3.30908C14.2172 3.39964 14.3186 3.49872 14.422 3.59643C14.3586 3.66027 14.2912 3.72258 14.2247 3.78047C14.1391 3.85498 14.0365 3.90546 13.9493 3.97811C13.9238 3.9994 13.8898 4.0258 13.8727 4.0557C13.8678 4.06425 13.8654 4.07611 13.8631 4.08814C13.5145 3.97512 13.1637 3.86661 12.8185 3.74612C12.7617 3.58099 12.5798 3.43549 12.4286 3.3095ZM12.628 3.68042C12.475 3.62708 12.3199 3.57913 12.164 3.5334C12.2098 3.49416 12.2556 3.45483 12.3017 3.41602C12.4085 3.50674 12.517 3.59526 12.628 3.68042ZM13.5242 2.27712C13.6059 2.34661 13.6861 2.4179 13.7619 2.49435C14.0275 2.76217 14.2256 3.07263 14.4524 3.37159C14.4654 3.38872 14.4776 3.40614 14.4903 3.42337C14.4027 3.34457 14.3138 3.26861 14.2315 3.19277C13.956 2.9388 13.6894 2.67778 13.4105 2.42762C13.4501 2.37811 13.4868 2.32721 13.5242 2.27712ZM13.0698 1.92163C13.1824 2.00498 13.2944 2.0892 13.4036 2.17667C13.3621 2.22007 13.3228 2.26698 13.2836 2.30985C13.0838 2.12197 12.8941 1.9215 12.6993 1.72878C12.6688 1.69861 12.639 1.66848 12.6093 1.63844C12.768 1.72351 12.9241 1.81388 13.0698 1.92163ZM12.4619 1.7266C12.6904 1.96227 12.9238 2.20011 13.1621 2.42593C13.0171 2.55546 12.8649 2.67135 12.7202 2.80306C12.5866 2.9247 12.4553 3.04614 12.3122 3.15675C12.3023 3.16439 12.2921 3.17184 12.2821 3.17935C12.026 2.92899 11.7587 2.69049 11.5075 2.43513C11.4228 2.34902 11.3365 2.26506 11.2495 2.18175C11.5487 1.94163 11.8449 1.68662 12.1169 1.41861C12.2261 1.53378 12.3738 1.63571 12.4619 1.7266ZM12.1467 3.28132C12.0764 3.33732 12.0128 3.39886 11.9705 3.47772C11.719 3.40679 11.4663 3.33927 11.217 3.26438C10.9671 3.18933 10.7141 3.12506 10.4627 3.0555C10.3834 3.03359 10.3041 3.0164 10.2281 2.99904C10.2779 2.95779 10.3263 2.91098 10.3813 2.86814C10.5967 2.70021 10.8078 2.52796 11.0231 2.36079C11.0539 2.33683 11.0848 2.31239 11.1157 2.2881C11.1791 2.34912 11.2421 2.41062 11.3039 2.47306C11.5769 2.7491 11.8553 3.02322 12.1467 3.28132ZM11.4004 1.10831C11.5993 1.18216 11.7997 1.24851 11.9946 1.33052C11.6898 1.55702 11.4041 1.80751 11.1106 2.04945C11.0087 1.95343 10.9062 1.85796 10.8039 1.76193C10.6556 1.62294 10.4937 1.43138 10.3201 1.28745C10.6328 1.06283 11.0455 0.976563 11.4004 1.10831ZM9.74138 2.46289C9.78864 2.17446 9.83278 1.8994 9.98676 1.64397C10.0384 1.55829 10.1017 1.48001 10.1733 1.41003C10.3019 1.57558 10.4863 1.70755 10.6372 1.84443C10.7511 1.94774 10.8651 2.05166 10.9777 2.15707C10.6536 2.41449 10.297 2.64635 10.0019 2.93637C9.81445 2.86758 9.69402 2.75193 9.74138 2.46289ZM9.64035 3.30222C9.64022 3.21491 9.64607 3.12704 9.65495 3.03912C9.76095 3.14216 9.94668 3.15877 10.0831 3.19859C10.331 3.27098 10.5799 3.33934 10.8296 3.40497C11.3555 3.54318 11.8861 3.69326 12.4049 3.85592C12.9227 4.01832 13.4431 4.17786 13.9586 4.34913C14.3543 4.48058 14.7816 4.55105 15.1749 4.69041C15.2187 4.807 15.2581 4.92503 15.2944 5.0441C15.2676 5.03373 15.24 5.02359 15.2129 5.01153C14.9433 4.89152 14.6874 4.81321 14.4066 4.73071C13.8556 4.56884 13.3027 4.41525 12.7492 4.26016C11.7142 3.97011 10.6578 3.67431 9.64825 3.31285C9.64549 3.31187 9.64315 3.31226 9.64048 3.31155C9.64048 3.30839 9.64035 3.30531 9.64035 3.30222ZM9.64406 3.54279C9.76715 3.61762 9.9331 3.64606 10.0602 3.6893C10.2721 3.76133 10.4824 3.83778 10.6945 3.90868C10.8724 3.96816 11.0529 4.02173 11.2343 4.07319C11.2414 4.0833 11.2492 4.0925 11.2569 4.10192C10.9354 4.29384 10.6583 4.57644 10.3749 4.81451C10.3722 4.81682 10.3689 4.81939 10.366 4.8217C10.3253 4.77213 10.2835 4.72359 10.2437 4.67318C10.111 4.50522 9.95513 4.35371 9.81234 4.19453C9.79787 4.17844 9.73218 4.07585 9.66499 4.0163C9.65599 3.8581 9.64809 3.69996 9.64406 3.54279ZM9.72096 4.88161C9.70777 4.67204 9.69242 4.45984 9.67861 4.24716C9.69038 4.26813 9.70107 4.28604 9.70952 4.29735C9.86526 4.50659 10.0403 4.70133 10.2001 4.90634C10.2072 4.91538 10.2146 4.92412 10.2217 4.93313C10.0691 5.04735 9.87839 5.18953 9.75552 5.33877C9.74261 5.18648 9.73062 5.03409 9.72096 4.88161ZM9.77749 5.58864C9.98251 5.44802 10.1635 5.26267 10.3486 5.08844C10.6098 5.39825 10.8976 5.68684 11.1676 5.98852C11.2375 6.06663 11.3088 6.14328 11.3803 6.2197C11.1187 6.42173 10.8448 6.61237 10.5857 6.81768C10.5328 6.85958 10.4807 6.90242 10.4286 6.94546C10.2346 6.72234 10.0564 6.47045 9.84705 6.26131C9.82225 6.03722 9.79862 5.81299 9.77749 5.58864ZM9.8818 6.57229C10.0072 6.74331 10.1452 6.90496 10.2907 7.05929C10.2201 7.11741 10.1492 7.17511 10.0766 7.23031C10.0322 7.26405 9.9958 7.28735 9.96664 7.31534C9.93898 7.06771 9.91012 6.82002 9.8818 6.57229ZM10.0442 8.0595C10.0281 7.88865 10.0103 7.71783 9.9918 7.54701C10.0234 7.54467 10.0534 7.52591 10.0652 7.48609C10.089 7.40639 10.2636 7.27562 10.3978 7.1793C10.5771 7.38932 10.7317 7.61755 10.9291 7.81596C10.9314 7.81824 10.9339 7.81911 10.9363 7.8209C10.9113 8.0108 10.8887 8.20161 10.8749 8.38936C10.8595 8.59721 10.8605 8.7912 10.8807 8.97593C10.6956 9.12539 10.5267 9.29741 10.3493 9.45539C10.2732 9.36018 10.2024 9.26257 10.1407 9.16202C10.1349 9.15257 10.1262 9.14574 10.1163 9.14148C10.0989 8.78028 10.0782 8.41946 10.0442 8.0595ZM10.1295 9.42643C10.1526 9.45438 10.1775 9.4825 10.202 9.51253C10.2145 9.52801 10.2277 9.54289 10.2405 9.5582C10.2069 9.59159 10.1738 9.62578 10.1402 9.66157C10.1367 9.58317 10.133 9.5048 10.1295 9.42643ZM10.1519 9.92129C10.2219 9.84698 10.2882 9.77034 10.3589 9.69782C10.5001 9.85908 10.6472 10.0142 10.7962 10.1691C10.9574 10.3367 11.1201 10.5042 11.2851 10.6689C11.2115 10.728 11.1396 10.7893 11.0664 10.8488C11.0596 10.8543 11.0531 10.8597 11.0467 10.8651C10.7635 10.786 10.4734 10.702 10.2332 10.5619C10.2184 10.5532 10.2022 10.5504 10.1861 10.5505C10.1724 10.3408 10.1617 10.1311 10.1519 9.92129ZM10.4882 12.835C10.4112 12.4474 10.3475 12.0578 10.2959 11.6666C10.3865 11.8235 10.5249 11.981 10.5919 12.0913C10.7833 12.4061 11.0297 12.686 11.2496 12.9808C11.251 12.9826 11.2524 12.9843 11.2537 12.9861C11.1526 13.0659 11.0517 13.1459 10.95 13.225C10.8478 13.3046 10.7151 13.3859 10.618 13.4873C10.5684 13.2696 10.5307 13.0488 10.4882 12.835ZM13.145 12.8296C13.2688 12.9563 13.4054 13.0786 13.5367 13.2042C13.3162 13.3748 13.0868 13.5347 12.8628 13.7008C12.697 13.8237 12.5309 13.9487 12.3642 14.0735C12.3034 13.9951 12.2432 13.9176 12.1869 13.8412C11.9965 13.5824 11.7868 13.3347 11.5756 13.0926C11.5577 13.072 11.5404 13.0508 11.5227 13.03C11.6202 12.9518 11.7174 12.8731 11.8115 12.7927C11.9647 12.6617 12.3675 12.4349 12.4665 12.218C12.5236 12.2339 12.5803 12.2507 12.6374 12.2664C12.6676 12.3357 12.7439 12.3907 12.7931 12.4444C12.9101 12.5722 13.0241 12.7059 13.145 12.8296ZM12.8333 12.3192C12.9549 12.352 13.0763 12.3857 13.198 12.4174C13.406 12.4717 13.6014 12.5402 13.8048 12.607C13.8922 12.6358 14.0261 12.6455 14.1435 12.6702C13.9624 12.7899 13.8051 12.9834 13.6408 13.1216C13.5465 13.0193 13.4586 12.909 13.3569 12.8156C13.2301 12.6991 13.1146 12.5736 12.9908 12.4538C12.9493 12.4137 12.8891 12.3675 12.8333 12.3192ZM11.9675 12.4268C11.8062 12.54 11.6597 12.6718 11.502 12.7925C11.4658 12.8201 11.4302 12.8485 11.3943 12.8765C11.0604 12.4662 10.7599 12.0235 10.4714 11.5801C10.5808 11.6226 10.6896 11.6577 10.7735 11.6911C11.1267 11.8318 11.5034 11.9416 11.8681 12.0485C12.0129 12.0909 12.1587 12.131 12.3041 12.172C12.1848 12.2439 12.0781 12.3491 11.9675 12.4268ZM11.3291 14.816C11.131 14.6934 11.0173 14.4974 10.9044 14.2945C10.8043 14.1147 10.7333 13.921 10.6773 13.7216C10.8146 13.5191 11.0881 13.3799 11.2706 13.2321C11.3063 13.2031 11.3424 13.1742 11.3785 13.1454C11.5934 13.4104 11.8296 13.6586 12.0389 13.9277C12.103 14.01 12.1668 14.0918 12.2309 14.1732C11.9339 14.3945 11.6342 14.6128 11.3291 14.816ZM12.2088 14.8045C12.0159 14.8704 11.7999 14.9364 11.5957 14.9117C11.7447 14.8012 11.8851 14.6577 12.0031 14.5602C12.1107 14.4713 12.2223 14.3871 12.335 14.3041C12.4249 14.4156 12.5164 14.5254 12.6121 14.632C12.4852 14.6982 12.3511 14.7558 12.2088 14.8045ZM13.5952 13.7812C13.3456 14.1119 13.0582 14.3745 12.718 14.5717C12.6445 14.4474 12.5571 14.326 12.4669 14.2071C12.6293 14.0898 12.793 13.9742 12.9519 13.8532C13.186 13.675 13.4266 13.5058 13.6535 13.3189C13.7062 13.3723 13.757 13.4267 13.8045 13.4827C13.7372 13.5846 13.668 13.6847 13.5952 13.7812ZM13.8642 13.3889C13.8367 13.3313 13.7963 13.2842 13.7522 13.2381C13.8931 13.1228 14.0575 12.9927 14.1772 12.8452C14.0801 13.0318 13.9757 13.2134 13.8642 13.3889ZM14.3138 12.5707C14.276 12.5534 14.2323 12.5437 14.1869 12.5268C13.9936 12.4549 13.8075 12.3683 13.6147 12.2972C13.1447 12.1238 12.641 12.0143 12.1596 11.8751C11.7035 11.7432 11.2302 11.6099 10.7925 11.4257C10.6305 11.3575 10.4294 11.2368 10.2397 11.2061C10.226 11.0745 10.2143 10.9428 10.204 10.811C10.3917 10.9453 10.7392 11.0062 10.9034 11.0584C10.9368 11.069 10.9699 11.0804 11.0032 11.0912C11.0073 11.0931 11.0115 11.0944 11.016 11.0954C11.4086 11.2236 11.7971 11.3652 12.1936 11.4802C12.9505 11.6997 13.7043 12.0564 14.4841 12.1839C14.4301 12.3141 14.3736 12.4433 14.3138 12.5707ZM14.5358 12.0552C14.3388 11.9269 14.0661 11.888 13.8476 11.8119C13.6331 11.7373 13.4201 11.6574 13.2068 11.5782C13.4823 11.3845 13.7506 11.1818 14.0191 10.9787C14.1811 11.1719 14.3448 11.3658 14.5037 11.5624C14.5541 11.6246 14.5943 11.699 14.6489 11.7562C14.6128 11.8563 14.5751 11.956 14.5358 12.0552ZM14.926 10.88C14.863 11.1099 14.7912 11.342 14.7122 11.5734C14.5972 11.3463 14.3546 11.0943 14.2472 10.9662C14.2202 10.9339 14.1932 10.9011 14.1661 10.8683C14.222 10.8263 14.2776 10.7841 14.3339 10.7425C14.5558 10.5778 14.7938 10.3924 15.0042 10.1867C15.0342 10.2159 15.0636 10.2456 15.0942 10.274C15.0375 10.4782 14.9807 10.6806 14.926 10.88ZM15.2408 9.73282C15.1666 9.78181 15.0963 9.8452 15.0293 9.91027C14.9092 9.7785 14.7692 9.65602 14.6806 9.54504C14.5304 9.35683 14.3633 9.17662 14.1995 8.99998C14.1662 8.96397 14.1344 8.92694 14.103 8.88995C14.3031 8.7164 14.5011 8.53993 14.7054 8.37548C14.8188 8.28418 14.9387 8.19166 15.0576 8.09545C15.2087 8.24393 15.3823 8.39785 15.5034 8.56132C15.4352 8.95425 15.3422 9.34607 15.2408 9.73282ZM15.5289 8.40588C15.4585 8.31037 15.3683 8.2218 15.3002 8.14037C15.2597 8.092 15.2178 8.04477 15.1768 7.99683C15.3346 7.86365 15.4859 7.72196 15.6127 7.56515C15.6024 7.84457 15.5726 8.12532 15.5289 8.40588ZM15.3013 7.62512C15.2196 7.70375 15.1358 7.7779 15.0514 7.85081C14.9331 7.71552 14.8136 7.58127 14.6926 7.44865C14.4458 7.17839 14.2015 6.90544 13.953 6.63659C14.1893 6.42995 14.4201 6.21925 14.6451 6.0026C14.9483 6.32746 15.2437 6.67319 15.6037 6.92683C15.6085 7.017 15.6123 7.10744 15.615 7.19816C15.6162 7.23918 15.6166 7.28027 15.6169 7.32136C15.4979 7.40034 15.3892 7.54064 15.3013 7.62512Z" stroke="#0083E6" stroke-width="2" mask="url(#path-6-inside-4_3233_12180)"/>
</svg>
