<svg viewBox="0 0 15 16" fill="none" xmlns="http://www.w3.org/2000/svg">
<path d="M11.9387 6.81602C12.0103 6.78022 12.064 6.70863 12.1535 6.69073C12.6367 6.61914 12.8694 6.17168 13.2631 5.93901C13.4375 5.80861 13.5836 5.64422 13.6927 5.45576C13.8359 5.24098 13.9075 5.20518 14.1401 5.34837L14.2833 5.41996C14.4444 5.49155 14.6055 5.49155 14.695 5.33047C14.7754 5.19428 14.7451 5.01986 14.6234 4.91881L14.2654 4.48925C14.0328 4.18498 13.9075 4.18498 13.7106 4.48925L13.6211 4.68613C13.5651 4.82901 13.4866 4.96196 13.3884 5.0799C13.254 5.20143 13.1034 5.30382 12.941 5.38416L12.8157 5.45576L12.7799 5.49155L12.6546 5.56314C12.1591 6.04412 11.633 6.49251 11.0796 6.90551C10.9364 7.0308 10.7753 6.76232 10.9364 6.65493C11.4912 6.27907 11.9387 5.79582 12.4398 5.34837L12.5651 5.29467C12.5651 5.29467 13.0663 5.0262 13.2094 4.91881C13.2675 4.86971 13.3214 4.81583 13.3705 4.75772C13.46 4.63244 13.5316 4.48925 13.6211 4.38186C13.7106 4.27447 13.8001 4.11339 13.6569 3.9881C13.5137 3.86282 13.4242 3.9881 13.3168 4.07759L12.4577 4.90091C12.4398 4.93671 12.3682 4.95461 12.3503 4.93671C12.3324 4.91881 12.2787 4.86511 12.2787 4.82932C12.2957 4.73892 12.3324 4.65337 12.3861 4.57874C12.4969 4.46588 12.5931 4.33961 12.6725 4.20288C12.7697 3.98145 12.9241 3.78992 13.12 3.64804C13.2989 3.50485 13.3347 3.34377 13.2273 3.20058C13.1 3.06486 12.89 3.0493 12.7441 3.16479C12.5797 3.29121 12.4503 3.45756 12.3682 3.64804C12.225 4.07759 11.8671 4.31027 11.5807 4.59664C11.9387 3.9881 12.3503 3.41536 12.7441 2.84262C12.7799 2.75313 12.8336 2.62784 12.7978 2.57414C12.727 2.48198 12.6253 2.41844 12.5114 2.39516C12.4398 2.39516 12.3503 2.48465 12.2966 2.55625L12.0819 2.82472C11.9387 3.0574 11.7776 3.27217 11.6165 3.50485C11.4554 3.73753 11.5628 3.63014 11.527 3.68383C11.4912 3.73753 11.4375 3.70173 11.3838 3.71963C11.3615 3.67539 11.3552 3.62481 11.3659 3.57644C11.4209 3.46289 11.4868 3.35498 11.5628 3.25427L12.2429 2.44886C12.3016 2.38258 12.3238 2.29166 12.3024 2.2058C12.2809 2.11993 12.2185 2.05017 12.1356 2.0193C11.9552 1.92797 11.7353 1.98106 11.6165 2.14459C11.4554 2.35936 11.348 2.60994 11.2048 2.84262C11.1201 3.02135 11.0245 3.19469 10.9185 3.36166H10.829C10.8111 3.29007 10.7574 3.18268 10.7753 3.12899C10.7932 3.07529 11.008 2.52045 11.1333 2.21618C11.2585 1.91191 11.3659 1.82242 11.4375 1.62554C11.5091 1.42866 11.4196 1.32127 11.1869 1.30337C10.9543 1.28547 10.65 1.50025 10.5963 1.91191C10.5535 2.14859 10.4937 2.38188 10.4173 2.60994C10.3994 2.68153 10.3278 2.71733 10.2741 2.80682C10.2204 2.89631 10.2204 2.71733 10.2204 2.69943C10.1637 2.18578 10.2836 1.66811 10.5605 1.23178C10.65 1.07069 10.6679 0.90961 10.5068 0.873814C10.3524 0.843822 10.1931 0.849948 10.0415 0.891712C9.88295 0.938965 9.77397 1.08428 9.77299 1.24967C9.79716 1.5245 9.78512 1.8013 9.73719 2.07299C9.68349 2.43096 9.36133 2.71733 9.45082 3.11109C9.45082 3.12899 9.41502 3.14688 9.41502 3.18268C9.41502 3.21848 9.28973 3.59434 9.20024 3.80912C9.15296 3.89659 9.09911 3.98036 9.03916 4.05969L8.96757 4.006C8.97952 3.82134 9.02185 3.63993 9.09285 3.46905C9.25394 3.27217 9.39712 3.12899 9.27184 2.86051C9.14655 2.59204 9.28973 2.77102 9.32553 2.71733C9.36133 2.66363 9.41502 2.18038 9.48661 1.91191C9.48538 1.87884 9.47273 1.84721 9.45082 1.82242C9.25394 1.58974 9.34343 1.35706 9.41502 1.12439C9.48662 0.89171 9.37923 0.80222 9.16445 0.748525C8.94967 0.694831 8.87808 0.80222 8.84228 0.963304C8.80648 1.12439 8.82438 1.37496 8.78858 1.58974C8.79111 1.76538 8.76697 1.94039 8.71699 2.10879C8.63689 2.36332 8.61849 2.63326 8.66329 2.89631C8.64157 3.14528 8.59358 3.39126 8.52011 3.63014C8.47788 3.6742 8.42003 3.69992 8.35903 3.70173C8.32323 3.70173 8.28743 3.59434 8.28743 3.54065C8.28743 3.05739 8.30533 2.55624 8.28743 2.07299C8.26954 1.58974 8.19794 1.60764 8.23374 1.39286C8.26953 1.17808 8.10845 0.873813 8.32323 0.641136C8.53801 0.40846 8.28743 0.444256 8.21584 0.426358C8.10081 0.342276 7.96425 0.292619 7.82208 0.283173C7.53571 0.283172 7.46412 0.426358 7.6073 0.676933C7.77812 0.957227 7.77812 1.30945 7.6073 1.58974C7.5769 1.67194 7.58342 1.76327 7.6252 1.84032C7.94737 2.44886 7.78628 3.05739 7.6431 3.71963C7.46412 3.57644 7.44622 3.37956 7.39252 3.20058C7.33883 3.0216 7.21354 2.77102 7.14195 2.53835C7.09555 2.42246 7.05961 2.30267 7.03456 2.18038C6.98086 1.94771 6.92717 1.69713 6.89137 1.46445C6.85558 1.23178 6.78398 0.981202 6.87347 0.80222C6.96297 0.623238 7.07035 0.444256 6.81978 0.193681C6.5692 -0.0568946 6.39022 -0.038996 6.15755 0.193681C5.92487 0.426357 6.05016 0.766423 6.19334 0.927507C6.28811 1.00892 6.34616 1.12501 6.35443 1.24967C6.37232 1.87611 6.5871 2.44885 6.73029 3.0395C6.78398 3.27217 6.80188 3.52275 6.83768 3.77332L6.71239 3.80912L6.42602 3.21848C6.33653 3.0216 6.26494 2.80682 6.17544 2.60994C6.08595 2.41306 6.05016 2.43095 6.06806 2.34146C6.06782 2.0315 5.98103 1.72776 5.81748 1.46445C5.73441 1.36168 5.72718 1.21703 5.79958 1.10649C5.83538 1.05279 5.81748 0.909607 5.78168 0.891709C5.74589 0.87381 5.6385 0.712727 5.69219 0.551643C5.74589 0.390558 5.6743 0.175781 5.47742 0.050493C5.31903 -0.0469795 5.11172 0.000860942 5.01206 0.157882C4.81146 0.398237 4.8191 0.749789 5.02996 0.9812C5.11945 1.07069 5.22684 1.19598 5.20894 1.30337C5.19104 2.07299 5.6564 2.68153 5.88907 3.37956C5.97857 3.64803 6.10385 3.91651 6.21124 4.18498C6.03054 4.23463 5.83703 4.19826 5.68669 4.08638C5.53635 3.9745 5.44594 3.79959 5.44162 3.61224C5.49635 3.31392 5.41788 3.00659 5.22684 2.77102C5.13393 2.58256 5.06191 2.3845 5.01206 2.18038C4.97627 2.09089 4.95837 1.9477 4.86888 1.87611C4.65048 1.63993 4.55164 1.31707 4.6004 0.999098C4.62496 0.773016 4.52141 0.552108 4.33193 0.426354C4.24897 0.347798 4.13814 0.305526 4.02394 0.308884C3.90974 0.312244 3.80159 0.360957 3.72339 0.444253C3.58021 0.587438 3.58021 0.748523 3.77709 0.963301C3.97397 1.17808 4.29614 1.87611 4.45722 2.37726C4.52616 2.6401 4.64131 2.88858 4.79729 3.11109C4.94047 3.29007 4.94047 3.50485 4.86888 3.77332L4.76149 3.61223C4.6362 3.37956 4.52881 3.14688 4.40353 2.9321L4.02766 2.26987V2.16248C4.08136 1.82241 3.95607 1.62553 3.616 1.57184C3.47854 1.55473 3.37303 1.44168 3.36543 1.30337C3.36495 1.19379 3.34682 1.08501 3.31174 0.981198C3.23203 0.773427 3.04807 0.62354 2.82848 0.587438C2.72144 0.590237 2.62197 0.643289 2.56001 0.730624C2.45301 1.02656 2.54662 1.35778 2.79269 1.55394C2.95377 1.66133 3.15065 1.73292 3.13275 1.9835C3.1471 2.01529 3.17256 2.04074 3.20435 2.05509C3.41912 2.07299 3.43702 2.23407 3.49072 2.39516C3.54866 2.52777 3.62066 2.65378 3.7055 2.77102C3.80127 2.9004 3.88514 3.03818 3.95607 3.18268C4.17334 3.77254 4.52225 4.30508 4.97627 4.73982C5.19412 4.93185 5.26601 5.24101 5.15525 5.50945L4.43932 4.84722C4.3979 4.8105 4.37225 4.7592 4.36773 4.70403C4.32172 4.51435 4.20691 4.34851 4.04556 4.23868C3.76329 4.05755 3.53464 3.80417 3.38333 3.50485C3.24014 3.16479 3.07906 2.82472 2.91798 2.48465C2.75689 2.14459 2.6674 2.10879 2.63161 1.91191C2.59581 1.71503 2.30944 1.39286 2.00517 1.32127C1.7009 1.24968 1.41453 1.44656 1.52192 1.82242C1.56906 1.93431 1.65054 2.02833 1.75459 2.09089C2.03253 2.27791 2.24525 2.54694 2.36313 2.86052C2.5038 3.25411 2.7162 3.61822 2.98957 3.93441C3.14803 4.09291 3.29741 4.26023 3.43703 4.43556C3.73588 4.74884 4.01107 5.08386 4.26034 5.43786C4.44884 5.75148 4.72173 6.00577 5.04786 6.17168C5.10156 6.18958 5.15525 6.26118 5.22684 6.29697L5.19105 6.36856C5.10563 6.36108 5.02146 6.34305 4.94047 6.31487C4.77939 6.24328 4.61831 6.13589 4.45722 6.0464C4.29614 5.9569 3.93817 5.79582 3.7055 5.65264C3.47282 5.50945 3.29384 5.27677 3.06116 5.11569C2.77511 4.93627 2.55039 4.67409 2.41683 4.36397C2.36629 4.26447 2.29264 4.17855 2.20205 4.11339C1.85336 3.82307 1.6084 3.42736 1.50402 2.9858C1.43243 2.77102 1.36083 2.60994 1.14605 2.57414C0.941893 2.50296 0.715293 2.57606 0.591211 2.75313C0.491185 2.93905 0.498008 3.16424 0.609109 3.34377C0.6986 3.50485 0.752295 3.64804 0.841786 3.80912C0.872779 3.88101 0.915076 3.94748 0.967073 4.006C1.27134 4.36396 1.59351 4.70403 1.89778 5.0441L2.11256 5.24098C2.52422 5.54525 2.95377 5.83162 3.34753 6.13589C3.59714 6.33244 3.89289 6.46183 4.20665 6.51175C4.3448 6.54673 4.47735 6.60096 4.60041 6.67283C4.77901 6.75985 4.96461 6.8317 5.15525 6.88761C5.49532 6.9592 5.6206 7.0487 5.72799 7.42456C5.24474 7.31717 4.74359 7.49615 4.29614 7.24557L3.81289 7.06659L2.7032 6.78022L2.54211 6.70863C2.26689 6.54415 1.97971 6.40056 1.683 6.27907C1.39598 6.22282 1.18286 5.9803 1.16395 5.68843C1.08334 5.32213 0.727661 5.08501 0.358532 5.15148C0.221431 5.18751 0.105031 5.27805 0.0363647 5.40206C-0.0423735 5.57242 0.0100612 5.77467 0.161652 5.88531C0.519616 6.15378 0.984969 6.26117 1.21765 6.67283C1.23554 6.70863 1.28924 6.70863 1.32504 6.72653L2.21995 7.17398C2.37242 7.26357 2.53453 7.33562 2.7032 7.38876L4.99417 7.85411C5.33722 7.91061 5.68613 7.92264 6.03227 7.88991C6.33653 7.85411 6.53341 8.0152 6.74819 8.12259L6.39023 8.51635C6.24537 8.67855 6.07633 8.81741 5.88908 8.92801C5.42555 9.09568 4.95359 9.23906 4.47512 9.35756C4.23364 9.41764 3.97845 9.38574 3.75919 9.26807L2.6853 8.87431C2.57196 8.85535 2.47897 8.77415 2.4449 8.6644C2.41084 8.55464 2.44152 8.43506 2.52422 8.35526L2.75689 8.08679C2.80551 8.02881 2.82739 7.953 2.81717 7.87803C2.80695 7.80306 2.76556 7.73588 2.7032 7.69303C2.35874 7.51661 1.9399 7.5816 1.6651 7.85412C1.62931 7.90781 1.57561 7.9615 1.59351 8.0152C1.59351 8.35527 1.6293 8.69533 1.87988 8.92801C2.13045 9.16068 2.59581 9.41126 2.95377 9.64394C3.26709 9.86235 3.64719 9.96372 4.02766 9.93031C4.33193 9.89451 4.6362 9.91241 4.92257 9.89451C5.00282 9.89248 5.07941 9.86056 5.13735 9.80502C5.24474 9.76922 5.31633 9.66183 5.40583 9.64394C5.97627 9.52438 6.49542 9.2304 6.89138 8.80272C7.21354 8.42686 7.58941 8.37316 7.98317 8.62374C7.95769 8.75385 7.93976 8.88532 7.92947 9.0175C7.92947 9.25018 7.94737 9.48285 7.94737 9.71553C7.94737 9.94821 7.87578 9.9661 7.661 9.89451C7.44622 9.82292 7.41042 9.80502 7.32093 9.85872C7.10779 9.99385 6.82833 9.95608 6.6587 9.76922C6.55806 9.65406 6.38469 9.6383 6.26494 9.73343C6.1152 9.84602 6.03498 10.0285 6.05326 10.215C6.07154 10.4014 6.18568 10.5649 6.35443 10.6462C6.69507 10.8089 7.08363 10.8408 7.44622 10.7357C7.60396 10.6931 7.76615 10.6691 7.92947 10.6641C8.12635 10.6462 8.21584 10.7536 8.21584 10.9684C8.21584 11.1832 8.25164 11.917 8.21584 12.3824C8.18005 12.8477 8.41272 13.0804 8.25164 13.4921C8.09055 13.9037 8.09055 14.7807 8.09055 15.443C8.09015 15.6946 8.25912 15.915 8.50221 15.9799C8.84228 16.0515 9.25394 15.9262 9.30763 15.6935C9.36133 15.4609 9.21814 15.4788 9.14655 15.4609C9.02278 15.4363 8.89686 15.4243 8.77069 15.4251C8.19794 15.085 8.55591 14.4586 8.52011 13.9395C8.48431 13.4205 8.91387 13.6889 8.93177 13.9395C8.94967 14.1901 8.6454 14.8881 8.96757 15.085C9.09885 15.1779 9.2364 15.2616 9.37923 15.3356C9.47879 15.363 9.58393 15.363 9.68349 15.3356C9.89827 15.2819 9.96987 15.0313 9.86248 14.7986C9.75509 14.5659 9.6119 14.6375 9.41502 14.727L9.23604 14.8165C9.24102 14.6543 9.25898 14.4927 9.28973 14.3333C9.43461 13.932 9.50144 13.5067 9.48662 13.0804C9.46872 12.8119 9.45082 12.5434 9.45082 12.2929V10.9505C9.46326 10.8541 9.48119 10.7585 9.50451 10.6641C9.6298 10.7894 9.6835 10.8789 9.77299 10.9505C9.83921 11.0127 9.92757 11.0458 10.0183 11.0424C10.1091 11.0391 10.1948 10.9995 10.2562 10.9326C10.3144 10.8811 10.3492 10.8082 10.3526 10.7306C10.3559 10.653 10.3276 10.5773 10.2741 10.5209C10.0702 10.34 9.83317 10.2002 9.57611 10.1093C9.43292 10.0377 9.32553 9.984 9.32553 9.82292C9.32553 9.66183 9.28973 9.03539 9.28973 8.67743L9.73719 8.80272C9.93407 8.83851 10.0415 8.91011 10.0236 9.12489C9.98463 9.3104 10.0719 9.4995 10.2383 9.59024C10.4079 9.69742 10.5878 9.78736 10.7753 9.85871C10.9837 9.92725 11.2077 9.93347 11.4196 9.87661C11.7903 9.72516 12.0818 9.42718 12.225 9.05329C12.3503 8.65953 12.4398 8.24787 12.5293 7.85411C12.5354 7.79157 12.5082 7.73043 12.4577 7.69303C12.3396 7.64191 12.2048 7.64645 12.0904 7.70539C11.976 7.76432 11.894 7.87145 11.8671 7.9973C11.8134 8.28367 11.7418 8.57004 11.6702 8.83851C11.6515 8.98966 11.5178 9.09975 11.3659 9.08909C11.2314 9.1115 11.1066 9.17386 11.008 9.26807C10.9006 9.37546 10.829 9.35756 10.7932 9.25017C10.7638 9.16387 10.7517 9.07267 10.7574 8.9817C10.7753 8.76692 10.7753 8.57004 10.5068 8.51635C10.2934 8.4517 10.0842 8.37399 9.88038 8.28367C10.1197 8.05411 10.4165 7.89334 10.7395 7.81832L11.9924 7.63933C12.2822 7.59154 12.5648 7.50735 12.8336 7.38876C13.4063 7.08449 13.9791 6.74442 14.5518 6.42226C14.6115 6.39172 14.6564 6.33856 14.6766 6.27466C14.6967 6.21076 14.6905 6.14144 14.6592 6.08219C14.5876 5.9569 14.337 5.88531 14.2654 5.9927C14.0763 6.20487 13.836 6.36507 13.5674 6.45805C13.3347 6.54754 13.1379 6.70863 12.9052 6.79812C12.5736 6.93551 12.2327 7.04915 11.885 7.13818L11.2048 7.29927V7.20978L11.4554 7.08449L11.9387 6.81602ZM11.7239 5.61684C11.5628 5.81372 11.3122 5.93901 11.1333 6.13589C10.9543 6.33277 10.8111 6.06429 10.9364 5.92111C11.0617 5.77793 11.348 5.61684 11.5091 5.40206C11.6702 5.18728 11.8313 5.45576 11.7239 5.61684L11.7239 5.61684ZM10.3815 3.84492C10.5068 3.71963 10.7216 3.93441 10.5784 4.0597C10.5024 4.12929 10.4183 4.1894 10.3278 4.23868C10.2741 4.29237 10.1667 4.36396 10.1667 4.41766C10.1667 4.49674 10.1026 4.56085 10.0236 4.56085C9.94448 4.56085 9.88038 4.49674 9.88038 4.41766C9.88038 4.13129 10.2025 4.006 10.3815 3.84492H10.3815ZM9.41502 4.0597C9.54031 3.82702 9.6477 3.55855 9.77299 3.32587C9.81253 3.25668 9.90067 3.23264 9.96987 3.27218C10.0391 3.31171 10.0631 3.39986 10.0236 3.46906C9.89828 3.71963 9.79089 3.97021 9.6656 4.20288C9.62606 4.27208 9.53791 4.29612 9.46872 4.25658C9.39952 4.21704 9.37548 4.12889 9.41502 4.0597ZM10.3994 6.63704C10.365 6.69832 10.3408 6.76482 10.3278 6.83392C10.2705 7.06435 10.0641 7.22651 9.82668 7.22768C9.5396 7.25782 9.30283 7.4659 9.23604 7.74673C9.20024 7.92571 9.11075 7.9615 8.98547 7.94361L8.43062 7.83622C8.21733 7.8005 7.99958 7.8005 7.78629 7.83622C7.48202 7.9615 7.32093 7.78252 7.17775 7.60354C7.03043 7.40504 6.81266 7.27053 6.56921 7.22768C6.35772 7.17975 6.20405 6.99681 6.19335 6.78022C6.18328 6.59453 6.06364 6.43266 5.88908 6.36856C5.82126 6.3237 5.77571 6.25212 5.76379 6.17168C5.73894 6.07226 5.73287 5.96907 5.74589 5.86741C5.72001 5.56312 5.83946 5.26449 6.06806 5.062C6.13766 4.98603 6.19776 4.90189 6.24704 4.81142C6.32697 4.62122 6.52658 4.51033 6.73029 4.54295C6.80684 4.53789 6.8808 4.51323 6.94507 4.47135C7.08826 4.39976 8.18005 4.22078 8.30534 4.29237C8.80649 4.50715 9.32553 4.66823 9.6298 5.18728C9.8097 5.41185 10.0138 5.61593 10.2383 5.79582C10.4905 5.99909 10.5587 6.35497 10.3994 6.63704L10.3994 6.63704ZM10.3636 4.77562L10.5426 4.50715C10.6126 4.43338 10.6783 4.3557 10.7395 4.27447C10.779 4.20528 10.8672 4.18124 10.9364 4.22078C11.0056 4.26032 11.0296 4.34847 10.9901 4.41766C10.9223 4.51519 10.8443 4.6052 10.7574 4.68613C10.6858 4.77562 10.6321 4.90091 10.5605 4.9904C10.4889 5.07989 10.2383 4.91881 10.3636 4.77562ZM10.7574 5.34837C10.9686 5.16046 11.1444 4.93616 11.2764 4.68613C11.316 4.61694 11.4041 4.5929 11.4733 4.63244C11.5425 4.67198 11.5666 4.76013 11.527 4.82932C11.3795 5.13019 11.1652 5.39342 10.9006 5.59894C10.7395 5.70633 10.5963 5.45576 10.7574 5.34837Z" fill="#0083E6"/>
<path d="M8.14285 7.10237H8.93037C9.01986 7.10237 9.16305 7.15606 9.18095 7.20976C9.19885 7.26345 9.18095 7.51403 9.10936 7.56772C8.97021 7.65497 8.80815 7.6986 8.644 7.69301C8.44712 7.69301 8.25024 7.62142 8.05336 7.62142C7.85648 7.62142 7.78489 7.47823 7.76699 7.28135C7.74909 7.08447 7.91018 7.04867 8.07126 7.06657H8.14285V7.10237Z" fill="#0083E6"/>
<path d="M7.69777 5.93896C7.96625 5.93896 8.19893 6.10005 8.19893 6.29693C8.19968 6.53072 8.02031 6.72568 7.78727 6.74438C7.4651 6.74438 7.23242 6.5654 7.23242 6.29693C7.23242 6.02846 7.33981 5.93896 7.69777 5.93896Z" fill="#0083E6"/>
<path d="M9.21895 6.1001C9.38004 6.1001 9.45163 6.18959 9.43373 6.33277C9.43865 6.42603 9.405 6.51719 9.34068 6.58489C9.27637 6.65259 9.18704 6.69087 9.09366 6.69074C9.02279 6.70207 8.95065 6.68005 8.89818 6.63108C8.8457 6.5821 8.81877 6.51165 8.82519 6.44017C8.80729 6.27908 9.03997 6.1001 9.21895 6.1001Z" fill="#0083E6"/>
</svg>
