<svg viewBox="0 0 16 13" fill="none" xmlns="http://www.w3.org/2000/svg">
<path d="M3.76471 2.68037C3.76471 2.38089 3.65929 2.12633 3.44847 1.91669C3.23765 1.70705 2.98667 1.60722 2.69553 1.61721C2.40439 1.62719 2.14839 1.72702 1.92753 1.91669C1.70667 2.10636 1.60126 2.36092 1.61129 2.68037C1.62133 2.99982 1.72675 3.24939 1.92753 3.42908C2.12831 3.60877 2.38431 3.71359 2.69553 3.74353C3.00675 3.77348 3.25773 3.66866 3.44847 3.42908C3.63922 3.18949 3.74463 2.93992 3.76471 2.68037ZM12.7247 7.48707C12.7247 7.78655 12.6243 8.04111 12.4235 8.25075L8.29741 12.3537C8.07655 12.5633 7.82055 12.6681 7.52941 12.6681C7.22824 12.6681 6.97725 12.5633 6.77647 12.3537L0.768 6.37898C0.557177 6.16935 0.376471 5.88484 0.225882 5.52546C0.0752941 5.16608 0 4.84164 0 4.55214V1.07814C0 0.788638 0.105412 0.539069 0.316235 0.329431C0.527059 0.119793 0.778039 0.00998276 1.06918 0H4.57788C4.86902 0 5.19529 0.0748707 5.55671 0.224612C5.91812 0.374353 6.20424 0.554043 6.41506 0.763681L12.4235 6.73836C12.6243 6.948 12.7247 7.19757 12.7247 7.48707ZM15.9624 7.48707C15.9624 7.78655 15.8569 8.04111 15.6461 8.25075L11.52 12.3537C11.2991 12.5633 11.0431 12.6681 10.752 12.6681C10.5512 12.6681 10.3856 12.6282 10.2551 12.5483C10.1245 12.4685 9.97898 12.3437 9.81835 12.174L13.7638 8.25075C13.9746 8.04111 14.08 7.78655 14.08 7.48707C14.08 7.19757 13.9746 6.948 13.7638 6.73836L7.75529 0.763681C7.54447 0.554043 7.25835 0.374353 6.89694 0.224612C6.53553 0.0748707 6.20926 0 5.91812 0H7.80047C8.09161 0 8.41788 0.0748707 8.77929 0.224612C9.14071 0.374353 9.42682 0.554043 9.63765 0.763681L15.6461 6.73836C15.8569 6.948 15.9624 7.19757 15.9624 7.48707Z" fill="none"/>
</svg>
