<svg viewBox="0 0 12 16" fill="none" xmlns="http://www.w3.org/2000/svg">
<path d="M7.86818 1.488C7.86818 2.288 7.19502 2.96 6.37761 2.96C5.5602 2.96 4.90307 2.288 4.90307 1.488C4.90307 0.688 5.64034 0 6.44172 0C7.2431 0 7.86818 0.672 7.86818 1.488ZM4.51841 11.36L4.27799 12.224C4.08566 12.544 3.65291 13.216 2.78742 14.576C2.29057 15.376 1.74563 15.808 1.37699 15.632C1.12055 15.504 1.31288 15.008 1.61741 14.272C2.11426 13.344 2.73934 11.744 2.73934 11.744L2.97975 9.888C3.22017 10.56 4.51841 11.36 4.51841 11.36ZM10.7692 5.44C10.7692 7.344 10.7692 11.056 10.7692 15.568C10.7692 15.632 10.7692 15.872 10.5929 15.936C10.5288 16 10.4005 16 10.2242 16C10.0319 16 9.9678 16 9.85561 15.936C9.72739 15.872 9.72739 15.696 9.66328 15.696V6.112C9.16642 6.416 8.60545 6.736 8.60545 6.736C8.36504 6.864 8.1086 6.736 7.86818 6.608L6.50583 5.552L5.70445 8.704L7.67585 10.688C7.9964 10.992 7.93229 11.424 7.86818 11.792C7.80407 12.176 7.2431 14.896 7.2431 14.896C7.19502 15.072 7.00269 15.936 6.63405 15.936C6.20131 15.872 6.1372 15.504 6.20131 14.832L6.50583 12.048L3.90936 9.888C3.22017 9.264 3.22017 8.704 3.4125 7.904L4.40621 4.016C4.47032 3.648 4.71074 3.392 4.96718 3.456L6.50583 3.888C6.56994 3.888 6.63405 3.952 6.69817 4.016L8.60545 5.44L9.72739 4.88V3.888C9.72739 3.824 9.72739 3.76 9.85561 3.712C9.90369 3.648 10.0319 3.584 10.0319 3.584H10.4647C10.5288 3.584 10.657 3.584 10.7211 3.648C10.8333 3.76 10.7692 3.888 10.7692 3.952C10.7692 4.016 10.7692 4.192 10.7692 4.448C10.9615 4.448 11.0897 4.512 11.2019 4.688C11.3302 4.944 11.0897 5.184 10.7692 5.44ZM3.65291 3.952C3.65291 3.952 2.73934 6.8 2.61112 7.232C2.4829 7.664 1.98604 7.968 1.31288 7.776C0.623692 7.6 -0.113579 7.296 0.0146418 6.48C0.126835 5.616 0.944245 4.448 1.68152 3.712C2.41879 2.96 4.03758 2.72 3.65291 3.952Z" fill="none"/>
</svg>
