<svg viewBox="0 0 18 17" fill="none" xmlns="http://www.w3.org/2000/svg">
<path d="M5.22204 15.8366C4.94747 16.1409 4.78596 16.1569 4.59215 15.8687L4.34988 16.0448C4.10761 16.1569 4.05916 16.1409 4.05916 15.8526L3.36467 15.9808L3.41312 15.6284L2.41175 15.9648L2.37945 15.9007L2.50866 15.6284L1.73341 15.7726V15.7405L2.07258 15.4362L2.04028 15.4042C1.68496 15.4362 1.36194 15.7085 0.958161 15.5003C1.15197 15.4523 1.34579 15.4523 1.45884 15.2601C0.780501 15.1319 0.7805 15.1319 0.683594 14.9237C1.11967 14.9558 1.5396 15.0038 1.92722 14.7316L1.83032 14.5554C3.99456 14.155 5.98114 13.4183 7.38628 11.6085L7.35397 11.5605C6.97955 11.4361 6.66002 11.1871 6.44952 10.8558C6.39485 10.7837 6.31636 10.733 6.22778 10.7125C6.1392 10.692 6.04618 10.703 5.96498 10.7437C5.96825 10.6946 5.98233 10.6469 6.00623 10.6038C6.03013 10.5607 6.06326 10.5233 6.1033 10.4943C6.14334 10.4653 6.1893 10.4454 6.23796 10.4359C6.28661 10.4264 6.33678 10.4276 6.38491 10.4394C6.46499 10.446 6.54554 10.435 6.62089 10.4073C6.69624 10.3797 6.76455 10.3359 6.82099 10.2792C6.94222 10.1699 7.08568 10.0876 7.2417 10.0379C7.39772 9.98812 7.56267 9.97213 7.72545 9.99096C8.04206 10.0229 8.36011 10.039 8.67836 10.039C8.87372 10.0234 9.06493 9.97464 9.24365 9.89487C9.9809 9.53393 10.5895 8.95842 10.988 8.24527C11.9409 6.65973 12.3123 4.94607 12.3123 3.1203C12.3123 2.20741 12.1831 1.63085 11.7309 0.41367C11.9085 0.434925 12.0801 0.49122 12.2354 0.579238C12.3907 0.667256 12.5267 0.785216 12.6354 0.926167C12.9745 1.39062 13.0553 1.91913 13.0876 2.46366C13.0882 2.68871 13.1044 2.91346 13.136 3.13631C13.1843 3.08153 13.2276 3.02257 13.2653 2.96014C13.7159 2.20242 13.8493 1.29977 13.6367 0.445701C13.6309 0.439201 13.6264 0.431589 13.6237 0.423328C13.6209 0.415067 13.6198 0.406331 13.6206 0.397655V0.333593C14.3635 0.99023 14.2343 1.80702 14.0567 2.62381C14.6058 2.36757 14.9611 1.45468 15.0419 0.109375C15.268 0.301561 15.4133 0.942183 15.381 1.48671C15.3312 1.97487 15.1711 2.44563 14.9127 2.86405C15.2963 2.63076 15.6088 2.29866 15.8171 1.90311C16.0594 1.51874 16.2693 1.13437 16.4955 0.717965C16.5155 1.08461 16.4773 1.45211 16.3824 1.80702C16.2812 2.15699 16.111 2.4836 15.8817 2.76795C16.3663 2.46366 16.7054 2.03124 17.0284 1.53476C17.1013 1.9665 17.0153 2.40983 16.7862 2.78397C16.5601 3.15233 16.2693 3.47264 16.0109 3.82498L16.8508 3.36053C16.8598 3.54002 16.8024 3.71659 16.6893 3.85701L16.3824 4.32146L16.8992 4.35349C16.8992 4.89802 16.3986 5.07419 16.124 5.44255C16.2164 5.44333 16.3085 5.45407 16.3986 5.47458C16.4793 5.50661 16.5924 5.57067 16.6085 5.63473C16.6185 5.68073 16.6164 5.72851 16.6022 5.77342C16.5881 5.81832 16.5624 5.85883 16.5278 5.89098C16.3501 6.03512 16.1401 6.16325 15.9463 6.30739L15.7848 6.40348C16.1078 6.73981 16.1078 6.8359 15.6879 7.17223C15.914 7.44449 15.914 7.49254 15.6556 7.89292C15.8333 8.08511 15.7687 8.26128 15.6233 8.45347C15.4784 8.67953 15.3489 8.91495 15.2357 9.15815C15.1039 9.49 14.9184 9.79834 14.6865 10.071C14.6542 10.1191 14.6704 10.1992 14.6542 10.2632H14.8319L15.9302 9.73471L16.3501 9.55854C16.5601 9.49448 16.6247 9.55854 16.5924 9.76674C16.5791 9.8081 16.5736 9.85154 16.5762 9.89487C16.9477 10.007 16.9477 10.023 16.8669 10.4554C17.4807 10.7917 17.4807 10.7917 17.3353 11.032C17.4484 11.1921 17.5937 11.3202 17.6099 11.4644C17.626 11.6085 17.4807 11.7527 17.4161 11.8648C17.3515 11.9769 17.6099 12.057 17.6099 12.1691C17.6099 12.2812 17.4322 12.4734 17.2384 12.5534C17.3061 12.6153 17.3658 12.6852 17.4161 12.7616C17.4396 12.8126 17.4559 12.8665 17.4645 12.9218L17.2869 12.9538H17.19V13.0179C17.2208 13.1061 17.2586 13.1918 17.303 13.2741C17.1997 13.3159 17.0909 13.3428 16.98 13.3542L16.5116 13.3062C16.77 13.9468 16.77 13.9628 16.1724 13.9308C16.1078 14.3472 16.0271 14.3792 15.4295 14.203C15.2518 14.5073 15.1711 14.5394 14.8319 14.4273C14.6918 14.3962 14.5561 14.3478 14.4281 14.2831C14.1859 14.5073 14.0567 14.5234 13.7659 14.3632C13.6546 14.3146 13.5512 14.2498 13.4591 14.171L13.1845 13.9308C13.197 13.9832 13.2024 14.0371 13.2007 14.0909C13.2106 14.1543 13.1962 14.2191 13.1603 14.2725C13.1244 14.3259 13.0697 14.3639 13.0068 14.3792C12.9772 14.3924 12.9452 14.3994 12.9128 14.4001C12.8803 14.4007 12.8481 14.3949 12.818 14.383C12.7879 14.371 12.7604 14.3532 12.7374 14.3305C12.7144 14.3079 12.6961 14.2809 12.6838 14.2511C12.5385 13.9308 12.3931 13.6105 12.2639 13.2741C12.2497 13.2306 12.2215 13.1928 12.1835 13.1668C12.1456 13.1407 12.1 13.1278 12.0539 13.13C11.9552 13.1293 11.8575 13.1505 11.7681 13.1921C11.6786 13.2336 11.5997 13.2945 11.5371 13.3702C11.3732 13.5161 11.1946 13.6449 11.0041 13.7546L10.7295 13.9788C10.3096 14.2511 9.85739 14.4593 9.51821 14.8116C9.31067 15.015 9.03445 15.1348 8.74296 15.148C8.57735 15.1736 8.41493 15.2165 8.25843 15.2761L8.00002 15.3401H7.90311C7.7093 15.5163 7.48318 15.4362 7.27322 15.4202C7.1954 15.4319 7.1194 15.4534 7.0471 15.4843C6.65948 15.5964 6.30416 15.8046 5.90038 15.7405H5.75502C5.60966 15.9327 5.44815 15.8847 5.27049 15.8366H5.22204Z" fill="#0083E6"/>
</svg>
